<svg width="24" height="24" viewBox="0 0 24 24" fill="none" xmlns="http://www.w3.org/2000/svg">
<g id="icon/two-tone/application/account-book">
<path id="Vector" d="M16.6875 7.125C16.6875 7.22812 16.6031 7.3125 16.5 7.3125H15.1875C15.0844 7.3125 15 7.22812 15 7.125V6H9V7.125C9 7.22812 8.91563 7.3125 8.8125 7.3125H7.5C7.39687 7.3125 7.3125 7.22812 7.3125 7.125V6H4.3125V19.6875H19.6875V6H16.6875V7.125ZM15.15 9.97969L13.057 13.8258H14.2078C14.3109 13.8258 14.3953 13.9102 14.3953 14.0133V14.5125C14.3953 14.6156 14.3109 14.7 14.2078 14.7H12.675V15.4898H14.2078C14.3109 15.4898 14.3953 15.5742 14.3953 15.6773V16.1766C14.3953 16.2797 14.3109 16.3641 14.2078 16.3641H12.675V17.625C12.675 17.7281 12.5906 17.8125 12.4875 17.8125H11.5195C11.4164 17.8125 11.332 17.7281 11.332 17.625V16.3641H9.80625C9.70312 16.3641 9.61875 16.2797 9.61875 16.1766V15.6773C9.61875 15.5742 9.70312 15.4898 9.80625 15.4898H11.332V14.7H9.80625C9.70312 14.7 9.61875 14.6156 9.61875 14.5125V14.0133C9.61875 13.9102 9.70312 13.8258 9.80625 13.8258H10.9453L8.85234 9.98203C8.80313 9.89062 8.83594 9.77578 8.92734 9.72656C8.95312 9.71016 8.98594 9.70312 9.01641 9.70312H10.0945C10.1291 9.70332 10.1629 9.71305 10.1923 9.73125C10.2216 9.74944 10.2454 9.7754 10.2609 9.80625L11.9813 13.2141H12.0469L13.7672 9.80625C13.7977 9.74297 13.8633 9.70312 13.9336 9.70312H14.9883C15.0938 9.70312 15.1758 9.7875 15.1734 9.89062C15.1734 9.92109 15.1641 9.95156 15.15 9.97969Z" fill="#D4E9F6"/>
<path id="Vector_2" d="M14.9878 9.70312H13.9332C13.8628 9.70312 13.7972 9.74297 13.7667 9.80625L12.0464 13.2141H11.9808L10.2605 9.80625C10.245 9.7754 10.2212 9.74944 10.1918 9.73125C10.1625 9.71305 10.1287 9.70332 10.0941 9.70312H9.01599C8.98552 9.70312 8.95271 9.71016 8.92693 9.72656C8.83552 9.77578 8.80271 9.89062 8.85193 9.98203L10.9449 13.8258H9.80583C9.7027 13.8258 9.61833 13.9102 9.61833 14.0133V14.5125C9.61833 14.6156 9.7027 14.7 9.80583 14.7H11.3316V15.4898H9.80583C9.7027 15.4898 9.61833 15.5742 9.61833 15.6773V16.1766C9.61833 16.2797 9.7027 16.3641 9.80583 16.3641H11.3316V17.625C11.3316 17.7281 11.416 17.8125 11.5191 17.8125H12.4871C12.5902 17.8125 12.6746 17.7281 12.6746 17.625V16.3641H14.2074C14.3105 16.3641 14.3949 16.2797 14.3949 16.1766V15.6773C14.3949 15.5742 14.3105 15.4898 14.2074 15.4898H12.6746V14.7H14.2074C14.3105 14.7 14.3949 14.6156 14.3949 14.5125V14.0133C14.3949 13.9102 14.3105 13.8258 14.2074 13.8258H13.0566L15.1496 9.97969C15.1636 9.95156 15.173 9.92109 15.173 9.89062C15.1753 9.7875 15.0933 9.70312 14.9878 9.70312Z" fill="#4293CF"/>
<path id="Vector_3" d="M20.625 4.3125H16.6875V2.8125C16.6875 2.70937 16.6031 2.625 16.5 2.625H15.1875C15.0844 2.625 15 2.70937 15 2.8125V4.3125H9V2.8125C9 2.70937 8.91563 2.625 8.8125 2.625H7.5C7.39687 2.625 7.3125 2.70937 7.3125 2.8125V4.3125H3.375C2.96016 4.3125 2.625 4.64766 2.625 5.0625V20.625C2.625 21.0398 2.96016 21.375 3.375 21.375H20.625C21.0398 21.375 21.375 21.0398 21.375 20.625V5.0625C21.375 4.64766 21.0398 4.3125 20.625 4.3125ZM19.6875 19.6875H4.3125V6H7.3125V7.125C7.3125 7.22813 7.39687 7.3125 7.5 7.3125H8.8125C8.91563 7.3125 9 7.22813 9 7.125V6H15V7.125C15 7.22813 15.0844 7.3125 15.1875 7.3125H16.5C16.6031 7.3125 16.6875 7.22813 16.6875 7.125V6H19.6875V19.6875Z" fill="#4293CF"/>
</g>
</svg>
