<svg width="24" height="24" viewBox="0 0 24 24" fill="none" xmlns="http://www.w3.org/2000/svg">
<g id="icon/two-tone/application/bank">
<path id="Vector" d="M5.64551 9.23282H18.3533L11.9994 4.61096L5.64551 9.23282Z" fill="#D4E9F6"/>
<path id="Vector_2" d="M20.9533 10.8273C21.6775 10.8273 21.9798 9.89685 21.3916 9.46794L12.4408 2.95701C12.3129 2.86335 12.1586 2.81287 12.0001 2.81287C11.8417 2.81287 11.6873 2.86335 11.5595 2.95701L2.60874 9.46794C2.02046 9.89451 2.3228 10.8273 3.04936 10.8273H4.50015V19.5929H2.81265C2.70952 19.5929 2.62515 19.6773 2.62515 19.7804V20.9992C2.62515 21.1023 2.70952 21.1867 2.81265 21.1867H21.1876C21.2908 21.1867 21.3751 21.1023 21.3751 20.9992V19.7804C21.3751 19.6773 21.2908 19.5929 21.1876 19.5929H19.5001V10.8273H20.9533ZM8.92983 19.5929H6.18764V10.8273H8.92983V19.5929ZM13.3595 19.5929H10.6173V10.8273H13.3595V19.5929ZM17.8126 19.5929H15.047V10.8273H17.8126V19.5929ZM5.64624 9.23123L12.0001 4.60935L18.354 9.23123H5.64624Z" fill="#4293CF"/>
</g>
</svg>
