<svg width="24" height="24" viewBox="0 0 24 24" fill="none" xmlns="http://www.w3.org/2000/svg">
<g id="icon/two-tone/application/car">
<path id="Vector" d="M4.67813 11.1094L4.3125 12.1172V17.6719H19.6875V12.1172L19.3219 11.1094H4.67813ZM6.1875 14.5547C5.66953 14.5547 5.25 14.1352 5.25 13.6172C5.25 13.0992 5.66953 12.6797 6.1875 12.6797C6.70547 12.6797 7.125 13.0992 7.125 13.6172C7.125 14.1352 6.70547 14.5547 6.1875 14.5547ZM15.2812 16.3125C15.2812 16.4156 15.1969 16.5 15.0938 16.5H8.90625C8.80312 16.5 8.71875 16.4156 8.71875 16.3125V14.3438C8.71875 14.2406 8.80312 14.1562 8.90625 14.1562H9.84375C9.94688 14.1562 10.0312 14.2406 10.0312 14.3438V15.1875H13.9688V14.3438C13.9688 14.2406 14.0531 14.1562 14.1562 14.1562H15.0938C15.1969 14.1562 15.2812 14.2406 15.2812 14.3438V16.3125ZM17.8125 14.5547C17.2945 14.5547 16.875 14.1352 16.875 13.6172C16.875 13.0992 17.2945 12.6797 17.8125 12.6797C18.3305 12.6797 18.75 13.0992 18.75 13.6172C18.75 14.1352 18.3305 14.5547 17.8125 14.5547Z" fill="#D4E9F6"/>
<path id="Vector_2" d="M16.875 13.6172C16.875 13.8658 16.9738 14.1043 17.1496 14.2801C17.3254 14.4559 17.5639 14.5547 17.8125 14.5547C18.0611 14.5547 18.2996 14.4559 18.4754 14.2801C18.6512 14.1043 18.75 13.8658 18.75 13.6172C18.75 13.3685 18.6512 13.1301 18.4754 12.9543C18.2996 12.7785 18.0611 12.6797 17.8125 12.6797C17.5639 12.6797 17.3254 12.7785 17.1496 12.9543C16.9738 13.1301 16.875 13.3685 16.875 13.6172Z" fill="#4293CF"/>
<path id="Vector_3" d="M22.4763 9.68941L21.9208 8.71909C21.8958 8.67632 21.8549 8.64516 21.8071 8.63243C21.7592 8.61969 21.7083 8.62641 21.6653 8.65112L20.477 9.34487L18.6419 4.27769C18.545 3.97533 18.3545 3.71159 18.098 3.52454C17.8414 3.33749 17.532 3.23682 17.2145 3.23706H7.05907C6.24579 3.23706 5.52392 3.76206 5.27314 4.53784L3.5247 9.34722L2.33407 8.65347C2.29115 8.62876 2.24019 8.62204 2.19232 8.63477C2.14446 8.6475 2.10358 8.67866 2.07861 8.72144L1.52314 9.68941C1.47157 9.77847 1.50204 9.89097 1.59111 9.94253L3.00673 10.7675L2.66689 11.705C2.63876 11.78 2.6247 11.8597 2.6247 11.9394V20.1003C2.6247 20.4683 2.90126 20.766 3.24111 20.766H4.82548C5.11376 20.766 5.36454 20.548 5.42548 20.2433L5.60595 19.3597H18.3934L18.5739 20.2433C18.6372 20.548 18.8856 20.766 19.1739 20.766H20.7583C21.0981 20.766 21.3747 20.4683 21.3747 20.1003V11.9394C21.3747 11.8597 21.3606 11.78 21.3325 11.705L20.9927 10.7675L22.4059 9.94253C22.4485 9.91796 22.4797 9.87768 22.4928 9.83034C22.506 9.783 22.5 9.7324 22.4763 9.68941ZM6.85986 5.11206L6.87157 5.08159L6.88095 5.05112C6.90673 4.97378 6.97704 4.92222 7.05907 4.92222H17.0809L18.8481 9.79722H5.15595L6.85986 5.11206ZM19.6872 17.6722H4.3122V12.1175L4.67782 11.1097H19.3216L19.6872 12.1175V17.6722Z" fill="#4293CF"/>
<path id="Vector_4" d="M5.25 13.6172C5.25 13.8658 5.34877 14.1043 5.52459 14.2801C5.7004 14.4559 5.93886 14.5547 6.1875 14.5547C6.43614 14.5547 6.6746 14.4559 6.85041 14.2801C7.02623 14.1043 7.125 13.8658 7.125 13.6172C7.125 13.3685 7.02623 13.1301 6.85041 12.9543C6.6746 12.7785 6.43614 12.6797 6.1875 12.6797C5.93886 12.6797 5.7004 12.7785 5.52459 12.9543C5.34877 13.1301 5.25 13.3685 5.25 13.6172ZM15.0938 14.1562H14.1562C14.0531 14.1562 13.9688 14.2406 13.9688 14.3438V15.1875H10.0312V14.3438C10.0312 14.2406 9.94688 14.1562 9.84375 14.1562H8.90625C8.80312 14.1562 8.71875 14.2406 8.71875 14.3438V16.3125C8.71875 16.4156 8.80312 16.5 8.90625 16.5H15.0938C15.1969 16.5 15.2812 16.4156 15.2812 16.3125V14.3438C15.2812 14.2406 15.1969 14.1562 15.0938 14.1562Z" fill="#4293CF"/>
</g>
</svg>
