<svg width="24" height="24" viewBox="0 0 24 24" fill="none" xmlns="http://www.w3.org/2000/svg">
<g id="icon/two-tone/application/carry-out">
<path id="Vector" d="M20.625 4.3125H16.6875V2.8125C16.6875 2.70937 16.6031 2.625 16.5 2.625H15.1875C15.0844 2.625 15 2.70937 15 2.8125V4.3125H9V2.8125C9 2.70937 8.91563 2.625 8.8125 2.625H7.5C7.39687 2.625 7.3125 2.70937 7.3125 2.8125V4.3125H3.375C2.96016 4.3125 2.625 4.64766 2.625 5.0625V20.625C2.625 21.0398 2.96016 21.375 3.375 21.375H20.625C21.0398 21.375 21.375 21.0398 21.375 20.625V5.0625C21.375 4.64766 21.0398 4.3125 20.625 4.3125ZM19.6875 19.6875H4.3125V6H7.3125V7.125C7.3125 7.22813 7.39687 7.3125 7.5 7.3125H8.8125C8.91563 7.3125 9 7.22813 9 7.125V6H15V7.125C15 7.22813 15.0844 7.3125 15.1875 7.3125H16.5C16.6031 7.3125 16.6875 7.22813 16.6875 7.125V6H19.6875V19.6875Z" fill="#4293CF"/>
<path id="Vector_2" d="M16.6875 7.125C16.6875 7.22812 16.6031 7.3125 16.5 7.3125H15.1875C15.0844 7.3125 15 7.22812 15 7.125V6H9V7.125C9 7.22812 8.91563 7.3125 8.8125 7.3125H7.5C7.39687 7.3125 7.3125 7.22812 7.3125 7.125V6H4.3125V19.6875H19.6875V6H16.6875V7.125ZM16.2773 10.1437L11.2945 17.0039C11.2595 17.0519 11.2137 17.0909 11.1607 17.1177C11.1078 17.1446 11.0492 17.1586 10.9898 17.1586C10.9305 17.1586 10.8719 17.1446 10.819 17.1177C10.766 17.0909 10.7202 17.0519 10.6852 17.0039L7.72266 12.9258C7.63359 12.8016 7.72266 12.6281 7.875 12.6281H9.16875C9.29063 12.6281 9.40313 12.6867 9.47344 12.7828L10.9898 14.8688L14.5266 9.99844C14.5969 9.90234 14.7117 9.84375 14.8312 9.84375H16.125C16.2773 9.84375 16.3664 10.0172 16.2773 10.1437Z" fill="#D4E9F6"/>
<path id="Vector_3" d="M16.1253 9.84375H14.8315C14.712 9.84375 14.5972 9.90234 14.5269 9.99844L10.9901 14.8688L9.47373 12.7828C9.40342 12.6867 9.29092 12.6281 9.16905 12.6281H7.8753C7.72295 12.6281 7.63389 12.8016 7.72295 12.9258L10.6855 17.0039C10.7205 17.0519 10.7663 17.0909 10.8193 17.1177C10.8722 17.1446 10.9308 17.1586 10.9901 17.1586C11.0495 17.1586 11.1081 17.1446 11.161 17.1177C11.2139 17.0909 11.2598 17.0519 11.2948 17.0039L16.2776 10.1437C16.3667 10.0172 16.2776 9.84375 16.1253 9.84375Z" fill="#4293CF"/>
</g>
</svg>
