<svg width="24" height="24" viewBox="0 0 24 24" fill="none" xmlns="http://www.w3.org/2000/svg">
<g id="icon/two-tone/suggested/close-circle">
<path id="Vector" d="M12 1.5C6.20156 1.5 1.5 6.20156 1.5 12C1.5 17.7984 6.20156 22.5 12 22.5C17.7984 22.5 22.5 17.7984 22.5 12C22.5 6.20156 17.7984 1.5 12 1.5ZM12 20.7188C7.18594 20.7188 3.28125 16.8141 3.28125 12C3.28125 7.18594 7.18594 3.28125 12 3.28125C16.8141 3.28125 20.7188 7.18594 20.7188 12C20.7188 16.8141 16.8141 20.7188 12 20.7188Z" fill="#4293CF"/>
<path id="Vector_2" d="M12 3.28125C7.18594 3.28125 3.28125 7.18594 3.28125 12C3.28125 16.8141 7.18594 20.7188 12 20.7188C16.8141 20.7188 20.7188 16.8141 20.7188 12C20.7188 7.18594 16.8141 3.28125 12 3.28125Z" fill="#D4E9F6"/>
<path id="Union" d="M10.9391 12L7.71289 8.7738C7.63997 8.70088 7.63997 8.58155 7.71289 8.50863L8.50839 7.71314C8.58131 7.64022 8.70063 7.64022 8.77355 7.71314L11.9997 10.9393L15.2259 7.71314C15.2988 7.64022 15.4181 7.64022 15.4911 7.71314L16.2866 8.50863C16.3595 8.58155 16.3595 8.70088 16.2866 8.7738L13.0604 12L16.2866 15.2261C16.3595 15.2991 16.3595 15.4184 16.2866 15.4913L15.4911 16.2868C15.4181 16.3597 15.2988 16.3597 15.2259 16.2868L11.9997 13.0606L8.77355 16.2868C8.70063 16.3597 8.58131 16.3597 8.50839 16.2868L7.71289 15.4913C7.63997 15.4184 7.63997 15.2991 7.71289 15.2261L10.9391 12Z" fill="#4293CF"/>
</g>
</svg>
