<svg width="24" height="24" viewBox="0 0 24 24" fill="none" xmlns="http://www.w3.org/2000/svg">
<g id="icon/two-tone/suggested/close-square">
<path id="Vector" d="M20.625 2.625H3.375C2.96016 2.625 2.625 2.96016 2.625 3.375V20.625C2.625 21.0398 2.96016 21.375 3.375 21.375H20.625C21.0398 21.375 21.375 21.0398 21.375 20.625V3.375C21.375 2.96016 21.0398 2.625 20.625 2.625ZM19.6875 19.6875H4.3125V4.3125H19.6875V19.6875Z" fill="#4293CF"/>
<path id="Vector_2" d="M4.3125 19.6875H19.6875V4.3125H4.3125V19.6875Z" fill="#D4E9F6"/>
<path id="Union" d="M10.9391 12L7.71289 8.7738C7.63997 8.70088 7.63997 8.58155 7.71289 8.50863L8.50839 7.71314C8.58131 7.64022 8.70063 7.64022 8.77355 7.71314L11.9997 10.9393L15.2259 7.71314C15.2988 7.64022 15.4181 7.64022 15.4911 7.71314L16.2866 8.50863C16.3595 8.58155 16.3595 8.70088 16.2866 8.7738L13.0604 12L16.2866 15.2261C16.3595 15.2991 16.3595 15.4184 16.2866 15.4913L15.4911 16.2868C15.4181 16.3597 15.2988 16.3597 15.2259 16.2868L11.9997 13.0606L8.77355 16.2868C8.70063 16.3597 8.58131 16.3597 8.50839 16.2868L7.71289 15.4913C7.63997 15.4184 7.63997 15.2991 7.71289 15.2261L10.9391 12Z" fill="#4293CF"/>
</g>
</svg>
