<svg width="24" height="24" viewBox="0 0 24 24" fill="none" xmlns="http://www.w3.org/2000/svg">
<g id="icon/two-tone/application/code">
<path id="Vector" d="M20.625 2.625H3.375C2.96016 2.625 2.625 2.96016 2.625 3.375V20.625C2.625 21.0398 2.96016 21.375 3.375 21.375H20.625C21.0398 21.375 21.375 21.0398 21.375 20.625V3.375C21.375 2.96016 21.0398 2.625 20.625 2.625ZM19.6875 19.6875H4.3125V4.3125H19.6875V19.6875Z" fill="#4293CF"/>
<path id="Vector_2" d="M4.3125 19.6875H19.6875V4.3125H4.3125V19.6875ZM12.2695 14.4609H16.6055C16.7016 14.4609 16.7812 14.5453 16.7812 14.6484V15.7734C16.7812 15.8766 16.7016 15.9609 16.6055 15.9609H12.2695C12.1734 15.9609 12.0938 15.8766 12.0938 15.7734V14.6484C12.0938 14.5453 12.1734 14.4609 12.2695 14.4609ZM7.21875 14.3039C7.21875 14.25 7.24453 14.1961 7.28672 14.1609L9.86016 12L7.28672 9.83906C7.26518 9.82205 7.24784 9.8003 7.23605 9.77551C7.22427 9.75072 7.21835 9.72354 7.21875 9.69609V8.22656C7.21875 8.06719 7.40391 7.98047 7.52578 8.08359L12.0258 11.8547C12.1172 11.9297 12.1172 12.068 12.0258 12.143L7.52578 15.9164C7.40391 16.0195 7.21875 15.9328 7.21875 15.7734V14.3039Z" fill="#D4E9F6"/>
<path id="Vector_3" d="M7.52578 15.9168L12.0258 12.1434C12.1172 12.0684 12.1172 11.9301 12.0258 11.8551L7.52578 8.084C7.49862 8.06089 7.46539 8.04607 7.43006 8.04129C7.39472 8.03651 7.35875 8.04197 7.32642 8.05703C7.2941 8.07208 7.26677 8.09609 7.24768 8.12622C7.2286 8.15634 7.21856 8.1913 7.21875 8.22696V9.69649C7.21875 9.75274 7.24219 9.8043 7.28672 9.83946L9.86016 12.0004L7.28672 14.1613C7.26577 14.1789 7.24885 14.2007 7.23712 14.2254C7.22539 14.2501 7.21913 14.277 7.21875 14.3043V15.7738C7.21875 15.9332 7.40391 16.0199 7.52578 15.9168ZM12.0938 15.7738C12.0938 15.8769 12.1734 15.9613 12.2695 15.9613H16.6055C16.7016 15.9613 16.7813 15.8769 16.7813 15.7738V14.6488C16.7813 14.5457 16.7016 14.4613 16.6055 14.4613H12.2695C12.1734 14.4613 12.0938 14.5457 12.0938 14.6488V15.7738Z" fill="#4293CF"/>
</g>
</svg>
