<svg width="24" height="24" viewBox="0 0 24 24" fill="none" xmlns="http://www.w3.org/2000/svg">
<g id="icon/two-tone/application/control">
<path id="Vector" d="M20.625 2.625H3.375C2.96016 2.625 2.625 2.96016 2.625 3.375V20.625C2.625 21.0398 2.96016 21.375 3.375 21.375H20.625C21.0398 21.375 21.375 21.0398 21.375 20.625V3.375C21.375 2.96016 21.0398 2.625 20.625 2.625ZM19.6875 19.6875H4.3125V4.3125H19.6875V19.6875Z" fill="#4293CF"/>
<path id="Vector_2" d="M14.4363 10.3125C14.4363 10.5363 14.5252 10.7509 14.6835 10.9091C14.8417 11.0674 15.0563 11.1562 15.2801 11.1562C15.5039 11.1562 15.7185 11.0674 15.8767 10.9091C16.0349 10.7509 16.1238 10.5363 16.1238 10.3125C16.1238 10.0887 16.0349 9.87411 15.8767 9.71588C15.7185 9.55764 15.5039 9.46875 15.2801 9.46875C15.0563 9.46875 14.8417 9.55764 14.6835 9.71588C14.5252 9.87411 14.4363 10.0887 14.4363 10.3125ZM7.97695 14.0977L8.01211 14.1539C8.01211 14.1563 8.01445 14.1562 8.01445 14.1586L8.03555 14.1867C8.03789 14.1891 8.04023 14.1914 8.04023 14.1937C8.06367 14.2242 8.08711 14.2523 8.11523 14.2781L8.11992 14.2828C8.1293 14.2922 8.13867 14.3016 8.14805 14.3086C8.1668 14.3273 8.18789 14.3437 8.20898 14.3578H8.21133L8.23945 14.3789C8.2418 14.3812 8.24648 14.3836 8.24883 14.3859C8.27695 14.4047 8.30742 14.4234 8.34023 14.4375C8.34492 14.4398 8.35195 14.4422 8.35664 14.4469C8.36602 14.4516 8.37305 14.4539 8.38242 14.4586C8.38945 14.4609 8.39883 14.4656 8.40586 14.468C8.41758 14.4727 8.4293 14.4773 8.44102 14.4797C8.45039 14.482 8.46211 14.4867 8.47148 14.4891L8.49258 14.4961L8.52539 14.5031C8.53008 14.5055 8.53711 14.5055 8.5418 14.5078C8.5582 14.5102 8.57461 14.5148 8.59102 14.5172C8.5957 14.5172 8.60039 14.5172 8.60508 14.5195C8.61914 14.5219 8.63086 14.5219 8.64492 14.5242C8.64961 14.5242 8.6543 14.5242 8.66133 14.5266C8.68008 14.5266 8.69648 14.5289 8.71523 14.5289C8.73398 14.5289 8.75039 14.5289 8.76914 14.5266C8.77383 14.5266 8.77852 14.5266 8.78555 14.5242C8.79961 14.5242 8.81367 14.5219 8.82539 14.5195C8.83008 14.5195 8.83477 14.5195 8.83945 14.5172C8.85586 14.5148 8.87227 14.5125 8.88867 14.5078C8.89336 14.5055 8.90039 14.5055 8.90508 14.5031L8.93789 14.4961L8.95898 14.4891C8.96836 14.4867 8.98008 14.482 8.98945 14.4797C9.00117 14.475 9.01289 14.4703 9.02461 14.468C9.03164 14.4656 9.04102 14.4609 9.04805 14.4586C9.05742 14.4539 9.06445 14.4516 9.07383 14.4469C9.07852 14.4445 9.08555 14.4422 9.09023 14.4375C9.1207 14.4211 9.15117 14.4047 9.18164 14.3859C9.18398 14.3836 9.18867 14.3812 9.19102 14.3789L9.21914 14.3578H9.22148C9.24258 14.3414 9.26367 14.325 9.28242 14.3086C9.2918 14.2992 9.30117 14.2922 9.31055 14.2828L9.31523 14.2781C9.34102 14.2523 9.3668 14.2219 9.39024 14.1937C9.39258 14.1914 9.39492 14.1891 9.39492 14.1867L9.41602 14.1586C9.41602 14.1562 9.41836 14.1563 9.41836 14.1539L9.45352 14.0977C9.45586 14.093 9.4582 14.0906 9.46055 14.0859C9.52383 13.9664 9.56133 13.8305 9.56133 13.6875C9.56133 13.5445 9.52383 13.4062 9.46055 13.2891C9.4582 13.2844 9.45586 13.2797 9.45352 13.2773L9.41836 13.2211C9.41836 13.2187 9.41602 13.2188 9.41602 13.2164L9.39492 13.1883C9.39258 13.1859 9.39024 13.1836 9.39024 13.1813C9.3668 13.1508 9.34336 13.1227 9.31523 13.0969L9.31055 13.0922C9.30117 13.0828 9.2918 13.0734 9.28242 13.0664C9.26367 13.0477 9.24258 13.0313 9.22148 13.0172H9.21914L9.19102 12.9961C9.18867 12.9938 9.18398 12.9914 9.18164 12.9891C9.15352 12.9703 9.12305 12.9516 9.09023 12.9375C9.08555 12.9352 9.07852 12.9328 9.07383 12.9281C9.06445 12.9234 9.05742 12.9211 9.04805 12.9164C9.04102 12.9141 9.03164 12.9094 9.02461 12.907C9.01289 12.9023 9.00117 12.8977 8.98945 12.8953C8.98008 12.893 8.96836 12.8883 8.95898 12.8859L8.93789 12.8789L8.90508 12.8719C8.90039 12.8695 8.89336 12.8695 8.88867 12.8672C8.87227 12.8648 8.85586 12.8602 8.83945 12.8578C8.83477 12.8578 8.83008 12.8578 8.82539 12.8555C8.81133 12.8531 8.79961 12.8531 8.78555 12.8508C8.78086 12.8508 8.77617 12.8508 8.76914 12.8484C8.75039 12.8484 8.73398 12.8461 8.71523 12.8461C8.69648 12.8461 8.68008 12.8461 8.66133 12.8484C8.65664 12.8484 8.65195 12.8484 8.64492 12.8508C8.63086 12.8508 8.6168 12.8531 8.60508 12.8555C8.60039 12.8555 8.5957 12.8555 8.59102 12.8578C8.57461 12.8602 8.5582 12.8625 8.5418 12.8672C8.53711 12.8695 8.53008 12.8695 8.52539 12.8719L8.49258 12.8789L8.47148 12.8859C8.46211 12.8883 8.45039 12.893 8.44102 12.8953C8.4293 12.9 8.41758 12.9047 8.40586 12.907C8.39883 12.9094 8.38945 12.9141 8.38242 12.9164C8.37305 12.9211 8.36602 12.9234 8.35664 12.9281C8.35195 12.9305 8.34492 12.9328 8.34023 12.9375C8.30977 12.9539 8.2793 12.9703 8.24883 12.9891C8.24648 12.9914 8.2418 12.9938 8.23945 12.9961L8.21133 13.0172H8.20898C8.18789 13.0336 8.1668 13.05 8.14805 13.0664C8.13867 13.0758 8.1293 13.0828 8.11992 13.0922L8.11523 13.0969C8.08901 13.1239 8.06399 13.152 8.04023 13.1813C8.03789 13.1836 8.03555 13.1859 8.03555 13.1883L8.01445 13.2164C8.01445 13.2188 8.01211 13.2187 8.01211 13.2211L7.97695 13.2773C7.97461 13.282 7.97227 13.2844 7.96992 13.2891C7.90664 13.4086 7.86914 13.5445 7.86914 13.6875C7.86914 13.8305 7.90664 13.9688 7.96992 14.0859C7.97227 14.0906 7.97461 14.093 7.97695 14.0977Z" fill="#D4E9F6"/>
<path id="Vector_3" d="M4.3125 19.6875H19.6875V4.3125H4.3125V19.6875ZM14.5406 7.98984C14.5359 7.98984 14.5336 7.99219 14.5312 7.99219V6.1875C14.5312 6.08438 14.6156 6 14.7188 6H15.8438C15.9469 6 16.0312 6.08438 16.0312 6.1875V7.99219C16.0266 7.99219 16.0242 7.98984 16.0219 7.98984C17.0062 8.30391 17.7188 9.225 17.7188 10.3125C17.7188 11.4 17.0062 12.3211 16.0219 12.6352C16.0266 12.6352 16.0289 12.6328 16.0312 12.6328V17.8125C16.0312 17.9156 15.9469 18 15.8438 18H14.7188C14.6156 18 14.5312 17.9156 14.5312 17.8125V12.6328C14.5359 12.6328 14.5383 12.6352 14.5406 12.6352C13.5563 12.3211 12.8438 11.4 12.8438 10.3125C12.8438 9.225 13.5563 8.30391 14.5406 7.98984ZM7.96875 11.3672V6.1875C7.96875 6.08438 8.05312 6 8.15625 6H9.28125C9.38438 6 9.46875 6.08438 9.46875 6.1875V11.3672C10.4461 11.6859 11.1562 12.6047 11.1562 13.6875C11.1562 14.7703 10.4461 15.6914 9.46875 16.0078V17.8125C9.46875 17.9156 9.38438 18 9.28125 18H8.15625C8.05312 18 7.96875 17.9156 7.96875 17.8125V16.0078C6.99141 15.6891 6.28125 14.7703 6.28125 13.6875C6.28125 12.6047 6.99141 11.6836 7.96875 11.3672Z" fill="#D4E9F6"/>
<path id="Vector_4" d="M7.96875 16.0078V17.8125C7.96875 17.9156 8.05313 18 8.15625 18H9.28125C9.38438 18 9.46875 17.9156 9.46875 17.8125V16.0078C10.4461 15.6914 11.1562 14.7703 11.1562 13.6875C11.1562 12.6047 10.4461 11.6859 9.46875 11.3672V6.1875C9.46875 6.08437 9.38438 6 9.28125 6H8.15625C8.05313 6 7.96875 6.08437 7.96875 6.1875V11.3672C6.99141 11.6836 6.28125 12.6047 6.28125 13.6875C6.28125 14.7703 6.99141 15.6891 7.96875 16.0078ZM7.97109 13.2891C7.97344 13.2844 7.97578 13.282 7.97812 13.2773L8.01328 13.2211C8.01328 13.2187 8.01562 13.2188 8.01562 13.2164L8.03672 13.1883C8.03672 13.1859 8.03906 13.1836 8.04141 13.1813C8.06484 13.1531 8.09062 13.1227 8.11641 13.0969L8.12109 13.0922C8.13047 13.0828 8.13984 13.0758 8.14922 13.0664C8.16797 13.05 8.18906 13.0336 8.21016 13.0172H8.2125L8.24063 12.9961C8.24297 12.9938 8.24766 12.9914 8.25 12.9891C8.28047 12.9703 8.31094 12.9539 8.34141 12.9375C8.34609 12.9328 8.35313 12.9305 8.35781 12.9281C8.36719 12.9234 8.37422 12.9211 8.38359 12.9164C8.39063 12.9141 8.4 12.9094 8.40703 12.907C8.41875 12.9047 8.43047 12.9 8.44219 12.8953C8.45156 12.893 8.46328 12.8883 8.47266 12.8859L8.49375 12.8789L8.52656 12.8719C8.53125 12.8695 8.53828 12.8695 8.54297 12.8672C8.55938 12.8625 8.57578 12.8602 8.59219 12.8578C8.59688 12.8555 8.60156 12.8555 8.60625 12.8555C8.61797 12.8531 8.63203 12.8508 8.64609 12.8508C8.65312 12.8484 8.65781 12.8484 8.6625 12.8484C8.68125 12.8461 8.69766 12.8461 8.71641 12.8461C8.73516 12.8461 8.75156 12.8484 8.77031 12.8484C8.77734 12.8508 8.78203 12.8508 8.78672 12.8508C8.80078 12.8531 8.8125 12.8531 8.82656 12.8555C8.83125 12.8578 8.83594 12.8578 8.84063 12.8578C8.85703 12.8602 8.87344 12.8648 8.88984 12.8672C8.89453 12.8695 8.90156 12.8695 8.90625 12.8719L8.93906 12.8789L8.96016 12.8859C8.96953 12.8883 8.98125 12.893 8.99063 12.8953C9.00234 12.8977 9.01406 12.9023 9.02578 12.907C9.03281 12.9094 9.04219 12.9141 9.04922 12.9164C9.05859 12.9211 9.06563 12.9234 9.075 12.9281C9.07969 12.9328 9.08672 12.9352 9.09141 12.9375C9.12422 12.9516 9.15469 12.9703 9.18281 12.9891C9.18516 12.9914 9.18984 12.9938 9.19219 12.9961L9.22031 13.0172H9.22266C9.24375 13.0313 9.26484 13.0477 9.28359 13.0664C9.29297 13.0734 9.30234 13.0828 9.31172 13.0922L9.31641 13.0969C9.34453 13.1227 9.36797 13.1508 9.39141 13.1813C9.39141 13.1836 9.39375 13.1859 9.39609 13.1883L9.41719 13.2164C9.41719 13.2188 9.41953 13.2187 9.41953 13.2211L9.45469 13.2773C9.52493 13.4027 9.56204 13.5438 9.5625 13.6875C9.5625 13.8305 9.525 13.9664 9.46172 14.0859C9.45938 14.0906 9.45703 14.093 9.45469 14.0977L9.41953 14.1539C9.41953 14.1563 9.41719 14.1562 9.41719 14.1586L9.39609 14.1867C9.39609 14.1891 9.39375 14.1914 9.39141 14.1937C9.36797 14.2219 9.34219 14.2523 9.31641 14.2781L9.31172 14.2828C9.30234 14.2922 9.29297 14.2992 9.28359 14.3086C9.26484 14.325 9.24375 14.3414 9.22266 14.3578H9.22031L9.19219 14.3789C9.18984 14.3813 9.18516 14.3836 9.18281 14.3859C9.15234 14.4047 9.12187 14.4211 9.09141 14.4375C9.08672 14.4422 9.07969 14.4445 9.075 14.4469C9.06563 14.4516 9.05859 14.4539 9.04922 14.4586C9.04219 14.4609 9.03281 14.4656 9.02578 14.468C9.01406 14.4703 9.00234 14.475 8.99063 14.4797C8.98125 14.482 8.96953 14.4867 8.96016 14.4891L8.93906 14.4961L8.90625 14.5031C8.90156 14.5055 8.89453 14.5055 8.88984 14.5078C8.87344 14.5125 8.85703 14.5148 8.84063 14.5172C8.83594 14.5195 8.83125 14.5195 8.82656 14.5195C8.81484 14.5219 8.80078 14.5242 8.78672 14.5242C8.77969 14.5266 8.775 14.5266 8.77031 14.5266C8.75156 14.5289 8.73516 14.5289 8.71641 14.5289C8.69766 14.5289 8.68125 14.5266 8.6625 14.5266C8.65547 14.5242 8.65078 14.5242 8.64609 14.5242C8.63203 14.5219 8.62031 14.5219 8.60625 14.5195C8.60156 14.5172 8.59688 14.5172 8.59219 14.5172C8.57578 14.5148 8.55938 14.5102 8.54297 14.5078C8.53828 14.5055 8.53125 14.5055 8.52656 14.5031L8.49375 14.4961L8.47266 14.4891C8.46328 14.4867 8.45156 14.482 8.44219 14.4797C8.43047 14.4773 8.41875 14.4727 8.40703 14.468C8.4 14.4656 8.39063 14.4609 8.38359 14.4586C8.37422 14.4539 8.36719 14.4516 8.35781 14.4469C8.35313 14.4422 8.34609 14.4398 8.34141 14.4375C8.30859 14.4234 8.27813 14.4047 8.25 14.3859C8.24766 14.3836 8.24297 14.3813 8.24063 14.3789L8.2125 14.3578H8.21016C8.18906 14.3437 8.16797 14.3273 8.14922 14.3086C8.13984 14.3016 8.13047 14.2922 8.12109 14.2828L8.11641 14.2781C8.08828 14.2523 8.06484 14.2242 8.04141 14.1937C8.04141 14.1914 8.03906 14.1891 8.03672 14.1867L8.01562 14.1586C8.01562 14.1562 8.01328 14.1563 8.01328 14.1539L7.97812 14.0977C7.97578 14.093 7.97344 14.0906 7.97109 14.0859C7.90781 13.9688 7.87031 13.8305 7.87031 13.6875C7.87031 13.5445 7.90781 13.4086 7.97109 13.2891ZM14.5406 12.6352C14.5383 12.6352 14.5359 12.6328 14.5312 12.6328V17.8125C14.5312 17.9156 14.6156 18 14.7188 18H15.8438C15.9469 18 16.0312 17.9156 16.0312 17.8125V12.6328C16.0289 12.6328 16.0266 12.6352 16.0219 12.6352C17.0062 12.3211 17.7188 11.4 17.7188 10.3125C17.7188 9.225 17.0062 8.30391 16.0219 7.98984C16.0242 7.98984 16.0266 7.99219 16.0312 7.99219V6.1875C16.0312 6.08437 15.9469 6 15.8438 6H14.7188C14.6156 6 14.5312 6.08437 14.5312 6.1875V7.99219C14.5336 7.99219 14.5359 7.98984 14.5406 7.98984C13.5563 8.30391 12.8438 9.225 12.8438 10.3125C12.8438 11.4 13.5563 12.3211 14.5406 12.6352ZM15.2812 9.46875C15.7477 9.46875 16.125 9.84609 16.125 10.3125C16.125 10.7789 15.7477 11.1562 15.2812 11.1562C14.8148 11.1562 14.4375 10.7789 14.4375 10.3125C14.4375 9.84609 14.8148 9.46875 15.2812 9.46875Z" fill="#4293CF"/>
</g>
</svg>
