<svg width="24" height="24" viewBox="0 0 24 24" fill="none" xmlns="http://www.w3.org/2000/svg">
<g id="icon/two-tone/application/crown">
<path id="Vector" d="M21.3732 6.6531V6.66482L19.5826 20.2726C19.5592 20.4601 19.3975 20.6008 19.21 20.6008H4.79355C4.60371 20.6008 4.44434 20.4578 4.41855 20.2726L2.62793 6.66482V6.65076V6.68826L4.41855 20.2961C4.44434 20.4812 4.60371 20.6242 4.79355 20.6242H19.21C19.3975 20.6242 19.5592 20.4836 19.5826 20.2961L21.3732 6.68826C21.3756 6.67654 21.3756 6.66482 21.3732 6.6531Z" fill="#D4E9F6"/>
<path id="Vector_2" d="M18.1312 18.998L19.3945 9.40272L16.118 11.4207L12 5.92694L7.88203 11.4207L4.60547 9.40272L5.86641 18.998H18.1312ZM9.36094 14.5683C9.36094 13.1129 10.5445 11.9293 12 11.9293C13.4555 11.9293 14.6391 13.1129 14.6391 14.5683V14.5918C14.6391 16.0473 13.4555 17.2308 12 17.2308C10.5445 17.2308 9.36094 16.0473 9.36094 14.5918V14.5683Z" fill="#D4E9F6"/>
<path id="Vector_3" d="M11.9994 17.2078C13.4502 17.2078 14.6315 16.0312 14.6385 14.5805V14.5687C14.6385 13.1133 13.4549 11.9297 11.9994 11.9297C10.544 11.9297 9.36035 13.1133 9.36035 14.5687V14.5805C9.36738 16.0312 10.5486 17.2078 11.9994 17.2078ZM11.9994 13.4367C12.6229 13.4367 13.1291 13.943 13.1291 14.5687C13.1291 15.1922 12.6229 15.7008 11.9994 15.7008C11.376 15.7008 10.8697 15.1945 10.8697 14.5687C10.8697 13.9453 11.376 13.4367 11.9994 13.4367Z" fill="#4293CF"/>
<path id="Vector_4" d="M4.41796 20.2733C4.44374 20.4585 4.60311 20.6014 4.79296 20.6014H19.2094C19.3969 20.6014 19.5586 20.4608 19.582 20.2733L21.3726 6.66551V6.65379C21.3797 6.50379 21.2156 6.40066 21.0844 6.48035L16.5234 9.29051L12.15 3.45691C12.1324 3.43343 12.1096 3.41437 12.0833 3.40125C12.0571 3.38812 12.0282 3.38129 11.9988 3.38129C11.9695 3.38129 11.9405 3.38812 11.9143 3.40125C11.8881 3.41437 11.8652 3.43343 11.8476 3.45691L7.47655 9.29051L2.91327 6.48035C2.78436 6.40066 2.61796 6.50144 2.62733 6.65144V6.66551L4.41796 20.2733ZM7.88202 11.421L12 5.92722L16.118 11.421L19.3945 9.40301L18.1312 18.9983H5.86639L4.60546 9.40301L7.88202 11.421Z" fill="#4293CF"/>
</g>
</svg>
