<svg width="24" height="24" viewBox="0 0 24 24" fill="none" xmlns="http://www.w3.org/2000/svg">
<g id="icon/two-tone/application/dashboard">
<path id="Vector" d="M12 4.40625C9.67266 4.40625 7.48359 5.31328 5.83594 6.96094C4.18828 8.60625 3.28125 10.7953 3.28125 13.125C3.28125 15.6 4.32422 17.9414 6.15469 19.5938H17.8453C18.7509 18.7772 19.4748 17.7793 19.9698 16.6649C20.4648 15.5505 20.72 14.3444 20.7188 13.125C20.7188 10.7977 19.8117 8.60859 18.1641 6.96094C16.5188 5.31328 14.3297 4.40625 12 4.40625ZM11.2969 5.4375C11.2969 5.33438 11.3813 5.25 11.4844 5.25H12.5156C12.6187 5.25 12.7031 5.33438 12.7031 5.4375V7.3125C12.7031 7.41563 12.6187 7.5 12.5156 7.5H11.4844C11.3813 7.5 11.2969 7.41563 11.2969 7.3125V5.4375ZM6.32812 13.6406C6.32812 13.7437 6.24375 13.8281 6.14062 13.8281H4.26562C4.1625 13.8281 4.07812 13.7437 4.07812 13.6406V12.6094C4.07812 12.5063 4.1625 12.4219 4.26562 12.4219H6.14062C6.24375 12.4219 6.32812 12.5063 6.32812 12.6094V13.6406ZM8.45391 8.85L7.725 9.57891C7.68976 9.6138 7.64217 9.63338 7.59258 9.63338C7.54299 9.63338 7.4954 9.6138 7.46016 9.57891L6.13359 8.25234C6.0987 8.2171 6.07913 8.16952 6.07913 8.11992C6.07913 8.07033 6.0987 8.02274 6.13359 7.9875L6.8625 7.25859C6.93516 7.18594 7.05469 7.18594 7.12734 7.25859L8.45391 8.58516C8.52656 8.65781 8.52656 8.77734 8.45391 8.85ZM15.2766 10.807L13.2961 12.7875C13.4133 13.2258 13.3008 13.7109 12.9562 14.0555C12.8344 14.1775 12.6898 14.2743 12.5305 14.3404C12.3713 14.4064 12.2005 14.4404 12.0281 14.4404C11.8557 14.4404 11.685 14.4064 11.5257 14.3404C11.3665 14.2743 11.2218 14.1775 11.1 14.0555C10.978 13.9337 10.8812 13.789 10.8151 13.6297C10.749 13.4705 10.715 13.2998 10.715 13.1273C10.715 12.9549 10.749 12.7842 10.8151 12.6249C10.8812 12.4657 10.978 12.321 11.1 12.1992C11.2627 12.036 11.4657 11.9186 11.6883 11.8589C11.911 11.7993 12.1454 11.7994 12.368 11.8594L14.3484 9.87891C14.4211 9.80625 14.5406 9.80625 14.6133 9.87891L15.2766 10.5422C15.3492 10.6148 15.3492 10.7344 15.2766 10.807ZM16.2844 9.57891L15.5555 8.85C15.5206 8.81476 15.501 8.76717 15.501 8.71758C15.501 8.66799 15.5206 8.6204 15.5555 8.58516L16.882 7.25859C16.9547 7.18594 17.0742 7.18594 17.1469 7.25859L17.8758 7.9875C17.9484 8.06016 17.9484 8.17969 17.8758 8.25234L16.5492 9.57891C16.514 9.6138 16.4664 9.63338 16.4168 9.63338C16.3672 9.63338 16.3196 9.6138 16.2844 9.57891ZM19.8281 12.6094V13.6406C19.8281 13.7437 19.7437 13.8281 19.6406 13.8281H17.7656C17.6625 13.8281 17.5781 13.7437 17.5781 13.6406V12.6094C17.5781 12.5063 17.6625 12.4219 17.7656 12.4219H19.6406C19.7437 12.4219 19.8281 12.5063 19.8281 12.6094Z" fill="#D4E9F6"/>
<path id="Vector_2" d="M14.6131 9.87891C14.5779 9.84401 14.5303 9.82444 14.4807 9.82444C14.4311 9.82444 14.3835 9.84401 14.3482 9.87891L12.3678 11.8594C11.9295 11.7422 11.4443 11.8547 11.0998 12.1992C10.9778 12.321 10.881 12.4657 10.8149 12.6249C10.7488 12.7842 10.7148 12.9549 10.7148 13.1273C10.7148 13.2998 10.7488 13.4705 10.8149 13.6297C10.881 13.789 10.9778 13.9337 11.0998 14.0555C11.2216 14.1775 11.3663 14.2743 11.5255 14.3404C11.6848 14.4064 11.8555 14.4404 12.0279 14.4404C12.2003 14.4404 12.3711 14.4064 12.5303 14.3404C12.6896 14.2743 12.8343 14.1775 12.9561 14.0555C13.1193 13.8927 13.2367 13.6898 13.2963 13.4671C13.356 13.2445 13.3559 13.0101 13.2959 12.7875L15.2764 10.807C15.349 10.7344 15.349 10.6148 15.2764 10.5422L14.6131 9.87891ZM11.4842 7.5H12.5154C12.6186 7.5 12.7029 7.41563 12.7029 7.3125V5.4375C12.7029 5.33438 12.6186 5.25 12.5154 5.25H11.4842C11.3811 5.25 11.2967 5.33438 11.2967 5.4375V7.3125C11.2967 7.41563 11.3811 7.5 11.4842 7.5Z" fill="#4293CF"/>
<path id="Vector_3" d="M21.675 9.0375C21.1479 7.78994 20.3838 6.6565 19.425 5.7C18.4685 4.74119 17.3351 3.97707 16.0875 3.45C14.7914 2.90156 13.418 2.625 12 2.625C10.582 2.625 9.20859 2.90156 7.9125 3.45C6.66494 3.97707 5.5315 4.74119 4.575 5.7C3.61619 6.6565 2.85207 7.78994 2.325 9.0375C1.77656 10.3336 1.5 11.707 1.5 13.125C1.5 16.2352 2.86641 19.1648 5.24766 21.1664L5.2875 21.1992C5.42344 21.3117 5.59453 21.375 5.77031 21.375H18.232C18.4078 21.375 18.5789 21.3117 18.7148 21.1992L18.7547 21.1664C21.1336 19.1648 22.5 16.2352 22.5 13.125C22.5 11.707 22.2211 10.3336 21.675 9.0375ZM17.8453 19.5938H6.15469C5.24905 18.7772 4.52524 17.7793 4.03021 16.6649C3.53518 15.5505 3.28001 14.3444 3.28125 13.125C3.28125 10.7953 4.18828 8.60625 5.83594 6.96094C7.48359 5.31328 9.67266 4.40625 12 4.40625C14.3297 4.40625 16.5188 5.31328 18.1641 6.96094C19.8117 8.60859 20.7188 10.7977 20.7188 13.125C20.7188 15.6 19.6758 17.9414 17.8453 19.5938Z" fill="#4293CF"/>
<path id="Vector_4" d="M17.8758 7.98656L17.1469 7.25765C17.1116 7.22276 17.064 7.20319 17.0145 7.20319C16.9649 7.20319 16.9173 7.22276 16.882 7.25765L15.5555 8.58421C15.5206 8.61945 15.501 8.66704 15.501 8.71663C15.501 8.76623 15.5206 8.81381 15.5555 8.84905L16.2844 9.57796C16.357 9.65061 16.4766 9.65061 16.5492 9.57796L17.8758 8.2514C17.9484 8.17874 17.9484 8.05921 17.8758 7.98656ZM17.5781 12.6084V13.6397C17.5781 13.7428 17.6625 13.8272 17.7656 13.8272H19.6406C19.7437 13.8272 19.8281 13.7428 19.8281 13.6397V12.6084C19.8281 12.5053 19.7437 12.4209 19.6406 12.4209H17.7656C17.6625 12.4209 17.5781 12.5053 17.5781 12.6084ZM7.12734 7.25765C7.0921 7.22276 7.04452 7.20319 6.99492 7.20319C6.94533 7.20319 6.89774 7.22276 6.8625 7.25765L6.13359 7.98656C6.0987 8.0218 6.07913 8.06939 6.07913 8.11898C6.07913 8.16857 6.0987 8.21616 6.13359 8.2514L7.46016 9.57796C7.53281 9.65061 7.65234 9.65061 7.725 9.57796L8.45391 8.84905C8.52656 8.7764 8.52656 8.65687 8.45391 8.58421L7.12734 7.25765ZM6.14062 12.4209H4.26562C4.1625 12.4209 4.07812 12.5053 4.07812 12.6084V13.6397C4.07812 13.7428 4.1625 13.8272 4.26562 13.8272H6.14062C6.24375 13.8272 6.32812 13.7428 6.32812 13.6397V12.6084C6.32812 12.5053 6.24375 12.4209 6.14062 12.4209Z" fill="#4293CF"/>
</g>
</svg>
