<svg width="24" height="24" viewBox="0 0 24 24" fill="none" xmlns="http://www.w3.org/2000/svg">
<g id="icon/two-tone/application/dollar-circle">
<path id="Vector" d="M12 1.5C6.20156 1.5 1.5 6.20156 1.5 12C1.5 17.7984 6.20156 22.5 12 22.5C17.7984 22.5 22.5 17.7984 22.5 12C22.5 6.20156 17.7984 1.5 12 1.5ZM12 20.7188C7.18594 20.7188 3.28125 16.8141 3.28125 12C3.28125 7.18594 7.18594 3.28125 12 3.28125C16.8141 3.28125 20.7188 7.18594 20.7188 12C20.7188 16.8141 16.8141 20.7188 12 20.7188Z" fill="#4293CF"/>
<path id="Vector_2" d="M9.99805 9.61631C9.99805 10.2116 10.366 10.6733 11.1582 10.9593C11.2684 11.0038 11.3785 11.039 11.5098 11.0765V8.17023C10.6426 8.28038 9.99805 8.76554 9.99805 9.61631ZM12.7285 12.7851C12.6606 12.771 12.5949 12.7546 12.5223 12.7335V15.8671C13.5207 15.778 14.2098 15.2272 14.2098 14.3108C14.2098 13.5913 13.8371 13.1226 12.7285 12.7851Z" fill="#D4E9F6"/>
<path id="Vector_3" d="M12 3.28125C7.18594 3.28125 3.28125 7.18594 3.28125 12C3.28125 16.8141 7.18594 20.7188 12 20.7188C16.8141 20.7188 20.7188 16.8141 20.7188 12C20.7188 7.18594 16.8141 3.28125 12 3.28125ZM12.525 17.0906L12.5297 17.8336C12.5297 17.9391 12.4453 18.0234 12.3422 18.0234H11.6766C11.5734 18.0234 11.4891 17.9391 11.4891 17.8359V17.1C9.40313 16.9477 8.42578 15.7617 8.32031 14.4727C8.31094 14.3625 8.39766 14.2687 8.50781 14.2687H9.59063C9.68203 14.2687 9.76172 14.3344 9.77578 14.4234C9.89531 15.1688 10.4766 15.7219 11.5125 15.8602V12.5156L10.9336 12.368C9.70781 12.075 8.54062 11.3109 8.54062 9.72656C8.54062 8.01562 9.83906 7.09922 11.4984 6.9375V6.16406C11.4984 6.06094 11.5828 5.97656 11.6859 5.97656H12.3445C12.4477 5.97656 12.532 6.06094 12.532 6.16406V6.93047C14.1375 7.09219 15.3398 8.02969 15.4828 9.48984C15.4851 9.51592 15.4819 9.54219 15.4735 9.56699C15.4652 9.59179 15.4518 9.61459 15.4342 9.63396C15.4165 9.65333 15.3951 9.66885 15.3712 9.67954C15.3473 9.69023 15.3215 9.69587 15.2953 9.69609H14.243C14.1492 9.69609 14.0695 9.62812 14.0578 9.53437C13.9641 8.85 13.4133 8.29219 12.5227 8.17031V11.318L13.118 11.4562C14.6367 11.8312 15.6703 12.5578 15.6727 14.1844C15.6727 15.9469 14.3602 16.9289 12.525 17.0906Z" fill="#D4E9F6"/>
<path id="Vector_4" d="M13.1177 11.4562L12.5224 11.318V8.17031C13.413 8.29219 13.9638 8.85 14.0576 9.53437C14.0693 9.62812 14.149 9.69609 14.2427 9.69609H15.2951C15.4052 9.69609 15.4919 9.6 15.4826 9.48984C15.3396 8.02969 14.1372 7.09219 12.5318 6.93047V6.16406C12.5318 6.06094 12.4474 5.97656 12.3443 5.97656H11.6857C11.5825 5.97656 11.4982 6.06094 11.4982 6.16406V6.9375C9.83879 7.09922 8.54034 8.01562 8.54034 9.72656C8.54034 11.3109 9.70754 12.075 10.9333 12.368L11.5122 12.5156V15.8602C10.4763 15.7219 9.89504 15.1688 9.77551 14.4234C9.76144 14.3344 9.68176 14.2687 9.59035 14.2687H8.50753C8.39737 14.2687 8.31066 14.3625 8.32003 14.4727C8.4255 15.7617 9.40285 16.9477 11.4888 17.1V17.8359C11.4888 17.9391 11.5732 18.0234 11.6763 18.0234H12.3419C12.445 18.0234 12.5294 17.9391 12.5294 17.8336L12.5247 17.0906C14.3599 16.9289 15.6724 15.9469 15.6724 14.1844C15.6701 12.5578 14.6365 11.8312 13.1177 11.4562ZM11.5099 11.0766C11.3786 11.0391 11.2685 11.0039 11.1583 10.9594C10.3661 10.6734 9.99816 10.2117 9.99816 9.61641C9.99816 8.76562 10.6427 8.28047 11.5099 8.17031V11.0766ZM12.5224 15.8672V12.7336C12.595 12.7547 12.6607 12.7711 12.7286 12.7852C13.8372 13.1227 14.2099 13.5914 14.2099 14.3109C14.2099 15.2273 13.5208 15.7781 12.5224 15.8672Z" fill="#4293CF"/>
</g>
</svg>
