<svg width="24" height="24" viewBox="0 0 24 24" fill="none" xmlns="http://www.w3.org/2000/svg">
<g id="icon/two-tone/directional/down-square">
<path id="Vector" d="M20.625 2.625H3.375C2.96016 2.625 2.625 2.96016 2.625 3.375V20.625C2.625 21.0398 2.96016 21.375 3.375 21.375H20.625C21.0398 21.375 21.375 21.0398 21.375 20.625V3.375C21.375 2.96016 21.0398 2.625 20.625 2.625ZM19.6875 19.6875H4.3125V4.3125H19.6875V19.6875Z" fill="#4293CF"/>
<path id="Vector_2" d="M4.3125 19.6875H19.6875V4.3125H4.3125V19.6875ZM7.82812 9.375H8.92734C9.16875 9.375 9.39375 9.48984 9.53437 9.68438L12 13.0922L14.4656 9.68438C14.6063 9.48984 14.8336 9.375 15.0727 9.375H16.1719C16.3242 9.375 16.4133 9.54844 16.3219 9.67266L12.15 15.4383C12.1327 15.4622 12.11 15.4818 12.0837 15.4952C12.0575 15.5087 12.0284 15.5157 11.9988 15.5157C11.9693 15.5157 11.9402 15.5087 11.9139 15.4952C11.8876 15.4818 11.8649 15.4622 11.8477 15.4383L7.67578 9.67266C7.58672 9.54844 7.67578 9.375 7.82812 9.375Z" fill="#D4E9F6"/>
<path id="Vector_3" d="M11.847 15.4383C11.922 15.5414 12.0743 15.5414 12.1493 15.4383L16.3212 9.67266C16.4126 9.54844 16.3236 9.375 16.1712 9.375H15.072C14.8329 9.375 14.6056 9.48984 14.465 9.68438L11.9993 13.0922L9.5337 9.68438C9.39308 9.48984 9.16808 9.375 8.92667 9.375H7.82745C7.6751 9.375 7.58604 9.54844 7.6751 9.67266L11.847 15.4383Z" fill="#4293CF"/>
</g>
</svg>
