<svg width="24" height="24" viewBox="0 0 24 24" fill="none" xmlns="http://www.w3.org/2000/svg">
<g id="icon/two-tone/application/experiment">
<path id="Vector" d="M12.9352 12.0238C13.3945 12.0238 13.7766 11.691 13.8563 11.2551C13.812 11.4659 13.6965 11.6551 13.5292 11.7909C13.3619 11.9266 13.1529 12.0006 12.9375 12.0004C12.6913 12.0004 12.4549 11.9036 12.2795 11.7308C12.1041 11.558 12.0037 11.3232 12 11.077V11.0887C12 11.6043 12.4195 12.0238 12.9352 12.0238ZM17.625 16.1207L17.618 16.1137C16.9383 15.7035 16.1578 15.4855 15.3445 15.4855C14.2922 15.4855 13.3008 15.8535 12.5086 16.5121C11.4256 17.4202 10.0571 17.9173 8.64375 17.916C7.67812 17.916 6.74531 17.6863 5.90859 17.2598L4.93359 19.7816H19.0664L17.6625 16.1441L17.625 16.1207Z" fill="#D4E9F6"/>
<path id="Vector_2" d="M20.6018 19.3336L16.3197 8.25V4.17188H18.0002V2.57812H6.0002V4.17188H7.68066V8.25L3.39863 19.3336C3.33301 19.507 3.29785 19.6898 3.29785 19.875C3.29785 20.7023 3.97051 21.375 4.79785 21.375H19.2025C19.3877 21.375 19.5705 21.3398 19.7439 21.2742C20.5174 20.9766 20.9018 20.107 20.6018 19.3336ZM9.27441 8.54766V4.21875H14.726V8.54766L16.8564 14.0625C16.3713 13.9383 15.8697 13.875 15.3588 13.875C13.9244 13.875 12.565 14.3789 11.4846 15.2812C10.6871 15.9474 9.68068 16.3117 8.6416 16.3102C7.8752 16.3102 7.13926 16.1156 6.49004 15.7547L9.27441 8.54766ZM4.93379 19.7812L5.90879 17.2594L5.91113 17.2547C6.74785 17.6789 7.67832 17.9062 8.64395 17.9062C10.0783 17.9062 11.4377 17.4023 12.5182 16.5C13.3127 15.8391 14.3064 15.4711 15.3611 15.4711C16.1814 15.4711 16.9643 15.6938 17.6486 16.1063L17.6627 16.1437L19.0666 19.7812H4.93379Z" fill="#4293CF"/>
<path id="Vector_3" d="M12.9375 12C13.3898 12 13.7672 11.6813 13.8563 11.2547C13.8703 11.1914 13.875 11.1281 13.875 11.0625C13.875 10.5445 13.4555 10.125 12.9375 10.125C12.4195 10.125 12 10.5445 12 11.0625V11.0766C12.0037 11.3228 12.1041 11.5576 12.2795 11.7304C12.4549 11.9032 12.6913 12 12.9375 12Z" fill="#4293CF"/>
</g>
</svg>
