<svg width="24" height="24" viewBox="0 0 24 24" fill="none" xmlns="http://www.w3.org/2000/svg">
<g id="icon/two-tone/application/eye-invisible">
<path id="Vector" d="M5.97436 17.7855L8.91741 14.8425C8.17648 14.0626 7.76951 13.0241 7.78328 11.9485C7.79706 10.8729 8.23048 9.84516 8.99113 9.0845C9.75179 8.32385 10.7795 7.89043 11.8551 7.87665C12.9308 7.86288 13.9692 8.26985 14.7491 9.01078L17.7426 6.01687C16.0971 4.91297 14.183 4.36047 12.0004 4.35938C7.49569 4.35938 4.13475 6.70547 1.91757 11.3977C1.82845 11.5864 1.78223 11.7925 1.78223 12.0012C1.78223 12.2099 1.82845 12.416 1.91757 12.6047C2.99991 14.8845 4.35218 16.6115 5.97436 17.7855Z" fill="#D4E9F6"/>
<path id="Vector_2" d="M22.0828 11.3953C21.2587 9.65953 20.2783 8.24391 19.1414 7.14844L15.7612 10.5298C16.0444 11.2736 16.1064 12.0835 15.9398 12.8617C15.7732 13.64 15.3852 14.3535 14.8224 14.9163C14.2595 15.4791 13.546 15.8671 12.7677 16.0337C11.9895 16.2002 11.1796 16.1382 10.4358 15.855L7.57031 18.7207C8.89844 19.334 10.375 19.6406 12 19.6406C16.5047 19.6406 19.8656 17.2945 22.0828 12.6023C22.1719 12.4136 22.2182 12.2075 22.2182 11.9988C22.2182 11.7901 22.1719 11.584 22.0828 11.3953Z" fill="#D4E9F6"/>
<path id="Vector_3" d="M22.0828 11.3953C21.2589 9.65953 20.2784 8.24391 19.1414 7.14844L17.9489 8.34094C18.9213 9.27023 19.7684 10.4859 20.5008 12C18.5508 16.0359 15.7828 17.9531 12 17.9531C10.8645 17.9531 9.81867 17.7783 8.86242 17.4286L7.57031 18.7207C8.89844 19.334 10.375 19.6406 12 19.6406C16.5047 19.6406 19.8656 17.2945 22.0828 12.6023C22.1719 12.4136 22.2182 12.2075 22.2182 11.9988C22.2182 11.7901 22.1719 11.584 22.0828 11.3953Z" fill="#4293CF"/>
<path id="Vector_4" d="M20.5933 3.8808L19.5941 2.88049C19.5767 2.86306 19.556 2.84923 19.5333 2.83979C19.5105 2.83036 19.4861 2.8255 19.4615 2.8255C19.4368 2.8255 19.4124 2.83036 19.3897 2.83979C19.3669 2.84923 19.3462 2.86306 19.3288 2.88049L16.7655 5.44268C15.3522 4.7208 13.7638 4.35987 12.0004 4.35987C7.49569 4.35987 4.13475 6.70596 1.91757 11.3981C1.82845 11.5869 1.78223 11.793 1.78223 12.0017C1.78223 12.2104 1.82845 12.4165 1.91757 12.6052C2.80335 14.4708 3.86975 15.9662 5.11679 17.0914L2.63663 19.5708C2.60149 19.606 2.58176 19.6536 2.58176 19.7033C2.58176 19.7531 2.60149 19.8007 2.63663 19.8359L3.63718 20.8364C3.67234 20.8716 3.72001 20.8913 3.76972 20.8913C3.81942 20.8913 3.86709 20.8716 3.90225 20.8364L20.5933 4.14612C20.6107 4.1287 20.6245 4.10802 20.634 4.08526C20.6434 4.0625 20.6483 4.0381 20.6483 4.01346C20.6483 3.98882 20.6434 3.96442 20.634 3.94166C20.6245 3.9189 20.6107 3.89822 20.5933 3.8808ZM3.4996 12.0005C5.45194 7.96455 8.21991 6.04737 12.0004 6.04737C13.2787 6.04737 14.4409 6.26674 15.4954 6.71276L13.8477 8.36041C13.0674 7.94408 12.174 7.78956 11.2991 7.91966C10.4243 8.04976 9.6145 8.45759 8.98911 9.08297C8.36372 9.70836 7.9559 10.5182 7.8258 11.393C7.6957 12.2678 7.85022 13.1613 8.26655 13.9416L6.31139 15.8967C5.22929 14.9417 4.29647 13.6477 3.4996 12.0005ZM9.28163 12.0005C9.28204 11.5872 9.37993 11.1798 9.56736 10.8115C9.75478 10.4432 10.0265 10.1242 10.3603 9.88059C10.6941 9.63697 11.0807 9.47553 11.4887 9.40939C11.8967 9.34325 12.3145 9.37427 12.7082 9.49995L9.40608 12.8021C9.32332 12.5429 9.28133 12.2725 9.28163 12.0005Z" fill="#4293CF"/>
<path id="Vector_5" d="M11.9069 14.6253C11.8258 14.6253 11.7459 14.6215 11.6667 14.6143L10.4287 15.8522C11.1733 16.1374 11.9845 16.2008 12.7644 16.0347C13.5442 15.8686 14.2592 15.4802 14.823 14.9164C15.3868 14.3526 15.7752 13.6376 15.9413 12.8578C16.1074 12.0779 16.044 11.2667 15.7589 10.5221L14.5209 11.7601C14.5282 11.8393 14.5319 11.9192 14.5319 12.0003C14.5321 12.3451 14.4643 12.6865 14.3325 13.0051C14.2006 13.3236 14.0073 13.6131 13.7635 13.8569C13.5197 14.1006 13.2302 14.294 12.9117 14.4258C12.5931 14.5577 12.2517 14.6255 11.9069 14.6253Z" fill="#4293CF"/>
</g>
</svg>
