<svg width="24" height="24" viewBox="0 0 24 24" fill="none" xmlns="http://www.w3.org/2000/svg">
<g id="icon/two-tone/application/eye">
<path id="Vector" d="M1.91757 12.6047C1.82845 12.416 1.78223 12.2099 1.78223 12.0012C1.78223 11.7925 1.82845 11.5864 1.91757 11.3977C4.13944 6.71484 7.49569 4.35938 12.0004 4.35938C7.49569 4.35938 4.13944 6.71484 1.91757 11.3977C1.82845 11.5864 1.78223 11.7925 1.78223 12.0012C1.78223 12.2099 1.82845 12.416 1.91757 12.6047C4.13944 17.2852 7.49804 19.6406 12.0004 19.6406C7.49804 19.6406 4.13944 17.2852 1.91757 12.6047Z" fill="#D4E9F6"/>
<path id="Vector_2" d="M11.9988 6.04688C8.21836 6.04688 5.45039 7.96406 3.49805 12C5.45039 16.0359 8.21836 17.9531 11.9988 17.9531C15.7816 17.9531 18.5496 16.0359 20.4996 12C18.5473 7.96406 15.7793 6.04688 11.9988 6.04688ZM11.9051 16.125C9.62695 16.125 7.78008 14.2781 7.78008 12C7.78008 9.72188 9.62695 7.875 11.9051 7.875C14.1832 7.875 16.0301 9.72188 16.0301 12C16.0301 14.2781 14.1832 16.125 11.9051 16.125Z" fill="#D4E9F6"/>
<path id="Vector_3" d="M22.0832 11.3953C19.8613 6.71484 16.5027 4.35938 12.0004 4.35938C7.49569 4.35938 4.13944 6.71484 1.91757 11.3977C1.82845 11.5864 1.78223 11.7925 1.78223 12.0012C1.78223 12.2099 1.82845 12.416 1.91757 12.6047C4.13944 17.2852 7.49804 19.6406 12.0004 19.6406C16.5051 19.6406 19.8613 17.2852 22.0832 12.6023C22.2637 12.2227 22.2637 11.782 22.0832 11.3953ZM12.0004 17.9531C8.21991 17.9531 5.45194 16.0359 3.4996 12C5.45194 7.96406 8.21991 6.04688 12.0004 6.04688C15.7808 6.04688 18.5488 7.96406 20.5012 12C18.5512 16.0359 15.7832 17.9531 12.0004 17.9531Z" fill="#4293CF"/>
<path id="Vector_4" d="M11.9062 7.875C9.62813 7.875 7.78125 9.72188 7.78125 12C7.78125 14.2781 9.62813 16.125 11.9062 16.125C14.1844 16.125 16.0312 14.2781 16.0312 12C16.0312 9.72188 14.1844 7.875 11.9062 7.875ZM11.9062 14.625C10.4555 14.625 9.28125 13.4508 9.28125 12C9.28125 10.5492 10.4555 9.375 11.9062 9.375C13.357 9.375 14.5312 10.5492 14.5312 12C14.5312 13.4508 13.357 14.625 11.9062 14.625Z" fill="#4293CF"/>
</g>
</svg>
