<svg width="24" height="24" viewBox="0 0 24 24" fill="none" xmlns="http://www.w3.org/2000/svg">
<g id="icon/two-tone/application/file-excel">
<path id="Vector" d="M12.5156 8.25V3.1875H5.4375V20.8125H18.5625V9.23438H13.5C13.2389 9.23438 12.9885 9.13066 12.8039 8.94606C12.6193 8.76145 12.5156 8.51107 12.5156 8.25ZM13.725 11.0625H14.5617C14.6122 11.0628 14.6616 11.0765 14.7049 11.1024C14.7482 11.1282 14.7838 11.1652 14.808 11.2095C14.8322 11.2537 14.844 11.3037 14.8423 11.3541C14.8407 11.4045 14.8255 11.4535 14.7984 11.4961L12.7992 14.6016L14.768 17.6578C14.8523 17.7891 14.8148 17.9625 14.6836 18.0469C14.6367 18.075 14.5852 18.0914 14.5312 18.0914H13.6523C13.5562 18.0914 13.4648 18.0422 13.4133 17.9578L11.9531 15.5812L10.4836 17.9602C10.432 18.0422 10.343 18.0938 10.2445 18.0938H9.43594C9.38566 18.0937 9.33632 18.0801 9.29303 18.0546C9.24973 18.029 9.21405 17.9923 9.18968 17.9484C9.1653 17.9044 9.15312 17.8547 9.15438 17.8045C9.15565 17.7542 9.17032 17.7052 9.19687 17.6625L11.1516 14.55L9.22266 11.4937C9.13828 11.3602 9.17813 11.1867 9.30938 11.1047C9.35391 11.0742 9.40547 11.0602 9.45938 11.0602H10.3594C10.4578 11.0602 10.5492 11.1117 10.6008 11.1961L12.0492 13.5961L13.4836 11.1984C13.5352 11.1141 13.6266 11.0625 13.725 11.0625Z" fill="#D4E9F6"/>
<path id="Vector_2" d="M20.0297 6.76406L14.9859 1.72031C14.8453 1.57969 14.6555 1.5 14.4562 1.5H4.5C4.08516 1.5 3.75 1.83516 3.75 2.25V21.75C3.75 22.1648 4.08516 22.5 4.5 22.5H19.5C19.9148 22.5 20.25 22.1648 20.25 21.75V7.29609C20.25 7.09687 20.1703 6.90469 20.0297 6.76406ZM14.1094 3.22969L18.5203 7.64062H14.1094V3.22969ZM18.5625 20.8125H5.4375V3.1875H12.5156V8.25C12.5156 8.51107 12.6193 8.76145 12.8039 8.94606C12.9885 9.13066 13.2389 9.23438 13.5 9.23438H18.5625V20.8125Z" fill="#4293CF"/>
<path id="Vector_3" d="M12.0482 13.5957L10.5998 11.1957C10.5482 11.1113 10.4568 11.0598 10.3584 11.0598H9.4584C9.4045 11.0598 9.35294 11.0738 9.3084 11.1043C9.17715 11.1863 9.13731 11.3598 9.22169 11.4933L11.1506 14.5496L9.1959 17.6621C9.16935 17.7048 9.15468 17.7538 9.15341 17.8041C9.15214 17.8543 9.16433 17.904 9.1887 17.948C9.21308 17.992 9.24876 18.0286 9.29206 18.0542C9.33535 18.0798 9.38469 18.0933 9.43497 18.0934H10.2436C10.342 18.0934 10.4311 18.0418 10.4826 17.9598L11.9522 15.5809L13.4123 17.9574C13.4639 18.0418 13.5553 18.091 13.6514 18.091H14.5303C14.5842 18.091 14.6357 18.0746 14.6826 18.0465C14.8139 17.9621 14.8514 17.7887 14.767 17.6574L12.7982 14.6012L14.7975 11.4957C14.8245 11.4531 14.8397 11.4041 14.8414 11.3537C14.843 11.3033 14.8312 11.2533 14.807 11.2091C14.7828 11.1648 14.7473 11.1278 14.7039 11.102C14.6606 11.0761 14.6112 11.0623 14.5607 11.0621H13.724C13.6256 11.0621 13.5342 11.1137 13.4826 11.198L12.0482 13.5957Z" fill="#4293CF"/>
</g>
</svg>
