<svg width="24" height="24" viewBox="0 0 24 24" fill="none" xmlns="http://www.w3.org/2000/svg">
<g id="icon/two-tone/application/file-image">
<path id="Vector" d="M12.5156 8.25V3.1875H5.4375V20.8125H18.5625V9.23438H13.5C13.2389 9.23438 12.9885 9.13066 12.8039 8.94606C12.6193 8.76145 12.5156 8.51107 12.5156 8.25ZM9.375 9.42188C9.89297 9.42188 10.3125 9.84141 10.3125 10.3594C10.3125 10.8773 9.89297 11.2969 9.375 11.2969C8.85703 11.2969 8.4375 10.8773 8.4375 10.3594C8.4375 9.84141 8.85703 9.42188 9.375 9.42188ZM16.3125 16.3125H7.68984C7.53281 16.3125 7.44609 16.132 7.54219 16.0102L9.88125 13.0289C9.89879 13.0065 9.9212 12.9884 9.94678 12.9759C9.97236 12.9634 10.0004 12.957 10.0289 12.957C10.0574 12.957 10.0854 12.9634 10.111 12.9759C10.1366 12.9884 10.159 13.0065 10.1766 13.0289L11.1398 14.257L12.9633 11.932C12.9811 11.9096 13.0037 11.8915 13.0294 11.879C13.0552 11.8665 13.0835 11.86 13.1121 11.86C13.1407 11.86 13.169 11.8665 13.1948 11.879C13.2205 11.8915 13.2432 11.9096 13.2609 11.932L16.4602 16.0102C16.5562 16.132 16.4695 16.3125 16.3125 16.3125Z" fill="#D4E9F6"/>
<path id="Vector_2" d="M20.0297 6.76406L14.9859 1.72031C14.8453 1.57969 14.6555 1.5 14.4562 1.5H4.5C4.08516 1.5 3.75 1.83516 3.75 2.25V21.75C3.75 22.1648 4.08516 22.5 4.5 22.5H19.5C19.9148 22.5 20.25 22.1648 20.25 21.75V7.29609C20.25 7.09687 20.1703 6.90469 20.0297 6.76406ZM14.1094 3.22969L18.5203 7.64062H14.1094V3.22969ZM18.5625 20.8125H5.4375V3.1875H12.5156V8.25C12.5156 8.51107 12.6193 8.76145 12.8039 8.94606C12.9885 9.13066 13.2389 9.23438 13.5 9.23438H18.5625V20.8125Z" fill="#4293CF"/>
<path id="Vector_3" d="M12.9628 11.932L11.1394 14.2571L10.1761 13.0289C10.1586 13.0065 10.1362 12.9884 10.1106 12.9759C10.085 12.9635 10.0569 12.957 10.0285 12.957C10 12.957 9.97192 12.9635 9.94633 12.9759C9.92075 12.9884 9.89834 13.0065 9.8808 13.0289L7.54173 16.0102C7.52009 16.0378 7.50666 16.071 7.50298 16.1059C7.4993 16.1408 7.50552 16.176 7.52092 16.2076C7.53633 16.2391 7.56029 16.2657 7.59008 16.2842C7.61988 16.3028 7.65429 16.3126 7.68939 16.3125H16.3121C16.4691 16.3125 16.5558 16.1321 16.4597 16.0102L13.2605 11.932C13.2427 11.9096 13.2201 11.8915 13.1943 11.879C13.1686 11.8665 13.1403 11.8601 13.1117 11.8601C13.083 11.8601 13.0548 11.8665 13.029 11.879C13.0032 11.8915 12.9806 11.9096 12.9628 11.932ZM8.43705 10.3594C8.43705 10.608 8.53582 10.8465 8.71163 11.0223C8.88745 11.1981 9.12591 11.2969 9.37455 11.2969C9.62319 11.2969 9.86165 11.1981 10.0375 11.0223C10.2133 10.8465 10.3121 10.608 10.3121 10.3594C10.3121 10.1107 10.2133 9.87228 10.0375 9.69646C9.86165 9.52065 9.62319 9.42188 9.37455 9.42188C9.12591 9.42188 8.88745 9.52065 8.71163 9.69646C8.53582 9.87228 8.43705 10.1107 8.43705 10.3594Z" fill="#4293CF"/>
</g>
</svg>
