<svg width="24" height="24" viewBox="0 0 24 24" fill="none" xmlns="http://www.w3.org/2000/svg">
<g id="icon/two-tone/application/file-pdf">
<path id="Vector" d="M11.9344 11.5023C11.918 11.4719 11.9016 11.4578 11.8828 11.4554C11.8148 11.5328 11.8313 12.1937 11.9461 12.6601C12.0398 12.3414 12.0563 11.7109 11.9344 11.5023ZM11.8969 14.3265C11.7164 14.7953 11.4563 15.4351 11.1445 16C11.2383 15.9625 11.3344 15.9226 11.4328 15.8828C11.8453 15.714 12.307 15.5242 12.8133 15.4094C12.4641 15.1328 12.1477 14.7601 11.8969 14.3265Z" fill="#D4E9F6"/>
<path id="Vector_2" d="M12.5156 8.25V3.1875H5.4375V20.8125H18.5625V9.23438H13.5C13.2389 9.23438 12.9885 9.13066 12.8039 8.94606C12.6193 8.76145 12.5156 8.51107 12.5156 8.25ZM13.8047 14.9906C14.182 14.9461 14.5219 14.925 14.843 14.9367C15.143 14.9461 15.3961 14.9836 15.593 15.0563C15.5977 15.0586 15.6 15.0586 15.6047 15.0609C15.6141 15.0656 15.6234 15.068 15.6328 15.0727C15.6445 15.0773 15.6586 15.082 15.6703 15.0891C15.6727 15.0914 15.6773 15.0914 15.6797 15.0938C15.7758 15.1359 15.8555 15.1875 15.9164 15.2484C16.1297 15.4617 16.193 15.8602 16.0617 16.1766C15.9867 16.357 15.7875 16.657 15.2812 16.657C14.7703 16.657 14.018 16.4297 13.357 16.0758C12.7594 16.1766 12.0984 16.4016 11.4609 16.6172C11.325 16.6641 11.1844 16.7109 11.0484 16.7555C10.1578 18.2836 9.48984 18.6164 9.07734 18.6164C8.97891 18.6164 8.89453 18.5953 8.82422 18.5695C8.6625 18.5086 8.52422 18.382 8.4375 18.218C8.41641 18.1781 8.4 18.1383 8.38594 18.0961C8.34844 17.9836 8.33672 17.8711 8.35547 17.7773L8.36953 17.7141C8.37188 17.7094 8.37187 17.7047 8.37422 17.7C8.37891 17.6836 8.38359 17.6672 8.39062 17.6508C8.39062 17.6484 8.39297 17.6461 8.39297 17.6437C8.48906 17.3648 8.71172 17.0953 9.04219 16.8328C9.33047 16.6031 9.67734 16.3945 10.118 16.1672C10.4906 15.5109 10.9992 14.407 11.318 13.65C11.0648 12.6703 10.9266 11.9016 11.0812 11.3391C11.1023 11.2617 11.1398 11.1891 11.1891 11.1258C11.1937 11.1211 11.1961 11.1164 11.2008 11.1117C11.2031 11.1094 11.2031 11.107 11.2055 11.107C11.3531 10.9312 11.6016 10.8281 11.8641 10.8375C12.2531 10.8539 12.5602 11.107 12.6375 11.543C12.6773 11.7305 12.6891 11.9297 12.682 12.1453V12.1617C12.682 12.1734 12.682 12.1852 12.6797 12.1969C12.6633 12.5086 12.6094 12.8203 12.5086 13.2445C12.4992 13.282 12.4898 13.3195 12.4805 13.3664L12.457 13.4625L12.4547 13.4695C12.457 13.4742 12.457 13.4766 12.4594 13.4813L12.5016 13.5867C12.5039 13.5938 12.5086 13.6031 12.5109 13.6102C12.5273 13.6477 12.5438 13.6875 12.5602 13.7227V13.725C12.7641 14.1656 13.0219 14.5078 13.3547 14.782C13.4555 14.8641 13.5633 14.9391 13.6805 15.0117C13.7227 15 13.7625 14.9953 13.8047 14.9906Z" fill="#D4E9F6"/>
<path id="Vector_3" d="M9.17578 17.836C9.30937 17.7328 9.55547 17.4961 9.88125 17.0227C9.63984 17.243 9.33281 17.5477 9.17578 17.836ZM15.525 15.8907L15.5297 15.8836H15.5343C15.5484 15.8743 15.5461 15.8672 15.5437 15.8625C15.5414 15.8602 15.4383 15.6446 14.4867 15.6891C15.314 16.0149 15.5062 15.9024 15.525 15.8907Z" fill="#D4E9F6"/>
<path id="Vector_4" d="M20.0297 6.76406L14.9859 1.72031C14.8453 1.57969 14.6555 1.5 14.4562 1.5H4.5C4.08516 1.5 3.75 1.83516 3.75 2.25V21.75C3.75 22.1648 4.08516 22.5 4.5 22.5H19.5C19.9148 22.5 20.25 22.1648 20.25 21.75V7.29609C20.25 7.09687 20.1703 6.90469 20.0297 6.76406ZM14.1094 3.22969L18.5203 7.64062H14.1094V3.22969ZM18.5625 20.8125H5.4375V3.1875H12.5156V8.25C12.5156 8.51107 12.6193 8.76145 12.8039 8.94606C12.9885 9.13066 13.2389 9.23438 13.5 9.23438H18.5625V20.8125Z" fill="#4293CF"/>
<path id="Vector_5" d="M12.5601 13.7177C12.5414 13.6779 12.525 13.6404 12.5086 13.6029C12.5062 13.5959 12.5015 13.5865 12.4992 13.5795L12.457 13.474C12.4547 13.4693 12.4547 13.467 12.4523 13.4623L12.4547 13.4552L12.4593 13.4295C12.5531 13.0474 12.6609 12.6021 12.6797 12.1545V12.138C12.6867 11.9365 12.675 11.7349 12.6328 11.538C12.5437 11.0388 12.1757 10.8443 11.8617 10.8302C11.5968 10.8185 11.3507 10.924 11.2031 11.0974C11.2008 11.0998 11.2007 11.1021 11.1984 11.1021C11.1937 11.1068 11.189 11.1115 11.1867 11.1162C11.1375 11.1795 11.1 11.2521 11.0789 11.3295C10.9242 11.892 11.0625 12.6607 11.3156 13.6404C10.9968 14.3998 10.4883 15.5013 10.1156 16.1576V16.1599C9.46638 16.4951 8.61326 16.999 8.3906 17.6342C8.3906 17.6365 8.38826 17.6389 8.38826 17.6412C8.38357 17.6576 8.37654 17.674 8.37186 17.6904C8.36951 17.6951 8.36951 17.6998 8.36717 17.7045C8.36248 17.7256 8.35545 17.7467 8.3531 17.7678C8.33201 17.8615 8.34373 17.974 8.38357 18.0865C8.39764 18.1287 8.41404 18.1685 8.43514 18.2084C8.52185 18.3724 8.66013 18.499 8.82185 18.5599C8.89217 18.5857 8.97654 18.6068 9.07498 18.6068C9.48748 18.6068 10.1554 18.274 11.0461 16.7459C11.182 16.7013 11.3226 16.6545 11.4586 16.6076C12.0961 16.392 12.757 16.167 13.3546 16.0662C14.0156 16.4201 14.7679 16.6474 15.2789 16.6474C15.7851 16.6474 15.9843 16.3474 16.0593 16.167C16.1906 15.8506 16.1273 15.4521 15.914 15.2388C15.8531 15.1779 15.7734 15.1263 15.6773 15.0842C15.675 15.0818 15.6703 15.0818 15.6679 15.0795C15.6562 15.0748 15.6421 15.0701 15.6304 15.0631C15.621 15.0584 15.6117 15.056 15.6023 15.0513C15.5976 15.049 15.5953 15.049 15.5906 15.0467C15.2109 14.9107 14.6132 14.8896 13.8023 14.981L13.6781 14.9951C13.5609 14.9248 13.4531 14.8474 13.3523 14.7654C13.0195 14.5006 12.764 14.1607 12.5601 13.7177ZM9.17576 17.8357C9.33279 17.5474 9.63982 17.2428 9.88122 17.0224C9.55544 17.4959 9.30935 17.7326 9.17576 17.8357ZM11.8828 11.456C11.9015 11.4584 11.9179 11.4724 11.9343 11.5029C12.0562 11.7115 12.0398 12.342 11.9461 12.6607C11.8312 12.1943 11.8148 11.5334 11.8828 11.456ZM11.4328 15.8834C11.3343 15.9232 11.2383 15.9631 11.1445 16.0006C11.4562 15.4357 11.7164 14.7959 11.8968 14.3271C12.1476 14.7607 12.464 15.1334 12.8132 15.4099C12.307 15.5248 11.8453 15.7146 11.4328 15.8834ZM15.5437 15.8623C15.546 15.867 15.5484 15.874 15.5343 15.8834H15.5296L15.525 15.8904C15.5062 15.9021 15.314 16.0146 14.4867 15.6888C15.4382 15.6443 15.5414 15.8599 15.5437 15.8623Z" fill="#4293CF"/>
</g>
</svg>
