<svg width="24" height="24" viewBox="0 0 24 24" fill="none" xmlns="http://www.w3.org/2000/svg">
<g id="icon/two-tone/application/filter">
<path id="Vector" d="M9.85898 18.7031H14.1457V15.0469H9.85898V18.7031ZM9.63398 13.1578L9.85664 13.5469H14.1457L14.3684 13.1578L19.016 5.29688H4.98633L9.63398 13.1578Z" fill="#D4E9F6"/>
<path id="Vector_2" d="M20.6269 3.60938H3.37226C2.79804 3.60938 2.43945 4.23516 2.72773 4.73438L8.17929 14.0016V19.6406C8.17929 20.0555 8.5121 20.3906 8.92461 20.3906H15.0746C15.4871 20.3906 15.8199 20.0555 15.8199 19.6406V14.0016L21.2738 4.73438C21.5598 4.23516 21.2012 3.60938 20.6269 3.60938ZM14.1441 18.7031H9.85742V15.0469H14.1441V18.7031ZM14.3668 13.1578L14.1441 13.5469H9.85507L9.63242 13.1578L4.98476 5.29688H19.0144L14.3668 13.1578Z" fill="#4293CF"/>
</g>
</svg>
