<svg width="24" height="24" viewBox="0 0 24 24" fill="none" xmlns="http://www.w3.org/2000/svg">
<g id="icon/two-tone/application/fire">
<path id="Vector" d="M17.2725 10.2793C17.0475 10.6426 16.7779 10.9988 16.4662 11.348C16.3149 11.5179 16.1313 11.656 15.9261 11.7542C15.7209 11.8524 15.4981 11.9087 15.2709 11.9199C15.0435 11.933 14.8158 11.9008 14.6009 11.8252C14.3861 11.7495 14.1884 11.632 14.0194 11.4793C13.8243 11.3041 13.6715 11.0869 13.5725 10.8442C13.4734 10.6014 13.4307 10.3394 13.4475 10.0777C13.5178 8.96678 13.1569 7.66132 12.374 6.19413C11.9779 5.45819 11.5045 4.83007 10.9397 4.30975C10.8818 4.68161 10.7868 5.04672 10.6561 5.3996C10.3352 6.25857 9.87429 7.05846 9.29201 7.76678C8.88774 8.26263 8.42679 8.70943 7.91857 9.09803C7.1217 9.70975 6.46545 10.5043 6.02482 11.3926C5.57397 12.2949 5.3404 13.2901 5.34279 14.2988C5.34279 16.0543 6.0342 17.7043 7.2881 18.9488C8.5467 20.1957 10.2178 20.8801 11.999 20.8801C13.7803 20.8801 15.4514 20.1957 16.71 18.9488C17.9639 17.7066 18.6553 16.0543 18.6553 14.2988C18.6553 13.3801 18.4654 12.4871 18.0928 11.648C17.8748 11.1558 17.6006 10.6988 17.2725 10.2793Z" fill="#D4E9F6"/>
<path id="Vector_2" d="M19.5492 10.9973C19.0942 9.97318 18.4328 9.05401 17.6063 8.29726L16.9242 7.67148C16.9011 7.65082 16.8732 7.63615 16.843 7.62877C16.8129 7.6214 16.7814 7.62153 16.7513 7.62917C16.7212 7.6368 16.6935 7.65171 16.6705 7.67257C16.6475 7.69343 16.63 7.71962 16.6195 7.74883L16.3148 8.62304C16.125 9.17148 15.7758 9.73164 15.2812 10.2824C15.2484 10.3176 15.2109 10.327 15.1852 10.3293C15.1594 10.3316 15.1195 10.327 15.0844 10.2941C15.0516 10.266 15.0352 10.2238 15.0375 10.1816C15.1242 8.7707 14.7023 7.17929 13.7789 5.44726C13.0148 4.0082 11.9531 2.88554 10.6266 2.10273L9.65859 1.5332C9.53203 1.4582 9.37031 1.55664 9.37734 1.70429L9.42891 2.82929C9.46406 3.59804 9.375 4.27773 9.16406 4.84257C8.90625 5.53398 8.53594 6.17617 8.0625 6.75273C7.73302 7.15343 7.35959 7.51585 6.94922 7.8332C5.96087 8.59296 5.15722 9.56648 4.59844 10.6809C4.04103 11.8049 3.75068 13.0426 3.75 14.2973C3.75 15.4035 3.96797 16.4746 4.39922 17.4848C4.81562 18.4573 5.41654 19.34 6.16875 20.084C6.92813 20.834 7.80938 21.4246 8.79141 21.8348C9.80859 22.2613 10.8867 22.4769 12 22.4769C13.1133 22.4769 14.1914 22.2613 15.2086 21.8371C16.1882 21.4294 17.079 20.8347 17.8312 20.0863C18.5906 19.3363 19.1859 18.4598 19.6008 17.4871C20.0314 16.4797 20.2523 15.3952 20.25 14.2996C20.25 13.1559 20.0156 12.0449 19.5492 10.9973ZM16.7109 18.9496C15.4523 20.1965 13.7812 20.8809 12 20.8809C10.2188 20.8809 8.54766 20.1965 7.28906 18.9496C6.03516 17.7051 5.34375 16.0551 5.34375 14.2996C5.34375 13.2801 5.57344 12.3027 6.02578 11.3934C6.46641 10.5051 7.12266 9.71054 7.91953 9.09883C8.42775 8.71022 8.8887 8.26342 9.29297 7.76757C9.87891 7.05273 10.3383 6.25586 10.657 5.40039C10.7878 5.04751 10.8828 4.6824 10.9406 4.31054C11.5055 4.83086 11.9789 5.45898 12.375 6.19492C13.1578 7.66211 13.5187 8.96758 13.4484 10.0785C13.4316 10.3402 13.4744 10.6022 13.5734 10.845C13.6725 11.0877 13.8253 11.3049 14.0203 11.4801C14.1893 11.6328 14.387 11.7503 14.6019 11.826C14.8167 11.9016 15.0445 11.9338 15.2719 11.9207C15.7336 11.8973 16.1578 11.6934 16.4672 11.3488C16.7789 10.9996 17.0484 10.6434 17.2734 10.2801C17.6016 10.6996 17.8758 11.1566 18.0938 11.6488C18.4664 12.4879 18.6562 13.3809 18.6562 14.2996C18.6562 16.0551 17.9648 17.7074 16.7109 18.9496Z" fill="#4293CF"/>
</g>
</svg>
