<svg width="24" height="24" viewBox="0 0 24 24" fill="none" xmlns="http://www.w3.org/2000/svg">
<g id="icon/two-tone/data/fund">
<path id="Vector" d="M21.75 3.75H2.25C1.83516 3.75 1.5 4.08516 1.5 4.5V19.5C1.5 19.9148 1.83516 20.25 2.25 20.25H21.75C22.1648 20.25 22.5 19.9148 22.5 19.5V4.5C22.5 4.08516 22.1648 3.75 21.75 3.75ZM20.8125 18.5625H3.1875V5.4375H20.8125V18.5625Z" fill="#4293CF"/>
<path id="Vector_2" d="M3.1875 18.5625H20.8125V5.4375H3.1875V18.5625ZM4.50937 15.5039L9.54609 10.4648C9.61875 10.3922 9.73828 10.3922 9.81094 10.4648L12.4922 13.1484L18.457 7.18125C18.5297 7.10859 18.6492 7.10859 18.7219 7.18125L19.5844 8.04375C19.657 8.11641 19.657 8.23594 19.5844 8.30859L12.6234 15.2742C12.5882 15.3091 12.5406 15.3287 12.491 15.3287C12.4414 15.3287 12.3938 15.3091 12.3586 15.2742L9.67734 12.5906L5.63437 16.6336C5.59913 16.6685 5.55155 16.6881 5.50195 16.6881C5.45236 16.6881 5.40477 16.6685 5.36953 16.6336L4.50937 15.7687C4.47448 15.7335 4.45491 15.6859 4.45491 15.6363C4.45491 15.5867 4.47448 15.5391 4.50937 15.5039Z" fill="#D4E9F6"/>
<path id="Vector_3" d="M5.3697 16.6334C5.44236 16.7061 5.56189 16.7061 5.63455 16.6334L9.67752 12.5904L12.3588 15.274C12.4314 15.3467 12.551 15.3467 12.6236 15.274L19.5845 8.3084C19.6572 8.23574 19.6572 8.11621 19.5845 8.04356L18.722 7.18106C18.6868 7.14616 18.6392 7.12659 18.5896 7.12659C18.54 7.12659 18.4924 7.14616 18.4572 7.18106L12.4924 13.1482L9.81111 10.4646C9.77587 10.4298 9.72828 10.4102 9.67869 10.4102C9.62909 10.4102 9.5815 10.4298 9.54626 10.4646L4.50955 15.5037C4.47465 15.539 4.45508 15.5865 4.45508 15.6361C4.45508 15.6857 4.47465 15.7333 4.50955 15.7686L5.3697 16.6334Z" fill="#4293CF"/>
</g>
</svg>
