<svg width="24" height="24" viewBox="0 0 24 24" fill="none" xmlns="http://www.w3.org/2000/svg">
<g id="icon/two-tone/application/home">
<path id="Vector" d="M12.0035 4.04572L3.33164 12.7106H5.58164V20.3442H9.18867V15.0004C9.18867 14.4824 9.6082 14.0629 10.1262 14.0629H13.8762C14.3941 14.0629 14.8137 14.4824 14.8137 15.0004V20.3442H18.4207V12.7106H20.673L12.5449 4.58712L12.0035 4.04572ZM22.1871 13.9574C22.0465 14.0981 21.8801 14.2106 21.6996 14.2832C21.8801 14.2082 22.0465 14.0981 22.1871 13.9574ZM1.39805 13.1442C1.51523 13.8543 2.13398 14.3981 2.87695 14.3981H2.89805C2.15039 14.3981 1.51758 13.859 1.39805 13.1442ZM1.37695 12.8981V12.8535V12.8981ZM1.3793 12.8371C1.38164 12.7645 1.39102 12.6942 1.40273 12.6238C1.38867 12.6918 1.38164 12.7645 1.3793 12.8371Z" fill="#D4E9F6"/>
<path id="Vector_2" d="M22.2879 11.9536C22.2879 11.9512 22.2855 11.9512 22.2855 11.9489L22.2434 11.8996C22.241 11.8973 22.2387 11.8926 22.234 11.8903C22.2176 11.8715 22.1988 11.8528 22.1824 11.834L13.1262 2.7848L12.5191 2.17777C12.3808 2.04037 12.1938 1.96326 11.9988 1.96326C11.8039 1.96326 11.6168 2.04037 11.4785 2.17777L1.81523 11.8364C1.64066 12.01 1.51182 12.2242 1.44023 12.4598L1.42617 12.509L1.41914 12.5348L1.41211 12.5629C1.40742 12.5793 1.40508 12.5957 1.40273 12.6121C1.40273 12.6145 1.40273 12.6192 1.40039 12.6215C1.38633 12.6918 1.3793 12.7621 1.37695 12.8348V12.9121C1.37695 12.9239 1.37695 12.9356 1.3793 12.9473C1.3793 12.959 1.3793 12.9684 1.38164 12.9801C1.38164 12.9918 1.38398 13.0035 1.38398 13.0153C1.38398 13.0293 1.38633 13.0434 1.38867 13.0575C1.38867 13.0645 1.39102 13.0715 1.39102 13.0786L1.39805 13.1371V13.1395C1.51758 13.8543 2.15273 14.3934 2.89805 14.3934H3.89414V22.0317H20.1059V14.3981H21.123C21.3246 14.3981 21.5191 14.3582 21.6973 14.2832C21.8754 14.2082 22.0418 14.0981 22.1848 13.9575C22.3244 13.8183 22.435 13.6528 22.5103 13.4705C22.5855 13.2883 22.6238 13.0929 22.623 12.8957C22.623 12.5512 22.5059 12.2207 22.2879 11.9536ZM13.3113 20.3442H10.6863V15.5629H13.3113V20.3442ZM18.4184 12.7106V20.3442H14.8113V15.0004C14.8113 14.4825 14.3918 14.0629 13.8738 14.0629H10.1238C9.60586 14.0629 9.18633 14.4825 9.18633 15.0004V20.3442H5.5793V12.7106H3.3293L12.0012 4.04574L12.5426 4.58714L20.6707 12.7106H18.4184Z" fill="#4293CF"/>
</g>
</svg>
