<svg width="24" height="24" viewBox="0 0 24 24" fill="none" xmlns="http://www.w3.org/2000/svg">
<g id="icon/two-tone/brand-and-logos/html5">
<path id="Vector" d="M3.39844 2.25L4.94531 19.7484L11.9953 21.75L19.0172 19.7484L20.5945 2.25H3.39844ZM17.7164 18.6703L11.9953 20.3016L6.24844 18.6703L4.91953 3.64219H19.0711L17.7164 18.6703Z" fill="#4293CF"/>
<path id="Vector_2" d="M4.91895 3.64221L6.24785 18.6703L11.9947 20.3016L17.7158 18.6703L19.0705 3.64221H4.91895ZM17.3502 6.40549L17.2377 7.51174L17.1979 7.96877H8.94551L9.1377 10.1766H11.976V10.1719H17.008L16.933 10.7414L16.4361 16.418L16.3963 16.8L11.9971 18.0117V18.0211H11.9572L7.53691 16.8023L7.27207 13.4109H9.40488L9.55723 15.1266L11.9572 15.7758H11.976V15.7711L14.376 15.1219L14.6432 12.3445H11.9971V12.3469H7.15723L6.6252 6.40549L6.58535 5.83596H17.39L17.3502 6.40549Z" fill="#D4E9F6"/>
<path id="Vector_3" d="M6.58594 5.83594L6.62578 6.40547L7.15781 12.3469H11.9977V12.3445H14.6437L14.3766 15.1219L11.9766 15.7711V15.7758H11.9578L9.55781 15.1266L9.40547 13.4109H7.27266L7.5375 16.8023L11.9578 18.0211H11.9977V18.0117L16.3969 16.8L16.4367 16.418L16.9336 10.7414L17.0086 10.1719H11.9766V10.1766H9.13828L8.94609 7.96875H17.1984L17.2383 7.51172L17.3508 6.40547L17.3906 5.83594H11.9766H6.58594Z" fill="#4293CF"/>
</g>
</svg>
