<svg width="24" height="24" viewBox="0 0 24 24" fill="none" xmlns="http://www.w3.org/2000/svg">
<g id="icon/two-tone/application/interaction">
<path id="Vector" d="M20.625 2.625H3.375C2.96016 2.625 2.625 2.96016 2.625 3.375V20.625C2.625 21.0398 2.96016 21.375 3.375 21.375H20.625C21.0398 21.375 21.375 21.0398 21.375 20.625V3.375C21.375 2.96016 21.0398 2.625 20.625 2.625ZM19.6875 19.6875H4.3125V4.3125H19.6875V19.6875Z" fill="#4293CF"/>
<path id="Vector_2" d="M4.3125 19.6875H19.6875V4.3125H4.3125V19.6875ZM6.98438 10.268C6.98438 8.97188 8.02969 7.92188 9.32109 7.92188H14.1445V6.67031C14.1445 6.53906 14.2969 6.46406 14.4 6.54609L16.957 8.55469C17.0391 8.61797 17.0391 8.74219 16.957 8.80547L14.4 10.8141C14.2969 10.8961 14.1445 10.8234 14.1445 10.6898V9.43828H9.32344C8.86406 9.43828 8.49141 9.81094 8.49141 10.2727V12.1219C8.49141 12.2109 8.41875 12.2812 8.33203 12.2812H7.14375C7.05469 12.2812 6.98438 12.2109 6.98438 12.1172V10.268ZM7.04531 15.1969L9.60234 13.1883C9.70547 13.1063 9.85781 13.1789 9.85781 13.3125V14.5641H14.6766C15.1359 14.5641 15.5086 14.1914 15.5086 13.7297V11.8805C15.5086 11.7914 15.5813 11.7211 15.668 11.7211H16.8563C16.9453 11.7211 17.0156 11.7937 17.0156 11.8805V13.7297C17.0156 15.0258 15.9703 16.0758 14.6789 16.0758H9.85781V17.3273C9.85781 17.4586 9.70547 17.5336 9.60234 17.4516L7.04531 15.443C6.96328 15.3797 6.96328 15.2555 7.04531 15.1969Z" fill="#D4E9F6"/>
<path id="Vector_3" d="M7.14434 12.2809H8.33261C8.41933 12.2809 8.49199 12.2106 8.49199 12.1215V10.2723C8.49199 9.81058 8.86464 9.43792 9.32402 9.43792H14.1451V10.6895C14.1451 10.8231 14.2974 10.8957 14.4006 10.8137L16.9576 8.80511C17.0396 8.74183 17.0396 8.61761 16.9576 8.55433L14.4006 6.54574C14.2974 6.46371 14.1451 6.53871 14.1451 6.66996V7.92152H9.32167C8.03027 7.92152 6.98496 8.97152 6.98496 10.2676V12.1168C6.98496 12.2106 7.05527 12.2809 7.14434 12.2809ZM7.0459 15.4426L9.60292 17.4512C9.70605 17.5332 9.85839 17.4582 9.85839 17.327V16.0754H14.6795C15.9709 16.0754 17.0162 15.0254 17.0162 13.7293V11.8801C17.0162 11.7934 16.9459 11.7207 16.8568 11.7207H15.6685C15.5818 11.7207 15.5092 11.791 15.5092 11.8801V13.7293C15.5092 14.191 15.1365 14.5637 14.6771 14.5637H9.85839V13.3121C9.85839 13.1785 9.70605 13.1059 9.60292 13.1879L7.0459 15.1965C6.96387 15.2551 6.96387 15.3793 7.0459 15.4426Z" fill="#4293CF"/>
</g>
</svg>
