<svg width="24" height="24" viewBox="0 0 24 24" fill="none" xmlns="http://www.w3.org/2000/svg">
<g id="icon/two-tone/directional/left-square">
<path id="Vector" d="M20.625 2.625H3.375C2.96016 2.625 2.625 2.96016 2.625 3.375V20.625C2.625 21.0398 2.96016 21.375 3.375 21.375H20.625C21.0398 21.375 21.375 21.0398 21.375 20.625V3.375C21.375 2.96016 21.0398 2.625 20.625 2.625ZM19.6875 19.6875H4.3125V4.3125H19.6875V19.6875Z" fill="#4293CF"/>
<path id="Vector_2" d="M4.3125 19.6875H19.6875V4.3125H4.3125V19.6875ZM8.56172 11.8477L14.3273 7.67578C14.4516 7.58672 14.625 7.67578 14.625 7.82812V8.92734C14.625 9.16875 14.5102 9.39375 14.3156 9.53437L10.9078 12L14.3156 14.4656C14.5102 14.6063 14.625 14.8336 14.625 15.0727V16.1719C14.625 16.3242 14.4516 16.4133 14.3273 16.3219L8.56172 12.15C8.53776 12.1327 8.51825 12.11 8.50479 12.0837C8.49134 12.0575 8.48432 12.0284 8.48432 11.9988C8.48432 11.9693 8.49134 11.9402 8.50479 11.9139C8.51825 11.8876 8.53776 11.8649 8.56172 11.8477Z" fill="#D4E9F6"/>
<path id="Vector_3" d="M8.5608 12.1501L14.3264 16.322C14.4506 16.4134 14.6241 16.3243 14.6241 16.172V15.0727C14.6241 14.8337 14.5092 14.6063 14.3147 14.4657L10.9069 12.0001L14.3147 9.53443C14.5092 9.39381 14.6241 9.16881 14.6241 8.9274V7.82818C14.6241 7.67583 14.4506 7.58677 14.3264 7.67583L8.5608 11.8477C8.53684 11.865 8.51733 11.8877 8.50387 11.914C8.49042 11.9403 8.4834 11.9694 8.4834 11.9989C8.4834 12.0284 8.49042 12.0575 8.50387 12.0838C8.51733 12.1101 8.53684 12.1328 8.5608 12.1501Z" fill="#4293CF"/>
</g>
</svg>
