<svg width="24" height="24" viewBox="0 0 24 24" fill="none" xmlns="http://www.w3.org/2000/svg">
<g id="icon/two-tone/directional/left-circle">
<path id="Vector" d="M12 3.28125C7.18594 3.28125 3.28125 7.18594 3.28125 12C3.28125 16.8141 7.18594 20.7188 12 20.7188C16.8141 20.7188 20.7188 16.8141 20.7188 12C20.7188 7.18594 16.8141 3.28125 12 3.28125ZM14.4375 8.92734C14.4375 9.16875 14.3227 9.39375 14.1281 9.53437L10.7203 12L14.1281 14.4633C14.3227 14.6039 14.4375 14.8313 14.4375 15.0703V16.1695C14.4375 16.3219 14.2641 16.4109 14.1398 16.3219L8.37422 12.15C8.35026 12.1327 8.33075 12.11 8.31729 12.0837C8.30384 12.0575 8.29682 12.0284 8.29682 11.9988C8.29682 11.9693 8.30384 11.9402 8.31729 11.9139C8.33075 11.8876 8.35026 11.8649 8.37422 11.8477L14.1398 7.67578C14.2641 7.58672 14.4375 7.67578 14.4375 7.82812V8.92734Z" fill="#D4E9F6"/>
<path id="Vector_2" d="M12 1.5C6.20156 1.5 1.5 6.20156 1.5 12C1.5 17.7984 6.20156 22.5 12 22.5C17.7984 22.5 22.5 17.7984 22.5 12C22.5 6.20156 17.7984 1.5 12 1.5ZM12 20.7188C7.18594 20.7188 3.28125 16.8141 3.28125 12C3.28125 7.18594 7.18594 3.28125 12 3.28125C16.8141 3.28125 20.7188 7.18594 20.7188 12C20.7188 16.8141 16.8141 20.7188 12 20.7188Z" fill="#4293CF"/>
<path id="Vector_3" d="M14.1389 7.67583L8.3733 11.8477C8.34934 11.865 8.32983 11.8877 8.31637 11.9139C8.30292 11.9402 8.2959 11.9693 8.2959 11.9989C8.2959 12.0284 8.30292 12.0575 8.31637 12.0838C8.32983 12.1101 8.34934 12.1328 8.3733 12.15L14.1389 16.3219C14.2631 16.411 14.4366 16.3219 14.4366 16.1696V15.0703C14.4366 14.8313 14.3217 14.6039 14.1272 14.4633L10.7194 12L14.1272 9.53442C14.3217 9.3938 14.4366 9.1688 14.4366 8.92739V7.82818C14.4366 7.67583 14.2631 7.58677 14.1389 7.67583Z" fill="#4293CF"/>
</g>
</svg>
