<svg width="24" height="24" viewBox="0 0 24 24" fill="none" xmlns="http://www.w3.org/2000/svg">
<g id="icon/two-tone/application/like">
<path id="Vector" d="M6.39844 11.6225V21.6537L6.40547 11.6225H6.39844ZM19.0125 9.55295H11.6437L11.8687 4.90295C11.8828 4.62405 11.7586 4.36155 11.5266 4.18811C11.3836 4.08264 11.2078 4.02874 11.032 4.03108C10.5727 4.03342 10.1672 4.34514 10.043 4.78811C9.17344 7.93811 8.52187 10.3006 8.08594 11.878V19.9686H17.4469C17.6811 19.8636 17.8801 19.6932 18.0198 19.4778C18.1595 19.2624 18.234 19.0112 18.2344 18.7545C18.2344 18.5272 18.1805 18.3115 18.0727 18.1147L17.7469 17.5194L18.2602 17.074C18.4046 16.9489 18.5204 16.7941 18.5997 16.6202C18.679 16.4463 18.7199 16.2574 18.7195 16.0662C18.7195 15.8389 18.6656 15.6233 18.5578 15.4264L18.232 14.8311L18.7453 14.3858C18.8898 14.2606 19.0056 14.1059 19.0849 13.9319C19.1641 13.758 19.205 13.5691 19.2047 13.378C19.2047 13.1506 19.1508 12.935 19.043 12.7381L18.7148 12.1405L19.2281 11.6951C19.3726 11.57 19.4884 11.4152 19.5677 11.2413C19.647 11.0674 19.6878 10.8785 19.6875 10.6873C19.6875 10.2397 19.4297 9.80842 19.0125 9.55295Z" fill="#D4E9F6"/>
<path id="Vector_2" d="M2.625 12.3748V20.9061C2.625 21.3209 2.96016 21.6561 3.375 21.6561H4.89844V11.6248H3.375C2.96016 11.6248 2.625 11.96 2.625 12.3748ZM20.7633 12.5084C21.157 11.9881 21.375 11.3506 21.375 10.6873C21.375 9.635 20.7867 8.63656 19.8398 8.08578C19.5961 7.9428 19.3185 7.86755 19.0359 7.86781H13.4133L13.5539 4.98734C13.5891 4.29125 13.343 3.63031 12.8625 3.12641C12.628 2.87779 12.345 2.68001 12.0309 2.54535C11.7168 2.41069 11.3784 2.34202 11.0367 2.34359C9.81797 2.34359 8.73984 3.16391 8.41641 4.33812L6.40547 11.6225L6.39844 21.6538H17.4633C17.6812 21.6538 17.8898 21.6116 18.0844 21.5272C19.2 21.0514 19.9195 19.9616 19.9195 18.7522C19.9195 18.4569 19.8773 18.1663 19.793 17.885C20.1867 17.3647 20.4047 16.7272 20.4047 16.0639C20.4047 15.7686 20.3625 15.478 20.2781 15.1967C20.6719 14.6764 20.8898 14.0389 20.8898 13.3756C20.8898 13.0803 20.8477 12.7897 20.7633 12.5084ZM19.2281 11.6952L18.7148 12.1405L19.043 12.7381C19.1503 12.9342 19.206 13.1544 19.2047 13.378C19.2047 13.7647 19.0383 14.1327 18.7453 14.3858L18.232 14.8311L18.5578 15.4264C18.6651 15.6225 18.7208 15.8427 18.7195 16.0662C18.7195 16.453 18.5531 16.8209 18.2602 17.0741L17.7469 17.5194L18.0727 18.1147C18.18 18.3108 18.2356 18.531 18.2344 18.7545C18.2344 19.2795 17.925 19.753 17.4469 19.9686H8.08594V11.878C8.52187 10.303 9.17344 7.94047 10.043 4.78812C10.1037 4.57191 10.233 4.38124 10.4113 4.24474C10.5896 4.10824 10.8075 4.03327 11.032 4.03109C11.2078 4.02875 11.3836 4.08266 11.5266 4.18812C11.7586 4.36156 11.8828 4.62406 11.8687 4.90297L11.6437 9.55297H19.0125C19.4297 9.80844 19.6875 10.2397 19.6875 10.6873C19.6875 11.0741 19.5211 11.442 19.2281 11.6952Z" fill="#4293CF"/>
</g>
</svg>
