<svg width="24" height="24" viewBox="0 0 24 24" fill="none" xmlns="http://www.w3.org/2000/svg">
<g id="icon/two-tone/application/lock">
<path id="Vector" d="M19.5 10.875H17.9062V5.625C17.9062 3.96797 16.5633 2.625 14.9062 2.625H9.09375C7.43672 2.625 6.09375 3.96797 6.09375 5.625V10.875H4.5C4.08516 10.875 3.75 11.2102 3.75 11.625V20.625C3.75 21.0398 4.08516 21.375 4.5 21.375H19.5C19.9148 21.375 20.25 21.0398 20.25 20.625V11.625C20.25 11.2102 19.9148 10.875 19.5 10.875ZM7.78125 5.625C7.78125 4.90078 8.36953 4.3125 9.09375 4.3125H14.9062C15.6305 4.3125 16.2188 4.90078 16.2188 5.625V10.875H7.78125V5.625ZM18.5625 19.6875H5.4375V12.5625H18.5625V19.6875Z" fill="#4293CF"/>
<path id="Vector_2" d="M5.4375 19.6875H18.5625V12.5625H5.4375V19.6875ZM12 14.3906C12.2381 14.3907 12.4701 14.4663 12.6625 14.6065C12.8549 14.7468 12.9979 14.9445 13.0708 15.1711C13.1438 15.3978 13.1429 15.6417 13.0684 15.8679C12.9939 16.0941 12.8496 16.2908 12.6562 16.4297V17.6719C12.6562 17.775 12.5719 17.8594 12.4688 17.8594H11.5312C11.4281 17.8594 11.3438 17.775 11.3438 17.6719V16.4297C11.1504 16.2908 11.0061 16.0941 10.9316 15.8679C10.8571 15.6417 10.8562 15.3978 10.9292 15.1711C11.0021 14.9445 11.1451 14.7468 11.3375 14.6065C11.5299 14.4663 11.7619 14.3907 12 14.3906Z" fill="#D4E9F6"/>
<path id="Vector_3" d="M11.344 16.43V17.6722C11.344 17.7753 11.4284 17.8597 11.5315 17.8597H12.469C12.5721 17.8597 12.6565 17.7753 12.6565 17.6722V16.43C12.85 16.2911 12.9944 16.0944 13.0689 15.8682C13.1435 15.642 13.1443 15.3979 13.0714 15.1712C12.9984 14.9445 12.8554 14.7468 12.6629 14.6065C12.4704 14.4663 12.2384 14.3907 12.0002 14.3907C11.7621 14.3907 11.53 14.4663 11.3376 14.6065C11.1451 14.7468 11.0021 14.9445 10.9291 15.1712C10.8561 15.3979 10.857 15.642 10.9316 15.8682C11.0061 16.0944 11.1505 16.2911 11.344 16.43Z" fill="#4293CF"/>
</g>
</svg>
