<svg width="24" height="24" viewBox="0 0 24 24" fill="none" xmlns="http://www.w3.org/2000/svg">
<g id="icon/two-tone/application/message">
<path id="Vector" d="M18.1721 5.83367C17.3738 5.03261 16.4262 4.39562 15.3831 3.95867C14.3132 3.50914 13.1639 3.27882 12.0034 3.28133H11.9635C9.62683 3.29071 7.44011 4.20477 5.80418 5.85711C4.16589 7.50946 3.27292 9.70321 3.2823 12.0399C3.28933 13.4532 3.64089 14.8571 4.30183 16.097L4.4073 16.2938V19.5938H7.7073L7.90418 19.6993C9.14402 20.3602 10.5479 20.7118 11.9612 20.7188H12.001C14.3214 20.7188 16.501 19.8235 18.144 18.197C19.794 16.561 20.7104 14.3743 20.7245 12.0399C20.7292 10.854 20.5018 9.70555 20.0471 8.62274C19.6099 7.57972 18.973 6.63226 18.1721 5.83367ZM7.31355 13.1251C7.01916 13.1191 6.73885 12.9979 6.53278 12.7876C6.3267 12.5773 6.21128 12.2945 6.21128 12.0001C6.21128 11.7056 6.3267 11.4229 6.53278 11.2126C6.73885 11.0023 7.01916 10.8811 7.31355 10.8751C7.60794 10.8811 7.88825 11.0023 8.09432 11.2126C8.3004 11.4229 8.41582 11.7056 8.41582 12.0001C8.41582 12.2945 8.3004 12.5773 8.09432 12.7876C7.88825 12.9979 7.60794 13.1191 7.31355 13.1251ZM12.001 13.1251C11.7067 13.1191 11.4264 12.9979 11.2203 12.7876C11.0142 12.5773 10.8988 12.2945 10.8988 12.0001C10.8988 11.7056 11.0142 11.4229 11.2203 11.2126C11.4264 11.0023 11.7067 10.8811 12.001 10.8751C12.2954 10.8811 12.5758 11.0023 12.7818 11.2126C12.9879 11.4229 13.1033 11.7056 13.1033 12.0001C13.1033 12.2945 12.9879 12.5773 12.7818 12.7876C12.5758 12.9979 12.2954 13.1191 12.001 13.1251ZM16.6886 13.1251C16.3942 13.1191 16.1139 12.9979 15.9078 12.7876C15.7017 12.5773 15.5863 12.2945 15.5863 12.0001C15.5863 11.7056 15.7017 11.4229 15.9078 11.2126C16.1139 11.0023 16.3942 10.8811 16.6886 10.8751C16.9829 10.8811 17.2633 11.0023 17.4693 11.2126C17.6754 11.4229 17.7908 11.7056 17.7908 12.0001C17.7908 12.2945 17.6754 12.5773 17.4693 12.7876C17.2633 12.9979 16.9829 13.1191 16.6886 13.1251Z" fill="#D4E9F6"/>
<path id="Vector_2" d="M15.5625 12C15.5625 12.2984 15.681 12.5845 15.892 12.7955C16.103 13.0065 16.3891 13.125 16.6875 13.125C16.9859 13.125 17.272 13.0065 17.483 12.7955C17.694 12.5845 17.8125 12.2984 17.8125 12C17.8125 11.7016 17.694 11.4155 17.483 11.2045C17.272 10.9935 16.9859 10.875 16.6875 10.875C16.3891 10.875 16.103 10.9935 15.892 11.2045C15.681 11.4155 15.5625 11.7016 15.5625 12ZM6.1875 12C6.1875 12.2984 6.30603 12.5845 6.517 12.7955C6.72798 13.0065 7.01413 13.125 7.3125 13.125C7.61087 13.125 7.89702 13.0065 8.108 12.7955C8.31897 12.5845 8.4375 12.2984 8.4375 12C8.4375 11.7016 8.31897 11.4155 8.108 11.2045C7.89702 10.9935 7.61087 10.875 7.3125 10.875C7.01413 10.875 6.72798 10.9935 6.517 11.2045C6.30603 11.4155 6.1875 11.7016 6.1875 12Z" fill="#4293CF"/>
<path id="Vector_3" d="M21.6845 7.93125C21.1548 6.67266 20.3954 5.54297 19.4275 4.57266C18.4663 3.60796 17.3252 2.84114 16.0689 2.31563C14.7798 1.77422 13.4111 1.5 12.0001 1.5H11.9533C10.5329 1.50703 9.15716 1.78828 7.86341 2.34141C6.61785 2.87232 5.48747 3.64049 4.53529 4.60312C3.5767 5.57109 2.82435 6.69609 2.30404 7.95C1.76498 9.24844 1.4931 10.6289 1.50013 12.0492C1.50809 13.6769 1.89316 15.2806 2.62513 16.7344V20.2969C2.62513 20.5828 2.73872 20.857 2.94091 21.0592C3.1431 21.2614 3.41732 21.375 3.70326 21.375H7.2681C8.72192 22.107 10.3256 22.492 11.9533 22.5H12.0025C13.4064 22.5 14.7681 22.2281 16.0501 21.6961C17.3001 21.1768 18.4369 20.419 19.397 19.4648C20.365 18.5063 21.1267 17.3859 21.6587 16.1367C22.2119 14.843 22.4931 13.4672 22.5001 12.0469C22.5072 10.6195 22.2306 9.23438 21.6845 7.93125ZM18.1431 18.1969C16.5001 19.8234 14.3204 20.7188 12.0001 20.7188H11.9603C10.547 20.7117 9.1431 20.3602 7.90326 19.6992L7.70638 19.5938H4.40638V16.2938L4.30091 16.0969C3.63998 14.857 3.28841 13.4531 3.28138 12.0398C3.27201 9.70312 4.16498 7.50937 5.80326 5.85703C7.4392 4.20469 9.62591 3.29062 11.9626 3.28125H12.0025C13.1744 3.28125 14.3111 3.50859 15.3822 3.95859C16.4275 4.39687 17.365 5.02734 18.1712 5.83359C18.9751 6.6375 19.6079 7.57734 20.0462 8.62266C20.5009 9.70547 20.7283 10.8539 20.7236 12.0398C20.7095 14.3742 19.7931 16.5609 18.1431 18.1969Z" fill="#4293CF"/>
<path id="Vector_4" d="M10.875 12C10.875 12.2984 10.9935 12.5845 11.2045 12.7955C11.4155 13.0065 11.7016 13.125 12 13.125C12.2984 13.125 12.5845 13.0065 12.7955 12.7955C13.0065 12.5845 13.125 12.2984 13.125 12C13.125 11.7016 13.0065 11.4155 12.7955 11.2045C12.5845 10.9935 12.2984 10.875 12 10.875C11.7016 10.875 11.4155 10.9935 11.2045 11.2045C10.9935 11.4155 10.875 11.7016 10.875 12Z" fill="#4293CF"/>
</g>
</svg>
