<svg width="24" height="24" viewBox="0 0 24 24" fill="none" xmlns="http://www.w3.org/2000/svg">
<g id="icon/two-tone/data/pie-chart">
<path id="Vector" d="M7.40998 21.5744C6.29435 21.1033 5.29123 20.426 4.43107 19.5658C3.57492 18.7123 2.89275 17.7006 2.42248 16.5869C1.93454 15.4339 1.68424 14.1943 1.68654 12.9424V12.947C1.68528 14.1769 1.92687 15.3948 2.39745 16.531C2.86802 17.6672 3.55832 18.6993 4.42873 19.5681C5.28888 20.4283 6.28966 21.1033 7.40529 21.5744C8.55874 22.0637 9.79921 22.3149 11.0522 22.3127C11.685 22.3127 12.3084 22.2494 12.9201 22.1275C12.3131 22.2494 11.692 22.3103 11.0615 22.3103C9.79591 22.3127 8.56779 22.0642 7.40998 21.5744ZM13.124 11.0627C13.0209 11.0627 12.9365 10.9783 12.9365 10.8752V1.87283C12.9365 1.84236 12.9436 1.81423 12.9576 1.78845C12.9365 1.81892 12.9225 1.85642 12.9225 1.89626V10.8892C12.9225 10.9924 13.0069 11.0767 13.11 11.0767L22.1006 11.0533C22.1381 11.0533 22.1733 11.0416 22.2037 11.0228C22.1803 11.0345 22.1522 11.0392 22.124 11.0392L13.124 11.0627Z" fill="#D4E9F6"/>
<path id="Vector_2" d="M14.5254 3.45972V9.47378L20.5348 9.45737C20.2301 7.99253 19.4965 6.63315 18.4254 5.5644C17.3567 4.49991 16.0018 3.76873 14.5254 3.45972Z" fill="#D4E9F6"/>
<path id="Vector_3" d="M10.2656 5.19592C8.48672 5.37405 6.83906 6.15452 5.55937 7.4342C4.08984 8.90374 3.28125 10.8584 3.28125 12.9373C3.28125 15.0162 4.08984 16.9709 5.55937 18.4405C7.01953 19.9006 8.96016 20.7092 11.025 20.7186C13.0922 20.728 15.0727 19.9194 16.5398 18.4639C17.8359 17.1795 18.6234 15.5225 18.8039 13.7342H10.2656V5.19592Z" fill="#D4E9F6"/>
<path id="Vector_4" d="M20.249 12.141H11.8584V3.75038C11.8584 3.64725 11.774 3.56288 11.6709 3.56288H11.0615C9.83037 3.56086 8.61094 3.80231 7.47343 4.27332C6.33592 4.74434 5.30277 5.43562 4.43341 6.30741C3.57726 7.16091 2.89509 8.17263 2.42482 9.28632C1.93546 10.4414 1.68435 11.6834 1.68654 12.9379V12.9426C1.68654 14.2058 1.93498 15.4316 2.42248 16.5871C2.89357 17.7027 3.57091 18.7058 4.43107 19.566C5.29123 20.4262 6.29435 21.1035 7.40998 21.5746C8.56506 22.064 9.80707 22.3151 11.0615 22.3129C11.692 22.3129 12.3131 22.2519 12.9201 22.1301C13.5318 22.0058 14.1319 21.823 14.7108 21.5769C15.8264 21.1058 16.8295 20.4285 17.6897 19.5683C18.5498 18.7082 19.2272 17.7051 19.6983 16.5894C20.1876 15.4344 20.4387 14.1924 20.4365 12.9379V12.3285C20.4365 12.2254 20.3522 12.141 20.249 12.141ZM16.5389 18.4644C15.8131 19.1845 14.9524 19.7543 14.0061 20.1412C13.0598 20.5281 12.0464 20.7245 11.024 20.7191C8.95919 20.7098 7.01857 19.9012 5.55841 18.441C4.08888 16.9715 3.28029 15.0168 3.28029 12.9379C3.28029 10.859 4.08888 8.90429 5.55841 7.43475C6.8381 6.15507 8.48576 5.3746 10.2647 5.19647V13.7348H18.8029C18.6225 15.523 17.835 17.1801 16.5389 18.4644Z" fill="#4293CF"/>
<path id="Vector_5" d="M22.3125 10.8372L22.2516 10.1762C22.0523 8.01763 21.0938 5.98091 19.5516 4.44341C18.0083 2.90309 15.9758 1.94982 13.8047 1.7481L13.1414 1.68716C13.0617 1.68013 12.9914 1.72232 12.9586 1.78795C12.9456 1.81423 12.9384 1.84301 12.9375 1.87232V10.8747C12.9375 10.9778 13.0219 11.0622 13.125 11.0622L22.125 11.0387C22.1531 11.0387 22.1789 11.0317 22.2047 11.0223C22.2392 11.0059 22.268 10.9794 22.2872 10.9464C22.3064 10.9134 22.3153 10.8753 22.3125 10.8372ZM14.5266 9.4731V3.45904C16.003 3.76806 17.3579 4.49924 18.4266 5.56373C19.4977 6.63248 20.2312 7.99185 20.5359 9.4567L14.5266 9.4731Z" fill="#4293CF"/>
</g>
</svg>
