<svg width="24" height="24" viewBox="0 0 24 24" fill="none" xmlns="http://www.w3.org/2000/svg">
<g id="icon/two-tone/directional/play-circle">
<path id="Vector" d="M12 1.5C6.20156 1.5 1.5 6.20156 1.5 12C1.5 17.7984 6.20156 22.5 12 22.5C17.7984 22.5 22.5 17.7984 22.5 12C22.5 6.20156 17.7984 1.5 12 1.5ZM12 20.7188C7.18594 20.7188 3.28125 16.8141 3.28125 12C3.28125 7.18594 7.18594 3.28125 12 3.28125C16.8141 3.28125 20.7188 7.18594 20.7188 12C20.7188 16.8141 16.8141 20.7188 12 20.7188Z" fill="#4293CF"/>
<path id="Vector_2" d="M12 3.28125C7.18594 3.28125 3.28125 7.18594 3.28125 12C3.28125 16.8141 7.18594 20.7188 12 20.7188C16.8141 20.7188 20.7188 16.8141 20.7188 12C20.7188 7.18594 16.8141 3.28125 12 3.28125ZM15.8461 12.1453L10.7273 15.8695C10.6993 15.8897 10.6662 15.9017 10.6317 15.9043C10.5973 15.9069 10.5628 15.9 10.532 15.8842C10.5013 15.8685 10.4754 15.8445 10.4574 15.8151C10.4393 15.7856 10.4297 15.7517 10.4297 15.7172V8.27344C10.4296 8.23881 10.4391 8.20483 10.4571 8.17526C10.4751 8.14569 10.5009 8.12169 10.5318 8.10591C10.5626 8.09014 10.5972 8.08321 10.6317 8.08588C10.6662 8.08856 10.6993 8.10075 10.7273 8.12109L15.8461 11.843C15.8703 11.8601 15.89 11.8827 15.9036 11.909C15.9172 11.9353 15.9243 11.9645 15.9243 11.9941C15.9243 12.0238 15.9172 12.0529 15.9036 12.0793C15.89 12.1056 15.8703 12.1282 15.8461 12.1453Z" fill="#D4E9F6"/>
<path id="Vector_3" d="M15.8461 11.843L10.7273 8.1211C10.6993 8.10076 10.6662 8.08857 10.6317 8.08589C10.5972 8.08321 10.5626 8.09014 10.5318 8.10592C10.5009 8.12169 10.4751 8.1457 10.4571 8.17527C10.4391 8.20484 10.4296 8.23882 10.4297 8.27344V15.7172C10.4297 15.7518 10.4393 15.7857 10.4574 15.8151C10.4754 15.8446 10.5013 15.8685 10.532 15.8842C10.5628 15.9 10.5973 15.9069 10.6317 15.9044C10.6662 15.9018 10.6993 15.8897 10.7273 15.8696L15.8461 12.1453C15.8703 12.1282 15.89 12.1056 15.9036 12.0793C15.9172 12.053 15.9243 12.0238 15.9243 11.9942C15.9243 11.9645 15.9172 11.9354 15.9036 11.909C15.89 11.8827 15.8703 11.8601 15.8461 11.843Z" fill="#4293CF"/>
</g>
</svg>
