<svg width="24" height="24" viewBox="0 0 24 24" fill="none" xmlns="http://www.w3.org/2000/svg">
<g id="icon/two-tone/application/property-safety">
<path id="Vector" d="M20.318 3.98203L12.3539 1.26797C12.2578 1.23516 12.1289 1.21875 12 1.21875C11.8711 1.21875 11.7422 1.23516 11.6461 1.26797L3.68203 3.98203C3.4875 4.04766 3.32812 4.27266 3.32812 4.47891V15.7852C3.32812 15.9914 3.46172 16.2633 3.62344 16.3922L11.7023 22.6875C11.7844 22.7508 11.8898 22.7836 11.9977 22.7836C12.1055 22.7836 12.2133 22.7508 12.293 22.6875L20.3719 16.3922C20.5336 16.2656 20.6672 15.9937 20.6672 15.7852V4.47891C20.6719 4.27266 20.5125 4.05 20.318 3.98203ZM18.9844 15.3352L12 20.7773L5.01562 15.3352V5.31328L12 2.93203L18.9844 5.31328V15.3352Z" fill="#4293CF"/>
<path id="Vector_2" d="M5.01562 5.31368V15.3356L12 20.7777L18.9844 15.3356V5.31368L12 2.93243L5.01562 5.31368ZM13.9195 7.45353H14.9742C15.1031 7.45353 15.2086 7.559 15.2086 7.6879C15.2109 7.72775 15.2016 7.76525 15.1828 7.8004L13.1273 11.5762H14.1984C14.3273 11.5762 14.4328 11.6817 14.4328 11.8106V12.3098C14.4328 12.4387 14.3273 12.5442 14.1984 12.5442H12.7125V13.2402H14.1984C14.3273 13.2402 14.4328 13.3457 14.4328 13.4746V13.9738C14.4328 14.1027 14.3273 14.2082 14.1984 14.2082H12.7125V15.4223C12.7125 15.5512 12.607 15.6567 12.4781 15.6567H11.5102C11.3813 15.6567 11.2758 15.5512 11.2758 15.4223V14.2082H9.79688C9.66797 14.2082 9.5625 14.1027 9.5625 13.9738V13.4746C9.5625 13.3457 9.66797 13.2402 9.79688 13.2402H11.2758V12.5442H9.79688C9.66797 12.5442 9.5625 12.4387 9.5625 12.3098V11.8106C9.5625 11.6817 9.66797 11.5762 9.79688 11.5762H10.8563L8.79375 7.8004C8.73281 7.6879 8.77266 7.54493 8.8875 7.48165C8.92266 7.4629 8.96016 7.45353 9 7.45353H10.0781C10.1672 7.45353 10.2469 7.50275 10.2867 7.58243L11.9953 10.9645L13.7109 7.58243C13.7304 7.54378 13.7602 7.51128 13.797 7.48853C13.8338 7.46577 13.8763 7.45366 13.9195 7.45353Z" fill="#D4E9F6"/>
<path id="Vector_3" d="M10.287 7.58191C10.2678 7.54305 10.238 7.51037 10.2011 7.48758C10.1643 7.46479 10.1217 7.45281 10.0784 7.45301H9.00027C8.96042 7.45301 8.92292 7.46238 8.88777 7.48113C8.77292 7.54441 8.73308 7.68738 8.79402 7.79988L10.8565 11.5756H9.79714C9.66823 11.5756 9.56276 11.6811 9.56276 11.81V12.3092C9.56276 12.4381 9.66823 12.5436 9.79714 12.5436H11.276V13.2397H9.79714C9.66823 13.2397 9.56276 13.3452 9.56276 13.4741V13.9733C9.56276 14.1022 9.66823 14.2077 9.79714 14.2077H11.276V15.4217C11.276 15.5506 11.3815 15.6561 11.5104 15.6561H12.4784C12.6073 15.6561 12.7127 15.5506 12.7127 15.4217V14.2077H14.1987C14.3276 14.2077 14.4331 14.1022 14.4331 13.9733V13.4741C14.4331 13.3452 14.3276 13.2397 14.1987 13.2397H12.7127V12.5436H14.1987C14.3276 12.5436 14.4331 12.4381 14.4331 12.3092V11.81C14.4331 11.6811 14.3276 11.5756 14.1987 11.5756H13.1276L15.183 7.79988C15.2018 7.76472 15.2112 7.72722 15.2088 7.68738C15.2088 7.55847 15.1034 7.45301 14.9745 7.45301H13.9198C13.8765 7.45314 13.8341 7.46525 13.7973 7.488C13.7605 7.51076 13.7307 7.54326 13.7112 7.58191L11.9956 10.9639L10.287 7.58191Z" fill="#4293CF"/>
</g>
</svg>
