<svg width="24" height="24" viewBox="0 0 24 24" fill="none" xmlns="http://www.w3.org/2000/svg">
<g id="icon/two-tone/application/pushpin">
<path id="Vector" d="M11.1281 8.38359L10.5539 8.95781L9.74766 8.86875C9.52266 8.84297 9.29531 8.83125 9.07031 8.83125C8.39062 8.83125 7.72266 8.94141 7.08516 9.16172C6.75703 9.27422 6.44297 9.41484 6.14062 9.58125L14.4164 17.8617C15.0197 16.7615 15.2686 15.5017 15.1289 14.2547L15.0398 13.4484L15.6141 12.8742L18.75 9.73828L14.2617 5.25L11.1281 8.38359Z" fill="#D4E9F6"/>
<path id="Vector_2" d="M20.5855 9.18984L14.8105 3.41484C14.6582 3.2625 14.4589 3.1875 14.2597 3.1875C14.0605 3.1875 13.8613 3.2625 13.7089 3.41484L9.93317 7.19297C9.64723 7.16016 9.35895 7.14609 9.07066 7.14609C7.35504 7.14609 5.63941 7.71094 4.23082 8.84063C4.14552 8.90912 4.07561 8.99481 4.02563 9.09212C3.97566 9.18943 3.94675 9.29618 3.94078 9.40541C3.93481 9.51464 3.95191 9.6239 3.99098 9.72608C4.03006 9.82826 4.09021 9.92106 4.16754 9.99844L8.42613 14.257L3.3777 19.3008C3.31583 19.3623 3.27765 19.4436 3.26988 19.5305L3.1902 20.4023C3.1691 20.6227 3.34488 20.8102 3.56285 20.8102C3.57457 20.8102 3.58629 20.8102 3.59801 20.8078L4.46988 20.7281C4.5566 20.7211 4.63863 20.6813 4.69957 20.6203L9.74801 15.5719L14.0066 19.8305C14.1589 19.9828 14.3582 20.0578 14.5574 20.0578C14.7847 20.0578 15.0097 19.9594 15.1644 19.7672C16.4839 18.1195 17.0324 16.057 16.8097 14.0625L20.5855 10.2867C20.8879 9.98672 20.8879 9.49453 20.5855 9.18984ZM15.6144 12.8742L15.0402 13.4484L15.1293 14.2547C15.2689 15.5017 15.0201 16.7615 14.4168 17.8617L6.14098 9.58125C6.44332 9.41484 6.75738 9.27422 7.08551 9.16172C7.72301 8.94141 8.39098 8.83125 9.07066 8.83125C9.29567 8.83125 9.52301 8.84297 9.74801 8.86875L10.5543 8.95781L11.1285 8.38359L14.2621 5.25L18.7504 9.73828L15.6144 12.8742Z" fill="#4293CF"/>
</g>
</svg>
