<svg width="24" height="24" viewBox="0 0 24 24" fill="none" xmlns="http://www.w3.org/2000/svg">
<g id="icon/two-tone/directional/right-square">
<path id="Vector" d="M20.625 2.625H3.375C2.96016 2.625 2.625 2.96016 2.625 3.375V20.625C2.625 21.0398 2.96016 21.375 3.375 21.375H20.625C21.0398 21.375 21.375 21.0398 21.375 20.625V3.375C21.375 2.96016 21.0398 2.625 20.625 2.625ZM19.6875 19.6875H4.3125V4.3125H19.6875V19.6875Z" fill="#4293CF"/>
<path id="Vector_2" d="M4.3125 19.6875H19.6875V4.3125H4.3125V19.6875ZM9.375 15.0727C9.375 14.8336 9.48984 14.6063 9.68438 14.4656L13.0922 12L9.68438 9.53437C9.48984 9.39375 9.375 9.16875 9.375 8.92734V7.82812C9.375 7.67578 9.54844 7.58672 9.67266 7.67578L15.4383 11.8477C15.5414 11.9227 15.5414 12.075 15.4383 12.15L9.67266 16.3219C9.54844 16.4133 9.375 16.3242 9.375 16.1719V15.0727Z" fill="#D4E9F6"/>
<path id="Vector_3" d="M9.67266 16.322L15.4383 12.1501C15.5414 12.0751 15.5414 11.9227 15.4383 11.8477L9.67266 7.67583C9.54844 7.58677 9.375 7.67583 9.375 7.82818V8.9274C9.375 9.16881 9.48984 9.39381 9.68438 9.53443L13.0922 12.0001L9.68438 14.4657C9.48984 14.6063 9.375 14.8337 9.375 15.0727V16.172C9.375 16.3243 9.54844 16.4134 9.67266 16.322Z" fill="#4293CF"/>
</g>
</svg>
