<svg width="24" height="24" viewBox="0 0 24 24" fill="none" xmlns="http://www.w3.org/2000/svg">
<g id="icon/two-tone/application/safety-certificate">
<path id="Vector" d="M20.318 3.98203L12.3539 1.26797C12.2578 1.23516 12.1289 1.21875 12 1.21875C11.8711 1.21875 11.7422 1.23516 11.6461 1.26797L3.68203 3.98203C3.4875 4.04766 3.32812 4.27266 3.32812 4.47891V15.7852C3.32812 15.9914 3.46172 16.2633 3.62344 16.3922L11.7023 22.6875C11.7844 22.7508 11.8898 22.7836 11.9977 22.7836C12.1055 22.7836 12.2133 22.7508 12.293 22.6875L20.3719 16.3922C20.5336 16.2656 20.6672 15.9937 20.6672 15.7852V4.47891C20.6719 4.27266 20.5125 4.05 20.318 3.98203ZM18.9844 15.3352L12 20.7773L5.01562 15.3352V5.31328L12 2.93203L18.9844 5.31328V15.3352Z" fill="#4293CF"/>
<path id="Vector_2" d="M5.01562 5.31368V15.3356L12 20.7777L18.9844 15.3356V5.31368L12 2.93243L5.01562 5.31368ZM14.8312 7.6879H16.125C16.2773 7.6879 16.3664 7.86134 16.2773 7.98556L11.2945 14.8457C11.2595 14.8937 11.2137 14.9327 11.1607 14.9596C11.1078 14.9864 11.0492 15.0005 10.9898 15.0005C10.9305 15.0005 10.8719 14.9864 10.819 14.9596C10.766 14.9327 10.7202 14.8937 10.6852 14.8457L7.72266 10.7676C7.63359 10.6434 7.72266 10.4699 7.875 10.4699H9.16875C9.29063 10.4699 9.40313 10.5285 9.47344 10.6246L10.9898 12.7129L14.5266 7.84259C14.5969 7.7465 14.7117 7.6879 14.8312 7.6879Z" fill="#D4E9F6"/>
<path id="Vector_3" d="M9.47276 10.6242C9.40245 10.5281 9.28995 10.4695 9.16807 10.4695H7.87432C7.72198 10.4695 7.63291 10.643 7.72198 10.7672L10.6845 14.8453C10.7195 14.8933 10.7654 14.9323 10.8183 14.9591C10.8712 14.986 10.9298 15 10.9892 15C11.0485 15 11.1071 14.986 11.16 14.9591C11.213 14.9323 11.2588 14.8933 11.2939 14.8453L16.2767 7.98516C16.3657 7.86094 16.2767 7.6875 16.1243 7.6875H14.8306C14.711 7.6875 14.5962 7.74609 14.5259 7.84219L10.9892 12.7125L9.47276 10.6242Z" fill="#4293CF"/>
</g>
</svg>
