<svg width="24" height="24" viewBox="0 0 24 24" fill="none" xmlns="http://www.w3.org/2000/svg">
<g id="icon/two-tone/application/security-scan">
<path id="Vector" d="M20.318 3.98203L12.3539 1.26797C12.2578 1.23516 12.1289 1.21875 12 1.21875C11.8711 1.21875 11.7422 1.23516 11.6461 1.26797L3.68203 3.98203C3.4875 4.04766 3.32812 4.27266 3.32812 4.47891V15.7852C3.32812 15.9914 3.46172 16.2633 3.62344 16.3922L11.7023 22.6875C11.7844 22.7508 11.8898 22.7836 11.9977 22.7836C12.1055 22.7836 12.2133 22.7508 12.293 22.6875L20.3719 16.3922C20.5336 16.2656 20.6672 15.9937 20.6672 15.7852V4.47891C20.6719 4.27266 20.5125 4.05 20.318 3.98203ZM18.9844 15.3352L12 20.7773L5.01562 15.3352V5.31328L12 2.93203L18.9844 5.31328V15.3352Z" fill="#4293CF"/>
<path id="Vector_2" d="M10.7979 10.5727C10.7979 11.0706 10.9956 11.5481 11.3477 11.9001C11.6998 12.2522 12.1773 12.45 12.6752 12.45C13.1731 12.45 13.6506 12.2522 14.0027 11.9001C14.3547 11.5481 14.5525 11.0706 14.5525 10.5727C14.5525 10.0748 14.3547 9.59724 14.0027 9.24517C13.6506 8.8931 13.1731 8.69531 12.6752 8.69531C12.1773 8.69531 11.6998 8.8931 11.3477 9.24517C10.9956 9.59724 10.7979 10.0748 10.7979 10.5727Z" fill="#D4E9F6"/>
<path id="Vector_3" d="M5.01562 5.31368V15.3356L12 20.7777L18.9844 15.3356V5.31368L12 2.93243L5.01562 5.31368ZM15.0633 8.18478C16.3828 9.50431 16.3828 11.6418 15.0633 12.9613C13.9266 14.0981 12.1805 14.2551 10.8773 13.4324L9.06094 15.2488C9.0257 15.2837 8.97811 15.3033 8.92852 15.3033C8.87892 15.3033 8.83133 15.2837 8.79609 15.2488L7.99922 14.452C7.96432 14.4167 7.94475 14.3691 7.94475 14.3195C7.94475 14.27 7.96432 14.2224 7.99922 14.1871L9.81562 12.3707C8.99297 11.0652 9.15 9.3215 10.2867 8.18478C11.6062 6.86525 13.7438 6.86525 15.0633 8.18478Z" fill="#D4E9F6"/>
<path id="Vector_4" d="M9.81619 12.3707L7.99978 14.1871C7.96489 14.2224 7.94531 14.27 7.94531 14.3195C7.94531 14.3691 7.96489 14.4167 7.99978 14.452L8.79666 15.2488C8.86931 15.3215 8.98884 15.3215 9.0615 15.2488L10.8779 13.4324C12.181 14.2551 13.9271 14.0981 15.0638 12.9613C16.3834 11.6418 16.3834 9.50431 15.0638 8.18478C13.7443 6.86525 11.6068 6.86525 10.2873 8.18478C9.15056 9.3215 8.99353 11.0652 9.81619 12.3707ZM11.349 9.2465C11.5233 9.07209 11.7303 8.93375 11.9581 8.83936C12.186 8.74497 12.4301 8.69638 12.6767 8.69638C12.9233 8.69638 13.1675 8.74497 13.3953 8.83936C13.6231 8.93375 13.8301 9.07209 14.0045 9.2465C14.1789 9.42083 14.3172 9.62782 14.4116 9.85564C14.506 10.0835 14.5546 10.3276 14.5546 10.5742C14.5546 10.8208 14.506 11.065 14.4116 11.2928C14.3172 11.5206 14.1789 11.7276 14.0045 11.902C13.2709 12.6356 12.0826 12.6356 11.349 11.902C10.6154 11.1684 10.6154 9.98009 11.349 9.2465Z" fill="#4293CF"/>
</g>
</svg>
