<svg width="24" height="24" viewBox="0 0 24 24" fill="none" xmlns="http://www.w3.org/2000/svg">
<g id="icon/two-tone/application/setting">
<path id="Vector" d="M20.1404 13.3523L20.1451 13.3547C20.2178 12.9117 20.2529 12.4594 20.2529 12.0117C20.2529 11.6109 20.2225 11.2078 20.1662 10.8141C20.2225 11.2055 20.2506 11.6016 20.2506 11.9977C20.2506 12.4523 20.2131 12.907 20.1404 13.3523ZM2.3209 9.33047C2.30918 9.32109 2.2998 9.31172 2.28809 9.3C2.30449 9.31641 2.3209 9.33281 2.33965 9.34922L3.8748 10.6594V10.657L2.3209 9.33047ZM14.8975 4.26797H14.8998L14.5365 2.30391C14.5318 2.28047 14.5272 2.25937 14.5201 2.23828C14.5225 2.25 14.5272 2.26406 14.5295 2.27578L14.8975 4.26797ZM16.1631 17.0766L16.899 16.4719L19.074 17.243C19.4725 16.7063 19.8076 16.1297 20.0725 15.518L18.3217 14.0203L18.4764 13.0805C18.535 12.7266 18.5654 12.3633 18.5654 12C18.5654 11.6367 18.535 11.2734 18.4764 10.9195L18.324 9.98438L20.0748 8.48672C19.8076 7.87734 19.4748 7.29844 19.0764 6.76172L16.9014 7.53281L16.1654 6.92813C15.6053 6.46875 14.9795 6.10781 14.3068 5.85469L13.4139 5.51953L12.9943 3.24609C12.3324 3.17109 11.6641 3.17109 11.0021 3.24609L10.5826 5.52422L9.69434 5.85938C9.02637 6.1125 8.40527 6.47344 7.8498 6.93047L7.11387 7.5375L4.92481 6.75937C4.52637 7.29609 4.19121 7.87266 3.92637 8.48438L5.6959 9.99609L5.54355 10.9336C5.48496 11.2828 5.45684 11.6414 5.45684 12C5.45684 12.3562 5.4873 12.7172 5.54355 13.0664L5.6959 14.0039L3.92637 15.5156C4.19355 16.125 4.52637 16.7039 4.92481 17.2406L7.11387 16.4625L7.8498 17.0695C8.40527 17.5266 9.02637 17.8875 9.69434 18.1406L10.5803 18.4805L10.9998 20.7586C11.6607 20.8336 12.3334 20.8336 12.992 20.7586L13.4115 18.4852L14.3045 18.15C14.9795 17.8969 15.6029 17.5359 16.1631 17.0766ZM12.0123 15.8977C11.2975 15.8977 10.6248 15.7148 10.0365 15.3937C8.74981 14.6953 7.87559 13.3336 7.87559 11.7656C7.87559 9.4875 9.72246 7.64062 12.0006 7.64062C13.5686 7.64062 14.9303 8.51484 15.6287 9.80156C15.9498 10.3875 16.1326 11.0602 16.1326 11.7773C16.1326 14.0531 14.2881 15.8977 12.0123 15.8977ZM4.85684 19.05C4.72793 19.0945 4.59434 19.1039 4.46777 19.0781C4.60137 19.1063 4.74199 19.1016 4.87793 19.0547L6.78574 18.375C6.7834 18.3727 6.77871 18.3703 6.77637 18.368L4.85684 19.05ZM21.6756 9.33047L20.1404 10.643C20.1404 10.6477 20.1428 10.6547 20.1428 10.6594L21.6756 9.34922C21.842 9.20625 21.9357 9 21.9381 8.78672C21.9311 8.99297 21.8373 9.19219 21.6756 9.33047Z" fill="#D4E9F6"/>
<path id="Vector_2" d="M21.933 15.1545C21.9447 15.2647 21.933 15.3772 21.8931 15.485L21.872 15.5459C21.4483 16.7266 20.8156 17.8214 20.0041 18.778L19.9619 18.8272C19.8636 18.9434 19.7322 19.027 19.5853 19.0667C19.4383 19.1065 19.2828 19.1006 19.1392 19.0499L17.2338 18.3725C16.5347 18.9484 15.7452 19.4046 14.8971 19.7225L14.5291 21.7147C14.5013 21.8646 14.4286 22.0025 14.3206 22.1101C14.2126 22.2177 14.0744 22.2899 13.9244 22.317L13.8611 22.3288C13.2486 22.4395 12.6274 22.4952 12.0049 22.4952H12.0119C12.6377 22.4952 13.2635 22.4389 13.8728 22.3288L13.9361 22.317C14.0861 22.2899 14.2243 22.2177 14.3323 22.1101C14.4403 22.0025 14.5131 21.8646 14.5408 21.7147L14.9088 19.7249C15.7572 19.4061 16.54 18.9538 17.2431 18.3772L19.1463 19.0545C19.2898 19.1053 19.4454 19.1112 19.5923 19.0714C19.7392 19.0316 19.8706 18.9481 19.9689 18.8319L20.0111 18.7827C20.8267 17.8194 21.4525 16.7342 21.8767 15.5553L21.8978 15.4944C21.9353 15.3842 21.947 15.267 21.933 15.1545Z" fill="#D4E9F6"/>
<path id="Vector_3" d="M16.125 11.7656C16.125 11.0555 15.9445 10.3852 15.6281 9.80156C14.9297 8.51484 13.568 7.64062 12 7.64062C9.72188 7.64062 7.875 9.4875 7.875 11.7656C7.875 13.3336 8.74922 14.6953 10.0359 15.3937C10.6195 15.7102 11.2875 15.8906 12 15.8906C14.2781 15.8906 16.125 14.0437 16.125 11.7656ZM9.375 11.7656C9.375 11.0648 9.64922 10.4062 10.1437 9.90937C10.6406 9.4125 11.2992 9.14062 12 9.14062C12.7008 9.14062 13.3594 9.4125 13.8563 9.90937C14.1004 10.1528 14.294 10.4422 14.426 10.7607C14.5579 11.0793 14.6255 11.4208 14.625 11.7656C14.625 12.4664 14.3508 13.125 13.8563 13.6219C13.6128 13.866 13.3234 14.0597 13.0049 14.1916C12.6863 14.3235 12.3448 14.3912 12 14.3906C11.2992 14.3906 10.6406 14.1164 10.1437 13.6219C9.89959 13.3784 9.70597 13.0891 9.57404 12.7705C9.44211 12.4519 9.37446 12.1104 9.375 11.7656Z" fill="#4293CF"/>
<path id="Vector_4" d="M13.924 22.3176C14.074 22.2904 14.2122 22.2182 14.3202 22.1106C14.4282 22.0031 14.501 21.8651 14.5287 21.7152L14.8967 19.7231C15.7448 19.4051 16.5344 18.949 17.2334 18.3731L19.1389 19.0504C19.2824 19.1012 19.438 19.107 19.5849 19.0673C19.7318 19.0275 19.8632 18.944 19.9615 18.8277L20.0037 18.7785C20.8193 17.8152 21.4475 16.7277 21.8717 15.5465L21.8928 15.4856C21.9326 15.3777 21.9443 15.2652 21.9326 15.1551C21.9115 14.9699 21.8225 14.7942 21.6748 14.6652L20.1443 13.3551L20.1397 13.3527C20.2123 12.9074 20.2498 12.4527 20.2498 11.9981C20.2498 11.602 20.2217 11.2035 20.1654 10.8145C20.1584 10.7629 20.149 10.7113 20.142 10.6598C20.142 10.6551 20.1397 10.6481 20.1397 10.6434L21.6748 9.33087C21.8365 9.19259 21.9303 8.99337 21.9373 8.78712C21.9397 8.69337 21.9256 8.59728 21.8928 8.50587L21.8717 8.44493C21.4491 7.26375 20.8162 6.16877 20.0037 5.2129L19.9615 5.16368C19.863 5.04779 19.7316 4.96448 19.5847 4.92473C19.4379 4.88499 19.2824 4.89067 19.1389 4.94103L17.2334 5.61837C16.5303 5.04181 15.7475 4.58712 14.899 4.26837H14.8967L14.5287 2.27618C14.5264 2.26447 14.524 2.2504 14.5193 2.23868C14.4855 2.09698 14.4112 1.96816 14.3055 1.86788C14.1999 1.76761 14.0673 1.70019 13.924 1.67384L13.8607 1.66212C12.6397 1.44181 11.3553 1.44181 10.1342 1.66212L10.0709 1.67384C9.9209 1.70102 9.78271 1.7732 9.6747 1.88079C9.56669 1.98838 9.49398 2.12628 9.46622 2.27618L9.0959 4.27775C8.25424 4.59656 7.47043 5.05101 6.77559 5.62306L4.85606 4.94103C4.71254 4.89027 4.55698 4.88438 4.41003 4.92415C4.26309 4.96392 4.13173 5.04747 4.0334 5.16368L3.99122 5.2129C3.17968 6.16944 2.54694 7.26424 2.12325 8.44493L2.10215 8.50587C2.05331 8.64208 2.0448 8.78949 2.07764 8.93042C2.11049 9.07135 2.18328 9.19981 2.28731 9.3004C2.29903 9.30978 2.3084 9.3215 2.32012 9.33087L3.87403 10.6574V10.6598C3.80137 11.1004 3.76622 11.5481 3.76622 11.9957C3.76622 12.4457 3.80137 12.8957 3.87403 13.334L2.32012 14.6606C2.20433 14.7597 2.12146 14.8917 2.08252 15.0391C2.04359 15.1864 2.05043 15.3422 2.10215 15.4856L2.12325 15.5465C2.54747 16.7277 3.17559 17.8176 3.99122 18.7785L4.0334 18.8277C4.14825 18.9613 4.30059 19.0481 4.467 19.0785C4.59356 19.102 4.72715 19.0949 4.85606 19.0504L6.77559 18.3684C6.77793 18.3707 6.78262 18.3731 6.78497 18.3754C7.48106 18.9449 8.25684 19.3973 9.0959 19.7137L9.46622 21.7152C9.49398 21.8651 9.56669 22.0031 9.6747 22.1106C9.78271 22.2182 9.9209 22.2904 10.0709 22.3176L10.1342 22.3293C10.7459 22.4395 11.3717 22.4957 11.9975 22.4957H12.0045C12.6279 22.4957 13.2537 22.4395 13.8607 22.3293L13.924 22.3176ZM12.9912 20.759C12.3293 20.834 11.661 20.834 10.999 20.759L10.5795 18.4809L9.69356 18.141C9.02559 17.8879 8.4045 17.527 7.84903 17.0699L7.11309 16.4629L4.92403 17.241C4.52559 16.7043 4.19278 16.1254 3.92559 15.516L5.69512 14.0043L5.54278 13.0668C5.48653 12.7176 5.45606 12.3567 5.45606 12.0004C5.45606 11.6418 5.48418 11.2832 5.54278 10.934L5.69512 9.9965L3.92559 8.48478C4.19043 7.87306 4.52559 7.2965 4.92403 6.75978L7.11309 7.5379L7.84903 6.93087C8.4045 6.47384 9.02559 6.1129 9.69356 5.85978L10.5818 5.52462L11.0014 3.2465C11.66 3.1715 12.3326 3.1715 12.9936 3.2465L13.4131 5.51993L14.3061 5.85509C14.9787 6.10822 15.6045 6.46915 16.1647 6.92853L16.9006 7.53322L19.0756 6.76212C19.474 7.29884 19.8068 7.87775 20.074 8.48712L18.3232 9.98478L18.4756 10.9199C18.5342 11.2738 18.5647 11.6371 18.5647 12.0004C18.5647 12.3637 18.5342 12.727 18.4756 13.0809L18.3209 14.0207L20.0717 15.5184C19.8063 16.1298 19.4712 16.7087 19.0732 17.2434L16.8982 16.4723L16.1623 17.077C15.6022 17.5363 14.9787 17.8973 14.3037 18.1504L13.4107 18.4856L12.9912 20.759Z" fill="#4293CF"/>
</g>
</svg>
