<svg width="24" height="24" viewBox="0 0 24 24" fill="none" xmlns="http://www.w3.org/2000/svg">
<g id="icon/two-tone/application/star">
<path id="Vector" d="M12.0111 4.4621L9.79863 8.94569L4.84863 9.66522L8.42988 13.1574L7.58379 18.0863L12.0111 15.759L16.4385 18.084L15.5924 13.1551L19.1736 9.66522L14.2236 8.94569L12.0111 4.4621Z" fill="#D4E9F6"/>
<path id="Vector_2" d="M21.2958 8.26839L15.345 7.40355L12.6848 2.01058C12.6122 1.86292 12.4927 1.74339 12.345 1.67074C11.9747 1.48792 11.5247 1.64027 11.3395 2.01058L8.67938 7.40355L2.7286 8.26839C2.56453 8.29183 2.41453 8.36917 2.29969 8.48636C2.16085 8.62906 2.08434 8.82105 2.08698 9.02013C2.08962 9.21921 2.17118 9.4091 2.31375 9.54808L6.61922 13.7457L5.60203 19.6731C5.57818 19.811 5.59344 19.9528 5.64608 20.0824C5.69872 20.2121 5.78663 20.3244 5.89985 20.4066C6.01307 20.4888 6.14707 20.5377 6.28664 20.5477C6.42622 20.5576 6.56579 20.5283 6.68953 20.4629L12.0122 17.6645L17.3348 20.4629C17.4802 20.5403 17.6489 20.566 17.8106 20.5379C18.2184 20.4676 18.4927 20.0809 18.4223 19.6731L17.4052 13.7457L21.7106 9.54808C21.8278 9.43324 21.9052 9.28324 21.9286 9.11917C21.9919 8.70902 21.7059 8.32933 21.2958 8.26839ZM15.5934 13.1551L16.4395 18.084L12.0122 15.759L7.58485 18.0864L8.43094 13.1575L4.84969 9.66527L9.79969 8.94574L12.0122 4.46214L14.2247 8.94574L19.1747 9.66527L15.5934 13.1551Z" fill="#4293CF"/>
</g>
</svg>
