<svg width="24" height="24" viewBox="0 0 24 24" fill="none" xmlns="http://www.w3.org/2000/svg">
<g id="icon/two-tone/application/tag">
<path id="Vector" d="M13.8045 3.85773L4.43652 13.2257L10.774 19.5632L20.142 10.1952L19.5936 4.40616L13.8045 3.85773ZM15.9373 10.1249C14.8006 10.1249 13.8748 9.19913 13.8748 8.06241C13.8748 6.9257 14.8006 5.99991 15.9373 5.99991C17.074 5.99991 17.9998 6.9257 17.9998 8.06241C17.9998 9.19913 17.074 10.1249 15.9373 10.1249Z" fill="#D4E9F6"/>
<path id="Vector_2" d="M15.9375 6C14.8008 6 13.875 6.92578 13.875 8.0625C13.875 9.19922 14.8008 10.125 15.9375 10.125C17.0742 10.125 18 9.19922 18 8.0625C18 6.92578 17.0742 6 15.9375 6ZM15.9375 8.8125C15.5227 8.8125 15.1875 8.47734 15.1875 8.0625C15.1875 7.64766 15.5227 7.3125 15.9375 7.3125C16.3523 7.3125 16.6875 7.64766 16.6875 8.0625C16.6875 8.47734 16.3523 8.8125 15.9375 8.8125Z" fill="#4293CF"/>
<path id="Vector_3" d="M21.984 10.7531L21.2902 3.42656C21.2551 3.04687 20.9527 2.74687 20.573 2.70937L13.2465 2.01562H13.2371C13.1621 2.01562 13.1035 2.03906 13.059 2.08359L2.08319 13.0594C2.06146 13.0811 2.04422 13.1068 2.03246 13.1352C2.0207 13.1635 2.01465 13.1939 2.01465 13.2246C2.01465 13.2553 2.0207 13.2857 2.03246 13.3141C2.04422 13.3424 2.06146 13.3682 2.08319 13.3898L10.6098 21.9164C10.6316 21.9382 10.6575 21.9555 10.6861 21.9672C10.7147 21.9788 10.7453 21.9847 10.7762 21.9844C10.8394 21.9844 10.898 21.9609 10.9426 21.9164L21.9183 10.9406C21.9652 10.8914 21.9887 10.8234 21.984 10.7531ZM10.7738 19.5633L4.43632 13.2258L13.8043 3.85781L19.5933 4.40625L20.1418 10.1953L10.7738 19.5633Z" fill="#4293CF"/>
</g>
</svg>
