<svg width="24" height="24" viewBox="0 0 24 24" fill="none" xmlns="http://www.w3.org/2000/svg">
<g id="icon/two-tone/application/tags">
<path id="Vector" d="M11.1918 16.2655L18.502 8.95773L18.0566 3.69366L12.7926 3.24835L5.48242 10.5585L11.1918 16.2655ZM13.9105 6.52726C13.9613 6.3366 14.0615 6.16272 14.201 6.02321C14.3405 5.88369 14.5144 5.78349 14.7051 5.73273C15.0941 5.6296 15.5066 5.73976 15.7926 6.02335C15.9324 6.16303 16.0329 6.33713 16.0839 6.52807C16.135 6.71902 16.1347 6.92004 16.0832 7.11085C16.0324 7.30151 15.9322 7.47539 15.7927 7.6149C15.6532 7.75442 15.4793 7.85462 15.2887 7.90538C14.8996 8.00851 14.4871 7.89835 14.2012 7.61476C14.0621 7.47458 13.9621 7.30047 13.9111 7.10969C13.8601 6.91892 13.8599 6.71813 13.9105 6.52726Z" fill="#D4E9F6"/>
<path id="Vector_2" d="M11.1703 18.5765C11.1304 18.5718 11.0906 18.553 11.0601 18.5226L3.22732 10.6897C3.19243 10.6545 3.17285 10.6069 3.17285 10.5573C3.17285 10.5077 3.19243 10.4601 3.22732 10.4249L12.0914 1.56084C12.1195 1.53037 12.1594 1.51162 12.2015 1.50693H12.1922C12.1383 1.50224 12.082 1.52099 12.0445 1.56084L3.18045 10.4249C3.14555 10.4601 3.12598 10.5077 3.12598 10.5573C3.12598 10.6069 3.14555 10.6545 3.18045 10.6897L11.0133 18.5226C11.0554 18.5671 11.114 18.5835 11.1703 18.5765Z" fill="#D4E9F6"/>
<path id="Vector_3" d="M20.8519 12.6516L19.9238 11.7258C19.8886 11.6909 19.841 11.6713 19.7914 11.6713C19.7418 11.6713 19.6942 11.6909 19.659 11.7258L11.1746 20.1938L5.60584 14.6391C5.5706 14.6042 5.52301 14.5846 5.47341 14.5846C5.42382 14.5846 5.37623 14.6042 5.34099 14.6391L4.41287 15.5649C4.37797 15.6001 4.3584 15.6477 4.3584 15.6973C4.3584 15.7469 4.37797 15.7945 4.41287 15.8297L10.1129 21.5203L11.041 22.4461C11.1136 22.5188 11.2332 22.5188 11.3058 22.4461L20.8519 12.9164C20.9246 12.8438 20.9246 12.7243 20.8519 12.6516ZM15.2879 7.9055C15.4785 7.85474 15.6524 7.75454 15.7919 7.61502C15.9314 7.47551 16.0316 7.30163 16.0824 7.11097C16.1855 6.72191 16.0754 6.30941 15.7918 6.02347C15.6521 5.88364 15.478 5.78314 15.2871 5.73212C15.0961 5.68109 14.8951 5.68134 14.7043 5.73285C14.5136 5.78361 14.3397 5.88381 14.2002 6.02333C14.0607 6.16284 13.9605 6.33672 13.9097 6.52738C13.8066 6.91644 13.9168 7.32894 14.2004 7.61488C14.3405 7.75396 14.5147 7.85396 14.7054 7.90494C14.8962 7.95593 15.097 7.95612 15.2879 7.9055Z" fill="#4293CF"/>
<path id="Vector_4" d="M3.22732 10.4252C3.19243 10.4604 3.17285 10.508 3.17285 10.5576C3.17285 10.6072 3.19243 10.6548 3.22732 10.69L11.0601 18.5228C11.0906 18.5533 11.1281 18.572 11.1703 18.5767C11.2265 18.5838 11.2828 18.565 11.325 18.5228L20.189 9.65642C20.2289 9.61658 20.2476 9.56267 20.2429 9.50877L19.6453 2.4447C19.6289 2.26189 19.4859 2.11892 19.3031 2.10251L12.239 1.5072H12.2015C12.1594 1.51189 12.1219 1.53064 12.0914 1.56111L3.22732 10.4252ZM12.7922 3.24861L18.0562 3.69392L18.5015 8.95798L11.1914 16.2658L5.48201 10.5588L12.7922 3.24861Z" fill="#4293CF"/>
</g>
</svg>
