<svg width="24" height="24" viewBox="0 0 24 24" fill="none" xmlns="http://www.w3.org/2000/svg">
<g id="icon/two-tone/application/thunderbolt">
<path id="Vector" d="M16.2986 3.84601H11.0346L6.59082 11.5194H10.2799L8.8666 17.1679L16.3619 10.0171H11.4166L16.2986 3.84601Z" fill="#D4E9F6"/>
<path id="Vector_2" d="M19.8774 8.42109H14.7141L19.3571 2.55469C19.4532 2.43047 19.3665 2.25 19.2094 2.25H10.2211C10.1555 2.25 10.0922 2.28516 10.0594 2.34375L3.98677 12.832C3.91411 12.9563 4.00318 13.1133 4.14849 13.1133H8.23599L6.14068 21.4945C6.09614 21.6773 6.31646 21.8062 6.45239 21.675L20.0063 8.74219C20.1282 8.62734 20.0461 8.42109 19.8774 8.42109ZM8.86646 17.168L10.2797 11.5195H6.59068L11.0344 3.84609H16.2985L11.4165 10.0172H16.3618L8.86646 17.168Z" fill="#4293CF"/>
</g>
</svg>
