<svg width="24" height="24" viewBox="0 0 24 24" fill="none" xmlns="http://www.w3.org/2000/svg">
<g id="icon/two-tone/application/tool">
<path id="Vector" d="M16.5654 11.4539C16.4246 11.5946 16.2336 11.6736 16.0346 11.6736C15.8355 11.6736 15.6446 11.5946 15.5037 11.4539L12.5857 8.53596C12.4451 8.39511 12.366 8.20417 12.366 8.0051C12.366 7.80602 12.4451 7.61508 12.5857 7.47424L15.7006 4.36174C15.0809 4.31555 14.4586 4.40367 13.8761 4.62007C13.2937 4.83648 12.7648 5.17607 12.3256 5.61564C10.9639 6.97736 10.7014 9.02111 11.5381 10.6453L10.3006 11.8828C10.2982 11.8828 10.2982 11.8805 10.2982 11.8805L4.90527 17.2735L6.76152 19.1297L13.1834 12.7055L13.1857 12.7078L13.392 12.5016C15.0162 13.3383 17.06 13.0758 18.4217 11.7141C19.3404 10.7977 19.7646 9.55549 19.6779 8.34142L16.5654 11.4539Z" fill="#D4E9F6"/>
<path id="Vector_2" d="M20.5451 5.61305C20.5334 5.59196 20.517 5.57087 20.4982 5.55446C20.381 5.43727 20.1912 5.43727 20.074 5.55446L16.0357 9.59274L14.4443 8.00134L18.485 3.96071C18.5037 3.94196 18.5178 3.92321 18.5318 3.90212C18.6162 3.75915 18.5693 3.57634 18.4264 3.49196C16.1248 2.13259 13.1107 2.4443 11.1303 4.42243C9.55995 5.99274 9.03964 8.2193 9.57167 10.2209L2.70448 17.0881C2.63417 17.1584 2.63886 17.2732 2.71152 17.3459L6.68886 21.3232C6.76152 21.3959 6.8787 21.4006 6.94667 21.3302L13.8115 14.4654C15.8154 14.9998 18.042 14.4818 19.6146 12.9091C21.5928 10.9287 21.9045 7.91462 20.5451 5.61305ZM18.4217 11.7138C17.06 13.0756 15.0162 13.3381 13.392 12.5013L13.1857 12.7076L13.1834 12.7052L6.76152 19.1295L4.90527 17.2732L10.2982 11.8802C10.2982 11.8802 10.2982 11.8826 10.3006 11.8826L11.5381 10.6451C10.7014 9.02087 10.9639 6.97712 12.3256 5.6154C12.7648 5.17582 13.2937 4.83623 13.8761 4.61983C14.4586 4.40342 15.0809 4.3153 15.7006 4.36149L12.5857 7.47399C12.445 7.61484 12.366 7.80577 12.366 8.00485C12.366 8.20393 12.445 8.39486 12.5857 8.53571L15.5037 11.4537C15.6446 11.5944 15.8355 11.6734 16.0346 11.6734C16.2336 11.6734 16.4246 11.5944 16.5654 11.4537L19.6779 8.34118C19.7646 9.55524 19.3404 10.7974 18.4217 11.7138Z" fill="#4293CF"/>
</g>
</svg>
