<svg width="24" height="24" viewBox="0 0 24 24" fill="none" xmlns="http://www.w3.org/2000/svg">
<g id="icon/two-tone/directional/up-circle">
<path id="Vector" d="M12 3.28125C7.18594 3.28125 3.28125 7.18594 3.28125 12C3.28125 16.8141 7.18594 20.7188 12 20.7188C16.8141 20.7188 20.7188 16.8141 20.7188 12C20.7188 7.18594 16.8141 3.28125 12 3.28125ZM16.1719 14.5078H15.0727C14.8336 14.5078 14.6063 14.393 14.4656 14.1984L12 10.7906L9.53437 14.1984C9.39375 14.393 9.16875 14.5078 8.92734 14.5078H7.82812C7.67578 14.5078 7.58672 14.3344 7.67578 14.2102L11.8477 8.44453C11.9227 8.34141 12.075 8.34141 12.15 8.44453L16.3219 14.2102C16.4133 14.3344 16.3242 14.5078 16.1719 14.5078Z" fill="#D4E9F6"/>
<path id="Vector_2" d="M12 1.5C6.20156 1.5 1.5 6.20156 1.5 12C1.5 17.7984 6.20156 22.5 12 22.5C17.7984 22.5 22.5 17.7984 22.5 12C22.5 6.20156 17.7984 1.5 12 1.5ZM12 20.7188C7.18594 20.7188 3.28125 16.8141 3.28125 12C3.28125 7.18594 7.18594 3.28125 12 3.28125C16.8141 3.28125 20.7188 7.18594 20.7188 12C20.7188 16.8141 16.8141 20.7188 12 20.7188Z" fill="#4293CF"/>
<path id="Vector_3" d="M12.1493 8.44459C12.1321 8.42063 12.1094 8.40112 12.0831 8.38766C12.0568 8.37421 12.0277 8.36719 11.9982 8.36719C11.9686 8.36719 11.9395 8.37421 11.9132 8.38766C11.887 8.40112 11.8643 8.42063 11.847 8.44459L7.6751 14.2102C7.58604 14.3344 7.6751 14.5079 7.82745 14.5079H8.92667C9.16808 14.5079 9.39308 14.393 9.5337 14.1985L11.9993 10.7907L14.465 14.1985C14.6056 14.393 14.8329 14.5079 15.072 14.5079H16.1712C16.3236 14.5079 16.4126 14.3344 16.3212 14.2102L12.1493 8.44459Z" fill="#4293CF"/>
</g>
</svg>
