<svg width="24" height="24" viewBox="0 0 24 24" fill="none" xmlns="http://www.w3.org/2000/svg">
<g id="icon/two-tone/directional/up-square">
<path id="Vector" d="M20.625 2.625H3.375C2.96016 2.625 2.625 2.96016 2.625 3.375V20.625C2.625 21.0398 2.96016 21.375 3.375 21.375H20.625C21.0398 21.375 21.375 21.0398 21.375 20.625V3.375C21.375 2.96016 21.0398 2.625 20.625 2.625ZM19.6875 19.6875H4.3125V4.3125H19.6875V19.6875Z" fill="#4293CF"/>
<path id="Vector_2" d="M4.3125 19.6875H19.6875V4.3125H4.3125V19.6875ZM7.67578 14.3273L11.8477 8.56172C11.9227 8.45859 12.075 8.45859 12.15 8.56172L16.3219 14.3273C16.4133 14.4516 16.3242 14.625 16.1719 14.625H15.0727C14.8336 14.625 14.6063 14.5102 14.4656 14.3156L12 10.9078L9.53437 14.3156C9.39375 14.5102 9.16875 14.625 8.92734 14.625H7.82812C7.67578 14.625 7.58672 14.4516 7.67578 14.3273Z" fill="#D4E9F6"/>
<path id="Vector_3" d="M7.82745 14.6251H8.92667C9.16808 14.6251 9.39308 14.5102 9.5337 14.3157L11.9993 10.9079L14.465 14.3157C14.6056 14.5102 14.8329 14.6251 15.072 14.6251H16.1712C16.3236 14.6251 16.4126 14.4516 16.3212 14.3274L12.1493 8.56177C12.1321 8.53782 12.1094 8.51831 12.0831 8.50485C12.0568 8.49139 12.0277 8.48438 11.9982 8.48438C11.9686 8.48438 11.9395 8.49139 11.9132 8.50485C11.887 8.51831 11.8643 8.53782 11.847 8.56177L7.6751 14.3274C7.58604 14.4516 7.6751 14.6251 7.82745 14.6251Z" fill="#4293CF"/>
</g>
</svg>
