<svg width="24" height="24" viewBox="0 0 24 24" fill="none" xmlns="http://www.w3.org/2000/svg">
<g id="icon/two-tone/suggested/warning">
<path id="Vector" d="M22.3988 20.0625L12.6488 3.1875C12.5035 2.93672 12.2527 2.8125 11.9996 2.8125C11.7465 2.8125 11.4934 2.93672 11.3504 3.1875L1.6004 20.0625C1.31212 20.5641 1.67305 21.1875 2.24962 21.1875H21.7496C22.3262 21.1875 22.6871 20.5641 22.3988 20.0625ZM4.03555 19.4086L11.9996 5.62266L19.9637 19.4086H4.03555Z" fill="#4293CF"/>
<path id="Vector_2" d="M4.03711 19.4087H19.9652L12.0012 5.6228L4.03711 19.4087ZM13.1262 16.8751C13.1202 17.1695 12.999 17.4498 12.7887 17.6559C12.5783 17.862 12.2956 17.9774 12.0012 17.9774C11.7067 17.9774 11.424 17.862 11.2137 17.6559C11.0033 17.4498 10.8822 17.1695 10.8762 16.8751C10.8822 16.5808 11.0033 16.3004 11.2137 16.0944C11.424 15.8883 11.7067 15.7729 12.0012 15.7729C12.2956 15.7729 12.5783 15.8883 12.7887 16.0944C12.999 16.3004 13.1202 16.5808 13.1262 16.8751ZM12.7512 9.75015V14.0626C12.7512 14.1658 12.6668 14.2501 12.5637 14.2501H11.4387C11.3355 14.2501 11.2512 14.1658 11.2512 14.0626V9.75015C11.2512 9.64702 11.3355 9.56265 11.4387 9.56265H12.5637C12.6668 9.56265 12.7512 9.64702 12.7512 9.75015Z" fill="#D4E9F6"/>
<path id="Vector_3" d="M10.875 16.875C10.875 17.1734 10.9935 17.4595 11.2045 17.6705C11.4155 17.8815 11.7016 18 12 18C12.2984 18 12.5845 17.8815 12.7955 17.6705C13.0065 17.4595 13.125 17.1734 13.125 16.875C13.125 16.5766 13.0065 16.2905 12.7955 16.0795C12.5845 15.8685 12.2984 15.75 12 15.75C11.7016 15.75 11.4155 15.8685 11.2045 16.0795C10.9935 16.2905 10.875 16.5766 10.875 16.875ZM11.25 9.75V14.0625C11.25 14.1656 11.3344 14.25 11.4375 14.25H12.5625C12.6656 14.25 12.75 14.1656 12.75 14.0625V9.75C12.75 9.64687 12.6656 9.5625 12.5625 9.5625H11.4375C11.3344 9.5625 11.25 9.64687 11.25 9.75Z" fill="#4293CF"/>
</g>
</svg>
