<svg width="24" height="24" viewBox="0 0 24 24" fill="none" xmlns="http://www.w3.org/2000/svg">
<g id="icon/filled/brand-and-logos/aliwangwang">
<path id="Vector" d="M20.3488 8.84531C19.9059 7.78828 19.2637 6.83906 18.4457 6.01875C17.6365 5.20736 16.6773 4.561 15.6215 4.11563C14.528 3.65203 13.3521 3.41445 12.1645 3.41719C11.1824 3.41719 10.2215 3.57422 9.30742 3.88594C7.17227 2.88984 4.70664 2.8125 3.99883 2.8125C3.94727 2.8125 3.82539 2.8125 3.77852 2.81719C3.49961 2.82656 3.24414 2.96953 3.09414 3.20156C2.9418 3.43359 2.91367 3.72656 3.01446 3.98672L4.52149 7.77422C3.70998 9.14514 3.28252 10.7092 3.28399 12.3023C3.28399 13.507 3.51836 14.6695 3.98242 15.7617C4.42539 16.8164 5.06524 17.768 5.88555 18.5859C6.69883 19.4016 7.65274 20.0414 8.70977 20.4891C9.8043 20.9531 10.9668 21.1875 12.1645 21.1875C13.3668 21.1875 14.5293 20.9531 15.6262 20.4891C16.6785 20.0461 17.6301 19.4039 18.448 18.5859C19.2613 17.7703 19.9035 16.8188 20.3512 15.7594C20.8146 14.665 21.0521 13.4884 21.0496 12.3C21.0449 11.1 20.8129 9.9375 20.3488 8.84531ZM12.727 10.6969C12.727 11.175 12.3379 11.5664 11.8574 11.5664C11.3793 11.5664 10.9879 11.175 10.9879 10.6969V9.40547C10.9879 8.92734 11.377 8.53594 11.8574 8.53594C12.3355 8.53594 12.727 8.925 12.727 9.40547V10.6969ZM16.8332 10.6969C16.8332 11.175 16.4441 11.5664 15.9637 11.5664C15.4832 11.5664 15.0941 11.175 15.0941 10.6969V9.40547C15.0941 8.92734 15.4855 8.53594 15.9637 8.53594C16.4418 8.53594 16.8332 8.925 16.8332 9.40547V10.6969Z" fill="black"/>
</g>
</svg>
