<svg width="24" height="24" viewBox="0 0 24 24" fill="none" xmlns="http://www.w3.org/2000/svg">
<g id="icon/filled/brand-and-logos/android">
<path id="Vector" d="M6.33105 17.3828C6.33105 17.9313 6.77871 18.3789 7.32949 18.3789H8.4709V21.2008C8.4709 21.9156 9.04512 22.4992 9.75059 22.4992C10.4584 22.4992 11.0303 21.918 11.0303 21.2008V18.3766H13.0225V21.1984C13.0225 21.9133 13.5967 22.4969 14.3021 22.4969C15.01 22.4969 15.5818 21.9156 15.5818 21.1984V18.3766H16.7232C17.274 18.3766 17.7217 17.9289 17.7217 17.3805V8.11798H6.33105V17.3828ZM14.7006 3.31798L15.7529 1.79454C15.8139 1.70548 15.7998 1.58594 15.7178 1.52735C15.6357 1.4711 15.5186 1.49923 15.4576 1.58829L14.3654 3.17266C13.6459 2.88907 12.8443 2.73204 12.0029 2.73204C11.1615 2.73204 10.36 2.88907 9.64043 3.17266L8.54824 1.59063C8.4873 1.50157 8.37012 1.4711 8.28809 1.52969C8.20605 1.58594 8.19199 1.70313 8.25293 1.79688L9.30527 3.32032C7.63184 4.09844 6.45996 5.57266 6.30996 7.29532H17.7006C17.5459 5.57032 16.3717 4.0961 14.7006 3.31798ZM9.59824 5.72032C9.47355 5.72032 9.35165 5.68334 9.24797 5.61407C9.14429 5.54479 9.06348 5.44632 9.01577 5.33112C8.96805 5.21592 8.95556 5.08915 8.97989 4.96685C9.00421 4.84455 9.06426 4.73221 9.15243 4.64404C9.24061 4.55587 9.35294 4.49582 9.47524 4.4715C9.59754 4.44717 9.72431 4.45965 9.83951 4.50737C9.95472 4.55509 10.0532 4.6359 10.1225 4.73958C10.1917 4.84326 10.2287 4.96516 10.2287 5.08985C10.2283 5.25693 10.1617 5.41704 10.0436 5.53518C9.92543 5.65332 9.76532 5.71989 9.59824 5.72032ZM14.4826 5.72032C14.3579 5.72032 14.236 5.68334 14.1323 5.61407C14.0287 5.54479 13.9479 5.44632 13.9001 5.33112C13.8524 5.21592 13.8399 5.08915 13.8643 4.96685C13.8886 4.84455 13.9486 4.73221 14.0368 4.64404C14.125 4.55587 14.2373 4.49582 14.3596 4.4715C14.4819 4.44717 14.6087 4.45965 14.7239 4.50737C14.8391 4.55509 14.9376 4.6359 15.0068 4.73958C15.0761 4.84326 15.1131 4.96516 15.1131 5.08985C15.1127 5.25693 15.0461 5.41704 14.9279 5.53518C14.8098 5.65332 14.6497 5.71989 14.4826 5.72032ZM19.7186 8.08048C19.0107 8.08048 18.4389 8.66173 18.4389 9.37891V14.4508C18.4389 15.1656 19.0131 15.7492 19.7186 15.7492C20.4264 15.7492 20.9982 15.168 20.9982 14.4508V9.37657C21.0006 8.65938 20.4287 8.08048 19.7186 8.08048ZM4.28262 8.08048C3.5748 8.08048 3.00293 8.66173 3.00293 9.37891V14.4508C3.00293 15.1656 3.57715 15.7492 4.28262 15.7492C4.99043 15.7492 5.5623 15.168 5.5623 14.4508V9.37657C5.5623 8.65938 4.98809 8.08048 4.28262 8.08048Z" fill="black"/>
</g>
</svg>
