<svg width="24" height="24" viewBox="0 0 24 24" fill="none" xmlns="http://www.w3.org/2000/svg">
<g id="icon/filled/directional/backward">
<path id="Vector" d="M11.3818 5.85705L4.6459 11.6719C4.45137 11.8383 4.45137 12.1594 4.6459 12.3258L11.3818 18.143C11.6326 18.3586 12.0006 18.1641 12.0006 17.8149V6.18283C12.0006 5.83596 11.6326 5.63908 11.3818 5.85705ZM18.8818 5.85705L12.1459 11.6719C12.0998 11.7131 12.063 11.7637 12.0379 11.8203C12.0129 11.8769 12.0001 11.9381 12.0006 12C12.0006 12.1219 12.0498 12.2438 12.1459 12.3281L18.8818 18.1453C19.1326 18.361 19.5006 18.1664 19.5006 17.8172V6.18283C19.5006 5.83596 19.1326 5.63908 18.8818 5.85705Z" fill="black"/>
</g>
</svg>
