<svg width="24" height="24" viewBox="0 0 24 24" fill="none" xmlns="http://www.w3.org/2000/svg">
<g id="icon/filled/application/bank">
<path id="Vector" d="M20.9533 10.8284C21.6775 10.8284 21.9798 9.89795 21.3916 9.46904L12.4408 2.95811C12.3129 2.86445 12.1586 2.81396 12.0001 2.81396C11.8417 2.81396 11.6873 2.86445 11.5595 2.95811L2.60874 9.46904C2.02046 9.89561 2.3228 10.8284 3.04936 10.8284H4.50015V19.594H2.81265C2.70952 19.594 2.62515 19.6784 2.62515 19.7815V21.0003C2.62515 21.1034 2.70952 21.1878 2.81265 21.1878H21.1876C21.2908 21.1878 21.3751 21.1034 21.3751 21.0003V19.7815C21.3751 19.6784 21.2908 19.594 21.1876 19.594H19.5001V10.8284H20.9533ZM8.92983 19.594H6.18764V10.8284H8.92983V19.594ZM13.3595 19.594H10.6173V10.8284H13.3595V19.594ZM17.8126 19.594H15.047V10.8284H17.8126V19.594Z" fill="black"/>
</g>
</svg>
