<svg width="24" height="24" viewBox="0 0 24 24" fill="none" xmlns="http://www.w3.org/2000/svg">
<g id="icon/filled/application/car">
<path id="Vector" d="M22.4763 9.68892L21.9208 8.7186C21.8958 8.67583 21.8549 8.64467 21.8071 8.63194C21.7592 8.6192 21.7083 8.62593 21.6653 8.65064L20.477 9.34439L18.6419 4.2772C18.545 3.97484 18.3545 3.7111 18.098 3.52405C17.8414 3.33701 17.532 3.23633 17.2145 3.23657H7.05907C6.24579 3.23657 5.52392 3.76157 5.27314 4.53735L3.5247 9.34673L2.33407 8.65298C2.29115 8.62827 2.24019 8.62155 2.19232 8.63428C2.14446 8.64702 2.10358 8.67817 2.07861 8.72095L1.52314 9.68892C1.47157 9.77798 1.50204 9.89048 1.59111 9.94204L3.00673 10.767L2.66689 11.7045C2.63876 11.7795 2.6247 11.8592 2.6247 11.9389V20.0999C2.6247 20.4678 2.90126 20.7655 3.24111 20.7655H4.82548C5.11376 20.7655 5.36454 20.5475 5.42548 20.2428L5.60595 19.3592H18.3934L18.5739 20.2428C18.6372 20.5475 18.8856 20.7655 19.1739 20.7655H20.7583C21.0981 20.7655 21.3747 20.4678 21.3747 20.0999V11.9389C21.3747 11.8592 21.3606 11.7795 21.3325 11.7045L20.9927 10.767L22.4059 9.94204C22.4485 9.91747 22.4797 9.87719 22.4928 9.82985C22.506 9.78252 22.5 9.73191 22.4763 9.68892ZM6.1872 14.5545C5.66923 14.5545 5.2497 14.135 5.2497 13.617C5.2497 13.0991 5.66923 12.6795 6.1872 12.6795C6.70517 12.6795 7.1247 13.0991 7.1247 13.617C7.1247 14.135 6.70517 14.5545 6.1872 14.5545ZM15.2809 16.3124C15.2809 16.4155 15.1966 16.4999 15.0934 16.4999H8.90595C8.80282 16.4999 8.71845 16.4155 8.71845 16.3124V14.3436C8.71845 14.2405 8.80282 14.1561 8.90595 14.1561H9.84345C9.94657 14.1561 10.0309 14.2405 10.0309 14.3436V15.1874H13.9684V14.3436C13.9684 14.2405 14.0528 14.1561 14.1559 14.1561H15.0934C15.1966 14.1561 15.2809 14.2405 15.2809 14.3436V16.3124ZM17.8122 14.5545C17.2942 14.5545 16.8747 14.135 16.8747 13.617C16.8747 13.0991 17.2942 12.6795 17.8122 12.6795C18.3302 12.6795 18.7497 13.0991 18.7497 13.617C18.7497 14.135 18.3302 14.5545 17.8122 14.5545ZM5.15595 9.79673L6.85986 5.11157L6.87157 5.0811L6.88095 5.05064C6.90673 4.97329 6.97704 4.92173 7.05907 4.92173H17.0809L18.8481 9.79673H5.15595Z" fill="black"/>
</g>
</svg>
