<svg width="24" height="24" viewBox="0 0 24 24" fill="none" xmlns="http://www.w3.org/2000/svg">
<g id="icon/filled/brand-and-logos/chrome">
<path id="Vector" d="M8.71407 11.9997C8.71407 13.8162 10.1836 15.2857 12 15.2857C13.8164 15.2857 15.2859 13.8162 15.2859 11.9997C15.2859 10.1833 13.8164 8.71381 12 8.71381C10.1836 8.71381 8.71407 10.181 8.71407 11.9997ZM21.0938 8.4935L15.6024 8.77709C17.093 10.5185 17.1164 13.031 15.8625 14.9576L11.4563 21.7357C13.2844 21.8341 15.1688 21.4333 16.875 20.4419C21.0938 18.0044 22.8047 12.8927 21.0938 8.4935ZM7.50704 13.8724L3.83907 6.65834C2.80019 8.24592 2.24786 10.1025 2.25001 11.9997C2.25001 16.8747 5.81954 20.913 10.4859 21.6279L12.9914 16.7201C10.7274 17.1466 8.54063 15.9044 7.50704 13.8724ZM12.6281 7.181L20.7 7.60522C19.875 5.96928 18.5766 4.54662 16.8703 3.55522C15.3258 2.66225 13.6289 2.23803 11.9649 2.24975C9.09376 2.26147 6.28829 3.5435 4.41563 5.87084L7.42032 10.4857C8.17032 8.33178 10.3453 7.0474 12.6281 7.181Z" fill="black"/>
</g>
</svg>
