<svg width="24" height="24" viewBox="0 0 24 24" fill="none" xmlns="http://www.w3.org/2000/svg">
<g id="icon/filled/application/clipboard">
<path id="Vector" d="M18.1204 3.48936H14.6387C14.6387 2.66755 13.9488 2 13.0995 2H10.9005C10.0512 2 9.36126 2.66755 9.36126 3.48936H5.87958C5.39306 3.48936 5 3.86968 5 4.34043C5.00008 12.0709 5.00295 13.7183 5.00295 21.1489C5.00295 21.6197 5.39591 22 5.88243 22C13.3954 22 10.5174 22 18.1204 22C18.6069 22 19 21.6197 19 21.1489V4.34043C19 3.86968 18.6069 3.48936 18.1204 3.48936ZM9.14136 6V5.19149H11.1204V3.70213H12.8796V5.19149H14.8586V6H9.14136ZM17.7224 7.06383V20.5816C17.7224 20.6986 17.6235 20.7943 17.5025 20.7943H6.56492C6.44398 20.7943 6.34503 20.6986 6.34503 20.5816L6.46597 7.06383C6.46597 6.94681 6.56492 6.85106 6.68586 6.85106H17.5025C17.6235 6.85106 17.7224 6.94681 17.7224 7.06383Z" fill="black"/>
<rect id="Rectangle 1147" x="9" y="8" width="8" height="1" fill="black"/>
<rect id="Rectangle 1148" x="7" y="10" width="10" height="1" fill="black"/>
<rect id="Rectangle 1149" x="7" y="12" width="10" height="1" fill="black"/>
<rect id="Rectangle 1150" x="7" y="14" width="10" height="1" fill="black"/>
<rect id="Rectangle 1151" x="7" y="16" width="10" height="1" fill="black"/>
<rect id="Rectangle 1152" x="7" y="18" width="8" height="1" fill="black"/>
</g>
</svg>
