<svg width="24" height="24" viewBox="0 0 24 24" fill="none" xmlns="http://www.w3.org/2000/svg">
<g id="icon/filled/suggested/close-circle">
<path id="Subtract" fill-rule="evenodd" clip-rule="evenodd" d="M1.5 12C1.5 6.20156 6.20156 1.5 12 1.5C17.7984 1.5 22.5 6.20156 22.5 12C22.5 17.7984 17.7984 22.5 12 22.5C6.20156 22.5 1.5 17.7984 1.5 12ZM7.71289 8.7738L10.9391 12L7.71289 15.2261C7.63997 15.2991 7.63997 15.4184 7.71289 15.4913L8.50839 16.2868C8.58131 16.3597 8.70063 16.3597 8.77355 16.2868L11.9997 13.0606L15.2259 16.2868C15.2988 16.3597 15.4181 16.3597 15.4911 16.2868L16.2866 15.4913C16.3595 15.4184 16.3595 15.2991 16.2866 15.2261L13.0604 12L16.2866 8.7738C16.3595 8.70088 16.3595 8.58155 16.2866 8.50863L15.4911 7.71314C15.4181 7.64022 15.2988 7.64022 15.2259 7.71314L11.9997 10.9393L8.77355 7.71314C8.70063 7.64022 8.58131 7.64022 8.50839 7.71314L7.71289 8.50863C7.63997 8.58155 7.63997 8.70088 7.71289 8.7738Z" fill="black"/>
</g>
</svg>
