<svg width="24" height="24" viewBox="0 0 24 24" fill="none" xmlns="http://www.w3.org/2000/svg">
<g id="icon/filled/application/crown">
<path id="Vector" d="M21.0838 6.48041L16.5228 9.29057L12.1494 3.45697C12.1318 3.43349 12.109 3.41444 12.0828 3.40131C12.0565 3.38818 12.0276 3.38135 11.9982 3.38135C11.9689 3.38135 11.94 3.38818 11.9137 3.40131C11.8875 3.41444 11.8647 3.43349 11.8471 3.45697L7.47597 9.29057L2.91269 6.48041C2.7791 6.39838 2.60566 6.50854 2.62675 6.66557L4.41738 20.2734C4.44316 20.4585 4.60254 20.6015 4.79238 20.6015H19.2088C19.3963 20.6015 19.558 20.4609 19.5814 20.2734L21.3721 6.66557C21.3908 6.50854 21.2197 6.39838 21.0838 6.48041ZM11.9994 17.2078C10.5439 17.2078 9.36035 16.0242 9.36035 14.5687C9.36035 13.1132 10.5439 11.9296 11.9994 11.9296C13.4549 11.9296 14.6385 13.1132 14.6385 14.5687C14.6385 16.0242 13.4549 17.2078 11.9994 17.2078ZM11.9994 13.4367C11.376 13.4367 10.8697 13.9429 10.8697 14.5687C10.8697 15.1921 11.376 15.7007 11.9994 15.7007C12.6228 15.7007 13.1291 15.1945 13.1291 14.5687C13.1291 13.9453 12.6228 13.4367 11.9994 13.4367Z" fill="black"/>
</g>
</svg>
