<svg width="24" height="24" viewBox="0 0 24 24" fill="none" xmlns="http://www.w3.org/2000/svg">
<g id="icon/filled/application/experiment">
<path id="Vector" d="M5.13164 14.9133L6.13008 15.5367C6.13242 15.5391 6.13711 15.5414 6.13945 15.5438L6.43711 15.7313L6.44414 15.7383C7.11439 16.1258 7.87538 16.3288 8.64961 16.3266C9.70195 16.3266 10.6934 15.9586 11.4855 15.3C12.5685 14.3919 13.9371 13.8948 15.3504 13.8961C16.5762 13.8961 17.7457 14.2641 18.7395 14.9391L18.9246 15.0563L16.309 8.28281V4.21406H17.7973C17.9004 4.21406 17.9848 4.12969 17.9848 4.02656V2.8125C17.9848 2.70938 17.9004 2.625 17.7973 2.625H6.20508C6.10195 2.625 6.01758 2.70938 6.01758 2.8125V4.02891C6.01758 4.13203 6.10195 4.21641 6.20508 4.21641H7.69336V8.28516L5.13164 14.9133ZM12.9363 10.1531C13.452 10.1531 13.8715 10.5727 13.8715 11.0883C13.8715 11.6039 13.452 12.0234 12.9363 12.0234C12.4207 12.0234 12.0012 11.6039 12.0012 11.0883C12.0012 10.5727 12.4207 10.1531 12.9363 10.1531ZM20.5793 19.3383L19.8785 17.5242L17.8699 16.2703L17.8676 16.2727C17.8512 16.2609 17.8324 16.2492 17.816 16.2375L17.6262 16.1203L17.6191 16.1133C16.9395 15.7031 16.159 15.4852 15.3457 15.4852C14.2934 15.4852 13.302 15.8531 12.5098 16.5117C11.4268 17.4198 10.0583 17.9169 8.64492 17.9156C7.40273 17.9156 6.21914 17.5383 5.21836 16.8469L4.54102 16.4227L3.42305 19.3383C3.35742 19.5117 3.32227 19.6945 3.32227 19.8773C3.32227 20.7023 3.99258 21.3727 4.81758 21.3727H19.1824C19.3676 21.3727 19.5504 21.3375 19.7215 21.2719C19.9052 21.2018 20.0732 21.0961 20.2159 20.9608C20.3586 20.8255 20.4731 20.6633 20.5528 20.4836C20.6325 20.3039 20.6759 20.1102 20.6805 19.9136C20.685 19.717 20.6506 19.5215 20.5793 19.3383Z" fill="black"/>
</g>
</svg>
