<svg width="24" height="24" viewBox="0 0 24 24" fill="none" xmlns="http://www.w3.org/2000/svg">
<g id="icon/filled/application/eye-invisible">
<path id="Vector" d="M11.9066 14.6252C12.6028 14.6252 13.2705 14.3486 13.7628 13.8563C14.2551 13.3641 14.5316 12.6964 14.5316 12.0002C14.5316 11.9233 14.5281 11.8471 14.5216 11.7719L11.6783 14.6151C11.7536 14.6217 11.8295 14.6252 11.9066 14.6252ZM20.5954 3.8805L19.5941 2.88019C19.559 2.84505 19.5113 2.82532 19.4616 2.82532C19.4119 2.82532 19.3642 2.84505 19.3291 2.88019L16.7669 5.44308C15.3534 4.72074 13.7646 4.35957 12.0004 4.35957C7.49569 4.35957 4.13475 6.70566 1.91757 11.3978C1.82845 11.5866 1.78223 11.7927 1.78223 12.0014C1.78223 12.2101 1.82845 12.4162 1.91757 12.6049C2.8035 14.471 3.8703 15.9667 5.11796 17.092L2.6385 19.5705C2.60337 19.6057 2.58363 19.6533 2.58363 19.703C2.58363 19.7527 2.60337 19.8004 2.6385 19.8356L3.63905 20.8361C3.67421 20.8713 3.72188 20.891 3.77159 20.891C3.8213 20.891 3.86897 20.8713 3.90413 20.8361L20.5954 4.14582C20.6128 4.1284 20.6266 4.10772 20.6361 4.08496C20.6455 4.0622 20.6504 4.0378 20.6504 4.01316C20.6504 3.98852 20.6455 3.96412 20.6361 3.94136C20.6266 3.9186 20.6128 3.89792 20.5954 3.8805ZM7.78163 12.0002C7.78156 11.2877 7.96605 10.5873 8.3171 9.96735C8.66816 9.34735 9.17381 8.82886 9.78482 8.46237C10.3958 8.09588 11.0913 7.8939 11.8036 7.8761C12.5159 7.85831 13.2206 8.0253 13.8491 8.36082L12.7096 9.50035C12.25 9.3532 11.7588 9.33547 11.2898 9.44913C10.8209 9.56278 10.3923 9.80341 10.0511 10.1446C9.70985 10.4858 9.46922 10.9144 9.35556 11.3834C9.24191 11.8524 9.25963 12.3436 9.40679 12.8032L8.26725 13.9427C7.94747 13.3452 7.78063 12.6779 7.78163 12.0002Z" fill="black"/>
<path id="Vector_2" d="M22.083 11.3952C21.258 9.65767 20.2761 8.24087 19.1372 7.14478L15.7589 10.5233C16.0437 11.2677 16.1068 12.0786 15.9406 12.8582C15.7745 13.6377 15.3862 14.3524 14.8226 14.916C14.259 15.4795 13.5443 15.8679 12.7648 16.034C11.9853 16.2002 11.1743 16.137 10.4299 15.8523L7.56445 18.7177C8.89383 19.3329 10.3724 19.6405 12.0002 19.6405C16.5049 19.6405 19.8659 17.2944 22.083 12.6022C22.1722 12.4135 22.2184 12.2074 22.2184 11.9987C22.2184 11.79 22.1722 11.5839 22.083 11.3952Z" fill="black"/>
</g>
</svg>
