<svg width="24" height="24" viewBox="0 0 24 24" fill="none" xmlns="http://www.w3.org/2000/svg">
<g id="icon/filled/application/fire">
<path id="Vector" d="M19.5492 10.9968C19.0942 9.97269 18.4328 9.05352 17.6063 8.29677L16.9242 7.67099C16.9011 7.65033 16.8732 7.63566 16.843 7.62828C16.8129 7.62091 16.7814 7.62104 16.7513 7.62868C16.7212 7.63631 16.6935 7.65122 16.6705 7.67208C16.6475 7.69295 16.63 7.71913 16.6195 7.74834L16.3148 8.62256C16.125 9.17099 15.7758 9.73115 15.2812 10.2819C15.2484 10.3171 15.2109 10.3265 15.1852 10.3288C15.1594 10.3311 15.1195 10.3265 15.0844 10.2936C15.0516 10.2655 15.0352 10.2233 15.0375 10.1811C15.1242 8.77021 14.7023 7.1788 13.7789 5.44677C13.0148 4.00771 11.9531 2.88506 10.6266 2.10224L9.65859 1.53271C9.53203 1.45771 9.37031 1.55615 9.37734 1.70381L9.42891 2.82881C9.46406 3.59756 9.375 4.27724 9.16406 4.84209C8.90625 5.53349 8.53594 6.17568 8.0625 6.75224C7.73302 7.15294 7.35959 7.51537 6.94922 7.83271C5.96087 8.59247 5.15722 9.56599 4.59844 10.6804C4.04103 11.8045 3.75068 13.0421 3.75 14.2968C3.75 15.403 3.96797 16.4741 4.39922 17.4843C4.81562 18.4569 5.41654 19.3395 6.16875 20.0835C6.92813 20.8335 7.80938 21.4241 8.79141 21.8343C9.80859 22.2608 10.8867 22.4765 12 22.4765C13.1133 22.4765 14.1914 22.2608 15.2086 21.8366C16.1882 21.4289 17.079 20.8342 17.8312 20.0858C18.5906 19.3358 19.1859 18.4593 19.6008 17.4866C20.0314 16.4792 20.2523 15.3947 20.25 14.2991C20.25 13.1554 20.0156 12.0444 19.5492 10.9968Z" fill="black"/>
</g>
</svg>
