<svg width="24" height="24" viewBox="0 0 24 24" fill="none" xmlns="http://www.w3.org/2000/svg">
<g id="icon/filled/application/heart">
<path id="Vector" d="M21.6328 6.64665C21.3187 5.91923 20.8657 5.26006 20.2992 4.70602C19.7323 4.15033 19.064 3.70874 18.3305 3.40524C17.5699 3.08929 16.7541 2.92756 15.9305 2.92946C14.775 2.92946 13.6477 3.24587 12.668 3.84352C12.4336 3.98649 12.2109 4.14352 12 4.31462C11.7891 4.14352 11.5664 3.98649 11.332 3.84352C10.3523 3.24587 9.225 2.92946 8.06953 2.92946C7.2375 2.92946 6.43125 3.08883 5.66953 3.40524C4.93359 3.70993 4.27031 4.14821 3.70078 4.70602C3.13359 5.25943 2.6805 5.91876 2.36719 6.64665C2.04141 7.40368 1.875 8.20758 1.875 9.03493C1.875 9.8154 2.03438 10.6287 2.35078 11.456C2.61563 12.1474 2.99531 12.8646 3.48047 13.5888C4.24922 14.7349 5.30625 15.9302 6.61875 17.142C8.79375 19.1506 10.9477 20.5381 11.0391 20.5943L11.5945 20.9506C11.8406 21.1076 12.157 21.1076 12.4031 20.9506L12.9586 20.5943C13.05 20.5357 15.2016 19.1506 17.3789 17.142C18.6914 15.9302 19.7484 14.7349 20.5172 13.5888C21.0023 12.8646 21.3844 12.1474 21.6469 11.456C21.9633 10.6287 22.1227 9.8154 22.1227 9.03493C22.125 8.20758 21.9586 7.40368 21.6328 6.64665Z" fill="black"/>
</g>
</svg>
