<svg width="24" height="24" viewBox="0 0 24 24" fill="none" xmlns="http://www.w3.org/2000/svg">
<g id="icon/filled/editor/highlight">
<path id="Vector" d="M22.4438 11.892L14.1375 3.70763C14.1203 3.69034 14.0998 3.67662 14.0773 3.66726C14.0548 3.6579 14.0306 3.65308 14.0063 3.65308C13.9819 3.65308 13.9577 3.6579 13.9352 3.66726C13.9127 3.67662 13.8922 3.69034 13.875 3.70763L8.28047 9.22013C8.24526 9.25506 8.22526 9.30248 8.22483 9.35207C8.22439 9.40167 8.24354 9.44943 8.27813 9.48498L8.28047 9.48732L9.21797 10.4108L6.47109 13.1131C6.43589 13.148 6.41589 13.1954 6.41545 13.245C6.41501 13.2946 6.43417 13.3424 6.46875 13.3779L6.47109 13.3803L7.39688 14.292L2.96484 18.6748H1.68984C1.58672 18.6748 1.5 18.7592 1.5 18.8623V20.1561C1.5 20.2592 1.58438 20.3436 1.6875 20.3436H9.77109C9.82031 20.3436 9.86719 20.3248 9.90234 20.2897L11.6859 18.5178L12.6328 19.4506C12.65 19.4679 12.6705 19.4816 12.693 19.491C12.7155 19.5003 12.7397 19.5052 12.7641 19.5052C12.7885 19.5052 12.8126 19.5003 12.8351 19.491C12.8577 19.4816 12.8781 19.4679 12.8953 19.4506L15.6398 16.7412L16.5797 17.667C16.5969 17.6843 16.6173 17.698 16.6399 17.7074C16.6624 17.7167 16.6865 17.7216 16.7109 17.7216C16.7353 17.7216 16.7595 17.7167 16.782 17.7074C16.8045 17.698 16.825 17.6843 16.8422 17.667L22.4367 12.1545C22.5164 12.0842 22.5164 11.967 22.4438 11.892Z" fill="black"/>
</g>
</svg>
