<svg width="24" height="24" viewBox="0 0 24 24" fill="none" xmlns="http://www.w3.org/2000/svg">
<g id="icon/filled/brand-and-logos/html5">
<path id="Vector" d="M3.4043 2.25L4.95117 19.7484L12.0012 21.75L19.023 19.7484L20.6004 2.25H3.4043ZM17.3496 6.40078L17.2371 7.50703L17.1973 7.96406H8.96133L9.15352 10.1719H17.0074L16.9301 10.7414L16.4332 16.418L16.3934 16.7977L12.0105 18.007V18.0141H11.9824L11.9754 18.0164V18.0141H11.973L7.55273 16.7953L7.28555 13.4062H9.4207L9.57305 15.1219L11.973 15.7711H11.9824L14.373 15.1242L14.6402 12.3445H11.9754V12.3422H7.17305L6.63867 6.40078L6.59883 5.83125H17.3871L17.3496 6.40078Z" fill="black"/>
</g>
</svg>
