<svg width="24" height="24" viewBox="0 0 24 24" fill="none" xmlns="http://www.w3.org/2000/svg">
<g id="icon/filled/application/like">
<path id="Vector" d="M20.7633 12.5084C21.157 11.9881 21.375 11.3506 21.375 10.6873C21.375 9.63495 20.7867 8.63886 19.8398 8.08339C19.5961 7.94041 19.3185 7.86516 19.0359 7.86542H13.4156L13.5563 4.98495C13.5891 4.28886 13.343 3.62792 12.8648 3.12402C12.6302 2.87564 12.3471 2.67803 12.0331 2.54339C11.7191 2.40874 11.3807 2.33993 11.0391 2.3412C9.82031 2.3412 8.74219 3.16152 8.41875 4.33574L6.40547 11.6248H6.39844V21.656H17.468C17.6836 21.656 17.8945 21.6139 18.0891 21.5295C19.2047 21.0537 19.9242 19.9639 19.9242 18.7545C19.9242 18.4592 19.882 18.1685 19.7977 17.8873C20.1914 17.367 20.4094 16.7295 20.4094 16.0662C20.4094 15.7709 20.3672 15.4803 20.2828 15.199C20.6766 14.6787 20.8945 14.0412 20.8945 13.3779C20.8898 13.0826 20.8477 12.7896 20.7633 12.5084ZM2.625 12.3748V20.906C2.625 21.3209 2.96016 21.656 3.375 21.656H4.89844V11.6248H3.375C2.96016 11.6248 2.625 11.96 2.625 12.3748Z" fill="black"/>
</g>
</svg>
