<svg width="24" height="24" viewBox="0 0 24 24" fill="none" xmlns="http://www.w3.org/2000/svg">
<g id="icon/filled/application/setting">
<path id="Vector" d="M12.0111 9.15486C11.3103 9.15486 10.6541 9.42673 10.1572 9.92361C9.66268 10.4205 9.38846 11.0767 9.38846 11.7775C9.38846 12.4783 9.66268 13.1345 10.1572 13.6314C10.6541 14.126 11.3103 14.4002 12.0111 14.4002C12.7119 14.4002 13.3681 14.126 13.865 13.6314C14.3596 13.1345 14.6338 12.4783 14.6338 11.7775C14.6338 11.0767 14.3596 10.4205 13.865 9.92361C13.6223 9.67906 13.3335 9.48516 13.0152 9.35319C12.697 9.22122 12.3557 9.15381 12.0111 9.15486ZM21.6744 14.6744L20.1416 13.3642C20.2142 12.9189 20.2517 12.4642 20.2517 12.0119C20.2517 11.5595 20.2142 11.1025 20.1416 10.6595L21.6744 9.34939C21.7902 9.25027 21.8731 9.11824 21.912 8.97087C21.9509 8.8235 21.9441 8.66777 21.8924 8.52439L21.8713 8.46345C21.4494 7.28382 20.8173 6.19038 20.0056 5.23611L19.9635 5.18689C19.8649 5.071 19.7335 4.98769 19.5867 4.94794C19.4398 4.90819 19.2844 4.91387 19.1408 4.96423L17.2377 5.64158C16.5346 5.06501 15.7517 4.61033 14.9033 4.29392L14.5353 2.30408C14.5076 2.15418 14.4349 2.01627 14.3269 1.90868C14.2188 1.80109 14.0807 1.72891 13.9307 1.70173L13.8674 1.69001C12.6486 1.4697 11.3642 1.4697 10.1455 1.69001L10.0822 1.70173C9.93221 1.72891 9.79402 1.80109 9.68601 1.90868C9.578 2.01627 9.50529 2.15418 9.47753 2.30408L9.10721 4.3033C8.26681 4.62222 7.48392 5.07581 6.78924 5.64626L4.87206 4.96423C4.72854 4.91347 4.57297 4.90759 4.42603 4.94736C4.27909 4.98713 4.14773 5.07067 4.0494 5.18689L4.00721 5.23611C3.19696 6.1914 2.56504 7.28456 2.14159 8.46345L2.12049 8.52439C2.01503 8.81736 2.10174 9.14548 2.33846 9.34939L3.89003 10.6736C3.81737 11.1142 3.78221 11.5642 3.78221 12.0095C3.78221 12.4595 3.81737 12.9095 3.89003 13.3455L2.34315 14.6697C2.22736 14.7688 2.14449 14.9009 2.10555 15.0482C2.06662 15.1956 2.07346 15.3513 2.12518 15.4947L2.14628 15.5556C2.57049 16.7345 3.19628 17.8244 4.0119 18.783L4.05409 18.8322C4.15265 18.9481 4.28402 19.0314 4.43087 19.0712C4.57773 19.1109 4.73318 19.1052 4.87674 19.0549L6.79393 18.3728C7.49237 18.947 8.27049 19.4017 9.1119 19.7158L9.48221 21.715C9.50998 21.8649 9.58269 22.0028 9.6907 22.1104C9.79871 22.218 9.93689 22.2902 10.0869 22.3174L10.1502 22.3291C11.3809 22.5506 12.6413 22.5506 13.8721 22.3291L13.9353 22.3174C14.0853 22.2902 14.2235 22.218 14.3315 22.1104C14.4395 22.0028 14.5123 21.8649 14.54 21.715L14.908 19.7252C15.7564 19.4064 16.5392 18.9541 17.2424 18.3775L19.1455 19.0549C19.289 19.1056 19.4446 19.1115 19.5915 19.0717C19.7385 19.032 19.8698 18.9484 19.9681 18.8322L20.0103 18.783C20.826 17.8197 21.4517 16.7345 21.876 15.5556L21.8971 15.4947C21.9978 15.2041 21.9111 14.8783 21.6744 14.6744ZM12.0111 15.8978C9.73534 15.8978 7.89081 14.0533 7.89081 11.7775C7.89081 9.50173 9.73534 7.6572 12.0111 7.6572C14.2869 7.6572 16.1314 9.50173 16.1314 11.7775C16.1314 14.0533 14.2869 15.8978 12.0111 15.8978Z" fill="black"/>
</g>
</svg>
