<svg width="24" height="24" viewBox="0 0 24 24" fill="none" xmlns="http://www.w3.org/2000/svg">
<g id="icon/filled/application/shop">
<path id="Vector" d="M20.6709 6.37734V3.375C20.6709 2.96016 20.3358 2.625 19.9209 2.625H4.07716C3.66232 2.625 3.32716 2.96016 3.32716 3.375V6.37734C2.93576 6.40078 2.62404 6.72656 2.62404 7.125V10.2117C2.62254 10.779 2.7374 11.3406 2.96154 11.8617C3.06232 12.1008 3.18654 12.3258 3.32716 12.5391V20.625C3.32716 21.0375 3.66232 21.375 4.07716 21.375H10.499V17.25H13.499V21.375H19.9209C20.3358 21.375 20.6709 21.0398 20.6709 20.625V12.5391C20.8138 12.3252 20.9362 12.0985 21.0365 11.8617C21.2592 11.3391 21.374 10.7836 21.374 10.2117V7.125C21.374 6.72656 21.0623 6.40078 20.6709 6.37734ZM18.9834 19.6898H14.999V16.5C14.999 16.0852 14.6639 15.75 14.249 15.75H9.74904C9.33419 15.75 8.99904 16.0852 8.99904 16.5V19.6898H5.01466V14.0133C5.08263 14.0461 5.15294 14.0789 5.2256 14.107C5.74826 14.3273 6.30373 14.4375 6.8756 14.4375C7.44748 14.4375 8.0006 14.3273 8.5256 14.107C8.84904 13.9711 9.15373 13.7977 9.43263 13.5891C9.43732 13.5867 9.44201 13.5867 9.44669 13.5891C9.72647 13.7985 10.0311 13.9725 10.3537 14.107C10.8764 14.3273 11.4319 14.4375 12.0037 14.4375C12.5756 14.4375 13.1287 14.3273 13.6537 14.107C13.9772 13.9711 14.2819 13.7977 14.5608 13.5891C14.5654 13.5867 14.5701 13.5867 14.5748 13.5891C14.8546 13.7985 15.1593 13.9725 15.4819 14.107C16.0045 14.3273 16.56 14.4375 17.1319 14.4375C17.7037 14.4375 18.2569 14.3273 18.7819 14.107C18.8522 14.0766 18.9225 14.0461 18.9928 14.0133V19.6898H18.9834ZM18.9834 6.375H5.01466V4.3125H18.9834V6.375Z" fill="black"/>
</g>
</svg>
