<svg width="24" height="24" viewBox="0 0 24 24" fill="none" xmlns="http://www.w3.org/2000/svg">
<g id="icon/filled/brand-and-logos/skype">
<path id="Vector" d="M20.7108 13.5609C20.8069 13.0336 20.8584 12.4945 20.8584 11.9555C20.8584 10.7602 20.624 9.6 20.1623 8.51016C19.717 7.45547 19.0772 6.50859 18.2639 5.69531C17.4574 4.88677 16.5014 4.24279 15.449 3.79922C14.3569 3.3375 13.199 3.10312 12.0037 3.10312C11.4412 3.10312 10.8764 3.15703 10.3279 3.2625C9.56907 2.86037 8.7235 2.64958 7.86466 2.64844C6.46545 2.64844 5.14826 3.19453 4.1592 4.18359C3.67114 4.66914 3.28417 5.24662 3.02067 5.88265C2.75717 6.51867 2.62236 7.20062 2.62404 7.88906C2.62404 8.77969 2.85373 9.65625 3.28263 10.4297C3.19591 10.9313 3.14904 11.4445 3.14904 11.9555C3.14904 13.1508 3.38341 14.3109 3.84513 15.4008C4.29045 16.4555 4.92795 17.4023 5.74123 18.2156C6.55451 19.0289 7.50138 19.6664 8.55607 20.1117C9.64826 20.5734 10.8061 20.8078 12.0014 20.8078C12.5217 20.8078 13.042 20.7609 13.5529 20.6695C14.3381 21.1125 15.224 21.3492 16.1311 21.3492C17.5303 21.3492 18.8475 20.8055 19.8365 19.8141C20.8279 18.825 21.3717 17.5078 21.3717 16.1086C21.374 15.218 21.1444 14.3391 20.7108 13.5609ZM12.0389 17.3789C8.89357 17.3789 7.48732 15.832 7.48732 14.6742C7.48732 14.0789 7.9256 13.6641 8.53029 13.6641C9.8756 13.6641 9.52873 15.5977 12.0389 15.5977C13.3256 15.5977 14.0358 14.8992 14.0358 14.1844C14.0358 13.7555 13.8248 13.2773 12.9764 13.0688L10.1779 12.3703C7.9256 11.8055 7.51545 10.5867 7.51545 9.44297C7.51545 7.06641 9.75373 6.17344 11.8561 6.17344C13.792 6.17344 16.0748 7.24453 16.0748 8.66953C16.0748 9.28125 15.5451 9.63516 14.9404 9.63516C13.792 9.63516 14.0029 8.04609 11.6897 8.04609C10.5412 8.04609 9.90607 8.56641 9.90607 9.30938C9.90607 10.0523 10.8131 10.2891 11.6006 10.4695L13.6725 10.9289C15.9412 11.4352 16.5154 12.7594 16.5154 14.0063C16.5154 15.9352 15.0319 17.3789 12.0389 17.3789Z" fill="black"/>
</g>
</svg>
