<svg width="24" height="24" viewBox="0 0 24 24" fill="none" xmlns="http://www.w3.org/2000/svg">
<g id="icon/filled/application/tag">
<path id="Vector" d="M21.9849 10.7531L21.2912 3.42656C21.256 3.04687 20.9537 2.74687 20.574 2.70937L13.2474 2.01562H13.2381C13.1631 2.01562 13.1045 2.03906 13.0599 2.08359L2.08417 13.0594C2.06244 13.0811 2.0452 13.1068 2.03344 13.1352C2.02168 13.1635 2.01562 13.1939 2.01562 13.2246C2.01562 13.2553 2.02168 13.2857 2.03344 13.3141C2.0452 13.3424 2.06244 13.3682 2.08417 13.3898L10.6107 21.9164C10.6553 21.9609 10.7139 21.9844 10.7771 21.9844C10.8404 21.9844 10.899 21.9609 10.9435 21.9164L21.9193 10.9406C21.9662 10.8914 21.9896 10.8234 21.9849 10.7531ZM16.3834 9.07031C15.556 9.07031 14.8834 8.39766 14.8834 7.57031C14.8834 6.74297 15.556 6.07031 16.3834 6.07031C17.2107 6.07031 17.8834 6.74297 17.8834 7.57031C17.8834 8.39766 17.2107 9.07031 16.3834 9.07031Z" fill="black"/>
</g>
</svg>
