<svg width="24" height="24" viewBox="0 0 24 24" fill="none" xmlns="http://www.w3.org/2000/svg">
<g id="icon/filled/application/tags">
<path id="Vector" d="M11.324 18.523L20.1881 9.65664C20.2279 9.61679 20.2467 9.56289 20.242 9.50898L19.6443 2.44492C19.6279 2.26211 19.4849 2.11914 19.3021 2.10273L12.2381 1.50742C12.1842 1.50273 12.1279 1.52148 12.0904 1.56133L3.22634 10.4254C3.19145 10.4606 3.17188 10.5082 3.17188 10.5578C3.17188 10.6074 3.19145 10.655 3.22634 10.6902L11.0592 18.523C11.1318 18.598 11.2513 18.598 11.324 18.523ZM14.1998 6.02148C14.6381 5.5832 15.3506 5.5832 15.7912 6.02148C16.2295 6.45976 16.2295 7.17226 15.7912 7.61289C15.3529 8.05117 14.6404 8.05117 14.1998 7.61289C13.7615 7.17461 13.7615 6.46211 14.1998 6.02148ZM20.8513 12.652L19.9232 11.7262C19.888 11.6913 19.8404 11.6717 19.7908 11.6717C19.7412 11.6717 19.6936 11.6913 19.6584 11.7262L11.174 20.1941L5.60525 14.6395C5.57001 14.6046 5.52242 14.585 5.47283 14.585C5.42324 14.585 5.37565 14.6046 5.34041 14.6395L4.41228 15.5652C4.37739 15.6005 4.35781 15.6481 4.35781 15.6977C4.35781 15.7472 4.37739 15.7948 4.41228 15.8301L10.1123 21.5207L11.0404 22.4465C11.1131 22.5191 11.2326 22.5191 11.3053 22.4465L20.8513 12.9168C20.924 12.8441 20.924 12.7246 20.8513 12.652Z" fill="black"/>
</g>
</svg>
