<svg width="24" height="24" viewBox="0 0 24 24" fill="none" xmlns="http://www.w3.org/2000/svg">
<g id="icon/filled/application/tool">
<path id="Vector" d="M20.2809 5.73466C20.2738 5.72763 18.8488 7.13623 16.0129 9.96748L14.023 7.97763L18.2629 3.73779C16.0316 2.39482 13.1652 2.73935 11.3066 4.59794C10.5962 5.308 10.0849 6.19238 9.82411 7.16238C9.5633 8.13238 9.56213 9.15391 9.8207 10.1245L9.86289 10.2815L3.21836 16.9237C3.07305 17.069 3.07305 17.3081 3.21836 17.4534L6.53242 20.7675C6.67773 20.9128 6.9168 20.9128 7.06211 20.7675L13.702 14.1276L13.859 14.1698C15.8207 14.6925 17.9277 14.1487 19.3902 12.6862C21.2512 10.8276 21.5957 7.96123 20.2809 5.73466Z" fill="black"/>
</g>
</svg>
