<svg width="24" height="24" viewBox="0 0 24 24" fill="none" xmlns="http://www.w3.org/2000/svg">
<g id="icon/filled/brand-and-logos/wechat">
<path id="Vector" d="M16.1742 8.84463C16.3125 8.84463 16.4508 8.84932 16.5867 8.85635C16.0148 5.83994 12.8766 3.53369 9.08906 3.53369C4.89844 3.53369 1.5 6.36025 1.5 9.84775C1.5 11.7485 2.52187 13.4618 4.12266 14.6196C4.18868 14.6662 4.24253 14.7281 4.27965 14.7998C4.31677 14.8716 4.33607 14.9513 4.33594 15.0321C4.33594 15.0884 4.32422 15.1399 4.31016 15.1938C4.18125 15.6696 3.97734 16.4313 3.96797 16.4665C3.95156 16.5274 3.92813 16.5884 3.92813 16.6517C3.92813 16.7899 4.04063 16.9048 4.18125 16.9048C4.23516 16.9048 4.27969 16.8837 4.32656 16.8579L5.98828 15.8993C6.1125 15.8267 6.24609 15.7821 6.39141 15.7821C6.46641 15.7821 6.54141 15.7938 6.61406 15.8149C7.38984 16.0376 8.22656 16.1618 9.09141 16.1618C9.23203 16.1618 9.37031 16.1595 9.50859 16.1524C9.34219 15.6603 9.25313 15.1423 9.25313 14.6056C9.25313 11.4228 12.3516 8.84463 16.1742 8.84463ZM11.6203 6.81729C12.1781 6.81729 12.6328 7.26963 12.6328 7.82744C12.6328 8.38525 12.1805 8.8376 11.6203 8.8376C11.0625 8.8376 10.6078 8.38525 10.6078 7.82744C10.6078 7.26963 11.0625 6.81729 11.6203 6.81729ZM6.56016 8.8376C6.00234 8.8376 5.54766 8.38525 5.54766 7.82744C5.54766 7.26963 6 6.81729 6.56016 6.81729C7.12031 6.81729 7.57266 7.26963 7.57266 7.82744C7.57266 8.38525 7.11797 8.8376 6.56016 8.8376ZM20.3133 18.5782C21.6469 17.6126 22.4977 16.1876 22.4977 14.6009C22.4977 11.6946 19.6664 9.33916 16.1719 9.33916C12.6797 9.33916 9.84609 11.6946 9.84609 14.6009C9.84609 17.5071 12.6773 19.8626 16.1719 19.8626C16.8938 19.8626 17.5922 19.7595 18.2367 19.5743C18.2977 19.5556 18.3586 19.5462 18.4219 19.5462C18.5438 19.5462 18.6539 19.5837 18.757 19.6423L20.1422 20.4392C20.182 20.4626 20.2195 20.479 20.2641 20.479C20.2918 20.4792 20.3194 20.474 20.3451 20.4635C20.3709 20.453 20.3943 20.4376 20.4141 20.4181C20.4336 20.3983 20.449 20.3749 20.4595 20.3491C20.47 20.3234 20.4752 20.2959 20.475 20.2681C20.475 20.2165 20.4539 20.1649 20.4422 20.1134C20.4352 20.0853 20.2641 19.4501 20.1563 19.0517C20.1445 19.0071 20.1352 18.9626 20.1352 18.9181C20.1375 18.7798 20.2078 18.6556 20.3133 18.5782ZM14.0672 13.7618C13.6008 13.7618 13.2234 13.3845 13.2234 12.9204C13.2234 12.4563 13.6008 12.079 14.0672 12.079C14.5336 12.079 14.9109 12.4563 14.9109 12.9204C14.9109 13.3845 14.5313 13.7618 14.0672 13.7618ZM18.2836 13.7618C17.8172 13.7618 17.4398 13.3845 17.4398 12.9204C17.4398 12.4563 17.8172 12.079 18.2836 12.079C18.75 12.079 19.1273 12.4563 19.1273 12.9204C19.1262 13.1436 19.0369 13.3574 18.8788 13.515C18.7208 13.6726 18.5068 13.7613 18.2836 13.7618Z" fill="black"/>
</g>
</svg>
