<svg width="24" height="24" viewBox="0 0 24 24" fill="none" xmlns="http://www.w3.org/2000/svg">
<g id="icon/filled/brand-and-logos/yuque">
<path id="Vector" d="M20.0297 8.68594C19.7977 7.7625 20.2617 6.29063 21.75 5.77031L20.1586 5.68594C20.1586 5.68594 19.5562 3.57656 16.793 3.38906C14.0297 3.19922 12.2227 3.31875 12.2227 3.31875C12.2227 3.31875 14.2711 4.62188 13.4508 6.94453C12.8508 8.175 11.9086 9.18516 10.9008 10.3359C10.8703 10.3664 10.8422 10.3969 10.8188 10.4227C7.48594 14.1797 2.25 20.1563 2.25 20.1563C8.01328 21.6656 11.8758 20.0086 14.1609 18.0211C14.6414 18.0164 15.0023 18.0141 15.2461 18.0141C18.4289 18.0141 21.1195 15.2578 21.0094 12.1922C20.9344 10.0852 20.2617 9.60938 20.0297 8.68594Z" fill="black"/>
</g>
</svg>
