<svg width="184" height="152" viewBox="0 0 184 152" fill="none" xmlns="http://www.w3.org/2000/svg">
<path d="M91.797 151.228C129.24 151.228 159.594 145.556 159.594 138.56C159.594 131.563 129.24 125.892 91.797 125.892C54.3537 125.892 24 131.563 24 138.56C24 145.556 54.3537 151.228 91.797 151.228Z" fill="#F5F5F7" fill-opacity="0.8"/>
<path fill-rule="evenodd" clip-rule="evenodd" d="M146.034 101.344L122.109 71.8988C120.961 70.5128 119.283 69.6738 117.516 69.6738H66.0756C64.3096 69.6738 62.6316 70.5128 61.4836 71.8988L37.5596 101.344V116.727H146.035V101.344H146.034Z" fill="#AEB8C2"/>
<path fill-rule="evenodd" clip-rule="evenodd" d="M57.8301 31.6699H125.763C126.824 31.6699 127.841 32.0913 128.592 32.8415C129.342 33.5916 129.763 34.6091 129.763 35.6699V129.014C129.763 130.075 129.342 131.092 128.592 131.842C127.841 132.592 126.824 133.014 125.763 133.014H57.8301C56.7692 133.014 55.7518 132.592 55.0017 131.842C54.2515 131.092 53.8301 130.075 53.8301 129.014V35.6699C53.8301 34.6091 54.2515 33.5916 55.0017 32.8415C55.7518 32.0913 56.7692 31.6699 57.8301 31.6699V31.6699Z" fill="#F5F5F7"/>
<path fill-rule="evenodd" clip-rule="evenodd" d="M66.6776 41.623H116.915C117.445 41.623 117.954 41.8338 118.329 42.2088C118.704 42.5839 118.915 43.0926 118.915 43.623V68.58C118.915 69.1105 118.704 69.6192 118.329 69.9943C117.954 70.3693 117.445 70.58 116.915 70.58H66.6776C66.1472 70.58 65.6385 70.3693 65.2634 69.9943C64.8883 69.6192 64.6776 69.1105 64.6776 68.58V43.623C64.6776 43.0926 64.8883 42.5839 65.2634 42.2088C65.6385 41.8338 66.1472 41.623 66.6776 41.623ZM66.9396 81.437H116.653C117.253 81.437 117.828 81.6754 118.252 82.0996C118.676 82.5238 118.915 83.0991 118.915 83.699C118.915 84.299 118.676 84.8743 118.252 85.2985C117.828 85.7227 117.253 85.961 116.653 85.961H66.9396C66.3397 85.961 65.7643 85.7227 65.3401 85.2985C64.9159 84.8743 64.6776 84.299 64.6776 83.699C64.6776 83.0991 64.9159 82.5238 65.3401 82.0996C65.7643 81.6754 66.3397 81.437 66.9396 81.437ZM66.9396 93.2H116.653C117.253 93.2 117.828 93.4384 118.252 93.8627C118.677 94.287 118.915 94.8625 118.915 95.4625C118.915 96.0626 118.677 96.6381 118.252 97.0624C117.828 97.4867 117.253 97.725 116.653 97.725H66.9396C66.3395 97.725 65.7641 97.4867 65.3398 97.0624C64.9155 96.6381 64.6771 96.0626 64.6771 95.4625C64.6771 94.8625 64.9155 94.287 65.3398 93.8627C65.7641 93.4384 66.3395 93.2 66.9396 93.2ZM145.813 136.702C145.038 139.773 142.316 142.062 139.078 142.062H44.5146C41.2766 142.062 38.5546 139.772 37.7806 136.702C37.633 136.117 37.5584 135.516 37.5586 134.912V101.345H63.8766C66.7836 101.345 69.1266 103.793 69.1266 106.765V106.805C69.1266 109.776 71.4966 112.175 74.4036 112.175H109.189C112.096 112.175 114.466 109.754 114.466 106.782V106.77C114.466 103.798 116.809 101.344 119.716 101.344H146.034V134.913C146.034 135.53 145.957 136.129 145.813 136.702Z" fill="#DCE0E6"/>
<path fill-rule="evenodd" clip-rule="evenodd" d="M149.121 33.292L142.291 35.942C142.115 36.0102 141.924 36.0275 141.739 35.992C141.554 35.9564 141.383 35.8693 141.246 35.7408C141.108 35.6123 141.01 35.4476 140.962 35.2656C140.913 35.0836 140.918 34.8917 140.974 34.712L142.911 28.505C140.322 25.561 138.802 21.971 138.802 18.097C138.802 8.102 148.92 0 161.402 0C173.881 0 184 8.102 184 18.097C184 28.092 173.882 36.194 161.401 36.194C156.873 36.194 152.657 35.128 149.121 33.292Z" fill="#DCE0E6"/>
<path d="M170.304 21.3654C171.878 21.3654 173.153 20.105 173.153 18.5504C173.153 16.9957 171.878 15.7354 170.304 15.7354C168.731 15.7354 167.455 16.9957 167.455 18.5504C167.455 20.105 168.731 21.3654 170.304 21.3654Z" fill="white"/>
<path fill-rule="evenodd" clip-rule="evenodd" d="M155.348 21.0129H149.65L152.548 16.0869L155.348 21.0129ZM158.909 16.0869H163.894V21.0129H158.909V16.0869Z" fill="white"/>
</svg>
