<svg width="24" height="24" viewBox="0 0 24 24" fill="none" xmlns="http://www.w3.org/2000/svg">
<g id="icon/outlined/brand-and-logos/alibaba">
<path id="Vector" d="M14.1305 15.6984C13.2586 15.7594 13.343 15.293 13.861 14.6156C15.0422 13.0406 17.2289 10.9008 17.3274 9.3375C17.4633 7.30781 15.4219 6.67969 13.3196 6.67969C11.8571 6.71719 10.343 7.12266 9.31175 7.49063C5.75862 8.74453 3.53206 10.7133 2.11878 12.9281C0.656281 15.1172 1.11097 17.2219 4.27034 17.2828C6.65628 17.1844 8.26644 16.5211 9.88831 15.6844C9.90003 15.6844 5.37659 16.9758 3.70316 16.0289C3.518 15.9305 3.33519 15.7945 3.28597 15.4148C3.28597 14.6391 4.56566 13.8281 5.31566 13.5703V12.2414C6.82737 12.7711 8.61097 12.6234 10.1367 11.4914C10.186 11.6273 10.2352 11.7984 10.2235 11.9836H10.4813C10.5422 11.4539 10.186 10.9383 9.59534 10.9008C9.76644 11.0367 9.89066 11.1469 9.95159 11.2453L9.92816 11.2688L9.91644 11.2805C7.95003 12.6586 6.04222 12.0188 5.85941 11.9813L6.95394 10.9102L6.64691 10.1344C8.82425 9.37266 10.6196 8.81719 13.6055 8.28984L12.9375 7.75078L13.2821 7.54219C15.0516 8.03437 16.2446 8.40234 16.1836 9.3375C16.1602 9.49688 16.0969 9.68203 15.9985 9.87891C15.4711 10.9242 13.9219 12.6094 13.2938 13.3359C12.8883 13.8164 12.4828 14.2594 12.1992 14.7023C11.8805 15.157 11.7188 15.5766 11.7071 15.9563C11.768 19.0453 20.8805 14.5055 22.6758 13.3102C20.0578 14.4305 17.2172 15.5016 14.1305 15.6984ZM16.1227 8.59922C16.1883 8.72109 16.2188 8.87109 16.2188 9.04688C16.2164 8.8875 16.186 8.73516 16.1227 8.59922Z" fill="black"/>
</g>
</svg>
