<svg width="24" height="24" viewBox="0 0 24 24" fill="none" xmlns="http://www.w3.org/2000/svg">
<g id="icon/outlined/brand-and-logos/alipay">
<path id="Vector" d="M18.4919 14.3039C17.5849 14.0016 16.3661 13.5375 15.0114 13.0477C15.8271 11.6344 16.4763 10.0242 16.9028 8.27578H12.4333V6.66797H17.9083V5.77031H12.4333V3.09375H10.1974C9.80597 3.09375 9.80597 3.48047 9.80597 3.48047V5.77266H4.27003V6.67031H9.80832V8.27813H5.23566V9.17578H14.1044C13.792 10.257 13.3637 11.3013 12.8271 12.2906C9.94894 11.3438 6.87863 10.575 4.94972 11.0484C3.71691 11.3531 2.92238 11.8945 2.45363 12.4617C0.311441 15.0633 1.8466 19.0148 6.37238 19.0148C9.0466 19.0125 11.6247 17.5219 13.6216 15.0703C16.6005 16.5 22.4997 18.9539 22.4997 18.9539V15.4547C22.4997 15.4547 21.7591 15.3961 18.4919 14.3039ZM5.9505 17.4984C2.42316 17.4984 1.38019 14.7258 3.12394 13.207C3.70519 12.6938 4.76925 12.443 5.33644 12.3867C7.43175 12.1805 9.37238 12.9773 11.6622 14.093C10.0497 16.1906 7.99894 17.4984 5.9505 17.4984Z" fill="black"/>
</g>
</svg>
