<svg width="24" height="24" viewBox="0 0 24 24" fill="none" xmlns="http://www.w3.org/2000/svg">
<g id="icon/outlined/brand-and-logos/aliwangwang">
<path id="Vector" d="M20.3488 8.84531C19.9059 7.78828 19.2637 6.83906 18.4457 6.01875C17.6365 5.20736 16.6773 4.561 15.6215 4.11563C14.528 3.65203 13.3521 3.41445 12.1645 3.41719C11.1824 3.41719 10.2215 3.57422 9.30742 3.88594C7.17227 2.88984 4.70664 2.8125 3.99883 2.8125C3.94727 2.8125 3.82539 2.8125 3.77852 2.81719C3.49961 2.82656 3.24414 2.96953 3.09414 3.20156C2.9418 3.43359 2.91367 3.72656 3.01446 3.98672L4.52149 7.77422C3.70998 9.14514 3.28252 10.7092 3.28399 12.3023C3.28399 13.507 3.51836 14.6695 3.98242 15.7617C4.42539 16.8164 5.06524 17.768 5.88555 18.5859C6.69883 19.4016 7.65274 20.0414 8.70977 20.4891C9.8043 20.9531 10.9668 21.1875 12.1645 21.1875C13.3668 21.1875 14.5293 20.9508 15.6262 20.4891C16.6785 20.0461 17.6301 19.4039 18.448 18.5859C19.2613 17.7703 19.9035 16.8188 20.3512 15.7594C20.8146 14.665 21.0521 13.4884 21.0496 12.3C21.0449 11.1 20.8129 9.9375 20.3488 8.84531ZM18.7926 15.0914C18.4312 15.9498 17.9067 16.7298 17.248 17.3883C16.5824 18.0563 15.8113 18.5766 14.9582 18.9328H14.9559C14.0652 19.3078 13.1207 19.5 12.1457 19.5C11.1986 19.5011 10.2606 19.3148 9.38578 18.952C8.51092 18.5892 7.71644 18.057 7.04805 17.3859C6.38242 16.718 5.86211 15.9469 5.50586 15.0938V15.0914C5.13086 14.2055 4.94102 13.2586 4.94102 12.2812C4.94102 10.9828 5.28789 9.71016 5.94414 8.60156L6.25352 8.08359L6.03086 7.52344L4.82852 4.5C5.17774 4.51406 5.66992 4.54922 6.22774 4.63125C7.2543 4.78359 8.16133 5.04141 8.92071 5.39531L9.36602 5.60391L9.83242 5.44453C10.5707 5.19141 11.3512 5.06484 12.1504 5.06484C13.0975 5.06379 14.0355 5.25003 14.9103 5.61285C15.7852 5.97566 16.5797 6.50789 17.248 7.17891C17.9137 7.84687 18.434 8.61797 18.7902 9.47109L18.7926 9.47344L18.7949 9.47578C19.1699 10.357 19.3598 11.3039 19.3621 12.2836C19.3598 13.2609 19.1676 14.2055 18.7926 15.0914ZM15.9637 8.53594C15.4855 8.53594 15.0941 8.92734 15.0941 9.40547V10.6969C15.0941 11.175 15.4832 11.5664 15.9637 11.5664C16.4441 11.5664 16.8332 11.175 16.8332 10.6969V9.40547C16.8332 8.925 16.4418 8.53594 15.9637 8.53594ZM11.8574 8.53594C11.377 8.53594 10.9879 8.92734 10.9879 9.40547V10.6969C10.9879 11.175 11.3793 11.5664 11.8574 11.5664C12.3379 11.5664 12.727 11.175 12.727 10.6969V9.40547C12.727 8.925 12.3355 8.53594 11.8574 8.53594Z" fill="black"/>
</g>
</svg>
