<svg width="24" height="24" viewBox="0 0 24 24" fill="none" xmlns="http://www.w3.org/2000/svg">
<g id="icon/outlined/brand-and-logos/aliyun">
<path id="Vector" d="M22.4814 8.99795C22.4744 7.07373 20.9135 5.51514 18.9869 5.51514H13.4979L14.0041 7.51201L18.715 8.53623C18.9276 8.58566 19.1182 8.70343 19.2574 8.87148C19.3967 9.03954 19.477 9.24862 19.4861 9.4667C19.4885 9.47842 19.4885 14.5315 19.4861 14.5433C19.477 14.7613 19.3967 14.9704 19.2574 15.1385C19.1182 15.3065 18.9276 15.4243 18.715 15.4737L14.0041 16.4979L13.4979 18.4972H18.9869C20.9111 18.4972 22.4744 16.9386 22.4814 15.0144V8.99795ZM5.28535 15.4784C5.07276 15.429 4.88223 15.3112 4.74296 15.1432C4.60369 14.9751 4.52335 14.766 4.51426 14.5479C4.51191 14.5339 4.51191 9.48311 4.51426 9.47139C4.53301 9.0167 4.85645 8.63936 5.28535 8.54092L9.99629 7.5167L10.5025 5.51982H5.01113C3.08691 5.51982 1.52363 7.07607 1.5166 9.00264V15.0237C1.52363 16.9479 3.08691 18.5065 5.01113 18.5065H10.5002L9.99395 16.5073L5.28535 15.4784ZM9.99395 11.7565H14.0018V12.2558H9.99395V11.7565Z" fill="black"/>
</g>
</svg>
