<svg width="24" height="24" viewBox="0 0 24 24" fill="none" xmlns="http://www.w3.org/2000/svg">
<g id="icon/outlined/brand-and-logos/amazon">
<path id="Vector" d="M19.3358 18.0214C19.2585 18.0003 19.1647 18.0121 19.0569 18.0519C17.6132 18.7128 16.2093 19.1839 14.8452 19.4628C11.8991 20.0628 9.02803 19.7488 6.23428 18.523C5.4585 18.1808 4.38037 17.6042 2.9999 16.7886C2.96433 16.7605 2.92094 16.7442 2.87569 16.7417C2.82881 16.7394 2.78897 16.7441 2.75147 16.7628C2.71397 16.7816 2.68584 16.805 2.66475 16.8355C2.64365 16.866 2.63897 16.9082 2.65537 16.9621C2.66944 17.0136 2.70459 17.0722 2.76319 17.1355C3.00694 17.4214 3.30928 17.7261 3.66787 18.0496C4.02647 18.373 4.50225 18.7386 5.09522 19.1464C5.68819 19.5542 6.30928 19.9175 6.95381 20.2339C7.60069 20.5503 8.35069 20.8175 9.20616 21.0332C10.0616 21.2488 10.9171 21.3566 11.7702 21.3566C12.6187 21.3566 13.4437 21.2699 14.2429 21.1011C15.0444 20.93 15.7194 20.7285 16.2702 20.4941C16.8187 20.2621 17.3249 20.0019 17.789 19.7207C18.253 19.4394 18.5952 19.2003 18.8179 19.0105C19.0405 18.8183 19.1999 18.6683 19.2913 18.5558C19.3991 18.4222 19.453 18.3074 19.453 18.2066C19.4554 18.1011 19.4132 18.0402 19.3358 18.0214ZM12.3608 8.15894C12.0046 8.1894 11.5757 8.25503 11.0718 8.35347C10.5679 8.44956 10.1015 8.57143 9.67022 8.7144C9.23897 8.85737 8.79834 9.05659 8.35069 9.30972C7.90069 9.56284 7.51865 9.85347 7.20225 10.1769C6.88584 10.5003 6.62803 10.9058 6.42647 11.3957C6.22491 11.8832 6.12412 12.4199 6.12412 13.0058C6.12412 13.641 6.23428 14.2058 6.45928 14.705C6.68194 15.2042 6.97959 15.5957 7.35459 15.8863C7.72725 16.1769 8.15147 16.4042 8.62022 16.5707C9.08897 16.7371 9.58584 16.8121 10.1015 16.791C10.6171 16.7699 11.121 16.6902 11.6108 16.5496C12.0983 16.4113 12.5577 16.1886 12.9843 15.8863C13.4108 15.5839 13.7601 15.2253 14.0343 14.8152C14.1351 14.9699 14.2241 15.0847 14.3038 15.1597L14.5077 15.3683C14.6437 15.5066 14.8522 15.7105 15.1335 15.98C15.4124 16.2496 15.6983 16.5121 15.9843 16.7699L18.4312 14.4285L18.2905 14.3136C18.1897 14.2363 18.0702 14.1261 17.9343 13.9785C17.7983 13.8332 17.6624 13.6714 17.5312 13.498C17.3976 13.3246 17.2827 13.1207 17.1866 12.891C17.0905 12.6613 17.0413 12.4386 17.0413 12.223V6.06362C17.0413 5.8269 16.9968 5.57144 16.9077 5.29487C16.8163 5.02065 16.6569 4.72065 16.4226 4.39722C16.1882 4.07378 15.8976 3.78315 15.5507 3.53003C15.2015 3.2769 14.7374 3.06128 14.1538 2.88784C13.5726 2.7144 12.921 2.62769 12.2038 2.62769C11.4702 2.62769 10.7882 2.7144 10.1507 2.88315C9.51553 3.05425 8.97178 3.28159 8.51709 3.56753C8.06475 3.85347 7.67569 4.18394 7.35225 4.56128C7.02881 4.93862 6.7874 5.33237 6.63037 5.74253C6.47334 6.15269 6.39365 6.56753 6.39365 6.98706L9.56241 7.26597C9.69131 6.88159 9.86475 6.54878 10.078 6.26284C10.2937 5.9769 10.4976 5.77065 10.6827 5.64175C10.8702 5.51284 11.0718 5.40972 11.2851 5.33237C11.5007 5.25503 11.646 5.21519 11.721 5.20581C11.796 5.19878 11.8546 5.19644 11.8991 5.19644C12.5249 5.19644 12.9585 5.38159 13.2022 5.74956C13.3546 5.97222 13.4296 6.30972 13.4296 6.7644V8.09097C13.0733 8.10503 12.7171 8.12847 12.3608 8.15894ZM13.4319 11.7191C13.4319 12.1082 13.3804 12.4621 13.2796 12.7738C13.064 13.4558 12.6538 13.8847 12.0515 14.0582C11.5265 14.2128 11.0272 14.1355 10.5538 13.8285C10.0499 13.5003 9.79912 13.0363 9.79912 12.4386C9.79912 11.9722 9.91631 11.5738 10.1507 11.241C10.3851 10.9105 10.6968 10.6621 11.0882 10.498C11.4796 10.3339 11.8616 10.2167 12.2366 10.1488C12.6093 10.0785 13.0101 10.0363 13.4319 10.0222V11.7191ZM21.2882 16.8496C21.1874 16.723 20.9155 16.641 20.4702 16.5988C20.0249 16.5566 19.6382 16.5589 19.3054 16.6082C18.9468 16.6503 18.5765 16.7535 18.1968 16.9222C17.8147 17.0886 17.6483 17.2292 17.6905 17.3394L17.7069 17.3699L17.728 17.3863L17.7608 17.391H17.8687C17.8874 17.391 17.9108 17.3886 17.9437 17.3863C17.9765 17.3839 18.0069 17.3792 18.0351 17.3769C18.0632 17.3746 18.103 17.3699 18.1546 17.3675C18.2038 17.3652 18.2507 17.3582 18.2952 17.3511C18.3022 17.3511 18.3819 17.3441 18.5366 17.33C18.6913 17.316 18.8038 17.3066 18.8718 17.2996C18.9397 17.2925 19.0546 17.2855 19.2116 17.2785C19.3687 17.2714 19.4952 17.2714 19.589 17.2785C19.6827 17.2855 19.7882 17.2949 19.9077 17.3042C20.0273 17.3136 20.1233 17.3347 20.1983 17.3675C20.2733 17.398 20.3296 17.4378 20.3647 17.4871C20.4866 17.6417 20.4632 17.9839 20.2944 18.516C20.1257 19.048 19.9663 19.4722 19.8163 19.7863C19.7507 19.9199 19.7507 20.0019 19.8163 20.0371C19.8819 20.0722 19.9733 20.0394 20.0952 19.9433C20.4608 19.6574 20.7655 19.2261 21.0116 18.6472C21.1546 18.305 21.2577 17.9488 21.3187 17.5761C21.3749 17.2035 21.3655 16.9621 21.2882 16.8496Z" fill="black"/>
</g>
</svg>
