<svg width="24" height="24" viewBox="0 0 24 24" fill="none" xmlns="http://www.w3.org/2000/svg">
<g id="icon/outlined/brand-and-logos/android">
<path id="Vector" d="M10.5066 5.27812C10.0707 5.27812 9.75664 5.59219 9.75664 6.02578C9.75664 6.45937 10.073 6.77344 10.5066 6.77344C10.9426 6.77344 11.2566 6.45937 11.2566 6.02578C11.259 5.59453 10.9426 5.27812 10.5066 5.27812ZM19.7387 7.5375C19.4152 7.21406 18.9723 7.03359 18.4918 7.03359C18.4004 7.03359 18.3184 7.04297 18.241 7.05703V7.03359H18.1566C18.0277 6.31641 17.7207 5.61562 17.2637 4.98516C16.8254 4.38281 16.2559 3.8625 15.6043 3.46406L16.1926 2.625V2.54766C16.1926 2.52891 16.202 2.49375 16.209 2.45859C16.223 2.40234 16.2418 2.32969 16.2418 2.25C16.2418 1.81641 15.9254 1.50234 15.4918 1.50234C15.2621 1.50234 15.0348 1.63594 14.8848 1.86328L14.198 2.85C13.4949 2.62031 12.7355 2.49844 11.9996 2.49844C11.266 2.49844 10.5066 2.62031 9.80117 2.85L9.1168 1.86094C8.96211 1.63594 8.73945 1.5 8.50742 1.5C8.07148 1.5 7.75742 1.81406 7.75742 2.24766C7.75742 2.39297 7.81602 2.54766 7.91445 2.65547L8.44414 3.4125C7.77148 3.81094 7.19023 4.33594 6.75195 4.93828C6.29727 5.56875 6.00195 6.26953 5.8918 6.98672H5.76289V7.01016C5.68789 6.99609 5.60586 6.98672 5.51211 6.98672C5.03633 6.98672 4.59336 7.1625 4.26758 7.48594C3.94414 7.80937 3.76367 8.25 3.76367 8.72812V14.2359C3.76367 14.7117 3.93945 15.1523 4.26523 15.4758C4.58867 15.7992 5.03398 15.9797 5.51211 15.9797C5.60352 15.9797 5.68555 15.9703 5.76289 15.9562V18.1477C5.76289 18.832 6.32305 19.3922 7.00977 19.3922H7.75742V20.7586C7.75742 21.2344 7.9332 21.675 8.25898 21.9984C8.58242 22.3219 9.02773 22.5023 9.50586 22.5023C9.98164 22.5023 10.4246 22.3266 10.7504 22.0031C11.0738 21.6797 11.2543 21.2391 11.2543 20.7609V19.3969H12.7496V20.7586C12.7496 21.2344 12.9254 21.675 13.2512 21.9984C13.5746 22.3219 14.0199 22.5023 14.498 22.5023C14.9762 22.5023 15.4168 22.3266 15.7426 21.9961C16.066 21.6727 16.2465 21.232 16.2465 20.7539V19.3898H16.9941C17.6809 19.3898 18.241 18.832 18.241 18.1453V16.0031C18.316 16.0172 18.398 16.0266 18.4918 16.0266C18.9676 16.0266 19.4105 15.8508 19.7363 15.5273C20.0598 15.2039 20.2402 14.7633 20.2402 14.2852V8.77734C20.2379 8.30156 20.0621 7.86328 19.7387 7.5375ZM5.76523 14.2875C5.76523 14.4469 5.67383 14.5359 5.51445 14.5359C5.35508 14.5359 5.26367 14.4469 5.26367 14.2875V8.77734C5.26367 8.61797 5.35508 8.52891 5.51445 8.52891C5.67383 8.52891 5.76523 8.61797 5.76523 8.77734V14.2875ZM8.83789 4.9875C9.7168 4.34766 10.8371 3.99609 12.002 3.99609C13.1668 3.99609 14.2871 4.35 15.166 4.99219C15.9254 5.54766 16.4363 6.2625 16.6355 7.04297H7.36836C7.56758 6.26016 8.0832 5.54297 8.83789 4.9875ZM9.75898 20.8008C9.74492 20.932 9.65586 21.0047 9.51289 21.0047C9.35352 21.0047 9.26211 20.9156 9.26211 20.7562V19.3922H9.75898V20.8008ZM14.5004 21.0047C14.341 21.0047 14.2496 20.9156 14.2496 20.7562V19.3922H14.7465V20.8008C14.7324 20.932 14.6457 21.0047 14.5004 21.0047ZM16.7457 17.8969H7.26289V8.53125H16.7457V17.8969ZM18.7426 14.2875C18.7426 14.4469 18.6512 14.5359 18.4918 14.5359C18.3324 14.5359 18.241 14.4469 18.241 14.2875V8.77734C18.241 8.61797 18.3324 8.52891 18.4918 8.52891C18.6512 8.52891 18.7426 8.61797 18.7426 8.77734V14.2875ZM13.502 5.27812C13.066 5.27812 12.752 5.59219 12.752 6.02578C12.752 6.45937 13.0684 6.77344 13.502 6.77344C13.9379 6.77344 14.2543 6.45937 14.2543 6.02344C14.252 5.5875 13.9402 5.27812 13.502 5.27812Z" fill="black"/>
</g>
</svg>
