<svg width="24" height="24" viewBox="0 0 24 24" fill="none" xmlns="http://www.w3.org/2000/svg">
<g id="icon/outlined/brand-and-logos/ant-design">
<path id="Vector" d="M16.7883 7.35447C17.2336 6.9115 17.2336 6.18963 16.7883 5.74666L15.15 4.10838L15.1523 4.11072C14.7187 3.67713 13.9734 2.93181 12.9187 1.87947C12.4219 1.39431 11.6179 1.399 11.1258 1.89119L1.89607 11.1138C1.77799 11.2311 1.68427 11.3706 1.62032 11.5243C1.55636 11.6779 1.52344 11.8427 1.52344 12.0092C1.52344 12.1756 1.55636 12.3404 1.62032 12.494C1.68427 12.6477 1.77799 12.7872 1.89607 12.9045L11.1234 22.1248C11.3613 22.3623 11.6837 22.4957 12.0199 22.4957C12.3561 22.4957 12.6785 22.3623 12.9164 22.1248L16.7859 18.2576C17.2312 17.8146 17.2312 17.0928 16.7859 16.6498C16.572 16.437 16.2826 16.3175 15.9808 16.3175C15.6791 16.3175 15.3897 16.437 15.1758 16.6498L12.2461 19.5842C12.1242 19.706 11.9344 19.706 11.8125 19.5842L4.44139 12.2201C4.31951 12.0982 4.31951 11.9084 4.44139 11.7865L11.8101 4.42244C11.8195 4.41306 11.8312 4.40603 11.8406 4.39666C11.9625 4.30056 12.1312 4.30994 12.2437 4.42244L15.1781 7.35447C15.6234 7.79978 16.3453 7.79978 16.7883 7.35447ZM9.57654 12.056C9.57654 12.7162 9.83903 13.3493 10.3063 13.8161C10.7735 14.2829 11.4072 14.5451 12.0679 14.5451C12.7287 14.5451 13.3624 14.2829 13.8296 13.8161C14.2969 13.3493 14.5594 12.7162 14.5594 12.056C14.5594 11.3959 14.2969 10.7628 13.8296 10.296C13.3624 9.82921 12.7287 9.56697 12.0679 9.56697C11.4072 9.56697 10.7735 9.82921 10.3063 10.296C9.83903 10.7628 9.57654 11.3959 9.57654 12.056ZM22.1437 11.1513L19.2633 8.28494C18.8179 7.84197 18.0961 7.84197 17.6531 8.28728C17.5472 8.39268 17.4632 8.51796 17.4059 8.65592C17.3486 8.79387 17.3191 8.94179 17.3191 9.09119C17.3191 9.24058 17.3486 9.3885 17.4059 9.52646C17.4632 9.66442 17.5472 9.78969 17.6531 9.89509L19.5984 11.8381C19.7203 11.9599 19.7203 12.1498 19.5984 12.2717L17.6812 14.1865C17.5754 14.2919 17.4913 14.4172 17.434 14.5551C17.3767 14.6931 17.3472 14.841 17.3472 14.9904C17.3472 15.1398 17.3767 15.2877 17.434 15.4257C17.4913 15.5636 17.5754 15.6889 17.6812 15.7943C17.8951 16.0071 18.1846 16.1266 18.4863 16.1266C18.788 16.1266 19.0775 16.0071 19.2914 15.7943L22.1461 12.942C22.2638 12.8244 22.3571 12.6847 22.4207 12.531C22.4843 12.3773 22.5169 12.2125 22.5167 12.0462C22.5164 11.8798 22.4834 11.7151 22.4194 11.5616C22.3554 11.408 22.2617 11.2686 22.1437 11.1513Z" fill="black"/>
</g>
</svg>
