<svg width="24" height="24" viewBox="0 0 24 24" fill="none" xmlns="http://www.w3.org/2000/svg">
<g id="icon/outlined/application/api">
<path id="Vector" d="M21.5088 3.48784L20.515 2.49409C20.4775 2.45659 20.4306 2.44019 20.3814 2.44019C20.3322 2.44019 20.2853 2.45894 20.2478 2.49409L18.4642 4.27769C17.6889 3.75234 16.7735 3.47225 15.8369 3.47378C14.6369 3.47378 13.4369 3.93081 12.5205 4.84722L10.1322 7.2355C10.0973 7.27074 10.0777 7.31833 10.0777 7.36792C10.0777 7.41751 10.0973 7.4651 10.1322 7.50034L16.5002 13.8683C16.5377 13.9058 16.5845 13.9222 16.6338 13.9222C16.6806 13.9222 16.7299 13.9035 16.7674 13.8683L19.1556 11.48C20.7705 9.86284 20.9603 7.36206 19.7252 5.53862L21.5088 3.75503C21.5814 3.68003 21.5814 3.5605 21.5088 3.48784ZM18.026 10.3527L16.6338 11.7449L12.2556 7.36675L13.6478 5.97456C14.2314 5.39097 15.0095 5.06753 15.8369 5.06753C16.6642 5.06753 17.44 5.38862 18.026 5.97456C18.6095 6.55815 18.933 7.33628 18.933 8.16362C18.933 8.99097 18.6095 9.76675 18.026 10.3527ZM13.5681 12.8136C13.5329 12.7787 13.4853 12.7592 13.4357 12.7592C13.3861 12.7592 13.3385 12.7787 13.3033 12.8136L11.7424 14.3746L9.62595 12.2582L11.1892 10.6949C11.2619 10.6222 11.2619 10.5027 11.1892 10.43L10.3361 9.5769C10.3009 9.54201 10.2533 9.52244 10.2037 9.52244C10.1541 9.52244 10.1065 9.54201 10.0713 9.5769L8.50798 11.1402L7.50017 10.1324C7.48268 10.1149 7.46183 10.1011 7.43887 10.0918C7.41592 10.0825 7.39133 10.078 7.36658 10.0785C7.3197 10.0785 7.27048 10.0972 7.23298 10.1324L4.84705 12.5207C3.2322 14.1378 3.04236 16.6386 4.27752 18.4621L2.49392 20.2457C2.45903 20.2809 2.43945 20.3285 2.43945 20.3781C2.43945 20.4277 2.45903 20.4753 2.49392 20.5105L3.48767 21.5042C3.52517 21.5417 3.57205 21.5582 3.62127 21.5582C3.67048 21.5582 3.71736 21.5394 3.75486 21.5042L5.53845 19.7207C6.3283 20.2574 7.24705 20.5246 8.1658 20.5246C9.3658 20.5246 10.5658 20.0675 11.4822 19.1511L13.8705 16.7628C13.9431 16.6902 13.9431 16.5707 13.8705 16.498L12.8627 15.4902L14.426 13.9269C14.4986 13.8542 14.4986 13.7347 14.426 13.6621L13.5681 12.8136ZM10.3525 18.0261C10.0657 18.3144 9.72451 18.5431 9.34877 18.6987C8.97303 18.8544 8.57017 18.9341 8.16345 18.9332C7.33611 18.9332 6.56033 18.6121 5.97439 18.0261C5.68607 17.7393 5.45746 17.3981 5.30177 17.0224C5.14608 16.6466 5.06641 16.2438 5.06736 15.8371C5.06736 15.0097 5.38845 14.2339 5.97439 13.648L7.36658 12.2558L11.7447 16.6339L10.3525 18.0261Z" fill="black"/>
</g>
</svg>
