<svg width="24" height="24" viewBox="0 0 24 24" fill="none" xmlns="http://www.w3.org/2000/svg">
<g id="icon/outlined/directional/arrow-up">
<path id="Vector" d="M20.3437 12.7863L12.5648 3.82142C12.4945 3.7403 12.4075 3.67524 12.3099 3.63065C12.2122 3.58606 12.1061 3.56299 11.9988 3.56299C11.8914 3.56299 11.7853 3.58606 11.6877 3.63065C11.59 3.67524 11.5031 3.7403 11.4328 3.82142L3.6562 12.7863C3.6327 12.8133 3.61746 12.8465 3.6123 12.8819C3.60714 12.9174 3.61228 12.9535 3.62709 12.9861C3.64191 13.0187 3.66579 13.0464 3.69588 13.0658C3.72597 13.0852 3.76101 13.0956 3.79682 13.0956H5.69526C5.80307 13.0956 5.9062 13.0488 5.97885 12.9667L11.1093 7.05345V20.2511C11.1093 20.3542 11.1937 20.4386 11.2968 20.4386H12.7031C12.8062 20.4386 12.8906 20.3542 12.8906 20.2511V7.05345L18.021 12.9667C18.0914 13.0488 18.1945 13.0956 18.3046 13.0956H20.2031C20.3624 13.0956 20.4492 12.9081 20.3437 12.7863Z" fill="black"/>
</g>
</svg>
