<svg width="24" height="24" viewBox="0 0 24 24" fill="none" xmlns="http://www.w3.org/2000/svg">
<g id="icon/outlined/directional/arrows-alt">
<path id="Vector" d="M20.039 3.75172L15.6046 4.3025C15.4499 4.32125 15.3867 4.50875 15.4945 4.6189L16.7765 5.90094L13.1789 9.49859C13.144 9.53383 13.1244 9.58142 13.1244 9.63101C13.1244 9.68061 13.144 9.7282 13.1789 9.76344L14.2359 10.8205C14.3085 10.8931 14.4281 10.8931 14.5007 10.8205L18.1007 7.22047L19.3828 8.5025C19.4075 8.52722 19.4387 8.54447 19.4728 8.55228C19.5069 8.56008 19.5425 8.55812 19.5755 8.54662C19.6085 8.53513 19.6376 8.51455 19.6595 8.48727C19.6814 8.45998 19.6951 8.42708 19.6992 8.39234L20.2476 3.96031C20.2515 3.93201 20.2488 3.90319 20.2397 3.87611C20.2305 3.84903 20.2153 3.82443 20.1951 3.80423C20.1749 3.78403 20.1503 3.76878 20.1232 3.75967C20.0961 3.75056 20.0673 3.74784 20.039 3.75172ZM9.76401 13.1783C9.72877 13.1434 9.68118 13.1238 9.63159 13.1238C9.582 13.1238 9.53441 13.1434 9.49917 13.1783L5.90151 16.7783L4.61948 15.4962C4.59474 15.4715 4.56354 15.4543 4.52945 15.4465C4.49536 15.4387 4.45976 15.4406 4.42674 15.4521C4.39371 15.4636 4.36459 15.4842 4.34272 15.5115C4.32085 15.5388 4.30711 15.5717 4.30307 15.6064L3.75229 20.0384C3.73823 20.1603 3.83901 20.2611 3.96088 20.247L8.39526 19.6962C8.54995 19.6775 8.61323 19.49 8.50542 19.3798L7.22338 18.0978L10.8234 14.4978C10.896 14.4252 10.896 14.3056 10.8234 14.233L9.76401 13.1783Z" fill="black"/>
</g>
</svg>
