<svg width="24" height="24" viewBox="0 0 24 24" fill="none" xmlns="http://www.w3.org/2000/svg">
<g id="icon/outlined/directional/arrow-down">
<path id="Vector" d="M20.2025 10.9055H18.3041C18.1963 10.9055 18.0931 10.9523 18.0205 11.0344L12.89 16.9477V3.75C12.89 3.64687 12.8056 3.5625 12.7025 3.5625H11.2963C11.1931 3.5625 11.1088 3.64687 11.1088 3.75V16.9477L5.97829 11.0344C5.90798 10.9523 5.80486 10.9055 5.6947 10.9055H3.79626C3.63689 10.9055 3.55017 11.0953 3.65564 11.2148L11.4345 20.1797C11.5049 20.2608 11.5918 20.3259 11.6894 20.3705C11.7871 20.415 11.8932 20.4381 12.0006 20.4381C12.1079 20.4381 12.214 20.415 12.3117 20.3705C12.4093 20.3259 12.4963 20.2608 12.5666 20.1797L20.3431 11.2148C20.4486 11.093 20.3619 10.9055 20.2025 10.9055Z" fill="black"/>
</g>
</svg>
