<svg width="24" height="24" viewBox="0 0 24 24" fill="none" xmlns="http://www.w3.org/2000/svg">
<g id="icon/outlined/directional/backward">
<path id="Vector" d="M11.3818 5.85608L4.6459 11.6709C4.45137 11.8373 4.45137 12.1584 4.6459 12.3248L11.3818 18.142C11.6326 18.3576 12.0006 18.1631 12.0006 17.8139V6.18186C12.0006 5.83498 11.6326 5.63811 11.3818 5.85608ZM18.8818 5.85608L12.1459 11.6709C12.0998 11.7122 12.063 11.7628 12.0379 11.8193C12.0129 11.8759 12.0001 11.9372 12.0006 11.999C12.0006 12.1209 12.0498 12.2428 12.1459 12.3272L18.8818 18.1444C19.1326 18.36 19.5006 18.1655 19.5006 17.8162V6.18186C19.5006 5.83498 19.1326 5.63811 18.8818 5.85608Z" fill="black"/>
</g>
</svg>
