<svg width="24" height="24" viewBox="0 0 24 24" fill="none" xmlns="http://www.w3.org/2000/svg">
<g id="icon/outlined/application/bank">
<path id="Vector" d="M20.9533 10.8274C21.6775 10.8274 21.9798 9.89697 21.3916 9.46807L12.4408 2.95713C12.3129 2.86348 12.1586 2.81299 12.0001 2.81299C11.8417 2.81299 11.6873 2.86348 11.5595 2.95713L2.60874 9.46807C2.02046 9.89463 2.3228 10.8274 3.04936 10.8274H4.50015V19.5931H2.81265C2.70952 19.5931 2.62515 19.6774 2.62515 19.7806V20.9993C2.62515 21.1024 2.70952 21.1868 2.81265 21.1868H21.1876C21.2908 21.1868 21.3751 21.1024 21.3751 20.9993V19.7806C21.3751 19.6774 21.2908 19.5931 21.1876 19.5931H19.5001V10.8274H20.9533ZM12.0001 4.60947L18.354 9.23135H5.64624L12.0001 4.60947ZM6.18764 10.8274H8.92983V19.5931H6.18764V10.8274ZM10.6173 10.8274H13.3595V19.5931H10.6173V10.8274ZM17.8126 19.5931H15.047V10.8274H17.8126V19.5931Z" fill="black"/>
</g>
</svg>
