<svg width="24" height="24" viewBox="0 0 24 24" fill="none" xmlns="http://www.w3.org/2000/svg">
<g id="icon/outlined/brand-and-logos/behance">
<path id="Vector" d="M14.8594 6.898H19.5352V8.03237H14.8594V6.898ZM10.1742 11.3863C11.2078 10.8917 11.7492 10.1394 11.7492 8.9769C11.7492 6.67768 10.0383 6.11987 8.0625 6.11987H2.625V17.6605H8.21484C10.3102 17.6605 12.2766 16.6527 12.2766 14.3089C12.2766 12.8605 11.5922 11.7894 10.1742 11.3863ZM5.16094 8.08862H7.53984C8.45625 8.08862 9.27891 8.34409 9.27891 9.40815C9.27891 10.3878 8.63906 10.7816 7.73203 10.7816H5.16094V8.08862ZM7.86797 15.7011H5.15859V12.523H7.92188C9.0375 12.523 9.74297 12.9894 9.74297 14.1706C9.74297 15.3331 8.90156 15.7011 7.86797 15.7011ZM21.3633 13.6034C21.3633 11.1308 19.9172 9.07065 17.3016 9.07065C14.7586 9.07065 13.0289 10.9855 13.0289 13.4956C13.0289 16.0972 14.6672 17.8831 17.3016 17.8831C19.2961 17.8831 20.5875 16.9855 21.2086 15.0706H19.1859C18.9656 15.7855 18.0703 16.1605 17.3742 16.1605C16.0289 16.1605 15.3258 15.373 15.3258 14.0347H21.3469C21.3539 13.8964 21.3633 13.7511 21.3633 13.6034ZM15.3258 12.5863C15.3984 11.487 16.132 10.8003 17.2289 10.8003C18.382 10.8003 18.9586 11.4777 19.0594 12.5863H15.3258Z" fill="black"/>
</g>
</svg>
