<svg width="24" height="24" viewBox="0 0 24 24" fill="none" xmlns="http://www.w3.org/2000/svg">
<g id="icon/outlined/application/car">
<path id="Vector" d="M8.90595 16.5003H15.0934C15.1966 16.5003 15.2809 16.416 15.2809 16.3128V14.3441C15.2809 14.241 15.1966 14.1566 15.0934 14.1566H14.1559C14.0528 14.1566 13.9684 14.241 13.9684 14.3441V15.1878H10.0309V14.3441C10.0309 14.241 9.94657 14.1566 9.84345 14.1566H8.90595C8.80282 14.1566 8.71845 14.241 8.71845 14.3441V16.3128C8.71845 16.416 8.80282 16.5003 8.90595 16.5003ZM16.8747 13.6175C16.8747 13.8662 16.9735 14.1046 17.1493 14.2804C17.3251 14.4563 17.5636 14.555 17.8122 14.555C18.0608 14.555 18.2993 14.4563 18.4751 14.2804C18.6509 14.1046 18.7497 13.8662 18.7497 13.6175C18.7497 13.3689 18.6509 13.1304 18.4751 12.9546C18.2993 12.7788 18.0608 12.68 17.8122 12.68C17.5636 12.68 17.3251 12.7788 17.1493 12.9546C16.9735 13.1304 16.8747 13.3689 16.8747 13.6175ZM22.4763 9.68941L21.9208 8.71909C21.8958 8.67632 21.8549 8.64516 21.8071 8.63243C21.7592 8.61969 21.7083 8.62641 21.6653 8.65112L20.477 9.34487L18.6419 4.27769C18.545 3.97533 18.3545 3.71159 18.098 3.52454C17.8414 3.33749 17.532 3.23682 17.2145 3.23706H7.05907C6.24579 3.23706 5.52392 3.76206 5.27314 4.53784L3.5247 9.34722L2.33407 8.65347C2.29115 8.62876 2.24019 8.62204 2.19232 8.63477C2.14446 8.6475 2.10358 8.67866 2.07861 8.72144L1.52314 9.68941C1.47157 9.77847 1.50204 9.89097 1.59111 9.94253L3.00673 10.7675L2.66689 11.705C2.63876 11.78 2.6247 11.8597 2.6247 11.9394V20.1003C2.6247 20.4683 2.90126 20.766 3.24111 20.766H4.82548C5.11376 20.766 5.36454 20.548 5.42548 20.2433L5.60595 19.3597H18.3934L18.5739 20.2433C18.6372 20.548 18.8856 20.766 19.1739 20.766H20.7583C21.0981 20.766 21.3747 20.4683 21.3747 20.1003V11.9394C21.3747 11.8597 21.3606 11.78 21.3325 11.705L20.9927 10.7675L22.4059 9.94253C22.4485 9.91796 22.4797 9.87768 22.4928 9.83034C22.506 9.783 22.5 9.7324 22.4763 9.68941ZM19.6872 12.1175V17.6722H4.3122V12.1175L4.67782 11.1097H19.3216L19.6872 12.1175ZM6.85986 5.11206L6.87157 5.08159L6.88095 5.05112C6.90673 4.97378 6.97704 4.92222 7.05907 4.92222H17.0809L18.8481 9.79722H5.15595L6.85986 5.11206ZM5.2497 13.6175C5.2497 13.8662 5.34847 14.1046 5.52429 14.2804C5.7001 14.4563 5.93856 14.555 6.1872 14.555C6.43584 14.555 6.6743 14.4563 6.85011 14.2804C7.02593 14.1046 7.1247 13.8662 7.1247 13.6175C7.1247 13.3689 7.02593 13.1304 6.85011 12.9546C6.6743 12.7788 6.43584 12.68 6.1872 12.68C5.93856 12.68 5.7001 12.7788 5.52429 12.9546C5.34847 13.1304 5.2497 13.3689 5.2497 13.6175Z" fill="black"/>
</g>
</svg>
