<svg width="24" height="24" viewBox="0 0 24 24" fill="none" xmlns="http://www.w3.org/2000/svg">
<g id="icon/outlined/suggested/check-square">
<path id="Vector" d="M10.1511 15.4148C10.2201 15.5111 10.311 15.5896 10.4164 15.6437C10.5217 15.6978 10.6385 15.7261 10.7569 15.7261C10.8754 15.7261 10.9921 15.6978 11.0975 15.6437C11.2029 15.5896 11.2938 15.5111 11.3628 15.4148L16.2987 8.57109C16.3878 8.44688 16.2987 8.27344 16.1464 8.27344H15.0472C14.8081 8.27344 14.5808 8.38828 14.4401 8.58516L10.7581 13.6945L9.08936 11.3789C8.94873 11.1844 8.72373 11.0672 8.48233 11.0672H7.38311C7.23077 11.0672 7.1417 11.2406 7.23077 11.3648L10.1511 15.4148Z" fill="black"/>
<path id="Vector_2" d="M20.625 2.625H3.375C2.96016 2.625 2.625 2.96016 2.625 3.375V20.625C2.625 21.0398 2.96016 21.375 3.375 21.375H20.625C21.0398 21.375 21.375 21.0398 21.375 20.625V3.375C21.375 2.96016 21.0398 2.625 20.625 2.625ZM19.6875 19.6875H4.3125V4.3125H19.6875V19.6875Z" fill="black"/>
</g>
</svg>
