<svg width="24" height="24" viewBox="0 0 24 24" fill="none" xmlns="http://www.w3.org/2000/svg">
<g id="icon/outlined/suggested/close">
<path id="Vector" d="M18.9275 4.07814L19.9219 5.07251C20.0103 5.1609 20.0103 5.24928 19.9219 5.33767L5.3378 19.9218C5.24941 20.0101 5.16102 20.0101 5.07263 19.9218L4.07826 18.9274C3.98987 18.839 3.98987 18.7506 4.07826 18.6622L18.6623 4.07814C18.7507 3.98975 18.8391 3.98975 18.9275 4.07814Z" fill="black"/>
<path id="Vector_2" d="M5.33766 4.07814L19.9217 18.6622C20.0101 18.7506 20.0101 18.839 19.9217 18.9274L18.9274 19.9218C18.839 20.0101 18.7506 20.0101 18.6622 19.9218L4.07813 5.33767C3.98974 5.24928 3.98974 5.1609 4.07813 5.07251L5.0725 4.07814C5.16088 3.98975 5.24927 3.98975 5.33766 4.07814Z" fill="black"/>
</g>
</svg>
