<svg width="24" height="24" viewBox="0 0 24 24" fill="none" xmlns="http://www.w3.org/2000/svg">
<g id="icon/outlined/suggested/close-circle">
<path id="Union" d="M10.9391 12L7.71289 8.7738C7.63997 8.70088 7.63997 8.58155 7.71289 8.50863L8.50839 7.71314C8.58131 7.64022 8.70063 7.64022 8.77355 7.71314L11.9997 10.9393L15.2259 7.71314C15.2988 7.64022 15.4181 7.64022 15.4911 7.71314L16.2866 8.50863C16.3595 8.58155 16.3595 8.70088 16.2866 8.7738L13.0604 12L16.2866 15.2261C16.3595 15.2991 16.3595 15.4184 16.2866 15.4913L15.4911 16.2868C15.4181 16.3597 15.2988 16.3597 15.2259 16.2868L11.9997 13.0606L8.77355 16.2868C8.70063 16.3597 8.58131 16.3597 8.50839 16.2868L7.71289 15.4913C7.63997 15.4184 7.63997 15.2991 7.71289 15.2261L10.9391 12Z" fill="black"/>
<path id="Vector" d="M12 1.52344C6.20156 1.52344 1.5 6.225 1.5 12.0234C1.5 17.8219 6.20156 22.5234 12 22.5234C17.7984 22.5234 22.5 17.8219 22.5 12.0234C22.5 6.225 17.7984 1.52344 12 1.52344ZM12 20.7422C7.18594 20.7422 3.28125 16.8375 3.28125 12.0234C3.28125 7.20938 7.18594 3.30469 12 3.30469C16.8141 3.30469 20.7188 7.20938 20.7188 12.0234C20.7188 16.8375 16.8141 20.7422 12 20.7422Z" fill="black"/>
</g>
</svg>
