<svg width="24" height="24" viewBox="0 0 24 24" fill="none" xmlns="http://www.w3.org/2000/svg">
<g id="icon/outlined/application/cloud-server">
<path id="Vector" d="M16.5 10.4531H7.5C7.39687 10.4531 7.3125 10.5375 7.3125 10.6406V20.0625C7.3125 20.1656 7.39687 20.25 7.5 20.25H16.5C16.6031 20.25 16.6875 20.1656 16.6875 20.0625V10.6406C16.6875 10.5375 16.6031 10.4531 16.5 10.4531ZM8.8125 11.9531H15.1875V14.6953H8.8125V11.9531ZM15.1875 18.75H8.8125V16.0078H15.1875V18.75Z" fill="black"/>
<path id="Vector_2" d="M9.9375 17.5312C9.9375 17.7302 10.0165 17.9209 10.1572 18.0616C10.2978 18.2022 10.4886 18.2812 10.6875 18.2812C10.8864 18.2812 11.0772 18.2022 11.2178 18.0616C11.3585 17.9209 11.4375 17.7302 11.4375 17.5312C11.4375 17.3323 11.3585 17.1416 11.2178 17.0009C11.0772 16.8603 10.8864 16.7812 10.6875 16.7812C10.4886 16.7812 10.2978 16.8603 10.1572 17.0009C10.0165 17.1416 9.9375 17.3323 9.9375 17.5312ZM9.9375 13.3594C9.9375 13.5583 10.0165 13.7491 10.1572 13.8897C10.2978 14.0304 10.4886 14.1094 10.6875 14.1094C10.8864 14.1094 11.0772 14.0304 11.2178 13.8897C11.3585 13.7491 11.4375 13.5583 11.4375 13.3594C11.4375 13.1605 11.3585 12.9697 11.2178 12.829C11.0772 12.6884 10.8864 12.6094 10.6875 12.6094C10.4886 12.6094 10.2978 12.6884 10.1572 12.829C10.0165 12.9697 9.9375 13.1605 9.9375 13.3594Z" fill="black"/>
<path id="Vector_3" d="M19.0182 8.64609C17.9448 5.8125 15.2096 3.79688 12.0057 3.79688C8.80183 3.79688 6.06667 5.81016 4.99323 8.64375C2.97526 9.17578 1.48933 11.0203 1.50105 13.2094C1.51511 15.6562 3.41355 17.6461 5.80417 17.8594C5.91433 17.8687 6.00808 17.782 6.00808 17.6719V16.2562C6.00808 16.1625 5.93776 16.0828 5.84401 16.0711C5.2112 15.9914 4.61355 15.7148 4.15417 15.2625C3.59167 14.7117 3.2823 13.9711 3.2823 13.1859C3.2823 12.5297 3.49558 11.9109 3.89636 11.3953C4.28776 10.8937 4.83855 10.5305 5.44558 10.3711L6.33386 10.1367L6.65964 9.27656C6.8612 8.74219 7.14245 8.24062 7.49636 7.78828C7.84558 7.33828 8.26042 6.94453 8.72448 6.61641C9.68776 5.93906 10.8221 5.58047 12.0057 5.58047C13.1893 5.58047 14.3237 5.93906 15.287 6.61875C15.7534 6.94687 16.1659 7.34062 16.5151 7.79062C16.869 8.24297 17.1503 8.74453 17.3518 9.27891L17.6753 10.1367L18.5612 10.3711C19.8315 10.7086 20.7198 11.8641 20.7198 13.1836C20.7198 13.9711 20.4104 14.7094 19.8479 15.2602C19.3909 15.7102 18.7956 15.9891 18.1628 16.0687C18.069 16.0805 18.001 16.1602 18.001 16.2539V17.6719C18.001 17.782 18.0971 17.8687 18.2073 17.8594C20.5909 17.6437 22.4846 15.6562 22.501 13.2141C22.5151 11.025 21.0315 9.18047 19.0182 8.64609Z" fill="black"/>
</g>
</svg>
