<svg width="24" height="24" viewBox="0 0 24 24" fill="none" xmlns="http://www.w3.org/2000/svg">
<g id="icon/outlined/application/cloud-sync">
<path id="Vector" d="M19.0182 8.64609C17.9448 5.8125 15.2096 3.79688 12.0057 3.79688C8.80183 3.79688 6.06667 5.81016 4.99323 8.64375C2.97526 9.17578 1.48933 11.0203 1.50105 13.2094C1.51511 15.6562 3.41355 17.6461 5.80417 17.8594C5.91433 17.8687 6.00808 17.782 6.00808 17.6719V16.2562C6.00808 16.1625 5.93776 16.0828 5.84401 16.0711C5.2112 15.9914 4.61355 15.7148 4.15417 15.2625C3.59167 14.7117 3.2823 13.9711 3.2823 13.1859C3.2823 12.5297 3.49558 11.9109 3.89636 11.3953C4.28776 10.8937 4.83855 10.5305 5.44558 10.3711L6.33386 10.1367L6.65964 9.27656C6.8612 8.74219 7.14245 8.24062 7.49636 7.78828C7.84558 7.33828 8.26042 6.94453 8.72448 6.61641C9.68776 5.93906 10.8221 5.58047 12.0057 5.58047C13.1893 5.58047 14.3237 5.93906 15.287 6.61875C15.7534 6.94687 16.1659 7.34062 16.5151 7.79062C16.869 8.24297 17.1503 8.74453 17.3518 9.27891L17.6753 10.1367L18.5612 10.3711C19.8315 10.7086 20.7198 11.8641 20.7198 13.1836C20.7198 13.9711 20.4104 14.7094 19.8479 15.2602C19.3909 15.7102 18.7956 15.9891 18.1628 16.0687C18.069 16.0805 18.001 16.1602 18.001 16.2539V17.6719C18.001 17.782 18.0971 17.8687 18.2073 17.8594C20.5909 17.6437 22.4846 15.6562 22.501 13.2141C22.5151 11.025 21.0315 9.18047 19.0182 8.64609Z" fill="black"/>
<path id="Vector_2" d="M8.83339 15.3847C8.87558 14.5995 9.20136 13.8683 9.75917 13.3081C10.3545 12.7105 11.1654 12.3753 12.0092 12.3753C12.8576 12.3753 13.6568 12.7058 14.2592 13.3081C14.292 13.341 14.3225 13.3738 14.3553 13.4089L13.7693 13.8683C13.7414 13.8899 13.7202 13.9189 13.708 13.9521C13.6959 13.9852 13.6933 14.0211 13.7007 14.0556C13.708 14.0901 13.7249 14.1219 13.7495 14.1472C13.7741 14.1725 13.8053 14.1904 13.8396 14.1988L16.1412 14.7613C16.2584 14.7894 16.3732 14.7003 16.3732 14.5808L16.3849 12.2066C16.3849 12.0496 16.2068 11.9605 16.0826 12.0589L15.5389 12.4855C14.681 11.5011 13.4201 10.8777 12.0115 10.8777C9.49433 10.8777 7.4412 12.8722 7.33808 15.3706C7.33339 15.4761 7.41776 15.5652 7.52558 15.5652H8.64823C8.74667 15.5628 8.8287 15.4855 8.83339 15.3847ZM16.4764 15.5628H15.3537C15.2553 15.5628 15.1732 15.6402 15.1662 15.741C15.124 16.5261 14.7982 17.2574 14.2404 17.8175C13.6451 18.4152 12.8342 18.7503 11.9904 18.7503C11.142 18.7503 10.3428 18.4198 9.74042 17.8175C9.70761 17.7847 9.67714 17.7519 9.64433 17.7167L10.2303 17.2574C10.2582 17.2358 10.2794 17.2067 10.2916 17.1736C10.3037 17.1404 10.3063 17.1046 10.2989 17.07C10.2916 17.0355 10.2746 17.0038 10.2501 16.9784C10.2255 16.9531 10.1942 16.9352 10.16 16.9269L7.85839 16.3644C7.7412 16.3363 7.62636 16.4253 7.62636 16.5449L7.61698 18.9214C7.61698 19.0784 7.79511 19.1675 7.91933 19.0691L8.46308 18.6425C9.32089 19.6269 10.5818 20.2503 11.9904 20.2503C14.5076 20.2503 16.5607 18.2558 16.6639 15.7574C16.6685 15.6519 16.5842 15.5628 16.4764 15.5628Z" fill="black"/>
</g>
</svg>
