<svg width="24" height="24" viewBox="0 0 24 24" fill="none" xmlns="http://www.w3.org/2000/svg">
<g id="icon/outlined/brand-and-logos/codepen">
<path id="Vector" d="M21.3684 9.03041L21.3613 8.99525C21.3566 8.97181 21.3543 8.95072 21.3473 8.92728C21.3426 8.91322 21.3379 8.9015 21.3355 8.88744C21.3285 8.86869 21.3238 8.8476 21.3145 8.82885C21.3098 8.81478 21.3027 8.80306 21.2957 8.789C21.2863 8.77025 21.277 8.75385 21.2676 8.7351C21.2605 8.72338 21.2535 8.70931 21.2441 8.69759C21.2254 8.66947 21.2043 8.64135 21.1832 8.61322C21.1715 8.59916 21.1574 8.58275 21.1434 8.56869C21.134 8.55697 21.1223 8.54759 21.1105 8.53822C21.0965 8.52416 21.0801 8.51244 21.066 8.50072C21.0543 8.49134 21.0426 8.48197 21.0285 8.47259C21.0238 8.47025 21.0191 8.46556 21.0145 8.46322L12.448 2.76088C12.3159 2.6726 12.1605 2.62549 12.0016 2.62549C11.8426 2.62549 11.6873 2.6726 11.5551 2.76088L2.98398 8.46791C2.9793 8.47025 2.97461 8.47494 2.96992 8.47728C2.9582 8.48666 2.94648 8.49603 2.93242 8.50541C2.91602 8.51713 2.90195 8.53119 2.88789 8.54291C2.87617 8.55228 2.8668 8.564 2.85508 8.57338C2.84102 8.58744 2.82695 8.6015 2.81523 8.61791C2.7918 8.64369 2.77305 8.67181 2.7543 8.70228C2.74727 8.714 2.73789 8.72572 2.73086 8.73978C2.72148 8.75619 2.71211 8.77494 2.70273 8.79369C2.6957 8.80541 2.69102 8.81947 2.68398 8.83353C2.67695 8.85228 2.66992 8.87338 2.66289 8.89213C2.6582 8.90619 2.65352 8.91791 2.65117 8.93197C2.64648 8.95306 2.6418 8.9765 2.63711 8.99994L2.63008 9.0351C2.62539 9.07025 2.62305 9.10541 2.62305 9.14056V14.8476C2.62305 14.8828 2.62539 14.9179 2.63008 14.9531L2.63711 14.9882L2.65117 15.0562C2.65586 15.0703 2.6582 15.082 2.66289 15.096C2.66992 15.1171 2.67695 15.1359 2.68398 15.1546C2.68867 15.1687 2.6957 15.1804 2.70273 15.1945C2.71211 15.2132 2.71914 15.2296 2.73086 15.2484C2.73789 15.2601 2.74492 15.2742 2.7543 15.2859C2.76602 15.3023 2.77539 15.3187 2.78945 15.3351L2.81758 15.3703C2.8293 15.3843 2.84336 15.4007 2.85742 15.4148C2.8668 15.4265 2.87852 15.4359 2.89023 15.4453C2.9043 15.4593 2.9207 15.471 2.93477 15.4828C2.94648 15.4921 2.9582 15.5015 2.97227 15.5109C2.97695 15.5132 2.98164 15.5179 2.98633 15.5203L11.5551 21.2273C11.6863 21.3163 11.8434 21.3632 12.0027 21.3632C12.1574 21.3632 12.3145 21.3187 12.4504 21.2273L21.0191 15.5203C21.0238 15.5179 21.0285 15.5132 21.0332 15.5109C21.0449 15.5015 21.0566 15.4921 21.0707 15.4828C21.0871 15.471 21.1012 15.457 21.1152 15.4453C21.127 15.4359 21.1363 15.4242 21.148 15.4148C21.1621 15.4007 21.1762 15.3867 21.1879 15.3703L21.216 15.3351L21.2512 15.2859C21.2582 15.2742 21.2676 15.2624 21.2746 15.2484C21.284 15.2296 21.2934 15.2132 21.3027 15.1945C21.3098 15.1828 21.3145 15.1687 21.3215 15.1546C21.3285 15.1359 21.3355 15.1148 21.3426 15.096C21.3473 15.0843 21.352 15.0703 21.3543 15.0562C21.3613 15.0351 21.3637 15.0117 21.3684 14.9882L21.3754 14.9531C21.3801 14.9179 21.3824 14.8828 21.3824 14.8476V9.13588C21.3754 9.10072 21.373 9.06556 21.3684 9.03041ZM12.8066 4.93353L19.1207 9.13822L16.3012 11.0226L12.809 8.68822V4.93353H12.8066ZM11.1941 4.93353V8.68822L7.70195 11.0226L4.88242 9.13822L11.1941 4.93353ZM4.23555 10.6429L6.25117 11.9906L4.23555 13.3382V10.6429ZM11.1941 19.0452L4.88242 14.8406L7.70195 12.9562L11.1941 15.2906V19.0452ZM12.0004 13.8937L9.15039 11.9906L12.0004 10.0851L14.8504 11.9882L12.0004 13.8937ZM12.8066 19.0452V15.2906L16.2988 12.9562L19.1184 14.8406L12.8066 19.0452ZM19.7652 13.3359L17.7496 11.9882L19.7652 10.6406V13.3359Z" fill="black"/>
</g>
</svg>
