<svg width="24" height="24" viewBox="0 0 24 24" fill="none" xmlns="http://www.w3.org/2000/svg">
<g id="icon/outlined/application/coffee">
<path id="Vector" d="M5.44531 6.58594C5.91172 6.58594 6.28906 6.20859 6.28906 5.74219V0.84375C6.28906 0.377344 5.91172 0 5.44531 0C4.97891 0 4.60156 0.377344 4.60156 0.84375V5.74219C4.60156 6.20859 4.97891 6.58594 5.44531 6.58594ZM19.8125 9.96094H17C17 9.02812 16.2453 8.27344 15.3125 8.27344H3.6875C2.75469 8.27344 2 9.02812 2 9.96094V15.7734C2 15.8531 2.00469 15.9305 2.01641 16.0055C2.00469 16.1695 2 16.3336 2 16.5C2 20.6414 5.35859 24 9.5 24C13.2523 24 16.3602 21.2461 16.9133 17.6484H19.8125C20.7453 17.6484 21.5 16.8937 21.5 15.9609V11.6484C21.5 10.7156 20.7453 9.96094 19.8125 9.96094ZM15.3125 15.9609H15.2867C15.3031 16.1391 15.3125 16.3172 15.3125 16.5C15.3125 19.7109 12.7109 22.3125 9.5 22.3125C6.28906 22.3125 3.6875 19.7109 3.6875 16.5C3.6875 16.3172 3.69688 16.1391 3.71328 15.9609H3.6875V9.96094H15.3125V15.9609ZM19.8125 15.7734H17.1875V11.6484H19.8125V15.7734ZM13.3672 6.58594C13.8336 6.58594 14.2109 6.20859 14.2109 5.74219V0.84375C14.2109 0.377344 13.8336 0 13.3672 0C12.9008 0 12.5234 0.377344 12.5234 0.84375V5.74219C12.5234 6.20859 12.9008 6.58594 13.3672 6.58594ZM9.38281 6.58594C9.84922 6.58594 10.2266 6.20859 10.2266 5.74219V0.84375C10.2266 0.377344 9.84922 0 9.38281 0C8.91641 0 8.53906 0.377344 8.53906 0.84375V5.74219C8.53906 6.20859 8.91641 6.58594 9.38281 6.58594Z" fill="black"/>
</g>
</svg>
