<svg width="24" height="24" viewBox="0 0 24 24" fill="none" xmlns="http://www.w3.org/2000/svg">
<g id="icon/outlined/application/crown">
<path id="Vector" d="M21.0848 6.48041L16.5238 9.29057L12.1504 3.45697C12.1328 3.43349 12.11 3.41444 12.0837 3.40131C12.0575 3.38818 12.0286 3.38135 11.9992 3.38135C11.9699 3.38135 11.9409 3.38818 11.9147 3.40131C11.8885 3.41444 11.8656 3.43349 11.848 3.45697L7.47695 9.29057L2.91367 6.48041C2.78008 6.39838 2.60664 6.50854 2.62773 6.66557L4.41836 20.2734C4.44414 20.4585 4.60351 20.6015 4.79336 20.6015H19.2098C19.3973 20.6015 19.559 20.4609 19.5824 20.2734L21.373 6.66557C21.3918 6.50854 21.2207 6.39838 21.0848 6.48041ZM18.1316 18.9984H5.86679L4.60586 9.40307L7.88242 11.421L12.0004 5.92729L16.1184 11.421L19.3949 9.40307L18.1316 18.9984ZM12.0004 11.9296C10.5449 11.9296 9.36133 13.1132 9.36133 14.5687C9.36133 16.0242 10.5449 17.2078 12.0004 17.2078C13.4559 17.2078 14.6394 16.0242 14.6394 14.5687C14.6394 13.1132 13.4559 11.9296 12.0004 11.9296ZM12.0004 15.7007C11.377 15.7007 10.8707 15.1945 10.8707 14.5687C10.8707 13.9453 11.377 13.4367 12.0004 13.4367C12.6238 13.4367 13.1301 13.9429 13.1301 14.5687C13.1301 15.1921 12.6238 15.7007 12.0004 15.7007Z" fill="black"/>
</g>
</svg>
