<svg width="24" height="24" viewBox="0 0 24 24" fill="none" xmlns="http://www.w3.org/2000/svg">
<g id="icon/outlined/brand-and-logos/dingding">
<path id="Vector" d="M13.4461 5.91801C9.90236 4.62661 4.71799 2.26645 4.71799 2.26645C4.35002 2.17036 4.29846 2.52661 4.29846 2.52661C4.18127 3.95864 5.08596 6.28833 5.55471 6.81098C6.02111 7.33364 13.0336 9.47583 13.0336 9.47583C13.0336 9.47583 7.64065 8.38833 6.33986 8.01333C5.03674 7.63833 5.45158 8.43051 5.45158 8.43051C5.71877 9.87661 6.97268 11.5196 7.96408 11.6743C8.95315 11.829 13.1227 11.768 13.1227 11.768C13.1227 11.768 12.2906 11.8641 10.9383 12.0469C9.93752 12.1829 8.66486 12.3399 8.3344 12.4641C7.55861 12.7571 8.8969 13.9313 8.8969 13.9313C10.8821 15.7313 11.9367 15.1149 11.9367 15.1149C12.7172 14.8641 13.3758 14.6813 13.9336 14.5477L13.2422 17.4165H15.225L14.1328 21.75L18.9446 15.3774H16.425L16.9477 14.4704C16.9547 14.4821 16.9571 14.4891 16.9571 14.4891C16.9571 14.4891 18.7453 11.6274 19.4297 10.1672L19.4438 10.1438H19.4414C19.5586 9.89067 19.643 9.68208 19.6758 9.53911C20.0742 7.86801 16.9922 7.20942 13.4461 5.91801Z" fill="black"/>
</g>
</svg>
