<svg width="24" height="24" viewBox="0 0 24 24" fill="none" xmlns="http://www.w3.org/2000/svg">
<g id="icon/outlined/application/disconnect">
<path id="Vector" d="M19.5143 4.48662C17.5314 2.50381 14.3229 2.50381 12.3424 4.48662L10.0713 6.75771L11.2666 7.95303L13.5377 5.68193C14.7986 4.421 16.9268 4.2874 18.3189 5.68193C19.7135 7.07647 19.5799 9.20225 18.3189 10.4632L16.0479 12.7343L17.2455 13.9319L19.5166 11.6608C21.4947 9.67803 21.4947 6.46943 19.5143 4.48662ZM10.465 18.3194C9.2041 19.5804 7.07598 19.714 5.68379 18.3194C4.28926 16.9249 4.42285 14.7991 5.68379 13.5382L7.95488 11.2671L6.75723 10.0694L4.48613 12.3405C2.50332 14.3233 2.50332 17.5319 4.48613 19.5124C6.46895 21.4929 9.67754 21.4952 11.658 19.5124L13.9291 17.2413L12.7338 16.046L10.465 18.3194ZM6.10098 4.9085C6.06574 4.8736 6.01815 4.85403 5.96855 4.85403C5.91896 4.85403 5.87137 4.8736 5.83613 4.9085L4.90801 5.83662C4.87311 5.87186 4.85354 5.91945 4.85354 5.96904C4.85354 6.01864 4.87311 6.06622 4.90801 6.10146L17.9018 19.0952C17.9744 19.1679 18.0939 19.1679 18.1666 19.0952L19.0947 18.1671C19.1674 18.0944 19.1674 17.9749 19.0947 17.9022L6.10098 4.9085Z" fill="black"/>
</g>
</svg>
