<svg width="24" height="24" viewBox="0 0 24 24" fill="none" xmlns="http://www.w3.org/2000/svg">
<g id="icon/outlined/application/dislike">
<path id="Vector" d="M20.7633 11.491C20.8477 11.2098 20.8898 10.9192 20.8898 10.6238C20.8898 9.96057 20.6719 9.32307 20.2781 8.80275C20.3625 8.5215 20.4047 8.23088 20.4047 7.93557C20.4047 7.27229 20.1867 6.63479 19.793 6.11447C19.8773 5.83322 19.9195 5.5426 19.9195 5.24728C19.9195 4.03791 19.2 2.94807 18.0844 2.47229C17.8883 2.38774 17.6768 2.34465 17.4633 2.34572H3.375C2.96016 2.34572 2.625 2.68088 2.625 3.09572V11.627C2.625 12.0418 2.96016 12.377 3.375 12.377H6.40547L8.41641 19.6613C8.73984 20.8356 9.81797 21.6559 11.0367 21.6559C11.7328 21.6559 12.382 21.3793 12.8625 20.8731C13.343 20.3692 13.5891 19.7082 13.5539 19.0121L13.4133 16.1317H19.0359C19.3195 16.1317 19.5961 16.0567 19.8398 15.9137C20.7867 15.3629 21.375 14.3645 21.375 13.3121C21.375 12.6488 21.157 12.0113 20.7633 11.491ZM4.3125 10.6871V4.03088H6.21094V10.6871H4.3125ZM19.0125 14.4465H11.6437L11.8687 19.0965C11.8828 19.3754 11.7586 19.6379 11.5266 19.8113C11.3836 19.9168 11.2078 19.9707 11.032 19.9684C10.8075 19.9662 10.5896 19.8912 10.4113 19.7547C10.233 19.6182 10.1037 19.4276 10.043 19.2113L7.71094 10.7621V4.03088H17.4469C17.6811 4.13587 17.8801 4.30631 18.0198 4.52169C18.1595 4.73707 18.234 4.98822 18.2344 5.24494C18.2344 5.47229 18.1805 5.68791 18.0727 5.88479L17.7469 6.4801L18.2602 6.92541C18.4046 7.05054 18.5204 7.20533 18.5997 7.37924C18.679 7.55315 18.7199 7.7421 18.7195 7.93322C18.7195 8.16057 18.6656 8.37619 18.5578 8.57307L18.232 9.16838L18.7453 9.61369C18.8898 9.73882 19.0056 9.89361 19.0849 10.0675C19.1641 10.2414 19.205 10.4304 19.2047 10.6215C19.2047 10.8488 19.1508 11.0645 19.043 11.2613L18.7148 11.859L19.2281 12.3043C19.3726 12.4294 19.4884 12.5842 19.5677 12.7581C19.647 12.9321 19.6878 13.121 19.6875 13.3121C19.6875 13.7598 19.4297 14.191 19.0125 14.4465Z" fill="black"/>
</g>
</svg>
