<svg width="24" height="24" viewBox="0 0 24 24" fill="none" xmlns="http://www.w3.org/2000/svg">
<g id="icon/outlined/directional/double-left">
<path id="Vector" d="M6.39569 12L12.616 4.05234C12.7121 3.93047 12.6254 3.75 12.4683 3.75H10.6566C10.5418 3.75 10.4316 3.80391 10.3613 3.89297L4.37773 11.5383C4.2741 11.6703 4.21777 11.8333 4.21777 12.0012C4.21777 12.169 4.2741 12.332 4.37773 12.4641L10.3613 20.107C10.4316 20.1984 10.5418 20.25 10.6566 20.25H12.4683C12.6254 20.25 12.7121 20.0695 12.616 19.9477L6.39569 12ZM13.5207 12L19.741 4.05234C19.8371 3.93047 19.7504 3.75 19.5933 3.75H17.7816C17.6668 3.75 17.5566 3.80391 17.4863 3.89297L11.5027 11.5383C11.3991 11.6703 11.3428 11.8333 11.3428 12.0012C11.3428 12.169 11.3991 12.332 11.5027 12.4641L17.4863 20.107C17.5566 20.1984 17.6668 20.25 17.7816 20.25H19.5933C19.7504 20.25 19.8371 20.0695 19.741 19.9477L13.5207 12Z" fill="black"/>
</g>
</svg>
