<svg width="24" height="24" viewBox="0 0 24 24" fill="none" xmlns="http://www.w3.org/2000/svg">
<g id="icon/outlined/directional/down-square">
<path id="Vector" d="M11.848 15.4383C11.923 15.5414 12.0753 15.5414 12.1503 15.4383L16.3222 9.67266C16.4112 9.54844 16.3222 9.375 16.1698 9.375H15.0706C14.8315 9.375 14.6042 9.48984 14.4636 9.68438L12.0003 13.0922L9.53467 9.68438C9.39405 9.48984 9.16905 9.375 8.92764 9.375H7.82842C7.67608 9.375 7.58702 9.54844 7.67608 9.67266L11.848 15.4383Z" fill="black"/>
<path id="Vector_2" d="M20.625 2.625H3.375C2.96016 2.625 2.625 2.96016 2.625 3.375V20.625C2.625 21.0398 2.96016 21.375 3.375 21.375H20.625C21.0398 21.375 21.375 21.0398 21.375 20.625V3.375C21.375 2.96016 21.0398 2.625 20.625 2.625ZM19.6875 19.6875H4.3125V4.3125H19.6875V19.6875Z" fill="black"/>
</g>
</svg>
