<svg width="24" height="24" viewBox="0 0 24 24" fill="none" xmlns="http://www.w3.org/2000/svg">
<g id="icon/outlined/directional/down-circle">
<path id="Vector" d="M16.1722 9.49219H15.073C14.8339 9.49219 14.6066 9.60703 14.4659 9.80156L12.0003 13.2094L9.53468 9.80156C9.39405 9.60703 9.16905 9.49219 8.92764 9.49219H7.82842C7.67608 9.49219 7.58702 9.66563 7.67608 9.78984L11.848 15.5555C11.923 15.6586 12.0753 15.6586 12.1503 15.5555L16.3222 9.78984C16.4136 9.66563 16.3245 9.49219 16.1722 9.49219Z" fill="black"/>
<path id="Vector_2" d="M12 1.5C6.20156 1.5 1.5 6.20156 1.5 12C1.5 17.7984 6.20156 22.5 12 22.5C17.7984 22.5 22.5 17.7984 22.5 12C22.5 6.20156 17.7984 1.5 12 1.5ZM12 20.7188C7.18594 20.7188 3.28125 16.8141 3.28125 12C3.28125 7.18594 7.18594 3.28125 12 3.28125C16.8141 3.28125 20.7188 7.18594 20.7188 12C20.7188 16.8141 16.8141 20.7188 12 20.7188Z" fill="black"/>
</g>
</svg>
