<svg width="24" height="24" viewBox="0 0 24 24" fill="none" xmlns="http://www.w3.org/2000/svg">
<g id="icon/outlined/editor/drag">
<path id="Vector" d="M21.3115 11.8662L18.3209 9.50604C18.2959 9.48636 18.2658 9.47413 18.2341 9.47074C18.2025 9.46735 18.1705 9.47295 18.1419 9.48689C18.1133 9.50084 18.0892 9.52256 18.0723 9.54957C18.0555 9.57659 18.0466 9.6078 18.0467 9.63964V11.156H12.8435V5.95292H14.3623C14.5029 5.95292 14.5826 5.78886 14.4959 5.6787L12.1334 2.68808C12.1178 2.66784 12.0977 2.65145 12.0747 2.64018C12.0518 2.62891 12.0265 2.62305 12.001 2.62305C11.9754 2.62305 11.9502 2.62891 11.9272 2.64018C11.9042 2.65145 11.8842 2.66784 11.8685 2.68808L9.50604 5.6787C9.48636 5.70372 9.47413 5.73378 9.47074 5.76544C9.46735 5.79709 9.47295 5.82906 9.48689 5.85768C9.50084 5.8863 9.52256 5.91042 9.54957 5.92726C9.57659 5.9441 9.6078 5.953 9.63964 5.95292H11.156V11.156H5.95292V9.63729C5.95292 9.49667 5.78886 9.41698 5.6787 9.5037L2.68808 11.8662C2.66784 11.8818 2.65145 11.9019 2.64018 11.9249C2.62891 11.9478 2.62305 11.973 2.62305 11.9986C2.62305 12.0242 2.62891 12.0494 2.64018 12.0724C2.65145 12.0953 2.66784 12.1154 2.68808 12.131L5.67636 14.4935C5.78651 14.5803 5.95058 14.5029 5.95058 14.36V12.8435H11.1537V18.0467H9.63495C9.49433 18.0467 9.41464 18.2107 9.50136 18.3209L11.8639 21.3092C11.9318 21.3959 12.0631 21.3959 12.1287 21.3092L14.4912 18.3209C14.5779 18.2107 14.5006 18.0467 14.3576 18.0467H12.8435V12.8435H18.0467V14.3623C18.0467 14.5029 18.2107 14.5826 18.3209 14.4959L21.3092 12.1334C21.3293 12.1175 21.3457 12.0973 21.357 12.0743C21.3683 12.0513 21.3743 12.026 21.3745 12.0004C21.3748 11.9747 21.3692 11.9493 21.3583 11.9261C21.3474 11.9029 21.3314 11.8824 21.3115 11.8662Z" fill="black"/>
</g>
</svg>
