<svg width="24" height="24" viewBox="0 0 24 24" fill="none" xmlns="http://www.w3.org/2000/svg">
<g id="icon/outlined/application/eye-invisible">
<path id="Vector" d="M22.0832 11.3957C21.2593 9.65996 20.2788 8.24434 19.1418 7.14887L17.9493 8.34137C18.9217 9.27067 19.7687 10.4864 20.5012 12.0004C18.5512 16.0364 15.7832 17.9536 12.0004 17.9536C10.8649 17.9536 9.81905 17.7787 8.8628 17.429L7.57069 18.7211C8.89882 19.3344 10.3754 19.6411 12.0004 19.6411C16.5051 19.6411 19.866 17.295 22.0832 12.6028C22.1723 12.4141 22.2186 12.208 22.2186 11.9993C22.2186 11.7906 22.1723 11.5845 22.0832 11.3957ZM20.5933 3.88074L19.5941 2.88043C19.5767 2.863 19.556 2.84917 19.5333 2.83973C19.5105 2.8303 19.4861 2.82544 19.4615 2.82544C19.4368 2.82544 19.4124 2.8303 19.3897 2.83973C19.3669 2.84917 19.3462 2.863 19.3288 2.88043L16.7655 5.44262C15.3522 4.72074 13.7638 4.35981 12.0004 4.35981C7.49569 4.35981 4.13475 6.7059 1.91757 11.3981C1.82845 11.5868 1.78223 11.7929 1.78223 12.0016C1.78223 12.2103 1.82845 12.4164 1.91757 12.6051C2.80335 14.4707 3.86975 15.9661 5.11679 17.0913L2.63663 19.5707C2.60149 19.6059 2.58176 19.6536 2.58176 19.7033C2.58176 19.753 2.60149 19.8007 2.63663 19.8358L3.63718 20.8364C3.67234 20.8715 3.72001 20.8912 3.76972 20.8912C3.81942 20.8912 3.86709 20.8715 3.90225 20.8364L20.5933 4.14606C20.6107 4.12864 20.6245 4.10796 20.634 4.0852C20.6434 4.06244 20.6483 4.03804 20.6483 4.0134C20.6483 3.98876 20.6434 3.96436 20.634 3.9416C20.6245 3.91884 20.6107 3.89816 20.5933 3.88074ZM3.4996 12.0004C5.45194 7.96449 8.21991 6.04731 12.0004 6.04731C13.2787 6.04731 14.4409 6.26668 15.4954 6.7127L13.8477 8.36035C13.0674 7.94402 12.174 7.7895 11.2991 7.9196C10.4243 8.0497 9.6145 8.45752 8.98911 9.08291C8.36372 9.7083 7.9559 10.5181 7.8258 11.3929C7.6957 12.2678 7.85022 13.1612 8.26655 13.9415L6.31139 15.8967C5.22929 14.9416 4.29647 13.6476 3.4996 12.0004ZM9.28163 12.0004C9.28204 11.5871 9.37993 11.1798 9.56736 10.8114C9.75478 10.4431 10.0265 10.1242 10.3603 9.88053C10.6941 9.63691 11.0807 9.47547 11.4887 9.40933C11.8967 9.34319 12.3145 9.37421 12.7082 9.49988L9.40608 12.802C9.32332 12.5429 9.28133 12.2725 9.28163 12.0004Z" fill="black"/>
<path id="Vector_2" d="M11.9059 14.6252C11.8248 14.6252 11.7449 14.6214 11.6657 14.6142L10.4277 15.8521C11.1723 16.1373 11.9836 16.2006 12.7634 16.0346C13.5432 15.8685 14.2583 15.4801 14.822 14.9163C15.3858 14.3525 15.7742 13.6375 15.9403 12.8576C16.1064 12.0778 16.043 11.2666 15.7579 10.522L14.5199 11.7599C14.5272 11.8392 14.5309 11.9191 14.5309 12.0002C14.5311 12.3449 14.4633 12.6864 14.3315 13.0049C14.1996 13.3235 14.0063 13.6129 13.7625 13.8567C13.5187 14.1005 13.2293 14.2939 12.9107 14.4257C12.5921 14.5576 12.2507 14.6253 11.9059 14.6252Z" fill="black"/>
</g>
</svg>
