<svg width="24" height="24" viewBox="0 0 24 24" fill="none" xmlns="http://www.w3.org/2000/svg">
<g id="icon/outlined/data/fall">
<path id="Vector" d="M21.7004 18.8436L21.1379 14.1748C21.1191 14.0201 20.9293 13.9545 20.8191 14.0647L19.4293 15.4569L13.0707 9.10061C12.923 8.9553 12.6863 8.9553 12.541 9.10061L10.1551 11.4842L3.6699 4.99905C3.63466 4.96415 3.58707 4.94458 3.53748 4.94458C3.48788 4.94458 3.44029 4.96415 3.40505 4.99905L2.35037 6.05842C2.31547 6.09366 2.2959 6.14125 2.2959 6.19085C2.2959 6.24044 2.31547 6.28803 2.35037 6.32327L9.89021 13.8678C10.0355 14.0155 10.2746 14.0155 10.4199 13.8678L12.8058 11.4842L18.1051 16.7811L16.7152 18.1709C16.6904 18.1958 16.6731 18.2272 16.6653 18.2614C16.6574 18.2957 16.6594 18.3315 16.6708 18.3647C16.6823 18.3979 16.7029 18.4272 16.7302 18.4493C16.7575 18.4714 16.7905 18.4854 16.8254 18.4897L21.4941 19.0522C21.6136 19.0686 21.7168 18.9655 21.7004 18.8436Z" fill="black"/>
</g>
</svg>
