<svg width="24" height="24" viewBox="0 0 24 24" fill="none" xmlns="http://www.w3.org/2000/svg">
<g id="icon/outlined/application/file-excel2">
<path id="Vector" d="M20.0297 6.76406L14.9859 1.72031C14.8453 1.57969 14.6555 1.5 14.4562 1.5H4.5C4.08516 1.5 3.75 1.83516 3.75 2.25V21.75C3.75 22.1648 4.08516 22.5 4.5 22.5H19.5C19.9148 22.5 20.25 22.1648 20.25 21.75V7.29609C20.25 7.09687 20.1703 6.90469 20.0297 6.76406ZM18.5203 7.64062H14.1094V3.22969L18.5203 7.64062ZM18.5625 20.8125H5.4375V3.1875H12.5156V8.25C12.5156 8.51107 12.6193 8.76145 12.8039 8.94606C12.9885 9.13066 13.2389 9.23438 13.5 9.23438H18.5625V20.8125Z" fill="black"/>
<path id="Vector_2" d="M8.73543 17.4892L9.89826 15.7113C10.2263 15.2101 9.18986 14.7254 8.93155 15.1833L7.99985 16.7339L7.06815 15.1833C6.80947 14.7254 5.7729 15.2104 6.10145 15.7113L7.26433 17.4892L6.05244 19.2737C5.76679 19.7282 6.72969 20.2458 6.97712 19.8686L7.99991 18.211L9.0227 19.8686C9.24562 20.2466 10.2372 19.7345 9.94737 19.2737L8.73543 17.4892Z" fill="black"/>
<path id="Vector_3" d="M13.6772 19.0724H12.0876V15.3349C12.0876 14.8884 11 14.8883 11 15.3349V19.6726C11 19.9139 11.2716 20 11.4741 20H13.6772C14.1076 20 14.1076 19.0724 13.6772 19.0724Z" fill="black"/>
<path id="Vector_4" d="M17.2314 17.3342C16.9413 17.1074 16.6138 16.9249 16.2794 16.7864C15.6474 16.5248 15.672 15.8878 16.3914 15.8878C16.7894 15.8878 17.5104 16.4463 17.6095 15.7191C17.6841 15.1718 17.1263 15.046 16.7305 14.9998C16.2221 14.9406 15.6932 15.0082 15.2651 15.33C14.7494 15.7175 14.6485 16.5905 15.0007 17.1372C15.2602 17.5406 15.6716 17.7372 16.0771 17.9289C16.3452 18.0559 16.8299 18.2915 16.7609 18.6878C16.6614 19.2592 15.8014 19.079 15.5296 18.8008C14.8782 18.1363 14.3569 19.239 15.1344 19.7027C15.7679 20.0807 16.7357 20.1017 17.3123 19.5862C17.9267 19.0369 17.8755 17.8381 17.2314 17.3342Z" fill="black"/>
</g>
</svg>
