<svg width="24" height="24" viewBox="0 0 24 24" fill="none" xmlns="http://www.w3.org/2000/svg">
<g id="icon/outlined/application/fire">
<path id="Vector" d="M19.5492 10.9974C19.0942 9.9733 18.4328 9.05413 17.6063 8.29738L16.9242 7.6716C16.9011 7.65094 16.8732 7.63627 16.843 7.62889C16.8129 7.62152 16.7814 7.62165 16.7513 7.62929C16.7212 7.63693 16.6935 7.65183 16.6705 7.67269C16.6475 7.69356 16.63 7.71974 16.6195 7.74895L16.3148 8.62317C16.125 9.1716 15.7758 9.73176 15.2812 10.2825C15.2484 10.3177 15.2109 10.3271 15.1852 10.3294C15.1594 10.3318 15.1195 10.3271 15.0844 10.2943C15.0516 10.2661 15.0352 10.2239 15.0375 10.1818C15.1242 8.77082 14.7023 7.17942 13.7789 5.44738C13.0148 4.00832 11.9531 2.88567 10.6266 2.10285L9.65859 1.53332C9.53203 1.45832 9.37031 1.55676 9.37734 1.70442L9.42891 2.82942C9.46406 3.59817 9.375 4.27785 9.16406 4.8427C8.90625 5.5341 8.53594 6.17629 8.0625 6.75285C7.73302 7.15355 7.35959 7.51598 6.94922 7.83332C5.96087 8.59309 5.15722 9.5666 4.59844 10.681C4.04103 11.8051 3.75068 13.0427 3.75 14.2974C3.75 15.4036 3.96797 16.4747 4.39922 17.4849C4.81562 18.4575 5.41654 19.3401 6.16875 20.0841C6.92813 20.8341 7.80938 21.4247 8.79141 21.8349C9.80859 22.2614 10.8867 22.4771 12 22.4771C13.1133 22.4771 14.1914 22.2614 15.2086 21.8372C16.1882 21.4295 17.079 20.8348 17.8312 20.0864C18.5906 19.3364 19.1859 18.4599 19.6008 17.4872C20.0314 16.4798 20.2523 15.3953 20.25 14.2997C20.25 13.156 20.0156 12.045 19.5492 10.9974ZM16.7109 18.9497C15.4523 20.1966 13.7812 20.881 12 20.881C10.2188 20.881 8.54766 20.1966 7.28906 18.9497C6.03516 17.7052 5.34375 16.0552 5.34375 14.2997C5.34375 13.2802 5.57344 12.3029 6.02578 11.3935C6.46641 10.5052 7.12266 9.71067 7.91953 9.09895C8.42775 8.71034 8.8887 8.26354 9.29297 7.7677C9.87891 7.05285 10.3383 6.25598 10.657 5.40051C10.7878 5.04763 10.8828 4.68252 10.9406 4.31067C11.5055 4.83098 11.9789 5.4591 12.375 6.19504C13.1578 7.66223 13.5187 8.9677 13.4484 10.0786C13.4316 10.3403 13.4744 10.6023 13.5734 10.8451C13.6725 11.0878 13.8253 11.305 14.0203 11.4802C14.1893 11.6329 14.387 11.7505 14.6019 11.8261C14.8167 11.9017 15.0445 11.9339 15.2719 11.9208C15.7336 11.8974 16.1578 11.6935 16.4672 11.3489C16.7789 10.9997 17.0484 10.6435 17.2734 10.2802C17.6016 10.6997 17.8758 11.1568 18.0938 11.6489C18.4664 12.488 18.6562 13.381 18.6562 14.2997C18.6562 16.0552 17.9648 17.7075 16.7109 18.9497Z" fill="black"/>
</g>
</svg>
