<svg width="24" height="24" viewBox="0 0 24 24" fill="none" xmlns="http://www.w3.org/2000/svg">
<g id="icon/outlined/directional/fullscreen-exit">
<path id="Vector" d="M9.16463 5.64544C9.14587 5.49075 8.95603 5.42512 8.84587 5.53528L7.82166 6.5595L4.68806 3.42825C4.65282 3.39335 4.60523 3.37378 4.55564 3.37378C4.50605 3.37378 4.45846 3.39335 4.42322 3.42825L3.42947 4.41965C3.39457 4.45489 3.375 4.50248 3.375 4.55208C3.375 4.60167 3.39457 4.64926 3.42947 4.6845L6.56306 7.81809L5.53416 8.847C5.50937 8.8719 5.49208 8.90327 5.48423 8.93752C5.47639 8.97177 5.47832 9.00753 5.48979 9.04074C5.50127 9.07395 5.52184 9.10327 5.54915 9.12537C5.57647 9.14747 5.60944 9.16146 5.64431 9.16575L9.399 9.60872C9.51853 9.62278 9.62166 9.522 9.60759 9.40012L9.16463 5.64544ZM9.40134 14.3923L5.64431 14.8353C5.48963 14.854 5.424 15.0439 5.53416 15.154L6.56306 16.1829L3.42947 19.3118C3.39457 19.3471 3.375 19.3947 3.375 19.4443C3.375 19.4939 3.39457 19.5414 3.42947 19.5767L4.42322 20.5681C4.49588 20.6407 4.61541 20.6407 4.68806 20.5681L7.82166 17.4368L8.84587 18.4611C8.87078 18.4858 8.90214 18.5031 8.93639 18.511C8.97064 18.5188 9.00641 18.5169 9.03962 18.5054C9.07282 18.4939 9.10215 18.4734 9.12425 18.4461C9.14635 18.4187 9.16034 18.3858 9.16463 18.3509L9.60759 14.5986C9.62166 14.479 9.52088 14.3782 9.40134 14.3923ZM14.5998 9.60637L18.3568 9.1634C18.5115 9.14465 18.5771 8.95481 18.467 8.84465L17.4381 7.81809L20.5717 4.68684C20.6443 4.61419 20.6443 4.49465 20.5717 4.422L19.5779 3.43059C19.5427 3.3957 19.4951 3.37612 19.4455 3.37612C19.3959 3.37612 19.3483 3.3957 19.3131 3.43059L16.1795 6.5595L15.1552 5.53528C15.1303 5.5105 15.099 5.4932 15.0647 5.48536C15.0305 5.47751 14.9947 5.47944 14.9615 5.49092C14.9283 5.50239 14.899 5.52296 14.8769 5.55028C14.8548 5.57759 14.8408 5.61056 14.8365 5.64544L14.3935 9.39778C14.3795 9.51965 14.4803 9.62044 14.5998 9.60637ZM17.4381 16.1806L18.467 15.1517C18.4918 15.1268 18.509 15.0954 18.5169 15.0612C18.5247 15.0269 18.5228 14.9912 18.5113 14.9579C18.4999 14.9247 18.4793 14.8954 18.452 14.8733C18.4247 14.8512 18.3917 14.8372 18.3568 14.8329L14.6021 14.39C14.4826 14.3759 14.3795 14.4767 14.3935 14.5986L14.8365 18.3532C14.8552 18.5079 15.0451 18.5736 15.1552 18.4634L16.1795 17.4392L19.3131 20.5704C19.3857 20.6431 19.5052 20.6431 19.5779 20.5704L20.5717 19.579C20.6443 19.5064 20.6443 19.3868 20.5717 19.3142L17.4381 16.1806Z" fill="black"/>
</g>
</svg>
