<svg width="24" height="24" viewBox="0 0 24 24" fill="none" xmlns="http://www.w3.org/2000/svg">
<g id="icon/outlined/brand-and-logos/gitlab">
<path id="Vector" d="M21.4193 12.9425L18.8669 4.25186V4.24951C18.6888 3.71279 18.2646 3.39404 17.7349 3.39404C17.1865 3.39404 16.7388 3.71045 16.5701 4.21904L14.8966 9.21123H9.11225L7.43881 4.21904C7.27006 3.71045 6.8224 3.39404 6.27397 3.39404C5.73256 3.39404 5.27787 3.74092 5.13959 4.25186L2.58959 12.9425C2.48647 13.287 2.61772 13.6784 2.906 13.8964L11.5427 20.3745C11.6037 20.4589 11.688 20.5222 11.7865 20.5573L11.988 20.7073L12.1872 20.5573C12.3021 20.5175 12.3982 20.4472 12.4662 20.3487L21.1005 13.894C21.3912 13.6784 21.5224 13.287 21.4193 12.9425ZM17.6177 4.53311C17.6412 4.49092 17.6857 4.48857 17.6997 4.48857C17.7255 4.48857 17.7583 4.49561 17.7794 4.55889L19.1716 9.2417H16.0427L17.6177 4.53311ZM6.19428 4.55654C6.21537 4.49561 6.24818 4.48857 6.27397 4.48857C6.33725 4.48857 6.34193 4.49092 6.35365 4.52842L7.931 9.24404H4.83959L6.19428 4.55654ZM3.72162 13.0948L4.38256 10.8144L9.12631 17.1472L3.72162 13.0948ZM5.45365 10.3667H8.31537L10.4435 17.03L5.45365 10.3667ZM12.0208 18.1878L9.50834 10.3667H14.531L12.0208 18.1878ZM15.7216 10.3667H18.5224L13.5935 16.9479L15.7216 10.3667ZM14.7677 17.255L19.6263 10.7698L20.3177 13.0948L14.7677 17.255Z" fill="black"/>
</g>
</svg>
