<svg width="24" height="24" viewBox="0 0 24 24" fill="none" xmlns="http://www.w3.org/2000/svg">
<g id="icon/outlined/brand-and-logos/google-plus">
<path id="Vector" d="M20.6133 11.0254C20.6063 10.3925 20.6039 9.75504 20.6016 9.11988H18.7079C18.7008 9.75269 18.6961 10.3879 18.6914 11.0254C18.0539 11.0277 17.4211 11.0324 16.7883 11.0394V12.9355C17.4211 12.9425 18.0586 12.9472 18.6914 12.9543C18.6985 13.5871 18.6985 14.2222 18.7032 14.855H20.5993C20.6016 14.2222 20.6063 13.5871 20.611 12.9496C21.2485 12.9425 21.8813 12.9402 22.5141 12.9332V11.0371C21.8836 11.0324 21.2461 11.0324 20.6133 11.0254ZM8.19145 11.0347C8.1891 11.7918 8.19145 12.5511 8.19379 13.3082C9.4641 13.3504 10.7368 13.3316 12.0071 13.3504C11.4469 16.1699 7.61488 17.0839 5.58754 15.2418C3.5016 13.6269 3.60004 10.0855 5.76801 8.58551C7.28441 7.37613 9.43832 7.67379 10.9547 8.72144C11.55 8.17066 12.1079 7.58004 12.6446 6.97066C11.3836 5.96519 9.83676 5.24801 8.19145 5.32301C4.75551 5.20816 1.59848 8.21754 1.54223 11.6558C1.32191 14.466 3.16879 17.2199 5.77504 18.2136C8.37191 19.2144 11.7024 18.5324 13.3618 16.198C14.4563 14.7238 14.693 12.8254 14.5641 11.0418C12.4383 11.0254 10.3149 11.0277 8.19145 11.0347Z" fill="black"/>
</g>
</svg>
