<svg width="24" height="24" viewBox="0 0 24 24" fill="none" xmlns="http://www.w3.org/2000/svg">
<g id="icon/outlined/data/heat-map">
<path id="Vector" d="M22.3988 20.0625L12.6488 3.1875C12.5035 2.93672 12.2527 2.8125 11.9996 2.8125C11.7465 2.8125 11.4934 2.93672 11.3504 3.1875L1.6004 20.0625C1.31212 20.5641 1.67305 21.1875 2.24962 21.1875H21.7496C22.3262 21.1875 22.6871 20.5641 22.3988 20.0625ZM3.87384 19.5023L11.9996 5.43516L20.1254 19.5H3.87384V19.5023ZM11.3504 8.39062L6.00665 17.625C5.71837 18.1242 6.0793 18.75 6.65587 18.75H17.3387C17.9176 18.75 18.2785 18.1242 17.9879 17.625L12.6488 8.39062C12.5035 8.13984 12.2504 8.01562 11.9996 8.01562C11.7465 8.01562 11.4934 8.13984 11.3504 8.39062ZM16.366 17.4375H7.63321L11.9996 9.89062L16.366 17.4375ZM11.3504 12.8883L10.0145 15.1945C9.72618 15.6914 10.0871 16.3125 10.6637 16.3125H13.3356C13.9121 16.3125 14.2707 15.6914 13.9848 15.1945L12.6488 12.8883C12.5059 12.6398 12.2527 12.5156 11.9996 12.5156C11.7465 12.5156 11.4957 12.6398 11.3504 12.8883ZM12.6887 15.1945H11.3129L12.002 14.0062L12.6887 15.1945Z" fill="black"/>
</g>
</svg>
