<svg width="24" height="24" viewBox="0 0 24 24" fill="none" xmlns="http://www.w3.org/2000/svg">
<g id="icon/outlined/application/history">
<path id="Vector" d="M12.5644 6.39844H11.437C11.3339 6.39844 11.2495 6.48282 11.2495 6.58594V13.0383C11.2495 13.0992 11.2777 13.1555 11.3269 13.1906L15.2011 16.0195C15.2855 16.0805 15.4027 16.0641 15.4636 15.9797L16.1339 15.0656C16.1972 14.9789 16.1784 14.8617 16.0941 14.8031L12.7519 12.3867V6.58594C12.7519 6.48282 12.6675 6.39844 12.5644 6.39844ZM17.716 8.16094L21.3909 9.0586C21.5081 9.08672 21.623 8.99766 21.623 8.87813L21.6417 5.09297C21.6417 4.93594 21.4613 4.84688 21.3394 4.94532L17.6456 7.83047C17.6177 7.85207 17.5965 7.8811 17.5843 7.91424C17.5722 7.94738 17.5696 7.98327 17.577 8.0178C17.5843 8.05232 17.6013 8.08407 17.6258 8.10939C17.6504 8.13471 17.6817 8.15258 17.716 8.16094ZM21.6464 15.218L20.3175 14.7609C20.2712 14.7451 20.2205 14.7479 20.1762 14.769C20.132 14.79 20.0977 14.8275 20.0808 14.8734C20.0363 14.993 19.9894 15.1102 19.9402 15.2273C19.523 16.2141 18.9253 17.1023 18.1613 17.8641C17.4057 18.622 16.5102 19.2261 15.5245 19.643C14.5034 20.0747 13.4058 20.2963 12.2972 20.2945C11.1769 20.2945 10.0917 20.0766 9.06986 19.643C8.08417 19.2261 7.18872 18.622 6.43314 17.8641C5.67142 17.1023 5.07376 16.2141 4.65423 15.2273C4.2249 14.2057 4.00493 13.1082 4.00736 12C4.00736 10.8797 4.22533 9.79219 4.65892 8.77032C5.07611 7.7836 5.67376 6.89532 6.43783 6.1336C7.1934 5.37567 8.08886 4.77154 9.07454 4.35469C10.0917 3.9211 11.1792 3.70313 12.2995 3.70313C13.4199 3.70313 14.505 3.9211 15.5269 4.35469C16.5126 4.77154 17.408 5.37567 18.1636 6.1336C18.4027 6.375 18.6277 6.62578 18.8339 6.89063L20.2355 5.79375C18.3909 3.43594 15.5199 1.91953 12.2949 1.92188C6.67923 1.92422 2.16986 6.48516 2.22611 12.1031C2.28236 17.6227 6.77064 22.0781 12.2995 22.0781C16.6472 22.0781 20.3503 19.3219 21.7613 15.4617C21.7964 15.3633 21.7449 15.2531 21.6464 15.218Z" fill="black"/>
</g>
</svg>
