<svg width="24" height="24" viewBox="0 0 24 24" fill="none" xmlns="http://www.w3.org/2000/svg">
<g id="icon/outlined/application/home">
<path id="Vector" d="M22.1839 11.8362L13.1276 2.78468L12.5206 2.17765C12.3823 2.04025 12.1952 1.96313 12.0003 1.96313C11.8053 1.96313 11.6183 2.04025 11.48 2.17765L1.8167 11.8362C1.67497 11.9774 1.56297 12.1455 1.48729 12.3307C1.41161 12.5159 1.3738 12.7143 1.37607 12.9144C1.38545 13.7394 2.07217 14.398 2.89717 14.398H3.89326V22.0316H20.1073V14.398H21.1245C21.5253 14.398 21.9026 14.2409 22.1862 13.9573C22.3259 13.8181 22.4365 13.6526 22.5117 13.4704C22.587 13.2881 22.6253 13.0928 22.6245 12.8956C22.6245 12.4972 22.4675 12.1198 22.1839 11.8362ZM13.3128 20.3441H10.6878V15.5628H13.3128V20.3441ZM18.4198 12.7105V20.3441H14.8128V15.0003C14.8128 14.4823 14.3933 14.0628 13.8753 14.0628H10.1253C9.60732 14.0628 9.18779 14.4823 9.18779 15.0003V20.3441H5.58076V12.7105H3.33076L12.0026 4.04562L12.544 4.58702L20.6722 12.7105H18.4198Z" fill="black"/>
</g>
</svg>
