<svg width="24" height="24" viewBox="0 0 24 24" fill="none" xmlns="http://www.w3.org/2000/svg">
<g id="icon/outlined/brand-and-logos/ie">
<path id="Vector" d="M19.9828 8.61576C20.3648 7.75091 20.7352 6.48998 20.7352 5.52669C20.7352 2.96966 17.9344 2.06732 13.3641 4.16966C9.58125 3.91654 5.93906 6.75951 5.02969 10.7251C6.11484 9.49935 7.78125 7.83294 9.31875 7.16966C7.40859 8.86654 5.78203 11.0158 4.54688 13.2564C3.81797 14.59 3 16.7439 3 18.354C3 21.8204 6.26484 21.3962 9.3375 19.8306C10.4414 20.372 11.6766 20.379 12.9117 20.379C16.3266 20.379 19.3898 18.4712 20.5336 15.2462H16.2867C14.4398 18.3611 9.36797 17.1095 9.36797 13.5775H20.9273C21.1523 12.0447 20.8687 10.2119 19.9828 8.61576ZM5.26875 15.1947C5.89219 16.9923 7.15781 18.565 8.79375 19.5306C5.67422 21.2509 2.70234 20.5525 5.26875 15.1947ZM9.34687 11.3673C9.41719 9.42904 11.1141 8.03216 13.0031 8.03216C14.8805 8.03216 16.5891 9.42904 16.6594 11.3673H9.34687ZM15.8344 4.77201C16.5867 4.41107 17.5406 3.99857 18.3844 3.99857C19.4883 3.99857 20.2922 4.76263 20.2922 5.88763C20.2922 6.59076 20.032 7.61029 19.7789 8.27357C18.8578 6.78529 17.4609 5.40482 15.8344 4.77201Z" fill="black"/>
</g>
</svg>
