<svg width="24" height="24" viewBox="0 0 24 24" fill="none" xmlns="http://www.w3.org/2000/svg">
<g id="icon/outlined/application/inbox">
<path id="Vector" d="M20.7465 10.4599L20.7418 10.4411L18.1121 3.75908C17.9949 3.38174 17.6457 3.12158 17.2496 3.12158H6.59022C6.19178 3.12158 5.83787 3.38643 5.72537 3.76846L3.26678 10.3825L3.25975 10.3989L3.25506 10.4177C3.22459 10.5325 3.21521 10.6497 3.23162 10.7645C3.22928 10.802 3.22693 10.8396 3.22693 10.8771V19.4528C3.22755 19.8306 3.37789 20.1927 3.64499 20.4598C3.9121 20.7269 4.27419 20.8772 4.65193 20.8778H19.3519C20.1371 20.8778 20.7769 20.238 20.7793 19.4528V10.8771C20.7793 10.8466 20.7793 10.8161 20.7769 10.7903C20.7863 10.6755 20.7769 10.5653 20.7465 10.4599ZM13.8137 9.45205L13.8066 9.82002C13.7879 10.8724 13.0613 11.5802 11.9996 11.5802C11.4816 11.5802 11.0363 11.4138 10.7152 11.0974C10.3941 10.781 10.2183 10.3403 10.209 9.82002L10.2019 9.45205H5.3785L7.24178 4.92158H16.598L18.5129 9.45205H13.8137ZM5.02459 11.2521H8.71131C9.28084 12.5903 10.4926 13.3802 12.0019 13.3802C12.7918 13.3802 13.5254 13.1599 14.1183 12.7427C14.6387 12.3771 15.0441 11.8661 15.3066 11.2521H18.9746V19.0778H5.02459V11.2521Z" fill="black"/>
</g>
</svg>
