<svg width="24" height="24" viewBox="0 0 24 24" fill="none" xmlns="http://www.w3.org/2000/svg">
<g id="icon/outlined/directional/left-square">
<path id="Vector" d="M8.56174 12.1514L14.3274 16.3233C14.4516 16.4124 14.625 16.3233 14.625 16.171V15.0717C14.625 14.8327 14.5102 14.6053 14.3156 14.4647L10.9078 11.9991L14.3156 9.53345C14.5102 9.39283 14.625 9.16783 14.625 8.92642V7.8272C14.625 7.67486 14.4516 7.58579 14.3274 7.67486L8.56174 11.8467C8.53777 11.8642 8.51827 11.8872 8.50482 11.9136C8.49138 11.9401 8.48438 11.9694 8.48438 11.9991C8.48438 12.0288 8.49138 12.058 8.50482 12.0845C8.51827 12.111 8.53777 12.1339 8.56174 12.1514Z" fill="black"/>
<path id="Vector_2" d="M20.625 2.625H3.375C2.96016 2.625 2.625 2.96016 2.625 3.375V20.625C2.625 21.0398 2.96016 21.375 3.375 21.375H20.625C21.0398 21.375 21.375 21.0398 21.375 20.625V3.375C21.375 2.96016 21.0398 2.625 20.625 2.625ZM19.6875 19.6875H4.3125V4.3125H19.6875V19.6875Z" fill="black"/>
</g>
</svg>
