<svg width="24" height="24" viewBox="0 0 24 24" fill="none" xmlns="http://www.w3.org/2000/svg">
<g id="icon/outlined/directional/left-circle">
<path id="Vector" d="M14.1389 7.67486L8.3733 11.8467C8.34934 11.864 8.32983 11.8867 8.31637 11.913C8.30292 11.9393 8.2959 11.9684 8.2959 11.9979C8.2959 12.0274 8.30292 12.0565 8.31637 12.0828C8.32983 12.1091 8.34934 12.1318 8.3733 12.1491L14.1389 16.321C14.2631 16.41 14.4366 16.321 14.4366 16.1686V15.0694C14.4366 14.8303 14.3217 14.603 14.1272 14.4624L10.7194 11.9991L14.1272 9.53345C14.3217 9.39283 14.4366 9.16783 14.4366 8.92642V7.8272C14.4366 7.67486 14.2631 7.58579 14.1389 7.67486Z" fill="black"/>
<path id="Vector_2" d="M12 1.5C6.20156 1.5 1.5 6.20156 1.5 12C1.5 17.7984 6.20156 22.5 12 22.5C17.7984 22.5 22.5 17.7984 22.5 12C22.5 6.20156 17.7984 1.5 12 1.5ZM12 20.7188C7.18594 20.7188 3.28125 16.8141 3.28125 12C3.28125 7.18594 7.18594 3.28125 12 3.28125C16.8141 3.28125 20.7188 7.18594 20.7188 12C20.7188 16.8141 16.8141 20.7188 12 20.7188Z" fill="black"/>
</g>
</svg>
