<svg width="24" height="24" viewBox="0 0 24 24" fill="none" xmlns="http://www.w3.org/2000/svg">
<path d="M13.4523 15.595C13.4171 15.5601 13.3695 15.5406 13.3199 15.5406C13.2703 15.5406 13.2227 15.5601 13.1875 15.595L10.4641 18.3185C9.20313 19.5794 7.075 19.713 5.68281 18.3185C4.28828 16.9239 4.42188 14.7981 5.68281 13.5372L8.40625 10.8138C8.47891 10.7411 8.47891 10.6216 8.40625 10.5489L7.47344 9.61611C7.4382 9.58122 7.39061 9.56165 7.34102 9.56165C7.29142 9.56165 7.24383 9.58122 7.20859 9.61611L4.48516 12.3396C2.50234 14.3224 2.50234 17.531 4.48516 19.5114C6.46797 21.4919 9.67656 21.4942 11.657 19.5114L14.3805 16.788C14.4531 16.7153 14.4531 16.5958 14.3805 16.5231L13.4523 15.595ZM19.5133 4.48564C17.5305 2.50283 14.3219 2.50283 12.3414 4.48564L9.61563 7.20908C9.58073 7.24432 9.56116 7.29191 9.56116 7.3415C9.56116 7.3911 9.58073 7.43869 9.61563 7.47393L10.5461 8.4044C10.6188 8.47705 10.7383 8.47705 10.8109 8.4044L13.5344 5.68096C14.7953 4.42002 16.9234 4.28643 18.3156 5.68096C19.7102 7.07549 19.5766 9.20127 18.3156 10.4622L15.5922 13.1856C15.5573 13.2209 15.5377 13.2685 15.5377 13.3181C15.5377 13.3677 15.5573 13.4152 15.5922 13.4505L16.525 14.3833C16.5977 14.456 16.7172 14.456 16.7898 14.3833L19.5133 11.6599C21.4937 9.67705 21.4937 6.46846 19.5133 4.48564ZM14.2984 8.72549C14.2632 8.69059 14.2156 8.67102 14.166 8.67102C14.1164 8.67102 14.0688 8.69059 14.0336 8.72549L8.725 14.0317C8.69011 14.067 8.67053 14.1146 8.67053 14.1642C8.67053 14.2138 8.69011 14.2613 8.725 14.2966L9.65313 15.2247C9.72578 15.2974 9.84531 15.2974 9.91797 15.2247L15.2242 9.91846C15.2969 9.8458 15.2969 9.72627 15.2242 9.65361L14.2984 8.72549Z" fill="black"/>
</svg>
