<svg width="24" height="24" viewBox="0 0 24 24" fill="none" xmlns="http://www.w3.org/2000/svg">
<g id="icon/outlined/application/link">
<path id="Vector" d="M13.4533 15.595C13.4181 15.5601 13.3705 15.5406 13.3209 15.5406C13.2713 15.5406 13.2237 15.5601 13.1885 15.595L10.465 18.3185C9.2041 19.5794 7.07598 19.713 5.68379 18.3185C4.28926 16.9239 4.42285 14.7981 5.68379 13.5372L8.40723 10.8138C8.47988 10.7411 8.47988 10.6216 8.40723 10.5489L7.47441 9.61611C7.43917 9.58122 7.39159 9.56165 7.34199 9.56165C7.2924 9.56165 7.24481 9.58122 7.20957 9.61611L4.48613 12.3396C2.50332 14.3224 2.50332 17.531 4.48613 19.5114C6.46895 21.4919 9.67754 21.4942 11.658 19.5114L14.3814 16.788C14.4541 16.7153 14.4541 16.5958 14.3814 16.5231L13.4533 15.595ZM19.5143 4.48564C17.5314 2.50283 14.3229 2.50283 12.3424 4.48564L9.6166 7.20908C9.58171 7.24432 9.56213 7.29191 9.56213 7.3415C9.56213 7.3911 9.58171 7.43869 9.6166 7.47393L10.5471 8.4044C10.6197 8.47705 10.7393 8.47705 10.8119 8.4044L13.5354 5.68096C14.7963 4.42002 16.9244 4.28643 18.3166 5.68096C19.7111 7.07549 19.5775 9.20127 18.3166 10.4622L15.5932 13.1856C15.5583 13.2209 15.5387 13.2685 15.5387 13.3181C15.5387 13.3677 15.5583 13.4152 15.5932 13.4505L16.526 14.3833C16.5986 14.456 16.7182 14.456 16.7908 14.3833L19.5143 11.6599C21.4947 9.67705 21.4947 6.46846 19.5143 4.48564ZM14.2994 8.72549C14.2642 8.69059 14.2166 8.67102 14.167 8.67102C14.1174 8.67102 14.0698 8.69059 14.0346 8.72549L8.72598 14.0317C8.69108 14.067 8.67151 14.1146 8.67151 14.1642C8.67151 14.2138 8.69108 14.2613 8.72598 14.2966L9.6541 15.2247C9.72676 15.2974 9.84629 15.2974 9.91895 15.2247L15.2252 9.91846C15.2979 9.8458 15.2979 9.72627 15.2252 9.65361L14.2994 8.72549Z" fill="black"/>
</g>
</svg>
