<svg width="24" height="24" viewBox="0 0 24 24" fill="none" xmlns="http://www.w3.org/2000/svg">
<g id="icon/outlined/directional/login">
<path id="Vector" d="M12.2279 1.92045C8.65363 1.91107 5.50832 3.76029 3.71066 6.55404C3.63098 6.67826 3.72004 6.84232 3.8677 6.84232H5.51535C5.62785 6.84232 5.73332 6.7931 5.80363 6.70638C5.9677 6.50716 6.14348 6.31498 6.32863 6.13216C7.0927 5.37045 7.98098 4.77045 8.97004 4.35326C9.99191 3.92201 11.0794 3.7017 12.2021 3.7017C13.3247 3.7017 14.4122 3.91966 15.4341 4.35326C16.4232 4.77045 17.3114 5.37045 18.0755 6.13216C18.8396 6.89388 19.4372 7.78217 19.8568 8.76888C20.2904 9.79076 20.5083 10.8759 20.5083 11.9986C20.5083 13.1212 20.288 14.2064 19.8568 15.2283C19.4396 16.215 18.8396 17.1033 18.0755 17.865C17.3114 18.6267 16.4232 19.2267 15.4341 19.6439C14.4114 20.0758 13.3122 20.2974 12.2021 20.2954C11.0794 20.2954 9.99191 20.0751 8.97004 19.6439C7.98292 19.2271 7.08591 18.623 6.32863 17.865C6.14348 17.6798 5.97004 17.4876 5.80363 17.2908C5.73332 17.204 5.62551 17.1548 5.51535 17.1548H3.8677C3.72004 17.1548 3.62863 17.3189 3.71066 17.4431C5.50598 20.2298 8.63723 22.0767 12.2021 22.0767C17.738 22.0767 22.2333 17.6212 22.2896 12.1017C22.3458 6.4931 17.8435 1.93451 12.2279 1.92045ZM9.25879 14.6236V12.8423H1.89941C1.79629 12.8423 1.71191 12.7579 1.71191 12.6548V11.3423C1.71191 11.2392 1.79629 11.1548 1.89941 11.1548H9.25879V9.37357C9.25879 9.21654 9.4416 9.12748 9.56348 9.22591L12.8893 11.8509C12.9117 11.8685 12.9298 11.8909 12.9423 11.9164C12.9547 11.942 12.9612 11.9701 12.9612 11.9986C12.9612 12.027 12.9547 12.0551 12.9423 12.0807C12.9298 12.1063 12.9117 12.1287 12.8893 12.1462L9.56348 14.7712C9.4416 14.8673 9.25879 14.7806 9.25879 14.6236Z" fill="black"/>
</g>
</svg>
