<svg width="24" height="24" viewBox="0 0 24 24" fill="none" xmlns="http://www.w3.org/2000/svg">
<g id="icon/outlined/directional/logout">
<path id="Vector" d="M20.3443 17.1548H18.6966C18.5841 17.1548 18.4786 17.204 18.4083 17.2908C18.2443 17.49 18.0685 17.6822 17.8833 17.865C17.1261 18.623 16.229 19.2271 15.2419 19.6439C14.2192 20.0758 13.1201 20.2974 12.0099 20.2954C10.8872 20.2954 9.79974 20.0751 8.77787 19.6439C7.79074 19.2271 6.89374 18.623 6.13646 17.865C5.37782 17.1095 4.7729 16.2141 4.35521 15.2283C3.92162 14.2064 3.70365 13.1212 3.70365 11.9986C3.70365 10.8759 3.92396 9.79076 4.35521 8.76888C4.7724 7.78217 5.3724 6.89388 6.13646 6.13216C6.90052 5.37045 7.7888 4.77045 8.77787 4.35326C9.79974 3.92201 10.8872 3.7017 12.0099 3.7017C13.1326 3.7017 14.2201 3.91966 15.2419 4.35326C16.231 4.77045 17.1193 5.37045 17.8833 6.13216C18.0685 6.31732 18.2419 6.50951 18.4083 6.70638C18.4786 6.7931 18.5865 6.84232 18.6966 6.84232H20.3443C20.4919 6.84232 20.5833 6.67826 20.5013 6.55404C18.7036 3.76029 15.5583 1.91107 11.9841 1.92045C6.36849 1.93451 1.86615 6.4931 1.9224 12.1017C1.97865 17.6212 6.47396 22.0767 12.0099 22.0767C15.5747 22.0767 18.706 20.2298 20.5013 17.4431C20.581 17.3189 20.4919 17.1548 20.3443 17.1548ZM22.4279 11.8509L19.1021 9.22591C18.9779 9.12748 18.7974 9.21654 18.7974 9.37357V11.1548H11.438C11.3349 11.1548 11.2505 11.2392 11.2505 11.3423V12.6548C11.2505 12.7579 11.3349 12.8423 11.438 12.8423H18.7974V14.6236C18.7974 14.7806 18.9802 14.8697 19.1021 14.7712L22.4279 12.1462C22.4503 12.1287 22.4684 12.1063 22.4809 12.0807C22.4933 12.0551 22.4998 12.027 22.4998 11.9986C22.4998 11.9701 22.4933 11.942 22.4809 11.9164C22.4684 11.8909 22.4503 11.8685 22.4279 11.8509Z" fill="black"/>
</g>
</svg>
