<svg width="24" height="24" viewBox="0 0 24 24" fill="none" xmlns="http://www.w3.org/2000/svg">
<g id="icon/outlined/application/monitor">
<path id="Vector" d="M16.2371 9.67266L16.2418 9.66797L15.4308 8.62969C15.4158 8.61027 15.397 8.59401 15.3757 8.58185C15.3543 8.56969 15.3308 8.56186 15.3064 8.55881C15.282 8.55576 15.2573 8.55755 15.2336 8.56409C15.2099 8.57062 15.1877 8.58176 15.1683 8.59688L13.9871 9.51797L12.3347 7.40625C12.3197 7.38683 12.3009 7.37057 12.2796 7.35841C12.2582 7.34625 12.2347 7.33842 12.2103 7.33537C12.1859 7.33232 12.1612 7.33412 12.1375 7.34065C12.1138 7.34718 12.0916 7.35832 12.0722 7.37344L11.184 8.06953C11.1645 8.08459 11.1483 8.10334 11.1361 8.12469C11.124 8.14604 11.1161 8.16959 11.1131 8.19397C11.11 8.21836 11.1118 8.2431 11.1184 8.2668C11.1249 8.29049 11.136 8.31265 11.1511 8.33203L12.8035 10.4461L12.7988 10.4484L13.6097 11.4867C13.673 11.5688 13.7902 11.5828 13.8722 11.5195L15.0535 10.5984L16.5558 12.5203C16.6191 12.6023 16.7363 12.6164 16.8183 12.5531L17.7066 11.8594C17.7886 11.7961 17.8027 11.6789 17.7394 11.5969L16.2371 9.67266ZM14.2496 2.625C10.3144 2.625 7.12459 5.81484 7.12459 9.75C7.12459 11.3977 7.68474 12.9141 8.62224 14.1211L2.67849 20.0648C2.6436 20.1001 2.62402 20.1477 2.62402 20.1973C2.62402 20.2469 2.6436 20.2944 2.67849 20.3297L3.6699 21.3211C3.74255 21.3938 3.86209 21.3938 3.93474 21.3211L9.87849 15.3773C11.0855 16.3148 12.6019 16.875 14.2496 16.875C18.1847 16.875 21.3746 13.6852 21.3746 9.75C21.3746 5.81484 18.1847 2.625 14.2496 2.625ZM18.0277 13.5281C17.0199 14.5383 15.6769 15.0938 14.2496 15.0938C12.8222 15.0938 11.4793 14.5383 10.4715 13.5281C9.4613 12.5203 8.90584 11.1773 8.90584 9.75C8.90584 8.32266 9.4613 6.97969 10.4715 5.97188C11.4793 4.96172 12.8222 4.40625 14.2496 4.40625C15.6769 4.40625 17.0199 4.96172 18.0277 5.97188C19.0379 6.97969 19.5933 8.32266 19.5933 9.75C19.5933 11.1773 19.0379 12.5203 18.0277 13.5281Z" fill="black"/>
</g>
</svg>
