<svg width="24" height="24" viewBox="0 0 24 24" fill="none" xmlns="http://www.w3.org/2000/svg">
<g id="icon/outlined/application/pull-request">
<path id="Vector" d="M18.4687 16.5449V4.50039C18.4687 4.29414 18.3 4.12539 18.0937 4.12539H14.1094V2.51289C14.1094 2.37227 13.9453 2.29258 13.8352 2.3793L10.8445 4.7418C10.8243 4.75744 10.8079 4.7775 10.7966 4.80046C10.7854 4.82341 10.7795 4.84865 10.7795 4.87422C10.7795 4.8998 10.7854 4.92503 10.7966 4.94798C10.8079 4.97094 10.8243 4.99101 10.8445 5.00664L13.8328 7.36914C13.943 7.45586 14.107 7.37852 14.107 7.23555V5.62539H16.7789V16.5449C15.743 16.8965 14.9977 17.8785 14.9977 19.0316C14.9977 20.4801 16.1742 21.6566 17.6227 21.6566C19.0711 21.6566 20.2477 20.4801 20.2477 19.0316C20.25 17.8785 19.5047 16.8988 18.4687 16.5449ZM17.625 20.1566C17.3306 20.1506 17.0503 20.0295 16.8442 19.8191C16.6382 19.6088 16.5227 19.3261 16.5227 19.0316C16.5227 18.7372 16.6382 18.4545 16.8442 18.2441C17.0503 18.0338 17.3306 17.9127 17.625 17.9066C17.9194 17.9127 18.1997 18.0338 18.4058 18.2441C18.6118 18.4545 18.7273 18.7372 18.7273 19.0316C18.7273 19.3261 18.6118 19.6088 18.4058 19.8191C18.1997 20.0295 17.9194 20.1506 17.625 20.1566ZM9 4.96914C9 3.52071 7.82344 2.34414 6.375 2.34414C4.92656 2.34414 3.75 3.52071 3.75 4.96914C3.75 6.12227 4.49531 7.10196 5.53125 7.45586V16.5473C4.49531 16.8988 3.75 17.8809 3.75 19.034C3.75 20.4824 4.92656 21.659 6.375 21.659C7.82344 21.659 9 20.4824 9 19.034C9 17.8809 8.25469 16.9012 7.21875 16.5473V7.45586C8.25469 7.10196 9 6.12227 9 4.96914ZM5.25 4.96914C5.25601 4.67475 5.37718 4.39444 5.5875 4.18837C5.79782 3.98229 6.08055 3.86687 6.375 3.86687C6.66945 3.86687 6.95218 3.98229 7.1625 4.18837C7.37282 4.39444 7.49399 4.67475 7.5 4.96914C7.49399 5.26354 7.37282 5.54384 7.1625 5.74992C6.95218 5.95599 6.66945 6.07141 6.375 6.07141C6.08055 6.07141 5.79782 5.95599 5.5875 5.74992C5.37718 5.54384 5.25601 5.26354 5.25 4.96914ZM7.5 19.0316C7.49399 19.326 7.37282 19.6063 7.1625 19.8124C6.95218 20.0185 6.66945 20.1339 6.375 20.1339C6.08055 20.1339 5.79782 20.0185 5.5875 19.8124C5.37718 19.6063 5.25601 19.326 5.25 19.0316C5.25601 18.7372 5.37718 18.4569 5.5875 18.2509C5.79782 18.0448 6.08055 17.9294 6.375 17.9294C6.66945 17.9294 6.95218 18.0448 7.1625 18.2509C7.37282 18.4569 7.49399 18.7372 7.5 19.0316Z" fill="black"/>
</g>
</svg>
