<svg width="24" height="24" viewBox="0 0 24 24" fill="none" xmlns="http://www.w3.org/2000/svg">
<g id="icon/outlined/brand-and-logos/qq">
<path id="Vector" d="M19.3315 14.3719C18.9565 13.1672 18.5253 12.1547 17.862 10.4977C17.9651 6.14531 16.1558 2.625 11.9886 2.625C7.77451 2.625 6.00498 6.21562 6.11748 10.4977C5.45185 12.157 5.02295 13.1625 4.64795 14.3719C3.85107 16.9383 4.10889 18 4.30576 18.0234C4.72764 18.075 5.94873 16.0922 5.94873 16.0922C5.94873 17.2406 6.53935 18.7383 7.81904 19.8187C7.20029 20.0086 5.81045 20.5195 6.14092 21.0797C6.4081 21.532 10.7394 21.368 11.9886 21.2273C13.2378 21.368 17.569 21.532 17.8362 21.0797C18.1667 20.5219 16.7745 20.0086 16.1581 19.8187C17.4378 18.7359 18.0284 17.2383 18.0284 16.0922C18.0284 16.0922 19.2495 18.075 19.6714 18.0234C19.8706 17.9977 20.1284 16.9359 19.3315 14.3719Z" fill="black"/>
</g>
</svg>
