<svg width="24" height="24" viewBox="0 0 24 24" fill="none" xmlns="http://www.w3.org/2000/svg">
<g id="icon/outlined/data/radar-chart">
<path id="Vector" d="M21.7214 9.30698L12.4401 2.55698C12.3123 2.46333 12.158 2.41284 11.9995 2.41284C11.841 2.41284 11.6867 2.46333 11.5589 2.55698L2.27763 9.30698C2.14946 9.40016 2.0541 9.53156 2.00526 9.68231C1.95641 9.83305 1.95659 9.9954 2.00575 10.146L5.55184 21.0679C5.60079 21.2184 5.69607 21.3495 5.82404 21.4425C5.95201 21.5356 6.10613 21.5857 6.26434 21.5859H17.737C18.0628 21.5859 18.3487 21.3773 18.4495 21.0679L21.9956 10.146C22.094 9.83667 21.9839 9.49917 21.7214 9.30698ZM19.6542 9.77339L17.3456 10.5234L12.6581 7.13198V4.68511L19.6542 9.77339ZM10.9214 13.2937L8.83309 16.1601L7.53935 12.1945L10.9214 13.2937ZM8.19559 11.025L11.3433 8.74917V12.0492L8.19559 11.025ZM11.9995 14.0437L14.2003 17.0648H9.79872L11.9995 14.0437ZM12.6581 8.74917L15.8034 11.025L12.6581 12.0468V8.74917ZM13.0776 13.2937L16.4597 12.1945L15.1659 16.1601L13.0776 13.2937ZM11.3433 4.68511V7.13198L6.65341 10.5234L4.34481 9.77339L11.3433 4.68511ZM3.96747 11.0343L5.99481 11.6929L7.87919 17.4679L6.61825 19.2L3.96747 11.0343ZM7.66591 19.9921L8.84481 18.375H15.1565L16.3354 19.9921H7.66591ZM17.3808 19.2L16.1198 17.4679L18.0042 11.6929L20.0315 11.0343L17.3808 19.2Z" fill="black"/>
</g>
</svg>
