<svg width="24" height="24" viewBox="0 0 24 24" fill="none" xmlns="http://www.w3.org/2000/svg">
<g id="icon/outlined/data/rise">
<path id="Vector" d="M21.4918 4.94777L16.823 5.51027C16.6683 5.52902 16.6027 5.71886 16.7129 5.82902L18.1027 7.21886L12.8058 12.5157L10.4199 10.1321C10.2722 9.98449 10.0355 9.98683 9.89021 10.1321L2.35037 17.6743C2.31547 17.7096 2.2959 17.7572 2.2959 17.8068C2.2959 17.8563 2.31547 17.9039 2.35037 17.9392L3.40505 18.9986C3.47771 19.0712 3.59724 19.0712 3.6699 18.9986L10.1551 12.5157L12.5386 14.8993C12.6863 15.0446 12.923 15.0446 13.0683 14.8993L19.4293 8.54308L20.8191 9.93292C20.844 9.95771 20.8754 9.975 20.9096 9.98285C20.9439 9.99069 20.9796 9.98876 21.0129 9.97729C21.0461 9.96581 21.0754 9.94524 21.0975 9.91793C21.1196 9.89061 21.1336 9.85764 21.1379 9.82277L21.7004 5.15402C21.7168 5.03449 21.6136 4.93136 21.4918 4.94777Z" fill="black"/>
</g>
</svg>
