<svg width="24" height="24" viewBox="0 0 24 24" fill="none" xmlns="http://www.w3.org/2000/svg">
<g id="icon/outlined/application/shake">
<path id="Vector" d="M7.59412 15.6094C7.59412 15.9077 7.71264 16.1939 7.92362 16.4049C8.1346 16.6158 8.42075 16.7344 8.71912 16.7344C9.01749 16.7344 9.30364 16.6158 9.51461 16.4049C9.72559 16.1939 9.84412 15.9077 9.84412 15.6094C9.84412 15.311 9.72559 15.0249 9.51461 14.8139C9.30364 14.6029 9.01749 14.4844 8.71912 14.4844C8.42075 14.4844 8.1346 14.6029 7.92362 14.8139C7.71264 15.0249 7.59412 15.311 7.59412 15.6094ZM22.048 8.35312L15.6472 1.95C15.3566 1.66172 14.9699 1.5 14.5574 1.5C14.1449 1.5 13.7582 1.65937 13.4676 1.95L1.95271 13.4648C1.66346 13.7543 1.50098 14.1467 1.50098 14.5559C1.50098 14.965 1.66346 15.3575 1.95271 15.6469L8.35584 22.05C8.64412 22.3383 9.03318 22.5 9.44568 22.5C9.85818 22.5 10.2449 22.3406 10.5355 22.05L22.0504 10.5352C22.6504 9.93281 22.6504 8.95312 22.048 8.35312ZM9.44568 20.6273L3.37302 14.5547L14.5574 3.37031L20.6277 9.44531L9.44568 20.6273ZM3.58162 8.75859C3.59882 8.77589 3.61928 8.78961 3.6418 8.79897C3.66432 8.80833 3.68848 8.81315 3.71287 8.81315C3.73726 8.81315 3.76141 8.80833 3.78394 8.79897C3.80646 8.78961 3.82691 8.77589 3.84412 8.75859L8.75896 3.84375C8.77625 3.82654 8.78997 3.80609 8.79934 3.78357C8.8087 3.76104 8.81352 3.73689 8.81352 3.7125C8.81352 3.68811 8.8087 3.66396 8.79934 3.64143C8.78997 3.61891 8.77625 3.59846 8.75896 3.58125L7.85896 2.68125C7.84176 2.66396 7.8213 2.65024 7.79878 2.64088C7.77626 2.63151 7.7521 2.62669 7.72771 2.62669C7.70332 2.62669 7.67917 2.63151 7.65664 2.64088C7.63412 2.65024 7.61367 2.66396 7.59646 2.68125L2.67927 7.59141C2.66198 7.60861 2.64826 7.62906 2.6389 7.65159C2.62954 7.67411 2.62472 7.69826 2.62472 7.72266C2.62472 7.74705 2.62954 7.7712 2.6389 7.79373C2.64826 7.81625 2.66198 7.8367 2.67927 7.85391L3.58162 8.75859ZM20.4238 15.2414C20.4066 15.2241 20.3862 15.2104 20.3636 15.201C20.3411 15.1917 20.3169 15.1868 20.2926 15.1868C20.2682 15.1868 20.244 15.1917 20.2215 15.201C20.199 15.2104 20.1785 15.2241 20.1613 15.2414L15.2418 20.1586C15.2245 20.1758 15.2108 20.1963 15.2014 20.2188C15.192 20.2413 15.1872 20.2655 15.1872 20.2898C15.1872 20.3142 15.192 20.3384 15.2014 20.3609C15.2108 20.3834 15.2245 20.4039 15.2418 20.4211L16.1418 21.3211C16.159 21.3384 16.1794 21.3521 16.202 21.3615C16.2245 21.3708 16.2486 21.3757 16.273 21.3757C16.2974 21.3757 16.3216 21.3708 16.3441 21.3615C16.3666 21.3521 16.3871 21.3384 16.4043 21.3211L21.3215 16.4062C21.3388 16.389 21.3525 16.3686 21.3618 16.3461C21.3712 16.3235 21.376 16.2994 21.376 16.275C21.376 16.2506 21.3712 16.2265 21.3618 16.2039C21.3525 16.1814 21.3388 16.161 21.3215 16.1437L20.4238 15.2414Z" fill="black"/>
</g>
</svg>
