<svg width="24" height="24" viewBox="0 0 24 24" fill="none" xmlns="http://www.w3.org/2000/svg">
<g id="icon/outlined/directional/shrink">
<path id="Vector" d="M20.6654 4.39153L19.6084 3.3345C19.5731 3.2996 19.5255 3.28003 19.476 3.28003C19.4264 3.28003 19.3788 3.2996 19.3435 3.3345L15.6521 7.02825L14.3701 5.74622C14.3454 5.72149 14.3142 5.70424 14.2801 5.69644C14.246 5.68863 14.2104 5.69059 14.1774 5.70209C14.1443 5.71359 14.1152 5.73416 14.0933 5.76145C14.0715 5.78874 14.0577 5.82163 14.0537 5.85637L13.5029 10.2884C13.4888 10.4103 13.5896 10.5111 13.7115 10.497L18.1459 9.94622C18.3006 9.92747 18.3638 9.73997 18.256 9.62981L16.974 8.34778L20.6678 4.65403C20.7381 4.58372 20.7381 4.46419 20.6654 4.39153ZM10.2896 13.5017L5.85525 14.0525C5.70056 14.0712 5.63728 14.2611 5.74509 14.3689L7.02713 15.6509L3.33572 19.3423C3.30082 19.3776 3.28125 19.4251 3.28125 19.4747C3.28125 19.5243 3.30082 19.5719 3.33572 19.6072L4.39275 20.6642C4.46541 20.7368 4.58494 20.7368 4.65759 20.6642L8.35134 16.9704L9.63338 18.2525C9.65811 18.2772 9.68931 18.2944 9.7234 18.3022C9.75749 18.3101 9.79309 18.3081 9.82612 18.2966C9.85914 18.2851 9.88826 18.2645 9.91013 18.2372C9.93201 18.2099 9.94575 18.177 9.94978 18.1423L10.4982 13.7103C10.5021 13.682 10.4994 13.6532 10.4903 13.6261C10.4812 13.599 10.4659 13.5744 10.4457 13.5542C10.4255 13.534 10.4009 13.5187 10.3738 13.5096C10.3467 13.5005 10.3179 13.4978 10.2896 13.5017Z" fill="black"/>
</g>
</svg>
