<svg width="24" height="24" viewBox="0 0 24 24" fill="none" xmlns="http://www.w3.org/2000/svg">
<g id="icon/outlined/brand-and-logos/sketch">
<path id="Vector" d="M21.6937 9.49453L16.9359 3.54844C16.9218 3.531 16.9039 3.51691 16.8836 3.50719C16.8634 3.49746 16.8412 3.49234 16.8187 3.49219H7.18124C7.13671 3.49219 7.09218 3.51328 7.06405 3.54844L2.30624 9.49453C2.28421 9.52241 2.27263 9.55712 2.27348 9.59264C2.27434 9.62817 2.28758 9.66227 2.31093 9.68906L11.8875 20.4586C11.9156 20.4914 11.9578 20.5078 12 20.5078C12.0422 20.5078 12.082 20.4891 12.1125 20.4586L21.6891 9.68906C21.7124 9.66227 21.7256 9.62817 21.7265 9.59264C21.7274 9.55712 21.7158 9.52241 21.6937 9.49453ZM15.1219 4.8375L15.9281 7.97578L12.8226 4.8375H15.1219ZM15.3141 9.02109H8.68593L12 5.67188L15.3141 9.02109ZM8.87812 4.8375H11.1773L8.06952 7.97578L8.87812 4.8375ZM7.62655 5.00156L6.59296 9.02109H4.41093L7.62655 5.00156ZM4.56093 10.193H6.77343L9.72187 15.9984L4.56093 10.193ZM12 17.8922L8.08827 10.193H15.9094L12 17.8922ZM14.2758 15.9984L17.2266 10.193H19.4391L14.2758 15.9984ZM17.407 9.02109L16.3734 5.00156L19.5891 9.02109H17.407Z" fill="black"/>
</g>
</svg>
