<svg width="24" height="24" viewBox="0 0 24 24" fill="none" xmlns="http://www.w3.org/2000/svg">
<g id="icon/outlined/brand-and-logos/skype">
<path id="Vector" d="M20.7117 13.5609C20.8078 13.0336 20.8594 12.4945 20.8594 11.9555C20.8594 10.7602 20.625 9.6 20.1633 8.51016C19.718 7.45547 19.0781 6.50859 18.2649 5.69531C17.4584 4.88677 16.5023 4.24279 15.45 3.79922C14.3578 3.3375 13.2 3.10312 12.0047 3.10312C11.4422 3.10312 10.8774 3.15703 10.3289 3.2625C9.57005 2.86037 8.72448 2.64958 7.86564 2.64844C6.46642 2.64844 5.14923 3.19453 4.16017 4.18359C3.67211 4.66914 3.28515 5.24662 3.02165 5.88265C2.75815 6.51867 2.62334 7.20062 2.62502 7.88906C2.62502 8.77969 2.8547 9.65625 3.28361 10.4297C3.19689 10.9313 3.15002 11.4445 3.15002 11.9555C3.15002 13.1508 3.38439 14.3109 3.84611 15.4008C4.29142 16.4555 4.92892 17.4023 5.7422 18.2156C6.55548 19.0289 7.50236 19.6664 8.55705 20.1117C9.64923 20.5734 10.807 20.8078 12.0024 20.8078C12.5227 20.8078 13.043 20.7609 13.5539 20.6695C14.3391 21.1125 15.225 21.3492 16.132 21.3492C17.5313 21.3492 18.8485 20.8055 19.8375 19.8141C20.8289 18.825 21.3727 17.5078 21.3727 16.1086C21.375 15.218 21.1453 14.3391 20.7117 13.5609ZM18.6469 18.6234C17.9742 19.2984 17.086 19.6641 16.1344 19.6641C15.5227 19.6641 14.9203 19.5047 14.386 19.2023L13.8586 18.9047L13.261 19.0102C12.8438 19.0852 12.4219 19.1227 12.0047 19.1227C11.0344 19.1227 10.0992 18.9328 9.2133 18.5578C8.36252 18.1992 7.59611 17.6836 6.93517 17.0227C6.28091 16.3706 5.75953 15.5977 5.40002 14.7469C5.02502 13.8633 4.83752 12.9281 4.83752 11.9578C4.83752 11.55 4.87502 11.1328 4.94533 10.7203L5.04845 10.132L4.75783 9.60938C4.4647 9.08335 4.31062 8.49124 4.31017 7.88906C4.31017 6.9375 4.67814 6.04922 5.3508 5.37656C6.0258 4.70391 6.91408 4.33594 7.86564 4.33594C8.44928 4.33751 9.02372 4.48153 9.53908 4.75547L10.0641 5.03203L10.6453 4.91953C11.0883 4.83516 11.5453 4.79063 12.0047 4.79063C12.975 4.79063 13.9102 4.98047 14.7938 5.35313C15.6492 5.71406 16.4133 6.22969 17.0719 6.88828C17.7328 7.54688 18.2485 8.31328 18.6094 9.16641C18.9844 10.05 19.1719 10.9852 19.1719 11.9555C19.1719 12.3867 19.132 12.8227 19.0524 13.2563L18.9422 13.8539L19.2375 14.3836C19.5328 14.9109 19.6875 15.5086 19.6875 16.1109C19.6875 17.0648 19.3195 17.9508 18.6469 18.6234ZM13.6735 10.9266L11.6016 10.4672C10.8141 10.2867 9.90705 10.05 9.90705 9.30703C9.90705 8.56406 10.5422 8.04375 11.6906 8.04375C14.0039 8.04375 13.793 9.63281 14.9414 9.63281C15.5461 9.63281 16.0758 9.27656 16.0758 8.66719C16.0758 7.24219 13.793 6.17109 11.857 6.17109C9.7547 6.17109 7.51642 7.06406 7.51642 9.44063C7.51642 10.5844 7.92423 11.8031 10.1789 12.368L12.9774 13.0664C13.8235 13.275 14.0367 13.7508 14.0367 14.182C14.0367 14.8969 13.3266 15.5953 12.0399 15.5953C9.52736 15.5953 9.87658 13.6617 8.53127 13.6617C7.92658 13.6617 7.4883 14.0789 7.4883 14.6719C7.4883 15.8297 8.89455 17.3766 12.0399 17.3766C15.0328 17.3766 16.5164 15.9352 16.5164 14.0016C16.5164 12.757 15.9422 11.4328 13.6735 10.9266Z" fill="black"/>
</g>
</svg>
