<svg width="24" height="24" viewBox="0 0 24 24" fill="none" xmlns="http://www.w3.org/2000/svg">
<g id="icon/outlined/editor/sort-ascending">
<path id="Vector" d="M19.6786 10.167L17.5551 3.52711C17.5413 3.48268 17.5136 3.44387 17.476 3.41643C17.4385 3.38899 17.393 3.37438 17.3465 3.37476H15.5325C15.4364 3.37476 15.3543 3.4357 15.3239 3.52711L13.184 10.167C13.177 10.188 13.1723 10.2115 13.1723 10.2349C13.1723 10.3545 13.2707 10.4529 13.3903 10.4529H14.7121C14.8106 10.4529 14.895 10.3873 14.9231 10.2935L15.3332 8.84976H17.4192L17.8246 10.2912C17.8504 10.3849 17.9371 10.4505 18.0356 10.4505H19.47C19.4934 10.4505 19.5145 10.4482 19.5356 10.4412C19.5918 10.4224 19.6364 10.3849 19.6645 10.3334C19.6903 10.2818 19.695 10.2232 19.6786 10.167ZM15.5465 7.62867L16.3153 4.88883H16.4629L17.2153 7.62867H15.5465ZM18.9098 19.181H15.8723V19.1716L18.9801 14.7443C19.0059 14.7068 19.02 14.6646 19.02 14.6177V13.7646C19.02 13.6451 18.9215 13.5466 18.802 13.5466H14.0207C13.9012 13.5466 13.8028 13.6451 13.8028 13.7646V14.7724C13.8028 14.892 13.9012 14.9904 14.0207 14.9904H16.8942V14.9998L13.7746 19.4271C13.7486 19.4642 13.7347 19.5084 13.7348 19.5537V20.4068C13.7348 20.5263 13.8332 20.6248 13.9528 20.6248H18.9075C19.027 20.6248 19.1254 20.5263 19.1254 20.4068V19.399C19.1257 19.3705 19.1204 19.3422 19.1097 19.3157C19.099 19.2893 19.0832 19.2653 19.0631 19.245C19.0431 19.2247 19.0192 19.2086 18.9929 19.1976C18.9666 19.1867 18.9383 19.181 18.9098 19.181ZM9.75043 16.4529H7.96918V4.03101C7.96918 3.92789 7.8848 3.84351 7.78168 3.84351H6.46918C6.36605 3.84351 6.28168 3.92789 6.28168 4.03101V16.4529H4.50043C4.3434 16.4529 4.25434 16.6357 4.35277 16.7576L6.97777 20.0834C6.99531 20.1058 7.01772 20.1239 7.0433 20.1364C7.06889 20.1488 7.09697 20.1553 7.12543 20.1553C7.15389 20.1553 7.18197 20.1488 7.20755 20.1364C7.23314 20.1239 7.25555 20.1058 7.27309 20.0834L9.89809 16.7576C9.99418 16.6357 9.90746 16.4529 9.75043 16.4529Z" fill="black"/>
</g>
</svg>
