<svg width="24" height="24" viewBox="0 0 24 24" fill="none" xmlns="http://www.w3.org/2000/svg">
<g id="icon/outlined/directional/swap">
<path id="Vector" d="M19.8729 13.875H3.56276C3.45963 13.875 3.37526 13.9594 3.37526 14.0625V15.4688C3.37526 15.5719 3.45963 15.6562 3.56276 15.6562H17.7471L14.3651 19.9453C14.269 20.0672 14.3557 20.25 14.5128 20.25H16.212C16.3268 20.25 16.4346 20.1984 16.5073 20.107L20.4635 15.0891C20.8503 14.5969 20.501 13.875 19.8729 13.875ZM20.4378 8.34375H6.25338L9.63541 4.05469C9.73151 3.93281 9.64479 3.75 9.48776 3.75H7.78854C7.67369 3.75 7.56588 3.80156 7.49322 3.89297L3.53697 8.91094C3.15026 9.40313 3.49947 10.125 4.12526 10.125H20.4378C20.5409 10.125 20.6253 10.0406 20.6253 9.9375V8.53125C20.6253 8.42812 20.5409 8.34375 20.4378 8.34375Z" fill="black"/>
</g>
</svg>
