<svg width="24" height="24" viewBox="0 0 24 24" fill="none" xmlns="http://www.w3.org/2000/svg">
<g id="icon/outlined/application/sync">
<path id="Vector" d="M3.93756 11.8172C3.961 10.793 4.17193 9.79922 4.56803 8.86406C4.9735 7.90313 5.55475 7.04297 6.29537 6.3C7.036 5.55703 7.8985 4.97578 8.85943 4.57031C9.85318 4.15078 10.9079 3.9375 11.9977 3.9375C13.0876 3.9375 14.1422 4.15078 15.1337 4.57031C16.0918 4.97495 16.962 5.56246 17.6954 6.3C17.9274 6.53203 18.1454 6.77813 18.3469 7.03594L16.936 8.1375C16.9081 8.1591 16.8868 8.18813 16.8747 8.22127C16.8625 8.25441 16.86 8.2903 16.8673 8.32483C16.8747 8.35935 16.8916 8.39109 16.9162 8.41642C16.9408 8.44174 16.972 8.45961 17.0063 8.46797L21.1243 9.47578C21.2415 9.50391 21.3563 9.41484 21.3563 9.29531L21.3751 5.05547C21.3751 4.89844 21.1946 4.80937 21.0727 4.90781L19.7508 5.94141C17.9485 3.63516 15.1454 2.15625 11.9954 2.15625C6.62584 2.15625 2.25709 6.45937 2.15631 11.8078C2.15568 11.8328 2.16007 11.8577 2.16921 11.881C2.17836 11.9043 2.19207 11.9255 2.20954 11.9434C2.22701 11.9613 2.2479 11.9756 2.27096 11.9853C2.29402 11.995 2.31879 12 2.34381 12H3.75006C3.85318 12 3.93521 11.918 3.93756 11.8172ZM21.6563 12H20.2501C20.1469 12 20.0649 12.082 20.0626 12.1828C20.0391 13.207 19.8282 14.2008 19.4321 15.1359C19.0266 16.0969 18.4454 16.9594 17.7047 17.7C16.9572 18.4506 16.0685 19.0458 15.0898 19.4513C14.1111 19.8568 13.0618 20.0645 12.0024 20.0625C10.9434 20.0645 9.89447 19.8567 8.91615 19.4513C7.93784 19.0458 7.0495 18.4506 6.3024 17.7C6.07037 17.468 5.8524 17.2219 5.65084 16.9641L7.06178 15.8625C7.08969 15.8409 7.11095 15.8119 7.1231 15.7787C7.13524 15.7456 7.13779 15.7097 7.13045 15.6752C7.1231 15.6407 7.10616 15.6089 7.08158 15.5836C7.05699 15.5583 7.02576 15.5404 6.99147 15.532L2.8735 14.5242C2.75631 14.4961 2.64146 14.5852 2.64146 14.7047L2.62506 18.9469C2.62506 19.1039 2.80553 19.193 2.9274 19.0945L4.24928 18.0609C6.05162 20.3648 8.85475 21.8438 12.0047 21.8438C17.3766 21.8438 21.743 17.5383 21.8438 12.1922C21.8444 12.1672 21.84 12.1423 21.8309 12.119C21.8218 12.0957 21.8081 12.0745 21.7906 12.0566C21.7731 12.0387 21.7522 12.0244 21.7292 12.0147C21.7061 12.005 21.6813 12 21.6563 12Z" fill="black"/>
</g>
</svg>
