<svg width="24" height="24" viewBox="0 0 24 24" fill="none" xmlns="http://www.w3.org/2000/svg">
<g id="icon/outlined/application/tag">
<path id="Vector" d="M21.984 10.7531L21.2902 3.42656C21.2551 3.04687 20.9527 2.74687 20.573 2.70937L13.2465 2.01562H13.2371C13.1621 2.01562 13.1035 2.03906 13.059 2.08359L2.08319 13.0594C2.06146 13.0811 2.04422 13.1068 2.03246 13.1352C2.0207 13.1635 2.01465 13.1939 2.01465 13.2246C2.01465 13.2553 2.0207 13.2857 2.03246 13.3141C2.04422 13.3424 2.06146 13.3682 2.08319 13.3898L10.6098 21.9164C10.6543 21.9609 10.7129 21.9844 10.7762 21.9844C10.8394 21.9844 10.898 21.9609 10.9426 21.9164L21.9183 10.9406C21.9652 10.8914 21.9887 10.8234 21.984 10.7531ZM10.7738 19.5633L4.43632 13.2258L13.8043 3.85781L19.5933 4.40625L20.1418 10.1953L10.7738 19.5633ZM15.9371 6C14.8004 6 13.8746 6.92578 13.8746 8.0625C13.8746 9.19922 14.8004 10.125 15.9371 10.125C17.0738 10.125 17.9996 9.19922 17.9996 8.0625C17.9996 6.92578 17.0738 6 15.9371 6ZM15.9371 8.8125C15.5223 8.8125 15.1871 8.47734 15.1871 8.0625C15.1871 7.64766 15.5223 7.3125 15.9371 7.3125C16.3519 7.3125 16.6871 7.64766 16.6871 8.0625C16.6871 8.47734 16.3519 8.8125 15.9371 8.8125Z" fill="black"/>
</g>
</svg>
