<svg width="24" height="24" viewBox="0 0 24 24" fill="none" xmlns="http://www.w3.org/2000/svg">
<g id="icon/outlined/application/tags">
<path id="Vector" d="M11.325 18.5229L20.189 9.65652C20.2289 9.61667 20.2476 9.56277 20.2429 9.50886L19.6453 2.4448C19.6289 2.26198 19.4859 2.11902 19.3031 2.10261L12.239 1.5073C12.1851 1.50261 12.1289 1.52136 12.0914 1.5612L3.22732 10.4253C3.19243 10.4605 3.17285 10.5081 3.17285 10.5577C3.17285 10.6073 3.19243 10.6549 3.22732 10.6901L11.0601 18.5229C11.1328 18.5979 11.2523 18.5979 11.325 18.5229ZM12.7922 3.2487L18.0562 3.69402L18.5015 8.95808L11.1914 16.2659L5.48201 10.5589L12.7922 3.2487ZM14.2022 7.61347C14.3066 7.71793 14.4307 7.80079 14.5672 7.85732C14.7037 7.91385 14.85 7.94294 14.9977 7.94293C15.1455 7.94292 15.2918 7.91381 15.4282 7.85726C15.5647 7.80071 15.6888 7.71783 15.7932 7.61335C15.8977 7.50887 15.9805 7.38484 16.0371 7.24834C16.0936 7.11184 16.1227 6.96554 16.1227 6.8178C16.1227 6.67006 16.0936 6.52376 16.037 6.38727C15.9805 6.25078 15.8976 6.12676 15.7931 6.0223C15.6886 5.91783 15.5646 5.83497 15.4281 5.77844C15.2916 5.72192 15.1453 5.69283 14.9976 5.69284C14.8498 5.69285 14.7035 5.72196 14.567 5.77851C14.4305 5.83506 14.3065 5.91794 14.202 6.02241C14.0976 6.12689 14.0147 6.25092 13.9582 6.38742C13.9017 6.52392 13.8726 6.67022 13.8726 6.81797C13.8726 6.96571 13.9017 7.112 13.9583 7.2485C14.0148 7.38499 14.0977 7.50901 14.2022 7.61347ZM20.8523 12.6518L19.9242 11.726C19.889 11.6912 19.8414 11.6716 19.7918 11.6716C19.7422 11.6716 19.6946 11.6912 19.6594 11.726L11.175 20.194L5.60623 14.6393C5.57099 14.6044 5.5234 14.5849 5.47381 14.5849C5.42421 14.5849 5.37662 14.6044 5.34138 14.6393L4.41326 15.5651C4.37836 15.6003 4.35879 15.6479 4.35879 15.6975C4.35879 15.7471 4.37836 15.7947 4.41326 15.83L10.1133 21.5206L11.0414 22.4464C11.114 22.519 11.2336 22.519 11.3062 22.4464L20.8523 12.9167C20.925 12.844 20.925 12.7245 20.8523 12.6518Z" fill="black"/>
</g>
</svg>
