<svg width="24" height="24" viewBox="0 0 24 24" fill="none" xmlns="http://www.w3.org/2000/svg">
<g id="icon/outlined/application/to-top">
<path id="Vector" d="M20.7422 18.2812H3.86719C3.76406 18.2812 3.67969 18.3655 3.67969 18.4687V19.8749C3.67969 19.978 3.76406 20.0624 3.86719 20.0624H20.7422C20.8453 20.0624 20.9297 19.978 20.9297 19.8749V18.4687C20.9297 18.3655 20.8453 18.2812 20.7422 18.2812ZM9.375 7.63351H11.107V15.5624C11.107 15.6655 11.1914 15.7499 11.2945 15.7499H12.7008C12.8039 15.7499 12.8883 15.6655 12.8883 15.5624V7.63351H14.625C14.782 7.63351 14.8687 7.45304 14.7727 7.33117L12.1477 4.00773C12.1301 3.98532 12.1077 3.9672 12.0821 3.95473C12.0565 3.94227 12.0285 3.93579 12 3.93579C11.9715 3.93579 11.9435 3.94227 11.9179 3.95473C11.8923 3.9672 11.8699 3.98532 11.8523 4.00773L9.22734 7.32883C9.13125 7.45305 9.21797 7.63351 9.375 7.63351Z" fill="black"/>
</g>
</svg>
