<svg width="24" height="24" viewBox="0 0 24 24" fill="none" xmlns="http://www.w3.org/2000/svg">
<g id="icon/outlined/application/tool">
<path id="Vector" d="M20.5451 5.61263C20.5334 5.59153 20.517 5.57044 20.4982 5.55403C20.381 5.43685 20.1912 5.43685 20.074 5.55403L16.0357 9.59231L14.4443 8.00091L18.485 3.96028C18.5037 3.94153 18.5178 3.92278 18.5318 3.90169C18.6162 3.75872 18.5693 3.57591 18.4264 3.49153C16.1248 2.13216 13.1107 2.44388 11.1303 4.422C9.55995 5.99231 9.03964 8.21888 9.57167 10.2204L2.70448 17.0876C2.63417 17.1579 2.63886 17.2728 2.71152 17.3454L6.68886 21.3228C6.76152 21.3954 6.8787 21.4001 6.94667 21.3298L13.8115 14.465C15.8154 14.9993 18.042 14.4814 19.6146 12.9087C21.5928 10.9283 21.9045 7.91419 20.5451 5.61263ZM18.4217 11.7134C17.06 13.0751 15.0162 13.3376 13.392 12.5009L13.1857 12.7072L13.1834 12.7048L6.76152 19.129L4.90527 17.2728L10.2982 11.8798C10.2982 11.8798 10.2982 11.8822 10.3006 11.8822L11.5381 10.6447C10.7014 9.02044 10.9639 6.97669 12.3256 5.61497C12.7648 5.17539 13.2937 4.8358 13.8761 4.6194C14.4586 4.40299 15.0809 4.31488 15.7006 4.36106L12.5857 7.47356C12.445 7.61441 12.366 7.80535 12.366 8.00442C12.366 8.2035 12.445 8.39444 12.5857 8.53528L15.5037 11.4533C15.6446 11.5939 15.8355 11.673 16.0346 11.673C16.2336 11.673 16.4246 11.5939 16.5654 11.4533L19.6779 8.34075C19.7646 9.55481 19.3404 10.797 18.4217 11.7134Z" fill="black"/>
</g>
</svg>
