<svg width="24" height="24" viewBox="0 0 24 24" fill="none" xmlns="http://www.w3.org/2000/svg">
<g id="icon/outlined/application/transaction">
<path id="Vector" d="M15.6694 7.5C15.6694 7.39687 15.585 7.3125 15.4819 7.3125H14.2046C14.1342 7.3125 14.0686 7.35234 14.0381 7.41562L12.053 11.3719H11.9756L9.99049 7.41562C9.97494 7.38477 9.95118 7.35882 9.92181 7.34062C9.89245 7.32242 9.85863 7.31269 9.82408 7.3125H8.51861C8.48814 7.3125 8.45768 7.31953 8.42955 7.33594C8.33815 7.38516 8.30533 7.5 8.35455 7.58906L10.7897 12.0797H9.45377C9.35065 12.0797 9.26627 12.1641 9.26627 12.2672V12.9023C9.26627 13.0055 9.35065 13.0898 9.45377 13.0898H11.235V14.0039H9.45377C9.35065 14.0039 9.26627 14.0883 9.26627 14.1914V14.8266C9.26627 14.9297 9.35065 15.0141 9.45377 15.0141H11.235V16.5C11.235 16.6031 11.3194 16.6875 11.4225 16.6875H12.5921C12.6952 16.6875 12.7796 16.6031 12.7796 16.5V15.0117H14.5678C14.671 15.0117 14.7553 14.9273 14.7553 14.8242V14.1891C14.7553 14.0859 14.671 14.0016 14.5678 14.0016H12.7796V13.0875H14.5678C14.671 13.0875 14.7553 13.0031 14.7553 12.9V12.2648C14.7553 12.1617 14.671 12.0773 14.5678 12.0773H13.2178L15.6483 7.58672C15.66 7.56094 15.6694 7.53047 15.6694 7.5ZM3.69986 11.8172C3.74389 9.68111 4.61325 7.64505 6.12564 6.13594C6.88736 5.37422 7.7733 4.77422 8.76002 4.35703C9.78189 3.92578 10.8671 3.70547 11.985 3.70547C13.1053 3.70547 14.1905 3.92344 15.21 4.35703C16.1967 4.77422 17.0827 5.37422 17.8444 6.13594C18.0788 6.37031 18.2967 6.61641 18.4983 6.87188L17.3264 7.78828C17.2985 7.80988 17.2773 7.83891 17.2651 7.87205C17.253 7.90519 17.2504 7.94108 17.2578 7.97561C17.2651 8.01013 17.282 8.04188 17.3066 8.0672C17.3312 8.09252 17.3624 8.11039 17.3967 8.11875L21.0717 9.01641C21.1889 9.04453 21.3038 8.95547 21.3038 8.83594L21.3225 5.05078C21.3225 4.89375 21.1421 4.80469 21.0202 4.90312L19.8999 5.77969C18.0624 3.42891 15.2006 1.92188 11.9874 1.92188C6.49127 1.92188 2.02174 6.33047 1.92096 11.8078C1.92033 11.8328 1.92472 11.8577 1.93386 11.881C1.943 11.9043 1.95672 11.9255 1.97419 11.9434C1.99166 11.9613 2.01254 11.9756 2.0356 11.9853C2.05866 11.995 2.08343 12 2.10846 12H3.51471C3.61549 12 3.69752 11.918 3.69986 11.8172ZM21.8897 12H20.4835C20.3827 12 20.2983 12.082 20.296 12.1828C20.2519 14.3189 19.3826 16.355 17.8702 17.8641C17.1155 18.6219 16.2208 19.2261 15.2358 19.643C14.2139 20.0742 13.1288 20.2945 12.0108 20.2945C10.8928 20.2945 9.80533 20.0766 8.7858 19.643C7.80083 19.2261 6.90615 18.6219 6.15143 17.8641C5.91705 17.6297 5.69908 17.3836 5.49752 17.1281L6.66705 16.2117C6.69497 16.1901 6.71622 16.1611 6.72837 16.1279C6.74052 16.0948 6.74307 16.0589 6.73572 16.0244C6.72838 15.9899 6.71144 15.9581 6.68685 15.9328C6.66226 15.9075 6.63103 15.8896 6.59674 15.8812L2.92174 14.9836C2.80455 14.9555 2.68971 15.0445 2.68971 15.1641L2.67096 18.9539C2.67096 19.1109 2.85143 19.2 2.9733 19.1016L4.09361 18.225C5.9358 20.5711 8.79752 22.0781 12.0108 22.0781C17.5069 22.0781 21.9764 17.6695 22.0772 12.1922C22.0778 12.1672 22.0734 12.1423 22.0643 12.119C22.0552 12.0957 22.0415 12.0745 22.024 12.0566C22.0065 12.0387 21.9856 12.0244 21.9626 12.0147C21.9395 12.005 21.9147 12 21.8897 12Z" fill="black"/>
</g>
</svg>
