<svg width="24" height="24" viewBox="0 0 24 24" fill="none" xmlns="http://www.w3.org/2000/svg">
<g id="icon/outlined/editor/undo">
<path id="Vector" d="M11.9859 2.90626C6.80859 2.91329 2.625 7.10157 2.625 12.2789C2.625 15.2789 4.03594 17.9508 6.22969 19.6664L5.35078 20.7914C5.25469 20.9156 5.34375 21.0961 5.49844 21.0938L9.4125 21.075C9.53438 21.075 9.62344 20.9602 9.59297 20.843L8.66719 17.0391C8.65883 17.0048 8.64096 16.9735 8.61564 16.949C8.59031 16.9244 8.55857 16.9074 8.52404 16.9001C8.48952 16.8927 8.45363 16.8953 8.42049 16.9074C8.38735 16.9196 8.35831 16.9408 8.33672 16.9688L7.38281 18.1899C7.14375 18.0024 6.91406 17.7984 6.69609 17.5805C6.01083 16.8976 5.46477 16.0881 5.08828 15.1969C4.69688 14.2734 4.5 13.2914 4.5 12.2789C4.5 11.2664 4.69688 10.2844 5.08828 9.36095C5.46563 8.46798 6.00703 7.66642 6.69609 6.97735C7.38516 6.28829 8.18672 5.74688 9.07969 5.36954C10.0055 4.97813 10.9875 4.78126 12 4.78126C13.0125 4.78126 13.9945 4.97813 14.918 5.36954C15.8109 5.74688 16.6125 6.28829 17.3016 6.97735C17.9906 7.66642 18.532 8.46798 18.9094 9.36095C19.3008 10.2844 19.4977 11.2664 19.4977 12.2789C19.4977 13.2914 19.3008 14.2734 18.9094 15.1969C18.5329 16.0881 17.9868 16.8976 17.3016 17.5805C17.1258 17.7563 16.943 17.9203 16.7531 18.0774C16.7151 18.1082 16.6908 18.1529 16.6855 18.2016C16.6803 18.2504 16.6944 18.2992 16.725 18.3375L17.6484 19.5211C17.7141 19.6031 17.8336 19.6172 17.9156 19.5516C20.0273 17.8313 21.375 15.2133 21.375 12.2789C21.375 7.09688 17.1703 2.89923 11.9859 2.90626Z" fill="black"/>
</g>
</svg>
