<svg width="24" height="24" viewBox="0 0 24 24" fill="none" xmlns="http://www.w3.org/2000/svg">
<g id="icon/outlined/directional/up-circle">
<path id="Vector" d="M12.1532 8.4441C12.136 8.42014 12.1133 8.40063 12.087 8.38717C12.0607 8.37372 12.0316 8.3667 12.0021 8.3667C11.9725 8.3667 11.9434 8.37372 11.9172 8.38717C11.8909 8.40063 11.8682 8.42014 11.8509 8.4441L7.67901 14.2097C7.58995 14.3339 7.67901 14.5074 7.83135 14.5074H8.93057C9.16964 14.5074 9.39698 14.3925 9.53761 14.198L12.0009 10.7902L14.4665 14.198C14.6072 14.3925 14.8322 14.5074 15.0736 14.5074H16.1728C16.3251 14.5074 16.4142 14.3339 16.3251 14.2097L12.1532 8.4441Z" fill="black"/>
<path id="Vector_2" d="M12 1.5C6.20156 1.5 1.5 6.20156 1.5 12C1.5 17.7984 6.20156 22.5 12 22.5C17.7984 22.5 22.5 17.7984 22.5 12C22.5 6.20156 17.7984 1.5 12 1.5ZM12 20.7188C7.18594 20.7188 3.28125 16.8141 3.28125 12C3.28125 7.18594 7.18594 3.28125 12 3.28125C16.8141 3.28125 20.7188 7.18594 20.7188 12C20.7188 16.8141 16.8141 20.7188 12 20.7188Z" fill="black"/>
</g>
</svg>
