<svg width="24" height="24" viewBox="0 0 24 24" fill="none" xmlns="http://www.w3.org/2000/svg">
<g id="icon/outlined/directional/up-square">
<path id="Vector" d="M7.82731 14.6265H8.92653C9.16559 14.6265 9.39293 14.5116 9.53356 14.3171L11.9992 10.9093L14.4648 14.3171C14.6054 14.5116 14.8304 14.6265 15.0718 14.6265H16.1711C16.3234 14.6265 16.4125 14.4531 16.3234 14.3288L12.1515 8.56324C12.1343 8.53928 12.1116 8.51977 12.0853 8.50631C12.059 8.49286 12.0299 8.48584 12.0004 8.48584C11.9708 8.48584 11.9417 8.49286 11.9154 8.50631C11.8892 8.51977 11.8664 8.53928 11.8492 8.56324L7.67731 14.3288C7.65672 14.3566 7.64426 14.3896 7.64131 14.424C7.63835 14.4584 7.64503 14.493 7.66058 14.5239C7.67614 14.5548 7.69997 14.5807 7.72941 14.5988C7.75885 14.6169 7.79274 14.6265 7.82731 14.6265Z" fill="black"/>
<path id="Vector_2" d="M20.625 2.625H3.375C2.96016 2.625 2.625 2.96016 2.625 3.375V20.625C2.625 21.0398 2.96016 21.375 3.375 21.375H20.625C21.0398 21.375 21.375 21.0398 21.375 20.625V3.375C21.375 2.96016 21.0398 2.625 20.625 2.625ZM19.6875 19.6875H4.3125V4.3125H19.6875V19.6875Z" fill="black"/>
</g>
</svg>
