<svg width="24" height="24" viewBox="0 0 24 24" fill="none" xmlns="http://www.w3.org/2000/svg">
<g id="icon/outlined/application/upload">
<path id="Vector" d="M9.375 7.44601H11.107V15.3749C11.107 15.478 11.1914 15.5624 11.2945 15.5624H12.7008C12.8039 15.5624 12.8883 15.478 12.8883 15.3749V7.44601H14.625C14.782 7.44601 14.8687 7.26554 14.7727 7.14367L12.1477 3.82023C12.1301 3.79782 12.1077 3.7797 12.0821 3.76723C12.0565 3.75477 12.0285 3.74829 12 3.74829C11.9715 3.74829 11.9435 3.75477 11.9179 3.76723C11.8923 3.7797 11.8699 3.79782 11.8523 3.82023L9.22734 7.14133C9.13125 7.26555 9.21797 7.44601 9.375 7.44601ZM20.5781 14.6718H19.1719C19.0688 14.6718 18.9844 14.7562 18.9844 14.8593V18.4687H5.01562V14.8593C5.01562 14.7562 4.93125 14.6718 4.82812 14.6718H3.42188C3.31875 14.6718 3.23438 14.7562 3.23438 14.8593V19.4999C3.23438 19.9148 3.56953 20.2499 3.98438 20.2499H20.0156C20.4305 20.2499 20.7656 19.9148 20.7656 19.4999V14.8593C20.7656 14.7562 20.6812 14.6718 20.5781 14.6718Z" fill="black"/>
</g>
</svg>
