<svg width="24" height="24" viewBox="0 0 24 24" fill="none" xmlns="http://www.w3.org/2000/svg">
<g id="icon/outlined/application/usergroup-add">
<path id="Vector" d="M20.9059 18.0938H19.0309V16.2188C19.0309 16.1157 18.9465 16.0313 18.8434 16.0313H17.7184C17.6153 16.0313 17.5309 16.1157 17.5309 16.2188V18.0938H15.6559C15.5528 18.0938 15.4684 18.1782 15.4684 18.2813V19.4063C15.4684 19.5094 15.5528 19.5938 15.6559 19.5938H17.5309V21.4688C17.5309 21.5719 17.6153 21.6563 17.7184 21.6563H18.8434C18.9465 21.6563 19.0309 21.5719 19.0309 21.4688V19.5938H20.9059C21.009 19.5938 21.0934 19.5094 21.0934 19.4063V18.2813C21.0934 18.1782 21.009 18.0938 20.9059 18.0938ZM8.75357 11.6813C8.73248 11.4774 8.72076 11.2712 8.72076 11.0626C8.72076 10.6899 8.75592 10.3266 8.82154 9.97272C8.83795 9.88834 8.79342 9.80162 8.71607 9.76647C8.39732 9.6235 8.10436 9.42662 7.85123 9.17819C7.55296 8.88899 7.31826 8.54078 7.16209 8.1558C7.00591 7.77082 6.93171 7.35751 6.9442 6.94225C6.96529 6.18991 7.26764 5.47506 7.79498 4.936C8.37389 4.34303 9.15201 4.01959 9.97935 4.02897C10.727 4.036 11.4489 4.32428 11.995 4.83522C12.1801 5.00866 12.3395 5.20084 12.4731 5.40709C12.52 5.47975 12.6114 5.51022 12.6911 5.48209C13.1036 5.33912 13.5395 5.23834 13.9872 5.19147C14.1184 5.17741 14.1934 5.03678 14.1348 4.91959C13.3731 3.41256 11.8169 2.37194 10.0169 2.34381C7.41998 2.30397 5.25436 4.43444 5.25436 7.03131C5.25436 8.50319 5.9317 9.81569 6.99342 10.6758C6.24811 11.0204 5.56139 11.4962 4.96607 12.0915C3.6817 13.3735 2.95514 15.0657 2.90826 16.8727C2.90764 16.8977 2.91202 16.9226 2.92117 16.9459C2.93031 16.9692 2.94402 16.9904 2.96149 17.0083C2.97897 17.0263 2.99985 17.0405 3.02291 17.0502C3.04597 17.0599 3.07074 17.0649 3.09576 17.0649H4.41061C4.51139 17.0649 4.59576 16.9852 4.59811 16.8844C4.64264 15.5251 5.19342 14.2524 6.16139 13.2868C6.85045 12.5977 7.6942 12.1196 8.61529 11.8876C8.70436 11.8618 8.76529 11.7751 8.75357 11.6813ZM19.3122 11.0626C19.3122 8.4985 17.252 6.41491 14.6973 6.37506C12.1004 6.33522 9.93717 8.46569 9.93717 11.0626C9.93717 12.5344 10.6169 13.8469 11.6762 14.7071C10.9232 15.0561 10.2377 15.5354 9.65123 16.1227C8.36686 17.4047 7.64029 19.0969 7.59342 20.9016C7.59279 20.9266 7.59718 20.9515 7.60632 20.9748C7.61546 20.9981 7.62918 21.0193 7.64665 21.0372C7.66412 21.0552 7.68501 21.0694 7.70807 21.0791C7.73112 21.0888 7.7559 21.0938 7.78092 21.0938H9.09342C9.1942 21.0938 9.27857 21.0141 9.28092 20.9133C9.32545 19.554 9.87623 18.2813 10.8442 17.3157C11.8544 16.3055 13.195 15.7501 14.6247 15.7501C17.2122 15.7501 19.3122 13.6524 19.3122 11.0626ZM16.7458 13.1837C16.1786 13.7508 15.4262 14.0626 14.6247 14.0626C13.8231 14.0626 13.0708 13.7508 12.5036 13.1837C12.2205 12.9021 11.9969 12.5666 11.8459 12.197C11.695 11.8274 11.6197 11.4313 11.6247 11.0321C11.6317 10.2633 11.9387 9.52037 12.4754 8.96959C13.0379 8.39303 13.7903 8.07194 14.5942 8.06256C15.3887 8.05553 16.1598 8.36491 16.727 8.92037C17.3083 9.48991 17.627 10.2516 17.627 11.0626C17.6247 11.8641 17.313 12.6165 16.7458 13.1837Z" fill="black"/>
</g>
</svg>
