<svg width="24" height="24" viewBox="0 0 24 24" fill="none" xmlns="http://www.w3.org/2000/svg">
<g id="icon/outlined/directional/vertical-right">
<path id="Vector" d="M7.64062 3.84345H6.14062C6.0375 3.84345 5.95312 3.92782 5.95312 4.03095V20.1559C5.95312 20.2591 6.0375 20.3434 6.14062 20.3434H7.64062C7.74375 20.3434 7.82812 20.2591 7.82812 20.1559V4.03095C7.82812 3.92782 7.74375 3.84345 7.64062 3.84345ZM18.0469 5.54032V3.84345C18.0469 3.68407 17.8617 3.59736 17.7398 3.70048L7.85156 11.9997L17.7398 20.2989C17.8617 20.402 18.0469 20.3153 18.0469 20.1559V18.4591C18.0469 18.2388 17.9484 18.0278 17.7797 17.8849L10.7672 11.9997L17.7797 6.11454C17.9484 5.97157 18.0469 5.76064 18.0469 5.54032Z" fill="black"/>
</g>
</svg>
