<svg width="24" height="24" viewBox="0 0 24 24" fill="none" xmlns="http://www.w3.org/2000/svg">
<g id="icon/outlined/directional/vertical-left">
<path id="Vector" d="M17.8594 3.84409H16.3594C16.2563 3.84409 16.1719 3.92847 16.1719 4.03159V20.1566C16.1719 20.2597 16.2563 20.3441 16.3594 20.3441H17.8594C17.9625 20.3441 18.0469 20.2597 18.0469 20.1566V4.03159C18.0469 3.92847 17.9625 3.84409 17.8594 3.84409ZM5.95313 3.84409V5.54097C5.95313 5.76362 6.05157 5.97222 6.22032 6.11518L13.2328 12.0003L6.22032 17.8855C6.05157 18.0285 5.95313 18.2371 5.95313 18.4597V20.1566C5.95313 20.316 6.13828 20.4027 6.26016 20.2996L16.1484 12.0003L6.26016 3.70112C6.23299 3.67802 6.19977 3.6632 6.16443 3.65842C6.12909 3.65364 6.09313 3.6591 6.0608 3.67415C6.02847 3.68921 6.00114 3.71322 5.98206 3.74334C5.96297 3.77346 5.95293 3.80843 5.95313 3.84409Z" fill="black"/>
</g>
</svg>
