<svg width="24" height="24" viewBox="0 0 24 24" fill="none" xmlns="http://www.w3.org/2000/svg">
<g id="icon/outlined/suggested/warning">
<path id="Vector" d="M10.8746 16.875C10.8746 17.1734 10.9931 17.4595 11.2041 17.6705C11.4151 17.8815 11.7012 18 11.9996 18C12.298 18 12.5841 17.8815 12.7951 17.6705C13.0061 17.4595 13.1246 17.1734 13.1246 16.875C13.1246 16.5766 13.0061 16.2905 12.7951 16.0795C12.5841 15.8685 12.298 15.75 11.9996 15.75C11.7012 15.75 11.4151 15.8685 11.2041 16.0795C10.9931 16.2905 10.8746 16.5766 10.8746 16.875ZM11.2496 9.75V14.0625C11.2496 14.1656 11.334 14.25 11.4371 14.25H12.5621C12.6652 14.25 12.7496 14.1656 12.7496 14.0625V9.75C12.7496 9.64687 12.6652 9.5625 12.5621 9.5625H11.4371C11.334 9.5625 11.2496 9.64687 11.2496 9.75ZM22.3988 20.0625L12.6488 3.1875C12.5035 2.93672 12.2527 2.8125 11.9996 2.8125C11.7465 2.8125 11.4934 2.93672 11.3504 3.1875L1.6004 20.0625C1.31212 20.5641 1.67305 21.1875 2.24962 21.1875H21.7496C22.3262 21.1875 22.6871 20.5641 22.3988 20.0625ZM4.03555 19.4086L11.9996 5.62266L19.9637 19.4086H4.03555Z" fill="black"/>
</g>
</svg>
