<svg width="24" height="24" viewBox="0 0 24 24" fill="none" xmlns="http://www.w3.org/2000/svg">
<g id="icon/outlined/brand-and-logos/wechat">
<path id="Vector" d="M16.1742 8.84561C16.3125 8.84561 16.4508 8.85029 16.5867 8.85732C16.0148 5.84092 12.8766 3.53467 9.08906 3.53467C4.89844 3.53467 1.5 6.36123 1.5 9.84873C1.5 11.7495 2.52187 13.4628 4.12266 14.6206C4.18868 14.6672 4.24253 14.729 4.27965 14.8008C4.31677 14.8726 4.33607 14.9523 4.33594 15.0331C4.33594 15.0894 4.32422 15.1409 4.31016 15.1948C4.18125 15.6706 3.97734 16.4323 3.96797 16.4675C3.95156 16.5284 3.92813 16.5894 3.92813 16.6526C3.92813 16.7909 4.04063 16.9058 4.18125 16.9058C4.23516 16.9058 4.27969 16.8847 4.32656 16.8589L5.98828 15.9003C6.1125 15.8276 6.24609 15.7831 6.39141 15.7831C6.46641 15.7831 6.54141 15.7948 6.61406 15.8159C7.38984 16.0386 8.22656 16.1628 9.09141 16.1628C9.23203 16.1628 9.37031 16.1604 9.50859 16.1534C9.34219 15.6612 9.25313 15.1433 9.25313 14.6065C9.25313 11.4237 12.3516 8.84561 16.1742 8.84561ZM11.6203 6.81826C12.1781 6.81826 12.6328 7.27061 12.6328 7.82842C12.6328 8.38623 12.1805 8.83857 11.6203 8.83857C11.0625 8.83857 10.6078 8.38623 10.6078 7.82842C10.6078 7.27061 11.0625 6.81826 11.6203 6.81826ZM6.56016 8.83857C6.00234 8.83857 5.54766 8.38623 5.54766 7.82842C5.54766 7.27061 6 6.81826 6.56016 6.81826C7.12031 6.81826 7.57266 7.27061 7.57266 7.82842C7.57266 8.38623 7.11797 8.83857 6.56016 8.83857ZM20.3133 18.5792C21.6469 17.6136 22.4977 16.1886 22.4977 14.6019C22.4977 11.6956 19.6664 9.34014 16.1719 9.34014C12.6797 9.34014 9.84609 11.6956 9.84609 14.6019C9.84609 17.5081 12.6773 19.8636 16.1719 19.8636C16.8938 19.8636 17.5922 19.7605 18.2367 19.5753C18.2977 19.5565 18.3586 19.5472 18.4219 19.5472C18.5438 19.5472 18.6539 19.5847 18.757 19.6433L20.1422 20.4401C20.182 20.4636 20.2195 20.48 20.2641 20.48C20.2918 20.4802 20.3194 20.4749 20.3451 20.4645C20.3709 20.454 20.3943 20.4386 20.4141 20.419C20.4336 20.3993 20.449 20.3759 20.4595 20.3501C20.47 20.3244 20.4752 20.2968 20.475 20.269C20.475 20.2175 20.4539 20.1659 20.4422 20.1144C20.4352 20.0862 20.2641 19.4511 20.1563 19.0526C20.1445 19.0081 20.1352 18.9636 20.1352 18.919C20.1375 18.7808 20.2078 18.6565 20.3133 18.5792ZM14.0672 13.7628C13.6008 13.7628 13.2234 13.3854 13.2234 12.9214C13.2234 12.4573 13.6008 12.08 14.0672 12.08C14.5336 12.08 14.9109 12.4573 14.9109 12.9214C14.9109 13.3854 14.5313 13.7628 14.0672 13.7628ZM18.2836 13.7628C17.8172 13.7628 17.4398 13.3854 17.4398 12.9214C17.4398 12.4573 17.8172 12.08 18.2836 12.08C18.75 12.08 19.1273 12.4573 19.1273 12.9214C19.1262 13.1446 19.0369 13.3583 18.8788 13.5159C18.7208 13.6736 18.5068 13.7623 18.2836 13.7628Z" fill="black"/>
</g>
</svg>
