<svg width="24" height="24" viewBox="0 0 24 24" fill="none" xmlns="http://www.w3.org/2000/svg">
<g id="icon/outlined/brand-and-logos/weibo">
<path id="Vector" d="M10.718 12.7267C9.12187 12.3119 7.31953 13.1064 6.62578 14.5126C5.92031 15.947 6.60234 17.5384 8.21484 18.0587C9.88359 18.5978 11.8523 17.7728 12.5367 16.2236C13.2094 14.7095 12.368 13.1533 10.718 12.7267ZM9.49922 16.3876C9.17578 16.9056 8.47969 17.1306 7.95703 16.8939C7.44141 16.6595 7.28906 16.0572 7.61484 15.5533C7.93594 15.0517 8.60625 14.8267 9.12422 15.0447C9.64922 15.2673 9.81797 15.865 9.49922 16.3876ZM10.5656 15.0165C10.4484 15.2181 10.1883 15.3142 9.98672 15.2298C9.7875 15.1478 9.72422 14.9228 9.83672 14.7259C9.95391 14.529 10.2023 14.4353 10.4016 14.5126C10.6055 14.5876 10.6781 14.815 10.5656 15.0165ZM18.4055 10.3947C18.757 10.5072 19.132 10.315 19.2469 9.96576C19.5234 9.10795 19.35 8.12826 18.7031 7.41107C18.396 7.07077 18.0048 6.81732 17.5687 6.6762C17.1326 6.53508 16.667 6.51127 16.2188 6.60716C16.133 6.6254 16.0517 6.66036 15.9794 6.71006C15.9072 6.75976 15.8455 6.82322 15.7978 6.8968C15.7501 6.97039 15.7174 7.05265 15.7016 7.13888C15.6857 7.22512 15.6871 7.31363 15.7055 7.39935C15.7238 7.48499 15.7588 7.56617 15.8086 7.63823C15.8584 7.7103 15.9219 7.77183 15.9955 7.8193C16.0691 7.86677 16.1513 7.89924 16.2375 7.91485C16.3237 7.93047 16.4121 7.92892 16.4977 7.91029C16.9289 7.81888 17.3953 7.95248 17.7141 8.3017C17.8646 8.468 17.9683 8.67119 18.0149 8.89061C18.0614 9.11002 18.049 9.33785 17.9789 9.55091C17.9513 9.63431 17.9404 9.72235 17.9469 9.80997C17.9534 9.89758 17.9772 9.98305 18.0168 10.0615C18.0564 10.1399 18.1112 10.2097 18.1779 10.2668C18.2446 10.324 18.3219 10.3675 18.4055 10.3947ZM20.7445 5.56654C19.4156 4.09232 17.4539 3.52982 15.6422 3.9142C15.5425 3.93528 15.4479 3.97588 15.3639 4.03366C15.2799 4.09144 15.2082 4.16527 15.1529 4.25088C15.0975 4.33649 15.0597 4.4322 15.0415 4.53249C15.0233 4.63279 15.0251 4.7357 15.0469 4.83529C15.0681 4.93502 15.1088 5.0296 15.1665 5.11361C15.2243 5.19763 15.2981 5.26944 15.3836 5.32494C15.4691 5.38044 15.5648 5.41854 15.665 5.43707C15.7653 5.45561 15.8682 5.4542 15.968 5.43295C17.257 5.15873 18.6492 5.55951 19.5961 6.60716C20.5406 7.65482 20.7961 9.08451 20.393 10.3361C20.2617 10.7439 20.4844 11.1798 20.8922 11.3134C21.3 11.4447 21.7359 11.222 21.8672 10.8165V10.8142C22.432 9.04701 22.0758 7.03841 20.7445 5.56654ZM17.0859 11.6954C16.8 11.6111 16.6055 11.5525 16.7555 11.1775C17.0789 10.3642 17.1117 9.66107 16.7625 9.16185C16.1063 8.22201 14.3063 8.27357 12.2438 9.13607C12.2438 9.13607 11.5969 9.41966 11.7609 8.90638C12.0773 7.88685 12.0305 7.03373 11.5359 6.5392C10.418 5.41888 7.44375 6.58138 4.89141 9.13138C2.98359 11.0415 1.875 13.0665 1.875 14.8173C1.875 18.1665 6.16875 20.2033 10.3711 20.2033C15.8789 20.2033 19.5422 17.004 19.5422 14.4611C19.5422 12.9259 18.2484 12.0564 17.0859 11.6954ZM10.3828 19.0033C7.03125 19.3337 4.13672 17.8197 3.91875 15.6165C3.70078 13.4158 6.24375 11.3626 9.59531 11.0322C12.9469 10.6994 15.8414 12.2158 16.0594 14.4165C16.275 16.6173 13.7344 18.6704 10.3828 19.0033Z" fill="black"/>
</g>
</svg>
