<svg width="24" height="24" viewBox="0 0 24 24" fill="none" xmlns="http://www.w3.org/2000/svg">
<g id="icon/outlined/application/wifi">
<path id="Vector" d="M16.9449 14.543C15.6277 13.3969 13.9074 12.7031 12.023 12.7031C10.1386 12.7031 8.41831 13.3969 7.09878 14.5453C7.06234 14.5782 7.04003 14.6238 7.03654 14.6728C7.03304 14.7217 7.04863 14.7701 7.08003 14.8078L7.92378 15.8133C7.99174 15.893 8.11128 15.9023 8.19096 15.8344C9.21284 14.9344 10.5535 14.3906 12.023 14.3906C13.4925 14.3906 14.8332 14.9344 15.855 15.832C15.9347 15.9 16.0542 15.8906 16.1222 15.8109L16.966 14.8055C17.0316 14.7281 17.0222 14.6109 16.9449 14.543ZM19.6964 11.2594C17.6175 9.52734 14.9433 8.48438 12.023 8.48438C9.10268 8.48438 6.42846 9.52734 4.34721 11.2594C4.30914 11.2915 4.28531 11.3374 4.28092 11.387C4.27653 11.4366 4.29193 11.4859 4.32378 11.5242L5.16753 12.5297C5.23315 12.6094 5.35268 12.6187 5.43003 12.5531C7.21831 11.0672 9.51753 10.1719 12.023 10.1719C14.5285 10.1719 16.8277 11.0672 18.6136 12.5531C18.6933 12.6187 18.8105 12.6094 18.8761 12.5297L19.7199 11.5242C19.7855 11.4445 19.7761 11.325 19.6964 11.2594ZM22.4316 8.00156C19.5863 5.66719 15.9441 4.26562 11.9761 4.26562C8.03393 4.26562 4.41518 5.64844 1.5769 7.95469C1.5574 7.97035 1.54123 7.98976 1.52935 8.01177C1.51747 8.03378 1.51011 8.05795 1.5077 8.08285C1.5053 8.10775 1.5079 8.13287 1.51536 8.15675C1.52282 8.18063 1.53498 8.20277 1.55112 8.22187L2.39487 9.22734C2.46049 9.30469 2.57768 9.31641 2.65503 9.25312C5.20268 7.18828 8.44409 5.95312 11.9761 5.95312C15.5339 5.95312 18.7964 7.20703 21.3511 9.29766C21.4308 9.36328 21.548 9.35156 21.6136 9.27188L22.4574 8.26641C22.5253 8.18672 22.5136 8.06719 22.4316 8.00156ZM10.4996 18.2344C10.4996 18.6322 10.6576 19.0137 10.9389 19.295C11.2202 19.5763 11.6017 19.7344 11.9996 19.7344C12.3974 19.7344 12.7789 19.5763 13.0602 19.295C13.3415 19.0137 13.4996 18.6322 13.4996 18.2344C13.4996 17.8366 13.3415 17.455 13.0602 17.1737C12.7789 16.8924 12.3974 16.7344 11.9996 16.7344C11.6017 16.7344 11.2202 16.8924 10.9389 17.1737C10.6576 17.455 10.4996 17.8366 10.4996 18.2344Z" fill="black"/>
</g>
</svg>
