<svg width="24" height="24" viewBox="0 0 24 24" fill="none" xmlns="http://www.w3.org/2000/svg">
<g id="icon/outlined/brand-and-logos/youtube">
<path id="Vector" d="M22.5 11.9342C22.5 11.8827 22.5 11.8241 22.4977 11.7561C22.4953 11.5663 22.4906 11.353 22.4859 11.1256C22.4672 10.4717 22.4344 9.82017 22.3828 9.2061C22.3125 8.36001 22.2094 7.65454 22.0687 7.12485C21.9204 6.57208 21.6295 6.06794 21.2252 5.66281C20.8209 5.25769 20.3173 4.96578 19.7648 4.81626C19.1016 4.63813 17.8031 4.52798 15.975 4.46001C15.1055 4.4272 14.175 4.4061 13.2445 4.39438C12.9187 4.3897 12.6164 4.38735 12.3445 4.38501H11.6555C11.3836 4.38735 11.0813 4.3897 10.7555 4.39438C9.825 4.4061 8.89453 4.4272 8.025 4.46001C6.19687 4.53032 4.89609 4.64048 4.23516 4.81626C3.6825 4.96541 3.17876 5.2572 2.7744 5.66238C2.37004 6.06756 2.07928 6.5719 1.93125 7.12485C1.78828 7.65454 1.6875 8.36001 1.61719 9.2061C1.56562 9.82017 1.53281 10.4717 1.51406 11.1256C1.50703 11.353 1.50469 11.5663 1.50234 11.7561C1.50234 11.8241 1.5 11.8827 1.5 11.9342V12.0655C1.5 12.117 1.5 12.1756 1.50234 12.2436C1.50469 12.4334 1.50937 12.6467 1.51406 12.8741C1.53281 13.528 1.56562 14.1795 1.61719 14.7936C1.6875 15.6397 1.79063 16.3452 1.93125 16.8749C2.23125 17.9975 3.1125 18.8834 4.23516 19.1834C4.89609 19.3616 6.19687 19.4717 8.025 19.5397C8.89453 19.5725 9.825 19.5936 10.7555 19.6053C11.0813 19.61 11.3836 19.6124 11.6555 19.6147H12.3445C12.6164 19.6124 12.9187 19.61 13.2445 19.6053C14.175 19.5936 15.1055 19.5725 15.975 19.5397C17.8031 19.4694 19.1039 19.3592 19.7648 19.1834C20.8875 18.8834 21.7687 17.9999 22.0687 16.8749C22.2117 16.3452 22.3125 15.6397 22.3828 14.7936C22.4344 14.1795 22.4672 13.528 22.4859 12.8741C22.493 12.6467 22.4953 12.4334 22.4977 12.2436C22.4977 12.1756 22.5 12.117 22.5 12.0655V11.9342ZM20.8125 12.0561C20.8125 12.1053 20.8125 12.1592 20.8102 12.2225C20.8078 12.4053 20.8031 12.6069 20.7984 12.8249C20.782 13.4483 20.7492 14.0717 20.7 14.6506C20.6367 15.4053 20.5477 16.0241 20.4375 16.4389C20.2922 16.9803 19.8656 17.4092 19.3266 17.5522C18.8344 17.6834 17.5945 17.7889 15.9094 17.8522C15.0562 17.885 14.1375 17.9061 13.2211 17.9178C12.9 17.9225 12.6023 17.9249 12.3352 17.9249H11.6648L10.7789 17.9178C9.8625 17.9061 8.94609 17.885 8.09063 17.8522C6.40547 17.7866 5.16328 17.6834 4.67344 17.5522C4.13437 17.4069 3.70781 16.9803 3.5625 16.4389C3.45234 16.0241 3.36328 15.4053 3.3 14.6506C3.25078 14.0717 3.22031 13.4483 3.20156 12.8249C3.19453 12.6069 3.19219 12.403 3.18984 12.2225C3.18984 12.1592 3.1875 12.103 3.1875 12.0561V11.9436C3.1875 11.8944 3.1875 11.8405 3.18984 11.7772C3.19219 11.5944 3.19688 11.3928 3.20156 11.1749C3.21797 10.5514 3.25078 9.92798 3.3 9.34907C3.36328 8.59438 3.45234 7.97563 3.5625 7.56079C3.70781 7.01938 4.13437 6.59048 4.67344 6.44751C5.16562 6.31626 6.40547 6.21079 8.09063 6.14751C8.94375 6.1147 9.8625 6.0936 10.7789 6.08188C11.1 6.0772 11.3977 6.07485 11.6648 6.07485H12.3352L13.2211 6.08188C14.1375 6.0936 15.0539 6.1147 15.9094 6.14751C17.5945 6.21313 18.8367 6.31626 19.3266 6.44751C19.8656 6.59282 20.2922 7.01938 20.4375 7.56079C20.5477 7.97563 20.6367 8.59438 20.7 9.34907C20.7492 9.92798 20.7797 10.5514 20.7984 11.1749C20.8055 11.3928 20.8078 11.5967 20.8102 11.7772C20.8102 11.8405 20.8125 11.8967 20.8125 11.9436V12.0561ZM9.91406 15.1405L15.3516 11.9764L9.91406 8.85923V15.1405Z" fill="black"/>
</g>
</svg>
