<svg width="24" height="24" viewBox="0 0 24 24" fill="none" xmlns="http://www.w3.org/2000/svg">
<g id="icon/outlined/brand-and-logos/yuque">
<path id="Vector" d="M20.0297 8.68582C19.7977 7.76238 20.2617 6.2905 21.75 5.77019L20.1586 5.68582C20.1586 5.68582 19.5562 3.57644 16.793 3.38894C14.032 3.1991 12.225 3.31863 12.2227 3.31863C12.225 3.31863 14.2711 4.62175 13.4508 6.94441C12.8508 8.17488 11.9086 9.18503 10.9008 10.3358C10.8703 10.3663 10.8422 10.3968 10.8188 10.4225C7.48594 14.1796 2.25 20.1561 2.25 20.1561C8.01328 21.6655 11.8758 20.0085 14.1609 18.021C14.6414 18.0163 15.0023 18.0139 15.2461 18.0139C18.4289 18.0139 21.1195 15.2577 21.0094 12.1921C20.9344 10.085 20.2617 9.60925 20.0297 8.68582ZM15.2461 16.5139C14.9977 16.5139 14.632 16.5163 14.1492 16.521L13.5961 16.5257L13.1789 16.8889C12.075 17.8499 10.732 18.5647 9.16172 18.9421C7.93125 19.2374 6.58359 19.3218 5.11406 19.1671C5.53594 18.6866 5.96953 18.1921 6.4125 17.6882C8.56875 15.2366 10.4859 13.0593 11.9648 11.3952L11.9977 11.3624L12.0281 11.3272C12.1242 11.2194 12.5109 10.7811 12.607 10.6686C12.8344 10.4085 13.0125 10.2022 13.1813 9.99832C13.9008 9.13816 14.4047 8.40925 14.7984 7.603L14.8359 7.52566L14.8641 7.44597C15.1852 6.5366 15.225 5.64363 15.0094 4.80222C15.5367 4.81863 16.0992 4.84675 16.6898 4.8866C17.4703 4.9405 17.9906 5.18894 18.3563 5.57097C18.4922 5.7116 18.5953 5.86394 18.6703 6.00925C18.6937 6.05613 18.7102 6.09363 18.7242 6.12644L18.8414 6.54129C18.4734 7.34988 18.375 8.25925 18.5742 9.05378C18.6445 9.33035 18.7359 9.57878 18.8625 9.86003C18.9117 9.97019 19.0852 10.3311 19.1203 10.4061C19.3617 10.9382 19.4813 11.4139 19.5117 12.2507C19.5891 14.4678 17.5734 16.5139 15.2461 16.5139Z" fill="black"/>
</g>
</svg>
