<svg width="24" height="24" viewBox="0 0 24 24" fill="none" xmlns="http://www.w3.org/2000/svg">
<g id="icon/outlined/brand-and-logos/zhihu">
<path id="Vector" d="M13.2349 5.39282V18.8202H14.6411L15.2318 20.4936L17.7255 18.8202H20.8075V5.39282H13.2349ZM19.0403 17.0413H17.6364L15.8763 18.2225L15.4591 17.0413H15.0372V7.22563H19.038V17.0413H19.0403ZM12.3302 11.4116H9.21769C9.26691 10.3592 9.31847 8.96704 9.37238 7.35922H12.4403L12.438 7.16938C12.438 7.15532 12.4333 6.82485 12.3841 6.48735C12.3349 6.13579 12.2294 5.66938 11.8919 5.66938H6.74503C6.84816 5.18657 7.113 4.03579 7.4341 3.47094L7.5841 3.20844L7.28175 3.19204C7.263 3.19204 6.82238 3.17094 6.31144 3.44047C5.47472 3.88579 5.09972 4.76235 4.93566 5.4186C4.50441 7.13188 3.89034 8.3225 3.63019 8.8311C3.55284 8.9811 3.50597 9.07016 3.48488 9.1311C3.44269 9.24594 3.46613 9.36079 3.5505 9.43579C3.79659 9.65844 4.44581 9.36782 4.45284 9.36547C4.46691 9.35844 4.48331 9.35141 4.50441 9.34204C4.83019 9.19438 5.79581 8.7561 6.14034 7.36157H7.46925C7.48566 8.11626 7.54191 10.6053 7.53722 11.4139H4.23253L4.18331 11.4491C3.64191 11.8452 3.46847 12.9303 3.46144 12.9772L3.42863 13.1928H7.34269C7.05441 15.028 6.72159 15.8506 6.54581 16.1788C6.45909 16.3428 6.37472 16.5069 6.29503 16.6663C5.79581 17.6553 5.27784 18.6772 3.33488 20.2663C3.2505 20.3319 3.17081 20.4538 3.22238 20.5873C3.27863 20.735 3.44034 20.8006 3.79894 20.8006C3.9255 20.8006 4.0755 20.7936 4.25363 20.7772C5.42316 20.6741 6.61613 20.3553 7.42003 18.7241C7.81847 17.9014 8.163 17.0436 8.44894 16.1717L11.6482 19.9217L11.7653 19.6405C11.7841 19.5959 12.2107 18.5553 11.8849 17.3928L11.8732 17.3506L9.33956 14.4678L8.82394 14.8569C8.97394 14.2452 9.07238 13.6873 9.11691 13.1905H12.8364V13.003C12.8364 12.0631 12.4028 11.5053 12.3864 11.4819L12.3302 11.4116Z" fill="black"/>
</g>
</svg>
