<svg width="24" height="24" viewBox="0 0 24 24" fill="none" xmlns="http://www.w3.org/2000/svg">
<g id="icon/outlined/editor/zoom-out">
<path id="Vector" d="M14.9295 10.3831H7.61699C7.51387 10.3831 7.42949 10.4675 7.42949 10.5706V11.9769C7.42949 12.08 7.51387 12.1644 7.61699 12.1644H14.9295C15.0326 12.1644 15.117 12.08 15.117 11.9769V10.5706C15.117 10.4675 15.0326 10.3831 14.9295 10.3831ZM21.5857 20.3206L18.1639 16.8987C21.0256 13.4089 20.8264 8.23857 17.5545 4.96904C14.0857 1.49795 8.45137 1.49795 4.96855 4.96904C1.49746 8.45186 1.49746 14.0862 4.96855 17.555C8.23809 20.8269 13.4084 21.0261 16.8982 18.1644L20.3201 21.5862C20.3951 21.6519 20.5146 21.6519 20.5779 21.5862L21.5857 20.5784C21.6514 20.5151 21.6514 20.3956 21.5857 20.3206ZM16.3123 16.3128C13.5279 19.0948 9.01856 19.0948 6.23418 16.3128C3.45215 13.5284 3.45215 9.01904 6.23418 6.23467C9.01856 3.45264 13.5279 3.45264 16.3123 6.23467C19.0943 9.01904 19.0943 13.5284 16.3123 16.3128Z" fill="black"/>
</g>
</svg>
